<?xml version="1.0" encoding="UTF-8" standalone="no"?>
<!DOCTYPE svg PUBLIC "-//W3C//DTD SVG 1.1//EN" "http://www.w3.org/Graphics/SVG/1.1/DTD/svg11.dtd">
<svg xmlns="http://www.w3.org/2000/svg" xmlns:xlink="http://www.w3.org/1999/xlink" width="716pt" height="332pt" viewBox="0.00 0.00 715.89 332.00">
  <g id="graph0" class="graph" transform="scale(1 1) rotate(0) translate(4 328)">
    <title>G</title>
    <polygon fill="white" stroke="transparent" points="-4,4 -4,-328 711.89,-328 711.89,4 -4,4"/>
    <g id="node1" class="node">
      <title>:feature:aboutme</title>
      <ellipse fill="none" stroke="black" cx="395.99" cy="-306" rx="90.98" ry="18"/>
      <text text-anchor="middle" x="395.99" y="-302.3" font-family="Times,serif" font-size="14.00">:feature:aboutme</text>
    </g>
    <g id="node2" class="node">
      <title>:core:ui</title>
      <ellipse fill="none" stroke="black" cx="251.99" cy="-234" rx="45.49" ry="18"/>
      <text text-anchor="middle" x="251.99" y="-230.3" font-family="Times,serif" font-size="14.00">:core:ui</text>
    </g>
    <g id="edge1" class="edge">
      <title>:feature:aboutme-&gt;:core:ui</title>
      <path fill="none" stroke="red" stroke-width="2" d="M363.32,-289.12C341.15,-278.34 311.8,-264.07 288.8,-252.89"/>
      <polygon fill="red" stroke="red" stroke-width="2" points="290.22,-249.69 279.69,-248.47 287.16,-255.99 290.22,-249.69"/>
    </g>
    <g id="node3" class="node">
      <title>:core:designsystem</title>
      <ellipse fill="none" stroke="black" cx="258.99" cy="-90" rx="100.98" ry="18"/>
      <text text-anchor="middle" x="258.99" y="-86.3" font-family="Times,serif" font-size="14.00">:core:designsystem</text>
    </g>
    <g id="edge2" class="edge">
      <title>:feature:aboutme-&gt;:core:designsystem</title>
      <path fill="none" stroke="black" d="M391.4,-287.79C381.4,-251.22 357.11,-167.19 338.99,-144 329.07,-131.29 315.21,-120.61 301.81,-112.25"/>
      <polygon fill="black" stroke="black" points="303.51,-109.19 293.12,-107.09 299.94,-115.21 303.51,-109.19"/>
    </g>
    <g id="node4" class="node">
      <title>:core:common</title>
      <ellipse fill="none" stroke="black" cx="395.99" cy="-18" rx="75.29" ry="18"/>
      <text text-anchor="middle" x="395.99" y="-14.3" font-family="Times,serif" font-size="14.00">:core:common</text>
    </g>
    <g id="edge3" class="edge">
      <title>:feature:aboutme-&gt;:core:common</title>
      <path fill="none" stroke="black" d="M395.99,-287.97C395.99,-240.29 395.99,-105.18 395.99,-46.63"/>
      <polygon fill="black" stroke="black" points="399.49,-46.31 395.99,-36.31 392.49,-46.31 399.49,-46.31"/>
    </g>
    <g id="node5" class="node">
      <title>:core:config</title>
      <ellipse fill="none" stroke="black" cx="487.99" cy="-234" rx="64.19" ry="18"/>
      <text text-anchor="middle" x="487.99" y="-230.3" font-family="Times,serif" font-size="14.00">:core:config</text>
    </g>
    <g id="edge4" class="edge">
      <title>:feature:aboutme-&gt;:core:config</title>
      <path fill="none" stroke="black" d="M417.8,-288.41C429.91,-279.19 445.16,-267.59 458.35,-257.55"/>
      <polygon fill="black" stroke="black" points="460.83,-260.07 466.66,-251.23 456.59,-254.5 460.83,-260.07"/>
    </g>
    <g id="node6" class="node">
      <title>:core:shapes</title>
      <ellipse fill="none" stroke="black" cx="638.99" cy="-234" rx="68.79" ry="18"/>
      <text text-anchor="middle" x="638.99" y="-230.3" font-family="Times,serif" font-size="14.00">:core:shapes</text>
    </g>
    <g id="edge5" class="edge">
      <title>:feature:aboutme-&gt;:core:shapes</title>
      <path fill="none" stroke="black" d="M445.17,-290.83C485.61,-279.18 542.86,-262.69 584.66,-250.65"/>
      <polygon fill="black" stroke="black" points="585.75,-253.98 594.39,-247.85 583.81,-247.25 585.75,-253.98"/>
    </g>
    <g id="node7" class="node">
      <title>:core:analytics</title>
      <ellipse fill="none" stroke="black" cx="77.99" cy="-162" rx="77.99" ry="18"/>
      <text text-anchor="middle" x="77.99" y="-158.3" font-family="Times,serif" font-size="14.00">:core:analytics</text>
    </g>
    <g id="edge6" class="edge">
      <title>:core:ui-&gt;:core:analytics</title>
      <path fill="none" stroke="black" d="M221.29,-220.65C194.52,-209.88 155.31,-194.1 124.66,-181.77"/>
      <polygon fill="black" stroke="black" points="125.62,-178.39 115.04,-177.9 123.01,-184.88 125.62,-178.39"/>
    </g>
    <g id="node8" class="node">
      <title>:core:feedback</title>
      <ellipse fill="none" stroke="black" cx="251.99" cy="-162" rx="77.99" ry="18"/>
      <text text-anchor="middle" x="251.99" y="-158.3" font-family="Times,serif" font-size="14.00">:core:feedback</text>
    </g>
    <g id="edge7" class="edge">
      <title>:core:ui-&gt;:core:feedback</title>
      <path fill="none" stroke="red" stroke-width="2" d="M251.99,-215.7C251.99,-207.98 251.99,-198.71 251.99,-190.11"/>
      <polygon fill="red" stroke="red" stroke-width="2" points="255.49,-190.1 251.99,-180.1 248.49,-190.1 255.49,-190.1"/>
    </g>
    <g id="edge10" class="edge">
      <title>:core:designsystem-&gt;:core:common</title>
      <path fill="none" stroke="black" d="M290.77,-72.76C310.32,-62.77 335.55,-49.88 356.4,-39.23"/>
      <polygon fill="black" stroke="black" points="358.02,-42.33 365.33,-34.67 354.84,-36.1 358.02,-42.33"/>
    </g>
    <g id="node9" class="node">
      <title>:core:accessibility</title>
      <ellipse fill="none" stroke="black" cx="208.99" cy="-18" rx="93.68" ry="18"/>
      <text text-anchor="middle" x="208.99" y="-14.3" font-family="Times,serif" font-size="14.00">:core:accessibility</text>
    </g>
    <g id="edge9" class="edge">
      <title>:core:designsystem-&gt;:core:accessibility</title>
      <path fill="none" stroke="red" stroke-width="2" d="M246.89,-72.05C241.02,-63.84 233.84,-53.79 227.32,-44.66"/>
      <polygon fill="red" stroke="red" stroke-width="2" points="229.99,-42.38 221.33,-36.28 224.3,-46.45 229.99,-42.38"/>
    </g>
    <g id="edge8" class="edge">
      <title>:core:feedback-&gt;:core:designsystem</title>
      <path fill="none" stroke="red" stroke-width="2" d="M253.72,-143.7C254.49,-135.98 255.42,-126.71 256.28,-118.11"/>
      <polygon fill="red" stroke="red" stroke-width="2" points="259.77,-118.4 257.28,-108.1 252.8,-117.71 259.77,-118.4"/>
    </g>
  </g>
</svg>
