<?xml version="1.0" encoding="UTF-8" standalone="no"?>
<!DOCTYPE svg PUBLIC "-//W3C//DTD SVG 1.1//EN" "http://www.w3.org/Graphics/SVG/1.1/DTD/svg11.dtd">
<svg xmlns="http://www.w3.org/2000/svg" xmlns:xlink="http://www.w3.org/1999/xlink" width="932pt" height="404pt" viewBox="0.00 0.00 931.70 404.00">
  <g id="graph0" class="graph" transform="scale(1 1) rotate(0) translate(4 400)">
    <title>G</title>
    <polygon fill="white" stroke="transparent" points="-4,4 -4,-400 927.7,-400 927.7,4 -4,4"/>
    <g id="node1" class="node">
      <title>:app</title>
      <ellipse fill="none" stroke="black" cx="416.7" cy="-378" rx="30.59" ry="18"/>
      <text text-anchor="middle" x="416.7" y="-374.3" font-family="Times,serif" font-size="14.00">:app</text>
    </g>
    <g id="node2" class="node">
      <title>:feature:settings</title>
      <ellipse fill="none" stroke="black" cx="358.7" cy="-306" rx="87.99" ry="18"/>
      <text text-anchor="middle" x="358.7" y="-302.3" font-family="Times,serif" font-size="14.00">:feature:settings</text>
    </g>
    <g id="edge1" class="edge">
      <title>:app-&gt;:feature:settings</title>
      <path fill="none" stroke="red" stroke-width="2" d="M403.83,-361.46C396.64,-352.78 387.5,-341.75 379.33,-331.89"/>
      <polygon fill="red" stroke="red" stroke-width="2" points="381.83,-329.43 372.76,-323.96 376.44,-333.9 381.83,-329.43"/>
    </g>
    <g id="node3" class="node">
      <title>:feature:aboutme</title>
      <ellipse fill="none" stroke="black" cx="641.7" cy="-306" rx="90.98" ry="18"/>
      <text text-anchor="middle" x="641.7" y="-302.3" font-family="Times,serif" font-size="14.00">:feature:aboutme</text>
    </g>
    <g id="edge2" class="edge">
      <title>:app-&gt;:feature:aboutme</title>
      <path fill="none" stroke="black" d="M443.4,-368.7C478.21,-357.86 540.01,-338.64 585.39,-324.52"/>
      <polygon fill="black" stroke="black" points="586.59,-327.81 595.1,-321.5 584.51,-321.13 586.59,-327.81"/>
    </g>
    <g id="node4" class="node">
      <title>:core:common</title>
      <ellipse fill="none" stroke="black" cx="448.7" cy="-18" rx="75.29" ry="18"/>
      <text text-anchor="middle" x="448.7" y="-14.3" font-family="Times,serif" font-size="14.00">:core:common</text>
    </g>
    <g id="edge3" class="edge">
      <title>:app-&gt;:core:common</title>
      <path fill="none" stroke="black" d="M386.93,-373.35C292,-360.91 2.7,-316.3 2.7,-235 2.7,-235 2.7,-235 2.7,-161 2.7,-120.55 -8.11,-99.33 21.7,-72 70.03,-27.7 252.81,-19.23 362.96,-18.29"/>
      <polygon fill="black" stroke="black" points="363.08,-21.79 373.06,-18.22 363.04,-14.79 363.08,-21.79"/>
    </g>
    <g id="node5" class="node">
      <title>:core:ui</title>
      <ellipse fill="none" stroke="black" cx="433.7" cy="-234" rx="45.49" ry="18"/>
      <text text-anchor="middle" x="433.7" y="-230.3" font-family="Times,serif" font-size="14.00">:core:ui</text>
    </g>
    <g id="edge4" class="edge">
      <title>:app-&gt;:core:ui</title>
      <path fill="none" stroke="black" d="M431.58,-362.27C440.47,-352.38 450.93,-338.54 455.7,-324 462.57,-303.07 455.59,-278.77 447.72,-260.85"/>
      <polygon fill="black" stroke="black" points="450.79,-259.15 443.34,-251.61 444.46,-262.15 450.79,-259.15"/>
    </g>
    <g id="node6" class="node">
      <title>:core:designsystem</title>
      <ellipse fill="none" stroke="black" cx="623.7" cy="-90" rx="100.98" ry="18"/>
      <text text-anchor="middle" x="623.7" y="-86.3" font-family="Times,serif" font-size="14.00">:core:designsystem</text>
    </g>
    <g id="edge5" class="edge">
      <title>:app-&gt;:core:designsystem</title>
      <path fill="none" stroke="black" d="M447.35,-377.25C506.85,-376.63 640.99,-369.76 741.7,-324 787.4,-303.24 807.34,-297.42 828.7,-252 861.91,-181.41 757.43,-132.88 685.65,-108.71"/>
      <polygon fill="black" stroke="black" points="686.34,-105.26 675.75,-105.46 684.16,-111.91 686.34,-105.26"/>
    </g>
    <g id="node7" class="node">
      <title>:core:data</title>
      <ellipse fill="none" stroke="black" cx="237.7" cy="-234" rx="57.39" ry="18"/>
      <text text-anchor="middle" x="237.7" y="-230.3" font-family="Times,serif" font-size="14.00">:core:data</text>
    </g>
    <g id="edge6" class="edge">
      <title>:app-&gt;:core:data</title>
      <path fill="none" stroke="black" d="M386.55,-374.95C351.58,-370.95 294.55,-359.09 261.7,-324 246.11,-307.34 240.44,-281.63 238.48,-262.11"/>
      <polygon fill="black" stroke="black" points="241.96,-261.72 237.73,-252.01 234.98,-262.24 241.96,-261.72"/>
    </g>
    <g id="node8" class="node">
      <title>:core:model</title>
      <ellipse fill="none" stroke="black" cx="95.7" cy="-90" rx="64.99" ry="18"/>
      <text text-anchor="middle" x="95.7" y="-86.3" font-family="Times,serif" font-size="14.00">:core:model</text>
    </g>
    <g id="edge7" class="edge">
      <title>:app-&gt;:core:model</title>
      <path fill="none" stroke="black" d="M387.54,-372.15C351.06,-365.25 287.48,-350.4 238.7,-324 151.62,-276.87 110.34,-269.84 68.7,-180 59.22,-159.54 68.12,-134.92 78.17,-116.76"/>
      <polygon fill="black" stroke="black" points="81.33,-118.3 83.43,-107.91 75.31,-114.72 81.33,-118.3"/>
    </g>
    <g id="node9" class="node">
      <title>:core:analytics</title>
      <ellipse fill="none" stroke="black" cx="335.7" cy="-162" rx="77.99" ry="18"/>
      <text text-anchor="middle" x="335.7" y="-158.3" font-family="Times,serif" font-size="14.00">:core:analytics</text>
    </g>
    <g id="edge8" class="edge">
      <title>:app-&gt;:core:analytics</title>
      <path fill="none" stroke="black" d="M386.96,-373.79C329.46,-365.68 205.7,-338.43 171.7,-252 165.85,-237.11 162.29,-228.94 171.7,-216 183.55,-199.72 228.28,-185.91 268.03,-176.47"/>
      <polygon fill="black" stroke="black" points="269.05,-179.83 278.01,-174.16 267.47,-173 269.05,-179.83"/>
    </g>
    <g id="node10" class="node">
      <title>:core:config</title>
      <ellipse fill="none" stroke="black" cx="561.7" cy="-234" rx="64.19" ry="18"/>
      <text text-anchor="middle" x="561.7" y="-230.3" font-family="Times,serif" font-size="14.00">:core:config</text>
    </g>
    <g id="edge9" class="edge">
      <title>:app-&gt;:core:config</title>
      <path fill="none" stroke="black" d="M431.95,-362.07C457.15,-337.39 507.7,-287.89 537.73,-258.48"/>
      <polygon fill="black" stroke="black" points="540.19,-260.96 544.89,-251.47 535.3,-255.96 540.19,-260.96"/>
    </g>
    <g id="node11" class="node">
      <title>:core:accessibility</title>
      <ellipse fill="none" stroke="black" cx="639.7" cy="-18" rx="93.68" ry="18"/>
      <text text-anchor="middle" x="639.7" y="-14.3" font-family="Times,serif" font-size="14.00">:core:accessibility</text>
    </g>
    <g id="edge10" class="edge">
      <title>:app-&gt;:core:accessibility</title>
      <path fill="none" stroke="black" d="M446.9,-375.13C556.05,-367.55 923.7,-334.63 923.7,-235 923.7,-235 923.7,-235 923.7,-161 923.7,-74.39 816.73,-40.6 734.09,-27.43"/>
      <polygon fill="black" stroke="black" points="734.56,-23.96 724.14,-25.92 733.51,-30.88 734.56,-23.96"/>
    </g>
    <g id="edge11" class="edge">
      <title>:feature:settings-&gt;:core:ui</title>
      <path fill="none" stroke="red" stroke-width="2" d="M376.86,-288.05C386.63,-278.94 398.81,-267.57 409.38,-257.7"/>
      <polygon fill="red" stroke="red" stroke-width="2" points="411.82,-260.21 416.74,-250.83 407.04,-255.09 411.82,-260.21"/>
    </g>
    <g id="edge12" class="edge">
      <title>:feature:settings-&gt;:core:designsystem</title>
      <path fill="none" stroke="black" d="M357.55,-287.86C357.2,-267.63 359.99,-234.43 379.7,-216 451.12,-149.24 523.23,-244.49 596.7,-180 614.19,-164.65 620.55,-138.38 622.76,-118.35"/>
      <polygon fill="black" stroke="black" points="626.26,-118.51 623.59,-108.25 619.28,-117.93 626.26,-118.51"/>
    </g>
    <g id="edge13" class="edge">
      <title>:feature:settings-&gt;:core:data</title>
      <path fill="none" stroke="black" d="M330.64,-288.76C313.36,-278.77 291.07,-265.87 272.65,-255.22"/>
      <polygon fill="black" stroke="black" points="274.37,-252.17 263.96,-250.19 270.86,-258.23 274.37,-252.17"/>
    </g>
    <g id="edge15" class="edge">
      <title>:feature:settings-&gt;:core:config</title>
      <path fill="none" stroke="black" d="M401.75,-290.15C434.38,-278.9 479.23,-263.44 513.13,-251.75"/>
      <polygon fill="black" stroke="black" points="514.52,-254.97 522.83,-248.4 512.24,-248.35 514.52,-254.97"/>
    </g>
    <g id="node12" class="node">
      <title>:core:feedback</title>
      <ellipse fill="none" stroke="black" cx="509.7" cy="-162" rx="77.99" ry="18"/>
      <text text-anchor="middle" x="509.7" y="-158.3" font-family="Times,serif" font-size="14.00">:core:feedback</text>
    </g>
    <g id="edge14" class="edge">
      <title>:feature:settings-&gt;:core:feedback</title>
      <path fill="none" stroke="black" d="M349.81,-287.85C341.17,-268.52 331.4,-237.07 346.7,-216 358.47,-199.8 402.92,-185.98 442.44,-176.52"/>
      <polygon fill="black" stroke="black" points="443.41,-179.89 452.35,-174.21 441.82,-173.07 443.41,-179.89"/>
    </g>
    <g id="edge28" class="edge">
      <title>:feature:aboutme-&gt;:core:common</title>
      <path fill="none" stroke="black" d="M710.83,-294.29C757.91,-285.43 814.2,-271.18 828.7,-252 838.35,-239.24 833.3,-231.32 828.7,-216 806.66,-142.56 797.66,-114.29 733.7,-72 659.46,-22.91 624.18,-52.44 536.7,-36 529.66,-34.68 522.3,-33.28 514.97,-31.88"/>
      <polygon fill="black" stroke="black" points="515.5,-28.41 505.02,-29.97 514.18,-35.29 515.5,-28.41"/>
    </g>
    <g id="edge26" class="edge">
      <title>:feature:aboutme-&gt;:core:ui</title>
      <path fill="none" stroke="black" d="M597.59,-290.15C561.95,-278.16 512.07,-261.37 476.72,-249.48"/>
      <polygon fill="black" stroke="black" points="477.75,-246.13 467.16,-246.26 475.52,-252.77 477.75,-246.13"/>
    </g>
    <g id="edge27" class="edge">
      <title>:feature:aboutme-&gt;:core:designsystem</title>
      <path fill="none" stroke="black" d="M640.63,-287.59C638.75,-258.04 634.6,-196.18 629.7,-144 628.91,-135.57 627.92,-126.41 626.97,-118.1"/>
      <polygon fill="black" stroke="black" points="630.45,-117.7 625.82,-108.17 623.5,-118.51 630.45,-117.7"/>
    </g>
    <g id="edge29" class="edge">
      <title>:feature:aboutme-&gt;:core:config</title>
      <path fill="none" stroke="black" d="M622.34,-288.05C612.07,-279.07 599.3,-267.9 588.13,-258.12"/>
      <polygon fill="black" stroke="black" points="590.17,-255.26 580.34,-251.31 585.56,-260.53 590.17,-255.26"/>
    </g>
    <g id="node15" class="node">
      <title>:core:shapes</title>
      <ellipse fill="none" stroke="black" cx="750.7" cy="-234" rx="68.79" ry="18"/>
      <text text-anchor="middle" x="750.7" y="-230.3" font-family="Times,serif" font-size="14.00">:core:shapes</text>
    </g>
    <g id="edge30" class="edge">
      <title>:feature:aboutme-&gt;:core:shapes</title>
      <path fill="none" stroke="black" d="M667.26,-288.59C682.23,-278.97 701.31,-266.72 717.44,-256.36"/>
      <polygon fill="black" stroke="black" points="719.54,-259.18 726.06,-250.83 715.75,-253.29 719.54,-259.18"/>
    </g>
    <g id="edge16" class="edge">
      <title>:core:ui-&gt;:core:analytics</title>
      <path fill="none" stroke="black" d="M412.44,-217.81C399.17,-208.33 381.85,-195.96 367.03,-185.37"/>
      <polygon fill="black" stroke="black" points="368.81,-182.34 358.64,-179.38 364.74,-188.04 368.81,-182.34"/>
    </g>
    <g id="edge17" class="edge">
      <title>:core:ui-&gt;:core:feedback</title>
      <path fill="none" stroke="red" stroke-width="2" d="M450.95,-217.12C460.75,-208.09 473.2,-196.62 484.12,-186.57"/>
      <polygon fill="red" stroke="red" stroke-width="2" points="486.75,-188.9 491.73,-179.55 482.01,-183.75 486.75,-188.9"/>
    </g>
    <g id="edge20" class="edge">
      <title>:core:designsystem-&gt;:core:common</title>
      <path fill="none" stroke="black" d="M584.43,-73.29C558.02,-62.73 523.08,-48.75 495.27,-37.62"/>
      <polygon fill="black" stroke="black" points="496.34,-34.28 485.75,-33.82 493.74,-40.78 496.34,-34.28"/>
    </g>
    <g id="edge19" class="edge">
      <title>:core:designsystem-&gt;:core:accessibility</title>
      <path fill="none" stroke="red" stroke-width="2" d="M627.66,-71.7C629.42,-63.98 631.54,-54.71 633.51,-46.11"/>
      <polygon fill="red" stroke="red" stroke-width="2" points="636.98,-46.63 635.79,-36.1 630.15,-45.07 636.98,-46.63"/>
    </g>
    <g id="edge22" class="edge">
      <title>:core:data-&gt;:core:analytics</title>
      <path fill="none" stroke="black" d="M259.94,-217.12C273.16,-207.67 290.13,-195.56 304.65,-185.18"/>
      <polygon fill="black" stroke="black" points="306.77,-187.97 312.87,-179.31 302.7,-182.27 306.77,-187.97"/>
    </g>
    <g id="node13" class="node">
      <title>:core:datastore</title>
      <ellipse fill="none" stroke="black" cx="158.7" cy="-162" rx="81.49" ry="18"/>
      <text text-anchor="middle" x="158.7" y="-158.3" font-family="Times,serif" font-size="14.00">:core:datastore</text>
    </g>
    <g id="edge21" class="edge">
      <title>:core:data-&gt;:core:datastore</title>
      <path fill="none" stroke="black" d="M219.38,-216.76C209.16,-207.71 196.25,-196.27 184.97,-186.28"/>
      <polygon fill="black" stroke="black" points="187.28,-183.65 177.48,-179.63 182.64,-188.88 187.28,-183.65"/>
    </g>
    <g id="edge18" class="edge">
      <title>:core:feedback-&gt;:core:designsystem</title>
      <path fill="none" stroke="red" stroke-width="2" d="M535.86,-144.94C551.42,-135.39 571.37,-123.13 588.33,-112.72"/>
      <polygon fill="red" stroke="red" stroke-width="2" points="590.19,-115.69 596.88,-107.47 586.53,-109.72 590.19,-115.69"/>
    </g>
    <g id="edge25" class="edge">
      <title>:core:datastore-&gt;:core:common</title>
      <path fill="none" stroke="black" d="M218.02,-149.63C288.7,-135.88 398.27,-113.84 405.7,-108 425.24,-92.65 436.43,-66.2 442.47,-46.11"/>
      <polygon fill="black" stroke="black" points="445.89,-46.85 445.17,-36.28 439.14,-44.99 445.89,-46.85"/>
    </g>
    <g id="edge24" class="edge">
      <title>:core:datastore-&gt;:core:model</title>
      <path fill="none" stroke="black" d="M143.45,-144.05C135.71,-135.46 126.17,-124.86 117.66,-115.4"/>
      <polygon fill="black" stroke="black" points="120.1,-112.88 110.81,-107.79 114.9,-117.56 120.1,-112.88"/>
    </g>
    <g id="node14" class="node">
      <title>:core:datastore-proto</title>
      <ellipse fill="none" stroke="black" cx="287.7" cy="-90" rx="108.58" ry="18"/>
      <text text-anchor="middle" x="287.7" y="-86.3" font-family="Times,serif" font-size="14.00">:core:datastore-proto</text>
    </g>
    <g id="edge23" class="edge">
      <title>:core:datastore-&gt;:core:datastore-proto</title>
      <path fill="none" stroke="black" d="M187.98,-145.12C205.94,-135.37 229.17,-122.76 248.69,-112.17"/>
      <polygon fill="black" stroke="black" points="250.53,-115.15 257.65,-107.31 247.19,-109 250.53,-115.15"/>
    </g>
  </g>
</svg>
