<?xml version="1.0" encoding="UTF-8" standalone="no"?>
<!DOCTYPE svg PUBLIC "-//W3C//DTD SVG 1.1//EN" "http://www.w3.org/Graphics/SVG/1.1/DTD/svg11.dtd">
<svg xmlns="http://www.w3.org/2000/svg" xmlns:xlink="http://www.w3.org/1999/xlink" width="927pt" height="404pt" viewBox="0.00 0.00 927.40 404.00">
  <g id="graph0" class="graph" transform="scale(1 1) rotate(0) translate(4 400)">
    <title>G</title>
    <polygon fill="white" stroke="transparent" points="-4,4 -4,-400 923.4,-400 923.4,4 -4,4"/>
    <g id="node1" class="node">
      <title>:app</title>
      <ellipse fill="none" stroke="black" cx="429.81" cy="-378" rx="30.59" ry="18"/>
      <text text-anchor="middle" x="429.81" y="-374.3" font-family="Times,serif" font-size="14.00">:app</text>
    </g>
    <g id="node2" class="node">
      <title>:feature:settings</title>
      <ellipse fill="none" stroke="black" cx="371.81" cy="-306" rx="87.99" ry="18"/>
      <text text-anchor="middle" x="371.81" y="-302.3" font-family="Times,serif" font-size="14.00">:feature:settings</text>
    </g>
    <g id="edge1" class="edge">
      <title>:app-&gt;:feature:settings</title>
      <path fill="none" stroke="red" stroke-width="2" d="M416.94,-361.46C409.74,-352.78 400.6,-341.75 392.44,-331.89"/>
      <polygon fill="red" stroke="red" stroke-width="2" points="394.94,-329.43 385.87,-323.96 389.55,-333.9 394.94,-329.43"/>
    </g>
    <g id="node3" class="node">
      <title>:feature:aboutme</title>
      <ellipse fill="none" stroke="black" cx="644.81" cy="-306" rx="90.98" ry="18"/>
      <text text-anchor="middle" x="644.81" y="-302.3" font-family="Times,serif" font-size="14.00">:feature:aboutme</text>
    </g>
    <g id="edge2" class="edge">
      <title>:app-&gt;:feature:aboutme</title>
      <path fill="none" stroke="black" d="M456.17,-368.42C489.26,-357.65 546.84,-338.9 589.71,-324.94"/>
      <polygon fill="black" stroke="black" points="591.02,-328.19 599.45,-321.77 588.85,-321.54 591.02,-328.19"/>
    </g>
    <g id="node4" class="node">
      <title>:core:common</title>
      <ellipse fill="none" stroke="black" cx="598.81" cy="-18" rx="75.29" ry="18"/>
      <text text-anchor="middle" x="598.81" y="-14.3" font-family="Times,serif" font-size="14.00">:core:common</text>
    </g>
    <g id="edge3" class="edge">
      <title>:app-&gt;:core:common</title>
      <path fill="none" stroke="black" d="M400.12,-373.66C303.29,-361.96 2.81,-318.89 2.81,-235 2.81,-235 2.81,-235 2.81,-161 2.81,-120.55 -8.44,-98.85 21.81,-72 57.82,-40.03 362.76,-26.23 514.18,-21.31"/>
      <polygon fill="black" stroke="black" points="514.49,-24.8 524.37,-20.99 514.27,-17.81 514.49,-24.8"/>
    </g>
    <g id="node5" class="node">
      <title>:core:ui</title>
      <ellipse fill="none" stroke="black" cx="424.81" cy="-234" rx="45.49" ry="18"/>
      <text text-anchor="middle" x="424.81" y="-230.3" font-family="Times,serif" font-size="14.00">:core:ui</text>
    </g>
    <g id="edge4" class="edge">
      <title>:app-&gt;:core:ui</title>
      <path fill="none" stroke="black" d="M444.69,-362.27C453.58,-352.38 464.04,-338.54 468.81,-324 473.8,-308.8 474.24,-303.05 468.81,-288 464.83,-276.98 457.45,-266.63 449.86,-258.05"/>
      <polygon fill="black" stroke="black" points="452.33,-255.57 442.91,-250.7 447.24,-260.37 452.33,-255.57"/>
    </g>
    <g id="node6" class="node">
      <title>:core:designsystem</title>
      <ellipse fill="none" stroke="black" cx="779.81" cy="-90" rx="100.98" ry="18"/>
      <text text-anchor="middle" x="779.81" y="-86.3" font-family="Times,serif" font-size="14.00">:core:designsystem</text>
    </g>
    <g id="edge5" class="edge">
      <title>:app-&gt;:core:designsystem</title>
      <path fill="none" stroke="black" d="M460.7,-376.63C518.75,-374.92 647.06,-366.21 744.81,-324 793.45,-303 816.24,-299.44 839.81,-252 847.64,-236.24 842.74,-160.98 834.81,-144 829.51,-132.64 820.63,-122.44 811.53,-114.1"/>
      <polygon fill="black" stroke="black" points="813.77,-111.41 803.9,-107.54 809.2,-116.72 813.77,-111.41"/>
    </g>
    <g id="node7" class="node">
      <title>:core:data</title>
      <ellipse fill="none" stroke="black" cx="266.81" cy="-234" rx="57.39" ry="18"/>
      <text text-anchor="middle" x="266.81" y="-230.3" font-family="Times,serif" font-size="14.00">:core:data</text>
    </g>
    <g id="edge6" class="edge">
      <title>:app-&gt;:core:data</title>
      <path fill="none" stroke="black" d="M399.19,-375.95C363.22,-372.92 304.66,-362.03 274.81,-324 261.23,-306.7 260.24,-281.27 262.06,-262.02"/>
      <polygon fill="black" stroke="black" points="265.54,-262.41 263.29,-252.05 258.59,-261.55 265.54,-262.41"/>
    </g>
    <g id="node8" class="node">
      <title>:core:model</title>
      <ellipse fill="none" stroke="black" cx="95.81" cy="-90" rx="64.99" ry="18"/>
      <text text-anchor="middle" x="95.81" y="-86.3" font-family="Times,serif" font-size="14.00">:core:model</text>
    </g>
    <g id="edge7" class="edge">
      <title>:app-&gt;:core:model</title>
      <path fill="none" stroke="black" d="M399.8,-374.47C356.43,-369.78 274.76,-357 213.81,-324 131.41,-279.39 97.12,-265.96 59.81,-180 53.44,-165.32 55.11,-159.29 59.81,-144 62.87,-134.06 68.5,-124.31 74.41,-115.93"/>
      <polygon fill="black" stroke="black" points="77.35,-117.85 80.58,-107.76 71.76,-113.63 77.35,-117.85"/>
    </g>
    <g id="node9" class="node">
      <title>:core:analytics</title>
      <ellipse fill="none" stroke="black" cx="326.81" cy="-162" rx="77.99" ry="18"/>
      <text text-anchor="middle" x="326.81" y="-158.3" font-family="Times,serif" font-size="14.00">:core:analytics</text>
    </g>
    <g id="edge8" class="edge">
      <title>:app-&gt;:core:analytics</title>
      <path fill="none" stroke="black" d="M400.1,-373.33C363.84,-367.68 301.91,-354.17 257.81,-324 224.13,-300.95 214.22,-290.55 200.81,-252 195.55,-236.89 191.96,-229.33 200.81,-216 213.62,-196.71 234.97,-184.43 256.48,-176.61"/>
      <polygon fill="black" stroke="black" points="257.64,-179.92 266.02,-173.43 255.43,-173.28 257.64,-179.92"/>
    </g>
    <g id="node10" class="node">
      <title>:core:config</title>
      <ellipse fill="none" stroke="black" cx="552.81" cy="-234" rx="64.19" ry="18"/>
      <text text-anchor="middle" x="552.81" y="-230.3" font-family="Times,serif" font-size="14.00">:core:config</text>
    </g>
    <g id="edge9" class="edge">
      <title>:app-&gt;:core:config</title>
      <path fill="none" stroke="black" d="M445.97,-362.23C457.01,-351.89 471.76,-337.54 483.81,-324 502.13,-303.41 521.19,-278.52 534.62,-260.3"/>
      <polygon fill="black" stroke="black" points="537.66,-262.08 540.74,-251.94 532.01,-257.94 537.66,-262.08"/>
    </g>
    <g id="node11" class="node">
      <title>:core:accessibility</title>
      <ellipse fill="none" stroke="black" cx="825.81" cy="-18" rx="93.68" ry="18"/>
      <text text-anchor="middle" x="825.81" y="-14.3" font-family="Times,serif" font-size="14.00">:core:accessibility</text>
    </g>
    <g id="edge10" class="edge">
      <title>:app-&gt;:core:accessibility</title>
      <path fill="none" stroke="black" d="M460.75,-377.41C525.08,-377.22 676.95,-371.3 792.81,-324 854.95,-298.63 914.81,-302.12 914.81,-235 914.81,-235 914.81,-235 914.81,-161 914.81,-119.91 912.21,-106.45 889.81,-72 882.23,-60.34 871.28,-49.94 860.57,-41.51"/>
      <polygon fill="black" stroke="black" points="862.6,-38.66 852.5,-35.46 858.4,-44.26 862.6,-38.66"/>
    </g>
    <g id="edge11" class="edge">
      <title>:feature:settings-&gt;:core:ui</title>
      <path fill="none" stroke="red" stroke-width="2" d="M384.64,-288.05C391.02,-279.63 398.86,-269.28 405.91,-259.97"/>
      <polygon fill="red" stroke="red" stroke-width="2" points="408.85,-261.87 412.1,-251.79 403.27,-257.65 408.85,-261.87"/>
    </g>
    <g id="edge12" class="edge">
      <title>:feature:settings-&gt;:core:designsystem</title>
      <path fill="none" stroke="black" d="M367.43,-288.01C363.56,-269.4 360.02,-239.1 370.81,-216 381.36,-193.42 395.2,-196.58 413.81,-180 431.18,-164.53 430.96,-154.31 451.81,-144 519.31,-110.62 603.27,-97.5 669.34,-92.66"/>
      <polygon fill="black" stroke="black" points="669.63,-96.15 679.37,-91.98 669.15,-89.16 669.63,-96.15"/>
    </g>
    <g id="edge13" class="edge">
      <title>:feature:settings-&gt;:core:data</title>
      <path fill="none" stroke="black" d="M347.19,-288.59C332.67,-278.9 314.13,-266.55 298.52,-256.14"/>
      <polygon fill="black" stroke="black" points="300.46,-253.22 290.19,-250.59 296.57,-259.05 300.46,-253.22"/>
    </g>
    <g id="edge14" class="edge">
      <title>:feature:settings-&gt;:core:config</title>
      <path fill="none" stroke="black" d="M411.09,-289.81C439.3,-278.9 477.41,-264.16 507.01,-252.72"/>
      <polygon fill="black" stroke="black" points="508.63,-255.84 516.69,-248.97 506.1,-249.31 508.63,-255.84"/>
    </g>
    <g id="edge27" class="edge">
      <title>:feature:aboutme-&gt;:core:common</title>
      <path fill="none" stroke="black" d="M643.3,-287.53C640.61,-257.89 634.46,-195.92 625.81,-144 620.16,-110.08 611.46,-71.45 605.48,-46.23"/>
      <polygon fill="black" stroke="black" points="608.83,-45.2 603.09,-36.29 602.02,-46.83 608.83,-45.2"/>
    </g>
    <g id="edge25" class="edge">
      <title>:feature:aboutme-&gt;:core:ui</title>
      <path fill="none" stroke="black" d="M598.96,-290.41C560.7,-278.24 506.52,-261 468.79,-248.99"/>
      <polygon fill="black" stroke="black" points="469.68,-245.6 459.09,-245.91 467.56,-252.27 469.68,-245.6"/>
    </g>
    <g id="edge26" class="edge">
      <title>:feature:aboutme-&gt;:core:designsystem</title>
      <path fill="none" stroke="black" d="M731.26,-300.13C764.41,-293.52 799.19,-279.79 819.81,-252 849.9,-211.45 820.01,-150.92 798.19,-116.8"/>
      <polygon fill="black" stroke="black" points="801.01,-114.73 792.58,-108.32 795.18,-118.59 801.01,-114.73"/>
    </g>
    <g id="edge28" class="edge">
      <title>:feature:aboutme-&gt;:core:config</title>
      <path fill="none" stroke="black" d="M623.01,-288.41C610.89,-279.19 595.64,-267.59 582.46,-257.55"/>
      <polygon fill="black" stroke="black" points="584.22,-254.5 574.14,-251.23 579.98,-260.07 584.22,-254.5"/>
    </g>
    <g id="node15" class="node">
      <title>:core:shapes</title>
      <ellipse fill="none" stroke="black" cx="741.81" cy="-234" rx="68.79" ry="18"/>
      <text text-anchor="middle" x="741.81" y="-230.3" font-family="Times,serif" font-size="14.00">:core:shapes</text>
    </g>
    <g id="edge29" class="edge">
      <title>:feature:aboutme-&gt;:core:shapes</title>
      <path fill="none" stroke="black" d="M667.8,-288.41C680.7,-279.1 696.96,-267.37 710.95,-257.27"/>
      <polygon fill="black" stroke="black" points="713.26,-259.92 719.32,-251.23 709.17,-254.24 713.26,-259.92"/>
    </g>
    <g id="edge15" class="edge">
      <title>:core:ui-&gt;:core:analytics</title>
      <path fill="none" stroke="black" d="M403.55,-217.81C390.28,-208.33 372.96,-195.96 358.13,-185.37"/>
      <polygon fill="black" stroke="black" points="359.92,-182.34 349.74,-179.38 355.85,-188.04 359.92,-182.34"/>
    </g>
    <g id="node12" class="node">
      <title>:core:feedback</title>
      <ellipse fill="none" stroke="black" cx="538.81" cy="-162" rx="77.99" ry="18"/>
      <text text-anchor="middle" x="538.81" y="-158.3" font-family="Times,serif" font-size="14.00">:core:feedback</text>
    </g>
    <g id="edge16" class="edge">
      <title>:core:ui-&gt;:core:feedback</title>
      <path fill="none" stroke="red" stroke-width="2" d="M448.43,-218.5C464.32,-208.74 485.54,-195.71 503.43,-184.73"/>
      <polygon fill="red" stroke="red" stroke-width="2" points="505.74,-187.41 512.43,-179.2 502.08,-181.45 505.74,-187.41"/>
    </g>
    <g id="edge19" class="edge">
      <title>:core:designsystem-&gt;:core:common</title>
      <path fill="none" stroke="black" d="M739.64,-73.46C712.04,-62.79 675.28,-48.57 646.23,-37.34"/>
      <polygon fill="black" stroke="black" points="647.29,-34 636.7,-33.65 644.77,-40.53 647.29,-34"/>
    </g>
    <g id="edge18" class="edge">
      <title>:core:designsystem-&gt;:core:accessibility</title>
      <path fill="none" stroke="red" stroke-width="2" d="M790.95,-72.05C796.35,-63.84 802.95,-53.79 808.95,-44.66"/>
      <polygon fill="red" stroke="red" stroke-width="2" points="811.89,-46.55 814.46,-36.28 806.04,-42.71 811.89,-46.55"/>
    </g>
    <g id="edge21" class="edge">
      <title>:core:data-&gt;:core:analytics</title>
      <path fill="none" stroke="black" d="M281.03,-216.41C288.39,-207.82 297.53,-197.16 305.7,-187.63"/>
      <polygon fill="black" stroke="black" points="308.43,-189.83 312.28,-179.96 303.11,-185.27 308.43,-189.83"/>
    </g>
    <g id="node13" class="node">
      <title>:core:datastore</title>
      <ellipse fill="none" stroke="black" cx="149.81" cy="-162" rx="81.49" ry="18"/>
      <text text-anchor="middle" x="149.81" y="-158.3" font-family="Times,serif" font-size="14.00">:core:datastore</text>
    </g>
    <g id="edge20" class="edge">
      <title>:core:data-&gt;:core:datastore</title>
      <path fill="none" stroke="black" d="M241.42,-217.81C225.17,-208.09 203.83,-195.32 185.84,-184.55"/>
      <polygon fill="black" stroke="black" points="187.16,-181.26 176.78,-179.13 183.56,-187.27 187.16,-181.26"/>
    </g>
    <g id="edge17" class="edge">
      <title>:core:feedback-&gt;:core:designsystem</title>
      <path fill="none" stroke="red" stroke-width="2" d="M585.28,-147.5C623.52,-136.4 678,-120.57 719.59,-108.49"/>
      <polygon fill="red" stroke="red" stroke-width="2" points="720.7,-111.81 729.33,-105.66 718.75,-105.09 720.7,-111.81"/>
    </g>
    <g id="edge24" class="edge">
      <title>:core:datastore-&gt;:core:common</title>
      <path fill="none" stroke="black" d="M208.73,-149.54C278.4,-135.87 387.3,-114.1 405.81,-108 461.71,-89.59 522.86,-59.58 561.03,-39.56"/>
      <polygon fill="black" stroke="black" points="563.02,-42.47 570.22,-34.7 559.75,-36.28 563.02,-42.47"/>
    </g>
    <g id="edge23" class="edge">
      <title>:core:datastore-&gt;:core:model</title>
      <path fill="none" stroke="black" d="M136.74,-144.05C130.24,-135.63 122.26,-125.28 115.07,-115.97"/>
      <polygon fill="black" stroke="black" points="117.64,-113.57 108.76,-107.79 112.1,-117.84 117.64,-113.57"/>
    </g>
    <g id="node14" class="node">
      <title>:core:datastore-proto</title>
      <ellipse fill="none" stroke="black" cx="287.81" cy="-90" rx="108.58" ry="18"/>
      <text text-anchor="middle" x="287.81" y="-86.3" font-family="Times,serif" font-size="14.00">:core:datastore-proto</text>
    </g>
    <g id="edge22" class="edge">
      <title>:core:datastore-&gt;:core:datastore-proto</title>
      <path fill="none" stroke="black" d="M180.78,-145.29C200.16,-135.46 225.37,-122.67 246.45,-111.98"/>
      <polygon fill="black" stroke="black" points="248.17,-115.03 255.51,-107.39 245,-108.79 248.17,-115.03"/>
    </g>
  </g>
</svg>
