<?xml version="1.0" encoding="UTF-8" standalone="no"?>
<!DOCTYPE svg PUBLIC "-//W3C//DTD SVG 1.1//EN" "http://www.w3.org/Graphics/SVG/1.1/DTD/svg11.dtd">
<svg xmlns="http://www.w3.org/2000/svg" xmlns:xlink="http://www.w3.org/1999/xlink" width="538pt" height="188pt" viewBox="0.00 0.00 538.39 188.00">
  <g id="graph0" class="graph" transform="scale(1 1) rotate(0) translate(4 184)">
    <title>G</title>
    <polygon fill="white" stroke="transparent" points="-4,4 -4,-184 534.39,-184 534.39,4 -4,4"/>
    <g id="node1" class="node">
      <title>:app-rn3-catalog</title>
      <ellipse fill="none" stroke="black" cx="247.39" cy="-162" rx="86.38" ry="18"/>
      <text text-anchor="middle" x="247.39" y="-158.3" font-family="Times,serif" font-size="14.00">:app-rn3-catalog</text>
    </g>
    <g id="node2" class="node">
      <title>:core:common</title>
      <ellipse fill="none" stroke="black" cx="75.39" cy="-18" rx="75.29" ry="18"/>
      <text text-anchor="middle" x="75.39" y="-14.3" font-family="Times,serif" font-size="14.00">:core:common</text>
    </g>
    <g id="edge1" class="edge">
      <title>:app-rn3-catalog-&gt;:core:common</title>
      <path fill="none" stroke="black" d="M204.44,-146.32C182.77,-137.49 157,-124.7 137.39,-108 116.7,-90.37 99.63,-64.32 88.67,-44.95"/>
      <polygon fill="black" stroke="black" points="91.67,-43.14 83.8,-36.05 85.53,-46.5 91.67,-43.14"/>
    </g>
    <g id="node3" class="node">
      <title>:core:designsystem</title>
      <ellipse fill="none" stroke="black" cx="247.39" cy="-90" rx="100.98" ry="18"/>
      <text text-anchor="middle" x="247.39" y="-86.3" font-family="Times,serif" font-size="14.00">:core:designsystem</text>
    </g>
    <g id="edge2" class="edge">
      <title>:app-rn3-catalog-&gt;:core:designsystem</title>
      <path fill="none" stroke="red" stroke-width="2" d="M247.39,-143.7C247.39,-135.98 247.39,-126.71 247.39,-118.11"/>
      <polygon fill="red" stroke="red" stroke-width="2" points="250.89,-118.1 247.39,-108.1 243.89,-118.1 250.89,-118.1"/>
    </g>
    <g id="node4" class="node">
      <title>:core:ui</title>
      <ellipse fill="none" stroke="black" cx="431.39" cy="-90" rx="45.49" ry="18"/>
      <text text-anchor="middle" x="431.39" y="-86.3" font-family="Times,serif" font-size="14.00">:core:ui</text>
    </g>
    <g id="edge3" class="edge">
      <title>:app-rn3-catalog-&gt;:core:ui</title>
      <path fill="none" stroke="black" d="M286.87,-145.98C317.26,-134.42 359.16,-118.48 390.02,-106.74"/>
      <polygon fill="black" stroke="black" points="391.52,-109.91 399.63,-103.09 389.03,-103.37 391.52,-109.91"/>
    </g>
    <g id="edge5" class="edge">
      <title>:core:designsystem-&gt;:core:common</title>
      <path fill="none" stroke="black" d="M208.79,-73.29C182.83,-62.73 148.49,-48.75 121.16,-37.62"/>
      <polygon fill="black" stroke="black" points="122.39,-34.35 111.81,-33.82 119.75,-40.83 122.39,-34.35"/>
    </g>
    <g id="node5" class="node">
      <title>:core:accessibility</title>
      <ellipse fill="none" stroke="black" cx="262.39" cy="-18" rx="93.68" ry="18"/>
      <text text-anchor="middle" x="262.39" y="-14.3" font-family="Times,serif" font-size="14.00">:core:accessibility</text>
    </g>
    <g id="edge4" class="edge">
      <title>:core:designsystem-&gt;:core:accessibility</title>
      <path fill="none" stroke="red" stroke-width="2" d="M251.1,-71.7C252.75,-63.98 254.74,-54.71 256.58,-46.11"/>
      <polygon fill="red" stroke="red" stroke-width="2" points="260.06,-46.62 258.73,-36.1 253.21,-45.15 260.06,-46.62"/>
    </g>
    <g id="node6" class="node">
      <title>:core:analytics</title>
      <ellipse fill="none" stroke="black" cx="452.39" cy="-18" rx="77.99" ry="18"/>
      <text text-anchor="middle" x="452.39" y="-14.3" font-family="Times,serif" font-size="14.00">:core:analytics</text>
    </g>
    <g id="edge6" class="edge">
      <title>:core:ui-&gt;:core:analytics</title>
      <path fill="none" stroke="black" d="M436.48,-72.05C438.82,-64.26 441.65,-54.82 444.27,-46.08"/>
      <polygon fill="black" stroke="black" points="447.69,-46.86 447.21,-36.28 440.98,-44.85 447.69,-46.86"/>
    </g>
  </g>
</svg>
