<?xml version="1.0" encoding="UTF-8" standalone="no"?>
<!DOCTYPE svg PUBLIC "-//W3C//DTD SVG 1.1//EN" "http://www.w3.org/Graphics/SVG/1.1/DTD/svg11.dtd">
<svg height="332pt" viewBox="0.00 0.00 1092.34 332.00" width="1092pt" xmlns="http://www.w3.org/2000/svg">
  <g class="graph" id="graph0" transform="scale(1 1) rotate(0) translate(4 328)">
    <title>G</title>
    <polygon fill="white" points="-4,4 -4,-328 1088.34,-328 1088.34,4 -4,4" stroke="transparent" />
    <g id="node1" class="node">
      <title>:app</title>
      <ellipse cx="484.34" cy="-306" fill="none" rx="30.59" ry="18" stroke="black" />
      <text font-family="Times,serif" font-size="14.00" text-anchor="middle" x="484.34" y="-302.3">
        :app
      </text>
    </g>
    <g id="node2" class="node">
      <title>:feature:aboutme</title>
      <ellipse cx="207.34" cy="-234" fill="none" rx="90.98" ry="18" stroke="black" />
      <text font-family="Times,serif" font-size="14.00" text-anchor="middle" x="207.34" y="-230.3">
        :feature:aboutme
      </text>
    </g>
    <g id="edge1" class="edge">
      <title>:app-&gt;:feature:aboutme</title>
      <path d="M456.77,-298.03C413.76,-287.16 329.56,-265.88 270.94,-251.07" fill="none" stroke="red"
          stroke-width="2" />
      <polygon fill="red" points="271.6,-247.63 261.04,-248.57 269.88,-254.41 271.6,-247.63" stroke="red"
          stroke-width="2" />
    </g>
    <g id="node3" class="node">
      <title>:feature:dashboard</title>
      <ellipse cx="579.34" cy="-234" fill="none" rx="98.58" ry="18" stroke="black" />
      <text font-family="Times,serif" font-size="14.00" text-anchor="middle" x="579.34" y="-230.3">
        :feature:dashboard
      </text>
    </g>
    <g id="edge2" class="edge">
      <title>:app-&gt;:feature:dashboard</title>
      <path d="M502.66,-291.5C515.67,-281.92 533.45,-268.81 548.62,-257.64" fill="none"
          stroke="black" />
      <polygon fill="black" points="550.75,-260.42 556.73,-251.67 546.6,-254.78 550.75,-260.42"
          stroke="black" />
    </g>
    <g id="node4" class="node">
      <title>:feature:login</title>
      <ellipse cx="389.34" cy="-234" fill="none" rx="73.39" ry="18" stroke="black" />
      <text font-family="Times,serif" font-size="14.00" text-anchor="middle" x="389.34" y="-230.3">
        :feature:login
      </text>
    </g>
    <g id="edge3" class="edge">
      <title>:app-&gt;:feature:login</title>
      <path d="M466.03,-291.5C452.93,-281.85 434.99,-268.63 419.75,-257.41" fill="none"
          stroke="black" />
      <polygon fill="black" points="421.74,-254.53 411.62,-251.41 417.59,-260.16 421.74,-254.53"
          stroke="black" />
    </g>
    <g id="node5" class="node">
      <title>:feature:settings</title>
      <ellipse cx="784.34" cy="-234" fill="none" rx="87.99" ry="18" stroke="black" />
      <text font-family="Times,serif" font-size="14.00" text-anchor="middle" x="784.34" y="-230.3">
        :feature:settings
      </text>
    </g>
    <g id="edge4" class="edge">
      <title>:app-&gt;:feature:settings</title>
      <path d="M512.3,-298.48C559.04,-287.57 654.25,-265.35 718.69,-250.32" fill="none"
          stroke="black" />
      <polygon fill="black" points="719.82,-253.65 728.76,-247.97 718.23,-246.83 719.82,-253.65"
          stroke="black" />
    </g>
    <g id="node6" class="node">
      <title>:core:feedback</title>
      <ellipse cx="467.34" cy="-162" fill="none" rx="77.99" ry="18" stroke="black" />
      <text font-family="Times,serif" font-size="14.00" text-anchor="middle" x="467.34" y="-158.3">
        :core:feedback
      </text>
    </g>
    <g id="edge5" class="edge">
      <title>:feature:aboutme-&gt;:core:feedback</title>
      <path d="M259.02,-219.09C302.12,-207.48 363.52,-190.95 408.5,-178.84" fill="none" stroke="red"
          stroke-width="2" />
      <polygon fill="red" points="409.66,-182.16 418.4,-176.18 407.84,-175.4 409.66,-182.16" stroke="red"
          stroke-width="2" />
    </g>
    <g class="node" id="node7">
      <title>:core:ui</title>
      <ellipse cx="608.34" cy="-162" fill="none" rx="45.49" ry="18" stroke="black" />
      <text font-family="Times,serif" font-size="14.00" text-anchor="middle" x="608.34" y="-158.3">
        :core:ui
      </text>
    </g>
    <g class="edge" id="edge6">
      <title>:feature:aboutme-&gt;:core:ui</title>
      <path d="M273.2,-221.58C284.58,-219.67 296.3,-217.74 307.34,-216 416.93,-198.7 446.2,-204.74 554.34,-180 557.96,-179.17 561.68,-178.22 565.4,-177.2" fill="none"
          stroke="black" />
      <polygon fill="black" points="566.53,-180.51 575.16,-174.36 564.58,-173.79 566.53,-180.51"
          stroke="black" />
    </g>
    <g class="node" id="node8">
      <title>:core:common</title>
      <ellipse cx="427.34" cy="-18" fill="none" rx="75.29" ry="18" stroke="black" />
      <text font-family="Times,serif" font-size="14.00" text-anchor="middle" x="427.34" y="-14.3">
        :core:common
      </text>
    </g>
    <g class="edge" id="edge7">
      <title>:feature:aboutme-&gt;:core:common</title>
      <path d="M195.78,-215.94C184.33,-196.7 170.59,-165.33 186.34,-144 218.67,-100.24 254.61,-132.18 303.34,-108 322.76,-98.37 368.01,-64.69 398.14,-41.64" fill="none"
          stroke="black" />
      <polygon fill="black" points="400.4,-44.32 406.2,-35.45 396.14,-38.76 400.4,-44.32"
          stroke="black" />
    </g>
    <g class="node" id="node9">
      <title>:core:config</title>
      <ellipse cx="64.34" cy="-18" fill="none" rx="64.19" ry="18" stroke="black" />
      <text font-family="Times,serif" font-size="14.00" text-anchor="middle" x="64.34" y="-14.3">
        :core:config
      </text>
    </g>
    <g class="edge" id="edge8">
      <title>:feature:aboutme-&gt;:core:config</title>
      <path d="M184.06,-216.43C155.58,-194.86 108.13,-154.37 83.34,-108 73.07,-88.78 68.35,-64.44 66.19,-46.07" fill="none"
          stroke="black" />
      <polygon fill="black" points="69.66,-45.63 65.18,-36.03 62.69,-46.33 69.66,-45.63"
          stroke="black" />
    </g>
    <g class="node" id="node10">
      <title>:core:shapes</title>
      <ellipse cx="264.34" cy="-162" fill="none" rx="68.79" ry="18" stroke="black" />
      <text font-family="Times,serif" font-size="14.00" text-anchor="middle" x="264.34" y="-158.3">
        :core:shapes
      </text>
    </g>
    <g class="edge" id="edge9">
      <title>:feature:aboutme-&gt;:core:shapes</title>
      <path d="M221.14,-216.05C228.07,-207.54 236.6,-197.07 244.25,-187.68" fill="none"
          stroke="black" />
      <polygon fill="black" points="247.07,-189.75 250.67,-179.79 241.64,-185.33 247.07,-189.75"
          stroke="black" />
    </g>
    <g class="edge" id="edge15">
      <title>:feature:dashboard-&gt;:core:feedback</title>
      <path d="M553.09,-216.59C537.81,-207.04 518.38,-194.9 501.87,-184.58" fill="none"
          stroke="black" />
      <polygon fill="black" points="503.39,-181.4 493.05,-179.07 499.68,-187.34 503.39,-181.4"
          stroke="black" />
    </g>
    <g class="edge" id="edge16">
      <title>:feature:dashboard-&gt;:core:ui</title>
      <path d="M586.51,-215.7C589.78,-207.81 593.72,-198.3 597.35,-189.55" fill="none"
          stroke="black" />
      <polygon fill="black" points="600.66,-190.68 601.26,-180.1 594.2,-188 600.66,-190.68"
          stroke="black" />
    </g>
    <g class="node" id="node14">
      <title>:core:data</title>
      <ellipse cx="729.34" cy="-162" fill="none" rx="57.39" ry="18" stroke="black" />
      <text font-family="Times,serif" font-size="14.00" text-anchor="middle" x="729.34" y="-158.3">
        :core:data
      </text>
    </g>
    <g class="edge" id="edge17">
      <title>:feature:dashboard-&gt;:core:data</title>
      <path d="M613.76,-216.94C636.26,-206.44 665.74,-192.68 689.29,-181.69" fill="none"
          stroke="black" />
      <polygon fill="black" points="691.07,-184.72 698.66,-177.32 688.11,-178.38 691.07,-184.72"
          stroke="black" />
    </g>
    <g class="edge" id="edge25">
      <title>:feature:login-&gt;:core:feedback</title>
      <path d="M407.83,-216.41C417.76,-207.5 430.18,-196.36 441.09,-186.56" fill="none"
          stroke="black" />
      <polygon fill="black" points="443.62,-189 448.72,-179.71 438.94,-183.79 443.62,-189"
          stroke="black" />
    </g>
    <g class="edge" id="edge26">
      <title>:feature:login-&gt;:core:ui</title>
      <path d="M432.09,-219.34C470.14,-207.17 525.58,-189.45 564.09,-177.15" fill="none"
          stroke="black" />
      <polygon fill="black" points="565.52,-180.36 573.98,-173.98 563.39,-173.7 565.52,-180.36"
          stroke="black" />
    </g>
    <g class="edge" id="edge28">
      <title>:feature:login-&gt;:core:shapes</title>
      <path d="M361.29,-217.29C343.52,-207.34 320.34,-194.36 301.11,-183.59" fill="none"
          stroke="black" />
      <polygon fill="black" points="302.74,-180.49 292.3,-178.66 299.32,-186.6 302.74,-180.49"
          stroke="black" />
    </g>
    <g class="node" id="node15">
      <title>:core:auth</title>
      <ellipse cx="427.34" cy="-90" fill="none" rx="57.69" ry="18" stroke="black" />
      <text font-family="Times,serif" font-size="14.00" text-anchor="middle" x="427.34" y="-86.3">
        :core:auth
      </text>
    </g>
    <g class="edge" id="edge27">
      <title>:feature:login-&gt;:core:auth</title>
      <path d="M383.19,-216C377.54,-197.64 371.31,-167.81 380.34,-144 384.55,-132.91 392.27,-122.65 400.24,-114.17" fill="none"
          stroke="black" />
      <polygon fill="black" points="402.92,-116.44 407.55,-106.91 397.99,-111.48 402.92,-116.44"
          stroke="black" />
    </g>
    <g class="edge" id="edge31">
      <title>:feature:settings-&gt;:core:feedback</title>
      <path d="M726.94,-220.32C671.9,-208.17 588.95,-189.85 531.7,-177.21" fill="none"
          stroke="black" />
      <polygon fill="black" points="532.2,-173.74 521.68,-175 530.69,-180.57 532.2,-173.74"
          stroke="black" />
    </g>
    <g class="edge" id="edge32">
      <title>:feature:settings-&gt;:core:ui</title>
      <path d="M745.72,-217.64C716.99,-206.21 677.88,-190.66 648.74,-179.07" fill="none"
          stroke="black" />
      <polygon fill="black" points="649.85,-175.74 639.27,-175.3 647.27,-182.25 649.85,-175.74"
          stroke="black" />
    </g>
    <g class="edge" id="edge29">
      <title>:feature:settings-&gt;:core:config</title>
      <path d="M790.65,-215.89C796.4,-197.68 802.93,-168.22 795.34,-144 783.7,-106.82 779.32,-91.07 745.34,-72 627.32,-5.75 271.29,-55.42 137.34,-36 131.57,-35.16 125.58,-34.1 119.62,-32.91" fill="none"
          stroke="black" />
      <polygon fill="black" points="120.19,-29.45 109.68,-30.81 118.74,-36.3 120.19,-29.45"
          stroke="black" />
    </g>
    <g class="edge" id="edge30">
      <title>:feature:settings-&gt;:core:data</title>
      <path d="M771.03,-216.05C764.34,-207.54 756.11,-197.07 748.74,-187.68" fill="none"
          stroke="black" />
      <polygon fill="black" points="751.47,-185.49 742.54,-179.79 745.96,-189.81 751.47,-185.49"
          stroke="black" />
    </g>
    <g class="node" id="node11">
      <title>:core:designsystem</title>
      <ellipse cx="193.34" cy="-90" fill="none" rx="100.98" ry="18" stroke="black" />
      <text font-family="Times,serif" font-size="14.00" text-anchor="middle" x="193.34" y="-86.3">
        :core:designsystem
      </text>
    </g>
    <g class="edge" id="edge10">
      <title>:core:feedback-&gt;:core:designsystem</title>
      <path d="M417.09,-148.16C372.43,-136.75 306.87,-120 258.25,-107.58" fill="none" stroke="red"
          stroke-width="2" />
      <polygon fill="red" points="259.01,-104.16 248.46,-105.08 257.28,-110.95 259.01,-104.16" stroke="red"
          stroke-width="2" />
    </g>
    <g class="node" id="node13">
      <title>:core:analytics</title>
      <ellipse cx="658.34" cy="-90" fill="none" rx="77.99" ry="18" stroke="black" />
      <text font-family="Times,serif" font-size="14.00" text-anchor="middle" x="658.34" y="-86.3">
        :core:analytics
      </text>
    </g>
    <g class="edge" id="edge14">
      <title>:core:ui-&gt;:core:analytics</title>
      <path d="M620.19,-144.41C626.21,-135.99 633.64,-125.58 640.34,-116.2" fill="none"
          stroke="black" />
      <polygon fill="black" points="643.27,-118.13 646.23,-107.96 637.57,-114.06 643.27,-118.13"
          stroke="black" />
    </g>
    <g class="edge" id="edge12">
      <title>:core:designsystem-&gt;:core:common</title>
      <path d="M242.68,-74.24C280.63,-62.89 333.05,-47.21 372.35,-35.45" fill="none"
          stroke="black" />
      <polygon fill="black" points="373.46,-38.77 382.04,-32.55 371.45,-32.07 373.46,-38.77"
          stroke="black" />
    </g>
    <g class="edge" id="edge13">
      <title>:core:designsystem-&gt;:core:config</title>
      <path d="M163.42,-72.76C145.05,-62.79 121.35,-49.94 101.75,-39.3" fill="none"
          stroke="black" />
      <polygon fill="black" points="103.23,-36.12 92.77,-34.43 99.89,-42.27 103.23,-36.12"
          stroke="black" />
    </g>
    <g class="node" id="node12">
      <title>:core:accessibility</title>
      <ellipse cx="240.34" cy="-18" fill="none" rx="93.68" ry="18" stroke="black" />
      <text font-family="Times,serif" font-size="14.00" text-anchor="middle" x="240.34" y="-14.3">
        :core:accessibility
      </text>
    </g>
    <g class="edge" id="edge11">
      <title>:core:designsystem-&gt;:core:accessibility</title>
      <path d="M204.72,-72.05C210.24,-63.84 216.98,-53.79 223.12,-44.66" fill="none" stroke="red"
          stroke-width="2" />
      <polygon fill="red" points="226.08,-46.53 228.75,-36.28 220.26,-42.63 226.08,-46.53" stroke="red"
          stroke-width="2" />
    </g>
    <g class="edge" id="edge18">
      <title>:core:data-&gt;:core:analytics</title>
      <path d="M712.52,-144.41C703.63,-135.65 692.56,-124.73 682.74,-115.06" fill="none"
          stroke="black" />
      <polygon fill="black" points="685.12,-112.48 675.54,-107.96 680.21,-117.47 685.12,-112.48"
          stroke="black" />
    </g>
    <g class="edge" id="edge19">
      <title>:core:data-&gt;:core:auth</title>
      <path d="M686.5,-149.95C678.48,-147.93 670.16,-145.87 662.34,-144 601.21,-129.35 530.85,-113.63 483.18,-103.15" fill="none"
          stroke="black" />
      <polygon fill="black" points="483.88,-99.72 473.36,-101 482.38,-106.56 483.88,-99.72"
          stroke="black" />
    </g>
    <g class="node" id="node16">
      <title>:core:datastore</title>
      <ellipse cx="923.34" cy="-90" fill="none" rx="81.49" ry="18" stroke="black" />
      <text font-family="Times,serif" font-size="14.00" text-anchor="middle" x="923.34" y="-86.3">
        :core:datastore
      </text>
    </g>
    <g class="edge" id="edge20">
      <title>:core:data-&gt;:core:datastore</title>
      <path d="M765.38,-148C795.7,-137.06 839.38,-121.3 873.13,-109.12" fill="none"
          stroke="black" />
      <polygon fill="black" points="874.59,-112.31 882.81,-105.63 872.21,-105.73 874.59,-112.31"
          stroke="black" />
    </g>
    <g class="edge" id="edge21">
      <title>:core:auth-&gt;:core:common</title>
      <path d="M427.34,-71.7C427.34,-63.98 427.34,-54.71 427.34,-46.11" fill="none"
          stroke="black" />
      <polygon fill="black" points="430.84,-46.1 427.34,-36.1 423.84,-46.1 430.84,-46.1"
          stroke="black" />
    </g>
    <g class="edge" id="edge24">
      <title>:core:datastore-&gt;:core:common</title>
      <path d="M863.36,-77.84C851.76,-75.8 839.69,-73.76 828.34,-72 715.55,-54.46 584.33,-37.83 503.55,-28.02" fill="none"
          stroke="black" />
      <polygon fill="black" points="503.82,-24.53 493.47,-26.8 502.97,-31.48 503.82,-24.53"
          stroke="black" />
    </g>
    <g class="node" id="node17">
      <title>:core:datastore-proto</title>
      <ellipse cx="827.34" cy="-18" fill="none" rx="108.58" ry="18" stroke="black" />
      <text font-family="Times,serif" font-size="14.00" text-anchor="middle" x="827.34" y="-14.3">
        :core:datastore-proto
      </text>
    </g>
    <g class="edge" id="edge22">
      <title>:core:datastore-&gt;:core:datastore-proto</title>
      <path d="M900.59,-72.41C888.01,-63.24 872.2,-51.7 858.48,-41.71" fill="none" stroke="black" />
      <polygon fill="black" points="860.41,-38.78 850.26,-35.71 856.28,-44.43 860.41,-38.78"
          stroke="black" />
    </g>
    <g class="node" id="node18">
      <title>:core:model</title>
      <ellipse cx="1019.34" cy="-18" fill="none" rx="64.99" ry="18" stroke="black" />
      <text font-family="Times,serif" font-size="14.00" text-anchor="middle" x="1019.34" y="-14.3">
        :core:model
      </text>
    </g>
    <g class="edge" id="edge23">
      <title>:core:datastore-&gt;:core:model</title>
      <path d="M946.09,-72.41C958.95,-63.04 975.19,-51.2 989.1,-41.05" fill="none" stroke="black" />
      <polygon fill="black" points="991.4,-43.71 997.42,-34.99 987.28,-38.05 991.4,-43.71"
          stroke="black" />
    </g>
  </g>
</svg>
