<?xml version="1.0" encoding="UTF-8" standalone="no"?>
<!DOCTYPE svg PUBLIC "-//W3C//DTD SVG 1.1//EN"
 "http://www.w3.org/Graphics/SVG/1.1/DTD/svg11.dtd">
<!-- Generated by graphviz version 2.43.0 (0)
 -->
<!-- Title: G Pages: 1 -->
<svg width="789pt" height="188pt"
 viewBox="0.00 0.00 788.89 188.00" xmlns="http://www.w3.org/2000/svg" xmlns:xlink="http://www.w3.org/1999/xlink">
<g id="graph0" class="graph" transform="scale(1 1) rotate(0) translate(4 184)">
<title>G</title>
<polygon fill="white" stroke="transparent" points="-4,4 -4,-184 784.89,-184 784.89,4 -4,4"/>
<!-- :feature:aboutme -->
<g id="node1" class="node">
<title>:feature:aboutme</title>
<ellipse fill="none" stroke="black" cx="377.99" cy="-162" rx="90.98" ry="18"/>
<text text-anchor="middle" x="377.99" y="-158.3" font-family="Times,serif" font-size="14.00">:feature:aboutme</text>
</g>
<!-- :core:ui -->
<g id="node2" class="node">
<title>:core:ui</title>
<ellipse fill="none" stroke="black" cx="126.99" cy="-90" rx="45.49" ry="18"/>
<text text-anchor="middle" x="126.99" y="-86.3" font-family="Times,serif" font-size="14.00">:core:ui</text>
</g>
<!-- :feature:aboutme&#45;&gt;:core:ui -->
<g id="edge1" class="edge">
<title>:feature:aboutme&#45;&gt;:core:ui</title>
<path fill="none" stroke="red" stroke-width="2" d="M327.5,-146.92C282.35,-134.33 216.73,-116.03 173,-103.83"/>
<polygon fill="red" stroke="red" stroke-width="2" points="173.77,-100.41 163.2,-101.1 171.89,-107.15 173.77,-100.41"/>
</g>
<!-- :core:designsystem -->
<g id="node3" class="node">
<title>:core:designsystem</title>
<ellipse fill="none" stroke="black" cx="377.99" cy="-90" rx="100.98" ry="18"/>
<text text-anchor="middle" x="377.99" y="-86.3" font-family="Times,serif" font-size="14.00">:core:designsystem</text>
</g>
<!-- :feature:aboutme&#45;&gt;:core:designsystem -->
<g id="edge2" class="edge">
<title>:feature:aboutme&#45;&gt;:core:designsystem</title>
<path fill="none" stroke="black" d="M377.99,-143.7C377.99,-135.98 377.99,-126.71 377.99,-118.11"/>
<polygon fill="black" stroke="black" points="381.49,-118.1 377.99,-108.1 374.49,-118.1 381.49,-118.1"/>
</g>
<!-- :core:common -->
<g id="node4" class="node">
<title>:core:common</title>
<ellipse fill="none" stroke="black" cx="248.99" cy="-18" rx="75.29" ry="18"/>
<text text-anchor="middle" x="248.99" y="-14.3" font-family="Times,serif" font-size="14.00">:core:common</text>
</g>
<!-- :feature:aboutme&#45;&gt;:core:common -->
<g id="edge3" class="edge">
<title>:feature:aboutme&#45;&gt;:core:common</title>
<path fill="none" stroke="black" d="M326.38,-147.17C305.35,-139.03 282.6,-126.58 267.99,-108 254.3,-90.58 249.91,-65.53 248.74,-46.44"/>
<polygon fill="black" stroke="black" points="252.23,-46.14 248.37,-36.27 245.23,-46.39 252.23,-46.14"/>
</g>
<!-- :core:config -->
<g id="node5" class="node">
<title>:core:config</title>
<ellipse fill="none" stroke="black" cx="560.99" cy="-90" rx="64.19" ry="18"/>
<text text-anchor="middle" x="560.99" y="-86.3" font-family="Times,serif" font-size="14.00">:core:config</text>
</g>
<!-- :feature:aboutme&#45;&gt;:core:config -->
<g id="edge4" class="edge">
<title>:feature:aboutme&#45;&gt;:core:config</title>
<path fill="none" stroke="black" d="M418.15,-145.64C446.82,-134.67 485.44,-119.9 515.29,-108.48"/>
<polygon fill="black" stroke="black" points="516.56,-111.74 524.65,-104.9 514.06,-105.2 516.56,-111.74"/>
</g>
<!-- :core:shapes -->
<g id="node6" class="node">
<title>:core:shapes</title>
<ellipse fill="none" stroke="black" cx="711.99" cy="-90" rx="68.79" ry="18"/>
<text text-anchor="middle" x="711.99" y="-86.3" font-family="Times,serif" font-size="14.00">:core:shapes</text>
</g>
<!-- :feature:aboutme&#45;&gt;:core:shapes -->
<g id="edge5" class="edge">
<title>:feature:aboutme&#45;&gt;:core:shapes</title>
<path fill="none" stroke="black" d="M438.81,-148.6C490.7,-137.97 567.29,-122.17 633.99,-108 639.42,-106.85 645.05,-105.64 650.69,-104.42"/>
<polygon fill="black" stroke="black" points="651.79,-107.77 660.82,-102.23 650.31,-100.93 651.79,-107.77"/>
</g>
<!-- :core:analytics -->
<g id="node7" class="node">
<title>:core:analytics</title>
<ellipse fill="none" stroke="black" cx="77.99" cy="-18" rx="77.99" ry="18"/>
<text text-anchor="middle" x="77.99" y="-14.3" font-family="Times,serif" font-size="14.00">:core:analytics</text>
</g>
<!-- :core:ui&#45;&gt;:core:analytics -->
<g id="edge6" class="edge">
<title>:core:ui&#45;&gt;:core:analytics</title>
<path fill="none" stroke="red" stroke-width="2" d="M115.38,-72.41C109.49,-63.99 102.2,-53.58 95.63,-44.2"/>
<polygon fill="red" stroke="red" stroke-width="2" points="98.46,-42.14 89.86,-35.96 92.73,-46.16 98.46,-42.14"/>
</g>
<!-- :core:designsystem&#45;&gt;:core:common -->
<g id="edge9" class="edge">
<title>:core:designsystem&#45;&gt;:core:common</title>
<path fill="none" stroke="black" d="M348.07,-72.76C329.83,-62.86 306.33,-50.12 286.81,-39.52"/>
<polygon fill="black" stroke="black" points="288.32,-36.36 277.86,-34.67 284.98,-42.51 288.32,-36.36"/>
</g>
<!-- :core:accessibility -->
<g id="node8" class="node">
<title>:core:accessibility</title>
<ellipse fill="none" stroke="black" cx="435.99" cy="-18" rx="93.68" ry="18"/>
<text text-anchor="middle" x="435.99" y="-14.3" font-family="Times,serif" font-size="14.00">:core:accessibility</text>
</g>
<!-- :core:designsystem&#45;&gt;:core:accessibility -->
<g id="edge7" class="edge">
<title>:core:designsystem&#45;&gt;:core:accessibility</title>
<path fill="none" stroke="black" d="M392.03,-72.05C398.98,-63.67 407.51,-53.38 415.2,-44.1"/>
<polygon fill="black" stroke="black" points="417.99,-46.21 421.68,-36.28 412.6,-41.74 417.99,-46.21"/>
</g>
<!-- :core:feedback -->
<g id="node9" class="node">
<title>:core:feedback</title>
<ellipse fill="none" stroke="black" cx="625.99" cy="-18" rx="77.99" ry="18"/>
<text text-anchor="middle" x="625.99" y="-14.3" font-family="Times,serif" font-size="14.00">:core:feedback</text>
</g>
<!-- :core:designsystem&#45;&gt;:core:feedback -->
<g id="edge8" class="edge">
<title>:core:designsystem&#45;&gt;:core:feedback</title>
<path fill="none" stroke="black" d="M429.38,-74.5C469.96,-63.04 526.58,-47.06 568.63,-35.19"/>
<polygon fill="black" stroke="black" points="569.78,-38.5 578.45,-32.42 567.88,-31.77 569.78,-38.5"/>
</g>
</g>
</svg>
