<?xml version="1.0" encoding="UTF-8" standalone="no"?>
<!DOCTYPE svg PUBLIC "-//W3C//DTD SVG 1.1//EN"
 "http://www.w3.org/Graphics/SVG/1.1/DTD/svg11.dtd">
<!-- Generated by graphviz version 2.43.0 (0)
 -->
<!-- Title: G Pages: 1 -->
<svg width="922pt" height="260pt"
 viewBox="0.00 0.00 921.99 260.00" xmlns="http://www.w3.org/2000/svg" xmlns:xlink="http://www.w3.org/1999/xlink">
<g id="graph0" class="graph" transform="scale(1 1) rotate(0) translate(4 256)">
<title>G</title>
<polygon fill="white" stroke="transparent" points="-4,4 -4,-256 917.99,-256 917.99,4 -4,4"/>
<!-- :feature:aboutme -->
<g id="node1" class="node">
<title>:feature:aboutme</title>
<ellipse fill="none" stroke="black" cx="487.99" cy="-234" rx="90.98" ry="18"/>
<text text-anchor="middle" x="487.99" y="-230.3" font-family="Times,serif" font-size="14.00">:feature:aboutme</text>
</g>
<!-- :core:ui -->
<g id="node2" class="node">
<title>:core:ui</title>
<ellipse fill="none" stroke="black" cx="678.99" cy="-162" rx="45.49" ry="18"/>
<text text-anchor="middle" x="678.99" y="-158.3" font-family="Times,serif" font-size="14.00">:core:ui</text>
</g>
<!-- :feature:aboutme&#45;&gt;:core:ui -->
<g id="edge1" class="edge">
<title>:feature:aboutme&#45;&gt;:core:ui</title>
<path fill="none" stroke="red" stroke-width="2" d="M529.44,-217.81C561.35,-206.11 605.28,-190.01 637.27,-178.29"/>
<polygon fill="red" stroke="red" stroke-width="2" points="638.6,-181.53 646.79,-174.8 636.19,-174.96 638.6,-181.53"/>
</g>
<!-- :core:designsystem -->
<g id="node3" class="node">
<title>:core:designsystem</title>
<ellipse fill="none" stroke="black" cx="325.99" cy="-90" rx="100.98" ry="18"/>
<text text-anchor="middle" x="325.99" y="-86.3" font-family="Times,serif" font-size="14.00">:core:designsystem</text>
</g>
<!-- :feature:aboutme&#45;&gt;:core:designsystem -->
<g id="edge2" class="edge">
<title>:feature:aboutme&#45;&gt;:core:designsystem</title>
<path fill="none" stroke="black" d="M419,-222.13C392.34,-214.56 363.79,-201.73 344.99,-180 330.34,-163.06 326.09,-137.59 325.21,-118.24"/>
<polygon fill="black" stroke="black" points="328.71,-118.14 325.03,-108.2 321.71,-118.27 328.71,-118.14"/>
</g>
<!-- :core:data -->
<g id="node4" class="node">
<title>:core:data</title>
<ellipse fill="none" stroke="black" cx="557.99" cy="-162" rx="57.39" ry="18"/>
<text text-anchor="middle" x="557.99" y="-158.3" font-family="Times,serif" font-size="14.00">:core:data</text>
</g>
<!-- :feature:aboutme&#45;&gt;:core:data -->
<g id="edge3" class="edge">
<title>:feature:aboutme&#45;&gt;:core:data</title>
<path fill="none" stroke="black" d="M504.94,-216.05C513.84,-207.16 524.88,-196.11 534.58,-186.41"/>
<polygon fill="black" stroke="black" points="537.09,-188.85 541.69,-179.31 532.14,-183.9 537.09,-188.85"/>
</g>
<!-- :core:feedback -->
<g id="node5" class="node">
<title>:core:feedback</title>
<ellipse fill="none" stroke="black" cx="77.99" cy="-18" rx="77.99" ry="18"/>
<text text-anchor="middle" x="77.99" y="-14.3" font-family="Times,serif" font-size="14.00">:core:feedback</text>
</g>
<!-- :feature:aboutme&#45;&gt;:core:feedback -->
<g id="edge4" class="edge">
<title>:feature:aboutme&#45;&gt;:core:feedback</title>
<path fill="none" stroke="black" d="M433.79,-219.42C401.15,-210.29 359.22,-196.85 323.99,-180 240.29,-139.97 151.42,-75.61 106.92,-41.66"/>
<polygon fill="black" stroke="black" points="108.95,-38.8 98.89,-35.48 104.69,-44.35 108.95,-38.8"/>
</g>
<!-- :core:config -->
<g id="node6" class="node">
<title>:core:config</title>
<ellipse fill="none" stroke="black" cx="417.99" cy="-162" rx="64.19" ry="18"/>
<text text-anchor="middle" x="417.99" y="-158.3" font-family="Times,serif" font-size="14.00">:core:config</text>
</g>
<!-- :feature:aboutme&#45;&gt;:core:config -->
<g id="edge5" class="edge">
<title>:feature:aboutme&#45;&gt;:core:config</title>
<path fill="none" stroke="black" d="M471.05,-216.05C462.36,-207.37 451.64,-196.64 442.11,-187.11"/>
<polygon fill="black" stroke="black" points="444.33,-184.39 434.78,-179.79 439.38,-189.33 444.33,-184.39"/>
</g>
<!-- :core:shapes -->
<g id="node7" class="node">
<title>:core:shapes</title>
<ellipse fill="none" stroke="black" cx="810.99" cy="-162" rx="68.79" ry="18"/>
<text text-anchor="middle" x="810.99" y="-158.3" font-family="Times,serif" font-size="14.00">:core:shapes</text>
</g>
<!-- :feature:aboutme&#45;&gt;:core:shapes -->
<g id="edge6" class="edge">
<title>:feature:aboutme&#45;&gt;:core:shapes</title>
<path fill="none" stroke="black" d="M546.91,-220.28C596.54,-209.56 669.41,-193.81 732.99,-180 738.41,-178.82 744.04,-177.6 749.68,-176.37"/>
<polygon fill="black" stroke="black" points="750.78,-179.71 759.81,-174.17 749.29,-172.87 750.78,-179.71"/>
</g>
<!-- :core:ui&#45;&gt;:core:designsystem -->
<g id="edge8" class="edge">
<title>:core:ui&#45;&gt;:core:designsystem</title>
<path fill="none" stroke="red" stroke-width="2" d="M645.14,-149.82C638.19,-147.72 630.89,-145.67 623.99,-144 553.39,-126.88 472.13,-112.79 412.32,-103.46"/>
<polygon fill="red" stroke="red" stroke-width="2" points="412.58,-99.96 402.16,-101.89 411.51,-106.87 412.58,-99.96"/>
</g>
<!-- :core:analytics -->
<g id="node8" class="node">
<title>:core:analytics</title>
<ellipse fill="none" stroke="black" cx="740.99" cy="-90" rx="77.99" ry="18"/>
<text text-anchor="middle" x="740.99" y="-86.3" font-family="Times,serif" font-size="14.00">:core:analytics</text>
</g>
<!-- :core:ui&#45;&gt;:core:analytics -->
<g id="edge7" class="edge">
<title>:core:ui&#45;&gt;:core:analytics</title>
<path fill="none" stroke="black" d="M693.37,-144.76C700.97,-136.18 710.47,-125.46 718.98,-115.86"/>
<polygon fill="black" stroke="black" points="721.82,-117.93 725.83,-108.12 716.58,-113.29 721.82,-117.93"/>
</g>
<!-- :core:model -->
<g id="node9" class="node">
<title>:core:model</title>
<ellipse fill="none" stroke="black" cx="848.99" cy="-18" rx="64.99" ry="18"/>
<text text-anchor="middle" x="848.99" y="-14.3" font-family="Times,serif" font-size="14.00">:core:model</text>
</g>
<!-- :core:ui&#45;&gt;:core:model -->
<g id="edge9" class="edge">
<title>:core:ui&#45;&gt;:core:model</title>
<path fill="none" stroke="black" d="M712.73,-149.9C755.44,-135.73 823.97,-112.49 827.99,-108 843.01,-91.24 847.83,-65.75 849.15,-46.34"/>
<polygon fill="black" stroke="black" points="852.65,-46.41 849.56,-36.28 845.66,-46.12 852.65,-46.41"/>
</g>
<!-- :core:designsystem&#45;&gt;:core:feedback -->
<g id="edge11" class="edge">
<title>:core:designsystem&#45;&gt;:core:feedback</title>
<path fill="none" stroke="black" d="M274.61,-74.5C234.02,-63.04 177.41,-47.06 135.35,-35.19"/>
<polygon fill="black" stroke="black" points="136.11,-31.77 125.53,-32.42 134.21,-38.5 136.11,-31.77"/>
</g>
<!-- :core:accessibility -->
<g id="node10" class="node">
<title>:core:accessibility</title>
<ellipse fill="none" stroke="black" cx="267.99" cy="-18" rx="93.68" ry="18"/>
<text text-anchor="middle" x="267.99" y="-14.3" font-family="Times,serif" font-size="14.00">:core:accessibility</text>
</g>
<!-- :core:designsystem&#45;&gt;:core:accessibility -->
<g id="edge10" class="edge">
<title>:core:designsystem&#45;&gt;:core:accessibility</title>
<path fill="none" stroke="red" stroke-width="2" d="M311.95,-72.05C305,-63.67 296.48,-53.38 288.79,-44.1"/>
<polygon fill="red" stroke="red" stroke-width="2" points="291.38,-41.74 282.31,-36.28 285.99,-46.21 291.38,-41.74"/>
</g>
<!-- :core:common -->
<g id="node11" class="node">
<title>:core:common</title>
<ellipse fill="none" stroke="black" cx="454.99" cy="-18" rx="75.29" ry="18"/>
<text text-anchor="middle" x="454.99" y="-14.3" font-family="Times,serif" font-size="14.00">:core:common</text>
</g>
<!-- :core:designsystem&#45;&gt;:core:common -->
<g id="edge12" class="edge">
<title>:core:designsystem&#45;&gt;:core:common</title>
<path fill="none" stroke="black" d="M355.91,-72.76C374.16,-62.86 397.65,-50.12 417.18,-39.52"/>
<polygon fill="black" stroke="black" points="419,-42.51 426.12,-34.67 415.66,-36.36 419,-42.51"/>
</g>
<!-- :core:data&#45;&gt;:core:analytics -->
<g id="edge15" class="edge">
<title>:core:data&#45;&gt;:core:analytics</title>
<path fill="none" stroke="black" d="M592.84,-147.67C621.23,-136.81 661.6,-121.37 693.03,-109.35"/>
<polygon fill="black" stroke="black" points="694.39,-112.58 702.48,-105.73 691.88,-106.04 694.39,-112.58"/>
</g>
<!-- :core:data&#45;&gt;:core:common -->
<g id="edge13" class="edge">
<title>:core:data&#45;&gt;:core:common</title>
<path fill="none" stroke="black" d="M524.2,-147.46C506.64,-138.73 486.33,-125.68 473.99,-108 461.39,-89.93 456.88,-65.15 455.38,-46.32"/>
<polygon fill="black" stroke="black" points="458.88,-46.08 454.82,-36.29 451.89,-46.47 458.88,-46.08"/>
</g>
<!-- :core:datastore -->
<g id="node12" class="node">
<title>:core:datastore</title>
<ellipse fill="none" stroke="black" cx="563.99" cy="-90" rx="81.49" ry="18"/>
<text text-anchor="middle" x="563.99" y="-86.3" font-family="Times,serif" font-size="14.00">:core:datastore</text>
</g>
<!-- :core:data&#45;&gt;:core:datastore -->
<g id="edge14" class="edge">
<title>:core:data&#45;&gt;:core:datastore</title>
<path fill="none" stroke="black" d="M559.48,-143.7C560.14,-135.98 560.93,-126.71 561.67,-118.11"/>
<polygon fill="black" stroke="black" points="565.16,-118.37 562.53,-108.1 558.19,-117.77 565.16,-118.37"/>
</g>
<!-- :core:config&#45;&gt;:core:designsystem -->
<g id="edge19" class="edge">
<title>:core:config&#45;&gt;:core:designsystem</title>
<path fill="none" stroke="black" d="M396.66,-144.76C384.52,-135.53 369.14,-123.83 355.83,-113.7"/>
<polygon fill="black" stroke="black" points="357.93,-110.9 347.85,-107.63 353.69,-116.47 357.93,-110.9"/>
</g>
<!-- :core:datastore&#45;&gt;:core:model -->
<g id="edge17" class="edge">
<title>:core:datastore&#45;&gt;:core:model</title>
<path fill="none" stroke="black" d="M616.27,-76.16C665.98,-63.95 740.59,-45.63 791.85,-33.03"/>
<polygon fill="black" stroke="black" points="792.9,-36.38 801.78,-30.6 791.24,-29.58 792.9,-36.38"/>
</g>
<!-- :core:datastore&#45;&gt;:core:common -->
<g id="edge18" class="edge">
<title>:core:datastore&#45;&gt;:core:common</title>
<path fill="none" stroke="black" d="M538.71,-72.76C523.85,-63.22 504.88,-51.04 488.76,-40.68"/>
<polygon fill="black" stroke="black" points="490.44,-37.61 480.14,-35.15 486.66,-43.5 490.44,-37.61"/>
</g>
<!-- :core:datastore&#45;proto -->
<g id="node13" class="node">
<title>:core:datastore&#45;proto</title>
<ellipse fill="none" stroke="black" cx="656.99" cy="-18" rx="108.58" ry="18"/>
<text text-anchor="middle" x="656.99" y="-14.3" font-family="Times,serif" font-size="14.00">:core:datastore&#45;proto</text>
</g>
<!-- :core:datastore&#45;&gt;:core:datastore&#45;proto -->
<g id="edge16" class="edge">
<title>:core:datastore&#45;&gt;:core:datastore&#45;proto</title>
<path fill="none" stroke="black" d="M586.03,-72.41C598.11,-63.32 613.25,-51.92 626.45,-41.99"/>
<polygon fill="black" stroke="black" points="628.9,-44.52 634.79,-35.71 624.69,-38.93 628.9,-44.52"/>
</g>
</g>
</svg>
