<?xml version="1.0" encoding="UTF-8" standalone="no"?>
<!DOCTYPE svg PUBLIC "-//W3C//DTD SVG 1.1//EN"
 "http://www.w3.org/Graphics/SVG/1.1/DTD/svg11.dtd">
<!-- Generated by graphviz version 2.43.0 (0)
 -->
<!-- Title: G Pages: 1 -->
<svg width="1117pt" height="332pt"
 viewBox="0.00 0.00 1116.78 332.00" xmlns="http://www.w3.org/2000/svg" xmlns:xlink="http://www.w3.org/1999/xlink">
<g id="graph0" class="graph" transform="scale(1 1) rotate(0) translate(4 328)">
<title>G</title>
<polygon fill="white" stroke="transparent" points="-4,4 -4,-328 1112.78,-328 1112.78,4 -4,4"/>
<!-- :app -->
<g id="node1" class="node">
<title>:app</title>
<ellipse fill="none" stroke="black" cx="443.19" cy="-306" rx="30.59" ry="18"/>
<text text-anchor="middle" x="443.19" y="-302.3" font-family="Times,serif" font-size="14.00">:app</text>
</g>
<!-- :feature:settings -->
<g id="node2" class="node">
<title>:feature:settings</title>
<ellipse fill="none" stroke="black" cx="501.19" cy="-234" rx="87.99" ry="18"/>
<text text-anchor="middle" x="501.19" y="-230.3" font-family="Times,serif" font-size="14.00">:feature:settings</text>
</g>
<!-- :app&#45;&gt;:feature:settings -->
<g id="edge1" class="edge">
<title>:app&#45;&gt;:feature:settings</title>
<path fill="none" stroke="red" stroke-width="2" d="M456.07,-289.46C463.26,-280.78 472.4,-269.75 480.57,-259.89"/>
<polygon fill="red" stroke="red" stroke-width="2" points="483.45,-261.9 487.14,-251.96 478.06,-257.43 483.45,-261.9"/>
</g>
<!-- :feature:aboutme -->
<g id="node3" class="node">
<title>:feature:aboutme</title>
<ellipse fill="none" stroke="black" cx="736.19" cy="-234" rx="90.98" ry="18"/>
<text text-anchor="middle" x="736.19" y="-230.3" font-family="Times,serif" font-size="14.00">:feature:aboutme</text>
</g>
<!-- :app&#45;&gt;:feature:aboutme -->
<g id="edge2" class="edge">
<title>:app&#45;&gt;:feature:aboutme</title>
<path fill="none" stroke="black" d="M471.02,-298.35C516.51,-287.48 608,-265.63 670.67,-250.65"/>
<polygon fill="black" stroke="black" points="671.56,-254.04 680.47,-248.31 669.93,-247.23 671.56,-254.04"/>
</g>
<!-- :core:common -->
<g id="node4" class="node">
<title>:core:common</title>
<ellipse fill="none" stroke="black" cx="510.19" cy="-18" rx="75.29" ry="18"/>
<text text-anchor="middle" x="510.19" y="-14.3" font-family="Times,serif" font-size="14.00">:core:common</text>
</g>
<!-- :app&#45;&gt;:core:common -->
<g id="edge3" class="edge">
<title>:app&#45;&gt;:core:common</title>
<path fill="none" stroke="black" d="M426.85,-290.75C396.02,-262.08 335.03,-195.76 366.19,-144 383.83,-114.7 407.51,-129.38 434.19,-108 457.16,-89.6 478.46,-63.54 492.63,-44.37"/>
<polygon fill="black" stroke="black" points="495.59,-46.25 498.62,-36.1 489.92,-42.14 495.59,-46.25"/>
</g>
<!-- :core:ui -->
<g id="node5" class="node">
<title>:core:ui</title>
<ellipse fill="none" stroke="black" cx="420.19" cy="-162" rx="45.49" ry="18"/>
<text text-anchor="middle" x="420.19" y="-158.3" font-family="Times,serif" font-size="14.00">:core:ui</text>
</g>
<!-- :app&#45;&gt;:core:ui -->
<g id="edge4" class="edge">
<title>:app&#45;&gt;:core:ui</title>
<path fill="none" stroke="black" d="M428.32,-290.27C419.43,-280.38 408.97,-266.54 404.19,-252 397.45,-231.46 402.59,-207.26 408.79,-189.28"/>
<polygon fill="black" stroke="black" points="412.13,-190.34 412.37,-179.74 405.58,-187.87 412.13,-190.34"/>
</g>
<!-- :core:designsystem -->
<g id="node6" class="node">
<title>:core:designsystem</title>
<ellipse fill="none" stroke="black" cx="818.19" cy="-90" rx="100.98" ry="18"/>
<text text-anchor="middle" x="818.19" y="-86.3" font-family="Times,serif" font-size="14.00">:core:designsystem</text>
</g>
<!-- :app&#45;&gt;:core:designsystem -->
<g id="edge5" class="edge">
<title>:app&#45;&gt;:core:designsystem</title>
<path fill="none" stroke="black" d="M473.37,-302.98C553.58,-297.29 770.46,-279.72 836.19,-252 894.29,-227.5 961.74,-197.39 928.19,-144 918.2,-128.1 901.95,-116.85 884.97,-108.95"/>
<polygon fill="black" stroke="black" points="886.07,-105.61 875.5,-104.89 883.31,-112.05 886.07,-105.61"/>
</g>
<!-- :core:data -->
<g id="node7" class="node">
<title>:core:data</title>
<ellipse fill="none" stroke="black" cx="262.19" cy="-162" rx="57.39" ry="18"/>
<text text-anchor="middle" x="262.19" y="-158.3" font-family="Times,serif" font-size="14.00">:core:data</text>
</g>
<!-- :app&#45;&gt;:core:data -->
<g id="edge6" class="edge">
<title>:app&#45;&gt;:core:data</title>
<path fill="none" stroke="black" d="M417.33,-296.33C393.79,-287.59 358.88,-272.49 333.19,-252 310.78,-234.13 290.98,-207.94 278.02,-188.6"/>
<polygon fill="black" stroke="black" points="280.79,-186.44 272.39,-179.98 274.93,-190.27 280.79,-186.44"/>
</g>
<!-- :core:model -->
<g id="node8" class="node">
<title>:core:model</title>
<ellipse fill="none" stroke="black" cx="116.19" cy="-18" rx="64.99" ry="18"/>
<text text-anchor="middle" x="116.19" y="-14.3" font-family="Times,serif" font-size="14.00">:core:model</text>
</g>
<!-- :app&#45;&gt;:core:model -->
<g id="edge7" class="edge">
<title>:app&#45;&gt;:core:model</title>
<path fill="none" stroke="black" d="M412.93,-302.9C328.4,-295.18 90.45,-260.16 6.19,-108 -1.56,-94 -2.32,-85.55 6.19,-72 17.83,-53.48 37.95,-41.28 57.82,-33.32"/>
<polygon fill="black" stroke="black" points="59.05,-36.59 67.22,-29.84 56.62,-30.03 59.05,-36.59"/>
</g>
<!-- :core:analytics -->
<g id="node9" class="node">
<title>:core:analytics</title>
<ellipse fill="none" stroke="black" cx="93.19" cy="-90" rx="77.99" ry="18"/>
<text text-anchor="middle" x="93.19" y="-86.3" font-family="Times,serif" font-size="14.00">:core:analytics</text>
</g>
<!-- :app&#45;&gt;:core:analytics -->
<g id="edge8" class="edge">
<title>:app&#45;&gt;:core:analytics</title>
<path fill="none" stroke="black" d="M415.75,-297.73C385.28,-289.08 335.12,-273.11 295.19,-252 223.87,-214.29 153.04,-150.08 117.23,-115.23"/>
<polygon fill="black" stroke="black" points="119.3,-112.36 109.72,-107.85 114.4,-117.36 119.3,-112.36"/>
</g>
<!-- :core:config -->
<g id="node10" class="node">
<title>:core:config</title>
<ellipse fill="none" stroke="black" cx="623.19" cy="-162" rx="64.19" ry="18"/>
<text text-anchor="middle" x="623.19" y="-158.3" font-family="Times,serif" font-size="14.00">:core:config</text>
</g>
<!-- :app&#45;&gt;:core:config -->
<g id="edge9" class="edge">
<title>:app&#45;&gt;:core:config</title>
<path fill="none" stroke="black" d="M473.29,-302.9C508.2,-298.83 565.17,-286.92 598.19,-252 613.92,-235.37 619.88,-209.66 622.08,-190.13"/>
<polygon fill="black" stroke="black" points="625.58,-190.29 622.95,-180.02 618.61,-189.69 625.58,-190.29"/>
</g>
<!-- :core:accessibility -->
<g id="node11" class="node">
<title>:core:accessibility</title>
<ellipse fill="none" stroke="black" cx="1015.19" cy="-18" rx="93.68" ry="18"/>
<text text-anchor="middle" x="1015.19" y="-14.3" font-family="Times,serif" font-size="14.00">:core:accessibility</text>
</g>
<!-- :app&#45;&gt;:core:accessibility -->
<g id="edge10" class="edge">
<title>:app&#45;&gt;:core:accessibility</title>
<path fill="none" stroke="black" d="M473.64,-304.22C561.48,-301.51 813.65,-290.5 885.19,-252 964.22,-209.48 998.08,-97.89 1009.89,-46.11"/>
<polygon fill="black" stroke="black" points="1013.38,-46.53 1012.08,-36.02 1006.54,-45.05 1013.38,-46.53"/>
</g>
<!-- :feature:settings&#45;&gt;:core:ui -->
<g id="edge11" class="edge">
<title>:feature:settings&#45;&gt;:core:ui</title>
<path fill="none" stroke="red" stroke-width="2" d="M482,-216.41C471.28,-207.15 457.78,-195.48 446.13,-185.41"/>
<polygon fill="red" stroke="red" stroke-width="2" points="448.27,-182.64 438.42,-178.75 443.69,-187.94 448.27,-182.64"/>
</g>
<!-- :feature:settings&#45;&gt;:core:designsystem -->
<g id="edge12" class="edge">
<title>:feature:settings&#45;&gt;:core:designsystem</title>
<path fill="none" stroke="black" d="M505.76,-215.97C512.16,-195.53 525.85,-161.8 550.19,-144 577.6,-123.96 658.15,-109.76 723.85,-101.14"/>
<polygon fill="black" stroke="black" points="724.37,-104.6 733.84,-99.85 723.48,-97.65 724.37,-104.6"/>
</g>
<!-- :feature:settings&#45;&gt;:core:data -->
<g id="edge13" class="edge">
<title>:feature:settings&#45;&gt;:core:data</title>
<path fill="none" stroke="black" d="M453.12,-218.92C412.23,-206.94 353.72,-189.81 312.27,-177.67"/>
<polygon fill="black" stroke="black" points="313.23,-174.3 302.65,-174.85 311.26,-181.02 313.23,-174.3"/>
</g>
<!-- :feature:settings&#45;&gt;:core:config -->
<g id="edge15" class="edge">
<title>:feature:settings&#45;&gt;:core:config</title>
<path fill="none" stroke="black" d="M529.49,-216.76C546.79,-206.84 569.07,-194.05 587.57,-183.44"/>
<polygon fill="black" stroke="black" points="589.37,-186.44 596.31,-178.43 585.89,-180.37 589.37,-186.44"/>
</g>
<!-- :core:feedback -->
<g id="node12" class="node">
<title>:core:feedback</title>
<ellipse fill="none" stroke="black" cx="818.19" cy="-18" rx="77.99" ry="18"/>
<text text-anchor="middle" x="818.19" y="-14.3" font-family="Times,serif" font-size="14.00">:core:feedback</text>
</g>
<!-- :feature:settings&#45;&gt;:core:feedback -->
<g id="edge14" class="edge">
<title>:feature:settings&#45;&gt;:core:feedback</title>
<path fill="none" stroke="black" d="M499.7,-215.96C498.94,-196.46 500.66,-164.55 517.19,-144 572.72,-74.98 672.9,-43.63 742.35,-29.69"/>
<polygon fill="black" stroke="black" points="743.21,-33.09 752.37,-27.76 741.89,-26.21 743.21,-33.09"/>
</g>
<!-- :feature:aboutme&#45;&gt;:core:common -->
<g id="edge30" class="edge">
<title>:feature:aboutme&#45;&gt;:core:common</title>
<path fill="none" stroke="black" d="M731.56,-215.7C725.76,-196.54 714.32,-165.49 696.19,-144 656.2,-96.58 593.87,-59.74 552.55,-38.7"/>
<polygon fill="black" stroke="black" points="554.06,-35.54 543.55,-34.2 550.93,-41.8 554.06,-35.54"/>
</g>
<!-- :feature:aboutme&#45;&gt;:core:ui -->
<g id="edge28" class="edge">
<title>:feature:aboutme&#45;&gt;:core:ui</title>
<path fill="none" stroke="black" d="M677.87,-220.08C617.76,-206.77 525.14,-186.25 468.85,-173.78"/>
<polygon fill="black" stroke="black" points="469.3,-170.29 458.78,-171.55 467.78,-177.13 469.3,-170.29"/>
</g>
<!-- :feature:aboutme&#45;&gt;:core:designsystem -->
<g id="edge29" class="edge">
<title>:feature:aboutme&#45;&gt;:core:designsystem</title>
<path fill="none" stroke="black" d="M741.27,-215.81C747.16,-197.28 757.92,-167.31 772.19,-144 778.33,-133.98 786.38,-123.98 794.02,-115.42"/>
<polygon fill="black" stroke="black" points="796.66,-117.72 800.86,-107.99 791.51,-112.98 796.66,-117.72"/>
</g>
<!-- :feature:aboutme&#45;&gt;:core:config -->
<g id="edge32" class="edge">
<title>:feature:aboutme&#45;&gt;:core:config</title>
<path fill="none" stroke="black" d="M709.7,-216.59C694.07,-206.9 674.12,-194.55 657.32,-184.14"/>
<polygon fill="black" stroke="black" points="658.7,-180.88 648.36,-178.59 655.02,-186.83 658.7,-180.88"/>
</g>
<!-- :feature:aboutme&#45;&gt;:core:feedback -->
<g id="edge31" class="edge">
<title>:feature:aboutme&#45;&gt;:core:feedback</title>
<path fill="none" stroke="black" d="M806.89,-222.59C855.27,-213.85 913.24,-199.64 928.19,-180 957.27,-141.81 953.73,-112.65 928.19,-72 917.34,-54.72 899.1,-42.95 880.56,-34.98"/>
<polygon fill="black" stroke="black" points="881.76,-31.69 871.18,-31.25 879.18,-38.19 881.76,-31.69"/>
</g>
<!-- :core:shapes -->
<g id="node15" class="node">
<title>:core:shapes</title>
<ellipse fill="none" stroke="black" cx="850.19" cy="-162" rx="68.79" ry="18"/>
<text text-anchor="middle" x="850.19" y="-158.3" font-family="Times,serif" font-size="14.00">:core:shapes</text>
</g>
<!-- :feature:aboutme&#45;&gt;:core:shapes -->
<g id="edge33" class="edge">
<title>:feature:aboutme&#45;&gt;:core:shapes</title>
<path fill="none" stroke="black" d="M762.63,-216.76C778.43,-207.07 798.67,-194.64 815.71,-184.17"/>
<polygon fill="black" stroke="black" points="817.6,-187.12 824.29,-178.91 813.94,-181.16 817.6,-187.12"/>
</g>
<!-- :core:ui&#45;&gt;:core:designsystem -->
<g id="edge17" class="edge">
<title>:core:ui&#45;&gt;:core:designsystem</title>
<path fill="none" stroke="red" stroke-width="2" d="M460.92,-153.84C526.12,-142.37 655.13,-119.68 738.97,-104.93"/>
<polygon fill="red" stroke="red" stroke-width="2" points="739.72,-108.36 748.96,-103.18 738.5,-101.46 739.72,-108.36"/>
</g>
<!-- :core:ui&#45;&gt;:core:model -->
<g id="edge18" class="edge">
<title>:core:ui&#45;&gt;:core:model</title>
<path fill="none" stroke="black" d="M380.65,-153.07C330.13,-142.52 245.92,-123.42 218.19,-108 197.86,-96.69 197.61,-87.43 180.19,-72 168.64,-61.76 155.56,-50.82 144.25,-41.55"/>
<polygon fill="black" stroke="black" points="146.34,-38.74 136.37,-35.14 141.91,-44.17 146.34,-38.74"/>
</g>
<!-- :core:ui&#45;&gt;:core:analytics -->
<g id="edge16" class="edge">
<title>:core:ui&#45;&gt;:core:analytics</title>
<path fill="none" stroke="black" d="M381.07,-152.63C326.01,-140.84 224.94,-119.2 158.41,-104.96"/>
<polygon fill="black" stroke="black" points="158.96,-101.5 148.44,-102.83 157.49,-108.34 158.96,-101.5"/>
</g>
<!-- :core:designsystem&#45;&gt;:core:common -->
<g id="edge20" class="edge">
<title>:core:designsystem&#45;&gt;:core:common</title>
<path fill="none" stroke="black" d="M758.44,-75.42C705,-63.27 626.96,-45.54 572.69,-33.2"/>
<polygon fill="black" stroke="black" points="573.38,-29.77 562.85,-30.97 571.82,-36.6 573.38,-29.77"/>
</g>
<!-- :core:designsystem&#45;&gt;:core:accessibility -->
<g id="edge19" class="edge">
<title>:core:designsystem&#45;&gt;:core:accessibility</title>
<path fill="none" stroke="red" stroke-width="2" d="M861.43,-73.64C891.4,-62.99 931.46,-48.75 963.18,-37.48"/>
<polygon fill="red" stroke="red" stroke-width="2" points="964.49,-40.73 972.74,-34.09 962.14,-34.14 964.49,-40.73"/>
</g>
<!-- :core:designsystem&#45;&gt;:core:feedback -->
<g id="edge21" class="edge">
<title>:core:designsystem&#45;&gt;:core:feedback</title>
<path fill="none" stroke="black" d="M818.19,-71.7C818.19,-63.98 818.19,-54.71 818.19,-46.11"/>
<polygon fill="black" stroke="black" points="821.69,-46.1 818.19,-36.1 814.69,-46.1 821.69,-46.1"/>
</g>
<!-- :core:data&#45;&gt;:core:common -->
<g id="edge22" class="edge">
<title>:core:data&#45;&gt;:core:common</title>
<path fill="none" stroke="black" d="M302.45,-149.15C330.39,-140.02 367.88,-125.94 398.19,-108 419.64,-95.31 421.75,-87.59 441.19,-72 453.83,-61.86 467.99,-50.92 480.18,-41.62"/>
<polygon fill="black" stroke="black" points="482.42,-44.32 488.26,-35.48 478.18,-38.74 482.42,-44.32"/>
</g>
<!-- :core:data&#45;&gt;:core:analytics -->
<g id="edge24" class="edge">
<title>:core:data&#45;&gt;:core:analytics</title>
<path fill="none" stroke="black" d="M228.8,-147.17C203.05,-136.5 167.15,-121.63 138.75,-109.87"/>
<polygon fill="black" stroke="black" points="140.02,-106.61 129.44,-106.01 137.34,-113.07 140.02,-106.61"/>
</g>
<!-- :core:datastore -->
<g id="node13" class="node">
<title>:core:datastore</title>
<ellipse fill="none" stroke="black" cx="308.19" cy="-90" rx="81.49" ry="18"/>
<text text-anchor="middle" x="308.19" y="-86.3" font-family="Times,serif" font-size="14.00">:core:datastore</text>
</g>
<!-- :core:data&#45;&gt;:core:datastore -->
<g id="edge23" class="edge">
<title>:core:data&#45;&gt;:core:datastore</title>
<path fill="none" stroke="black" d="M273.33,-144.05C278.73,-135.84 285.33,-125.79 291.33,-116.66"/>
<polygon fill="black" stroke="black" points="294.27,-118.55 296.84,-108.28 288.42,-114.71 294.27,-118.55"/>
</g>
<!-- :core:datastore&#45;&gt;:core:common -->
<g id="edge27" class="edge">
<title>:core:datastore&#45;&gt;:core:common</title>
<path fill="none" stroke="black" d="M350.05,-74.5C381.81,-63.49 425.63,-48.31 459.4,-36.6"/>
<polygon fill="black" stroke="black" points="460.78,-39.83 469.08,-33.25 458.49,-33.21 460.78,-39.83"/>
</g>
<!-- :core:datastore&#45;&gt;:core:model -->
<g id="edge26" class="edge">
<title>:core:datastore&#45;&gt;:core:model</title>
<path fill="none" stroke="black" d="M267.94,-74.33C237.45,-63.21 195.47,-47.9 163.39,-36.21"/>
<polygon fill="black" stroke="black" points="164.38,-32.84 153.78,-32.7 161.98,-39.42 164.38,-32.84"/>
</g>
<!-- :core:datastore&#45;proto -->
<g id="node14" class="node">
<title>:core:datastore&#45;proto</title>
<ellipse fill="none" stroke="black" cx="308.19" cy="-18" rx="108.58" ry="18"/>
<text text-anchor="middle" x="308.19" y="-14.3" font-family="Times,serif" font-size="14.00">:core:datastore&#45;proto</text>
</g>
<!-- :core:datastore&#45;&gt;:core:datastore&#45;proto -->
<g id="edge25" class="edge">
<title>:core:datastore&#45;&gt;:core:datastore&#45;proto</title>
<path fill="none" stroke="black" d="M308.19,-71.7C308.19,-63.98 308.19,-54.71 308.19,-46.11"/>
<polygon fill="black" stroke="black" points="311.69,-46.1 308.19,-36.1 304.69,-46.1 311.69,-46.1"/>
</g>
</g>
</svg>
