<?xml version="1.0" encoding="UTF-8" standalone="no"?>
<!DOCTYPE svg PUBLIC "-//W3C//DTD SVG 1.1//EN" "http://www.w3.org/Graphics/SVG/1.1/DTD/svg11.dtd">
<svg xmlns="http://www.w3.org/2000/svg" xmlns:xlink="http://www.w3.org/1999/xlink" width="1132pt" height="332pt" viewBox="0.00 0.00 1131.58 332.00">
  <g id="graph0" class="graph" transform="scale(1 1) rotate(0) translate(4 328)">
    <title>G</title>
    <polygon fill="white" stroke="transparent" points="-4,4 -4,-328 1127.58,-328 1127.58,4 -4,4"/>
    <g id="node1" class="node">
      <title>:app</title>
      <ellipse fill="none" stroke="black" cx="519.99" cy="-306" rx="30.59" ry="18"/>
      <text text-anchor="middle" x="519.99" y="-302.3" font-family="Times,serif" font-size="14.00">:app</text>
    </g>
    <g id="node2" class="node">
      <title>:feature:settings</title>
      <ellipse fill="none" stroke="black" cx="342.99" cy="-234" rx="87.99" ry="18"/>
      <text text-anchor="middle" x="342.99" y="-230.3" font-family="Times,serif" font-size="14.00">:feature:settings</text>
    </g>
    <g id="edge1" class="edge">
      <title>:app-&gt;:feature:settings</title>
      <path fill="none" stroke="red" stroke-width="2" d="M495.38,-295.27C468.58,-284.67 425.04,-267.45 391.35,-254.12"/>
      <polygon fill="red" stroke="red" stroke-width="2" points="392.27,-250.73 381.69,-250.3 389.7,-257.23 392.27,-250.73"/>
    </g>
    <g id="node3" class="node">
      <title>:feature:aboutme</title>
      <ellipse fill="none" stroke="black" cx="638.99" cy="-234" rx="90.98" ry="18"/>
      <text text-anchor="middle" x="638.99" y="-230.3" font-family="Times,serif" font-size="14.00">:feature:aboutme</text>
    </g>
    <g id="edge2" class="edge">
      <title>:app-&gt;:feature:aboutme</title>
      <path fill="none" stroke="black" d="M540.99,-292.65C558.08,-282.59 582.59,-268.18 602.83,-256.27"/>
      <polygon fill="black" stroke="black" points="604.65,-259.26 611.49,-251.18 601.1,-253.23 604.65,-259.26"/>
    </g>
    <g id="node4" class="node">
      <title>:core:common</title>
      <ellipse fill="none" stroke="black" cx="694.99" cy="-18" rx="75.29" ry="18"/>
      <text text-anchor="middle" x="694.99" y="-14.3" font-family="Times,serif" font-size="14.00">:core:common</text>
    </g>
    <g id="edge3" class="edge">
      <title>:app-&gt;:core:common</title>
      <path fill="none" stroke="black" d="M549.92,-302.19C609.12,-296.08 738.33,-279.87 771.99,-252 835.85,-199.12 866.87,-141.06 820.99,-72 808.01,-52.46 786.26,-40.1 764.46,-32.3"/>
      <polygon fill="black" stroke="black" points="765.39,-28.92 754.8,-29.13 763.21,-35.57 765.39,-28.92"/>
    </g>
    <g id="node5" class="node">
      <title>:core:ui</title>
      <ellipse fill="none" stroke="black" cx="198.99" cy="-162" rx="45.49" ry="18"/>
      <text text-anchor="middle" x="198.99" y="-158.3" font-family="Times,serif" font-size="14.00">:core:ui</text>
    </g>
    <g id="edge4" class="edge">
      <title>:app-&gt;:core:ui</title>
      <path fill="none" stroke="black" d="M489.63,-302.43C426.64,-296.57 284.43,-280.5 245.99,-252 225.46,-236.78 213.05,-209.89 206.18,-189.64"/>
      <polygon fill="black" stroke="black" points="209.5,-188.52 203.16,-180.03 202.82,-190.62 209.5,-188.52"/>
    </g>
    <g id="node6" class="node">
      <title>:core:designsystem</title>
      <ellipse fill="none" stroke="black" cx="694.99" cy="-90" rx="100.98" ry="18"/>
      <text text-anchor="middle" x="694.99" y="-86.3" font-family="Times,serif" font-size="14.00">:core:designsystem</text>
    </g>
    <g id="edge5" class="edge">
      <title>:app-&gt;:core:designsystem</title>
      <path fill="none" stroke="black" d="M550.58,-304.68C595.87,-302.76 681.57,-293.42 738.99,-252 781.17,-221.58 809.69,-189.21 783.99,-144 775.97,-129.89 762.55,-119.14 748.53,-111.14"/>
      <polygon fill="black" stroke="black" points="749.76,-107.83 739.28,-106.27 746.5,-114.03 749.76,-107.83"/>
    </g>
    <g id="node7" class="node">
      <title>:core:data</title>
      <ellipse fill="none" stroke="black" cx="77.99" cy="-162" rx="57.39" ry="18"/>
      <text text-anchor="middle" x="77.99" y="-158.3" font-family="Times,serif" font-size="14.00">:core:data</text>
    </g>
    <g id="edge6" class="edge">
      <title>:app-&gt;:core:data</title>
      <path fill="none" stroke="black" d="M489.25,-303.84C432.66,-300.81 309.05,-290.02 212.99,-252 172.01,-235.78 130.52,-205.98 104.56,-185.35"/>
      <polygon fill="black" stroke="black" points="106.67,-182.57 96.69,-179.01 102.28,-188.01 106.67,-182.57"/>
    </g>
    <g id="node8" class="node">
      <title>:core:model</title>
      <ellipse fill="none" stroke="black" cx="852.99" cy="-18" rx="64.99" ry="18"/>
      <text text-anchor="middle" x="852.99" y="-14.3" font-family="Times,serif" font-size="14.00">:core:model</text>
    </g>
    <g id="edge7" class="edge">
      <title>:app-&gt;:core:model</title>
      <path fill="none" stroke="black" d="M550.15,-302.32C614.25,-296.15 761.6,-279.35 802.99,-252 869.7,-207.92 864.19,-97.61 857.48,-46.19"/>
      <polygon fill="black" stroke="black" points="860.92,-45.56 856.05,-36.15 853.99,-46.54 860.92,-45.56"/>
    </g>
    <g id="node9" class="node">
      <title>:core:analytics</title>
      <ellipse fill="none" stroke="black" cx="77.99" cy="-90" rx="77.99" ry="18"/>
      <text text-anchor="middle" x="77.99" y="-86.3" font-family="Times,serif" font-size="14.00">:core:analytics</text>
    </g>
    <g id="edge8" class="edge">
      <title>:app-&gt;:core:analytics</title>
      <path fill="none" stroke="black" d="M489.43,-304.37C424.27,-302.25 267.59,-292.92 143.99,-252 80.55,-231 46.11,-237.46 11.99,-180 3.83,-166.24 5.08,-158.43 11.99,-144 18.02,-131.43 28.64,-120.91 39.62,-112.63"/>
      <polygon fill="black" stroke="black" points="41.83,-115.35 48.01,-106.74 37.82,-109.62 41.83,-115.35"/>
    </g>
    <g id="node10" class="node">
      <title>:core:config</title>
      <ellipse fill="none" stroke="black" cx="363.99" cy="-162" rx="64.19" ry="18"/>
      <text text-anchor="middle" x="363.99" y="-158.3" font-family="Times,serif" font-size="14.00">:core:config</text>
    </g>
    <g id="edge9" class="edge">
      <title>:app-&gt;:core:config</title>
      <path fill="none" stroke="black" d="M507.67,-289.21C492.74,-270.59 466.3,-239.25 439.99,-216 427.04,-204.55 411.57,-193.38 397.98,-184.26"/>
      <polygon fill="black" stroke="black" points="399.64,-181.17 389.36,-178.59 395.79,-187.01 399.64,-181.17"/>
    </g>
    <g id="node11" class="node">
      <title>:core:accessibility</title>
      <ellipse fill="none" stroke="black" cx="1029.99" cy="-18" rx="93.68" ry="18"/>
      <text text-anchor="middle" x="1029.99" y="-14.3" font-family="Times,serif" font-size="14.00">:core:accessibility</text>
    </g>
    <g id="edge10" class="edge">
      <title>:app-&gt;:core:accessibility</title>
      <path fill="none" stroke="black" d="M550.21,-302.53C618.95,-296.51 784.82,-279.48 832.99,-252 922.04,-201.21 989.04,-94.06 1016.43,-44.78"/>
      <polygon fill="black" stroke="black" points="1019.5,-46.46 1021.23,-36.01 1013.36,-43.1 1019.5,-46.46"/>
    </g>
    <g id="node12" class="node">
      <title>:core:feedback</title>
      <ellipse fill="none" stroke="black" cx="523.99" cy="-162" rx="77.99" ry="18"/>
      <text text-anchor="middle" x="523.99" y="-158.3" font-family="Times,serif" font-size="14.00">:core:feedback</text>
    </g>
    <g id="edge11" class="edge">
      <title>:app-&gt;:core:feedback</title>
      <path fill="none" stroke="black" d="M520.48,-287.87C521.16,-263.67 522.41,-219.21 523.22,-190.39"/>
      <polygon fill="black" stroke="black" points="526.73,-190.28 523.51,-180.19 519.73,-190.09 526.73,-190.28"/>
    </g>
    <g id="edge12" class="edge">
      <title>:feature:settings-&gt;:core:ui</title>
      <path fill="none" stroke="black" d="M310.32,-217.12C288.15,-206.34 258.8,-192.07 235.8,-180.89"/>
      <polygon fill="black" stroke="black" points="237.22,-177.69 226.69,-176.47 234.16,-183.99 237.22,-177.69"/>
    </g>
    <g id="edge13" class="edge">
      <title>:feature:settings-&gt;:core:designsystem</title>
      <path fill="none" stroke="black" d="M321.33,-216.32C299.35,-197.44 271.19,-166.38 290.99,-144 334.46,-94.87 519.01,-116.97 583.99,-108 593.17,-106.73 602.76,-105.35 612.29,-103.94"/>
      <polygon fill="black" stroke="black" points="612.82,-107.4 622.19,-102.47 611.79,-100.48 612.82,-107.4"/>
    </g>
    <g id="edge14" class="edge">
      <title>:feature:settings-&gt;:core:data</title>
      <path fill="none" stroke="red" stroke-width="2" d="M291.27,-219.34C244.82,-207.07 176.96,-189.14 130.32,-176.82"/>
      <polygon fill="red" stroke="red" stroke-width="2" points="130.98,-173.38 120.42,-174.21 129.19,-180.14 130.98,-173.38"/>
    </g>
    <g id="edge15" class="edge">
      <title>:feature:settings-&gt;:core:config</title>
      <path fill="none" stroke="black" d="M348.18,-215.7C350.52,-207.9 353.34,-198.51 355.94,-189.83"/>
      <polygon fill="black" stroke="black" points="359.34,-190.69 358.86,-180.1 352.64,-188.68 359.34,-190.69"/>
    </g>
    <g id="edge16" class="edge">
      <title>:feature:settings-&gt;:core:feedback</title>
      <path fill="none" stroke="black" d="M382.27,-217.81C409.82,-207.15 446.83,-192.84 476.12,-181.52"/>
      <polygon fill="black" stroke="black" points="477.66,-184.67 485.73,-177.8 475.14,-178.14 477.66,-184.67"/>
    </g>
    <g id="edge28" class="edge">
      <title>:feature:aboutme-&gt;:core:common</title>
      <path fill="none" stroke="black" d="M707.03,-221.96C734.25,-214.34 763.85,-201.53 783.99,-180 806.77,-155.66 800.28,-141 804.99,-108 807.26,-92.16 813.5,-85.55 804.99,-72 794.04,-54.57 775.58,-42.74 756.87,-34.77"/>
      <polygon fill="black" stroke="black" points="757.99,-31.44 747.4,-31.05 755.43,-37.96 757.99,-31.44"/>
    </g>
    <g id="edge26" class="edge">
      <title>:feature:aboutme-&gt;:core:ui</title>
      <path fill="none" stroke="black" d="M567.57,-222.8C497.15,-212.58 386.51,-196.09 290.99,-180 277.46,-177.72 262.85,-175.09 249.33,-172.6"/>
      <polygon fill="black" stroke="black" points="249.72,-169.11 239.25,-170.72 248.44,-175.99 249.72,-169.11"/>
    </g>
    <g id="edge27" class="edge">
      <title>:feature:aboutme-&gt;:core:designsystem</title>
      <path fill="none" stroke="black" d="M705.08,-221.46C728.68,-213.81 752.89,-201.1 766.99,-180 775.88,-166.7 774.21,-158.28 766.99,-144 760.51,-131.18 749.31,-120.71 737.64,-112.55"/>
      <polygon fill="black" stroke="black" points="739.42,-109.53 729.13,-107.03 735.61,-115.41 739.42,-109.53"/>
    </g>
    <g id="edge29" class="edge">
      <title>:feature:aboutme-&gt;:core:config</title>
      <path fill="none" stroke="black" d="M585.32,-219.34C537.6,-207.19 468.1,-189.5 419.76,-177.19"/>
      <polygon fill="black" stroke="black" points="420.33,-173.73 409.78,-174.65 418.61,-180.51 420.33,-173.73"/>
    </g>
    <g id="edge31" class="edge">
      <title>:feature:aboutme-&gt;:core:feedback</title>
      <path fill="none" stroke="black" d="M612.32,-216.76C596.5,-207.13 576.26,-194.81 559.14,-184.4"/>
      <polygon fill="black" stroke="black" points="560.88,-181.36 550.52,-179.15 557.24,-187.34 560.88,-181.36"/>
    </g>
    <g id="node15" class="node">
      <title>:core:shapes</title>
      <ellipse fill="none" stroke="black" cx="688.99" cy="-162" rx="68.79" ry="18"/>
      <text text-anchor="middle" x="688.99" y="-158.3" font-family="Times,serif" font-size="14.00">:core:shapes</text>
    </g>
    <g id="edge30" class="edge">
      <title>:feature:aboutme-&gt;:core:shapes</title>
      <path fill="none" stroke="black" d="M651.1,-216.05C657.12,-207.63 664.51,-197.28 671.16,-187.97"/>
      <polygon fill="black" stroke="black" points="674.04,-189.96 677,-179.79 668.34,-185.89 674.04,-189.96"/>
    </g>
    <g id="edge17" class="edge">
      <title>:core:ui-&gt;:core:analytics</title>
      <path fill="none" stroke="black" d="M174.21,-146.67C157.02,-136.72 133.84,-123.31 114.54,-112.14"/>
      <polygon fill="black" stroke="black" points="116.1,-109 105.7,-107.03 112.6,-115.06 116.1,-109"/>
    </g>
    <g id="edge19" class="edge">
      <title>:core:designsystem-&gt;:core:common</title>
      <path fill="none" stroke="black" d="M694.99,-71.7C694.99,-63.98 694.99,-54.71 694.99,-46.11"/>
      <polygon fill="black" stroke="black" points="698.49,-46.1 694.99,-36.1 691.49,-46.1 698.49,-46.1"/>
    </g>
    <g id="edge18" class="edge">
      <title>:core:designsystem-&gt;:core:accessibility</title>
      <path fill="none" stroke="black" d="M758,-75.83C815.25,-63.87 899.6,-46.25 959.16,-33.8"/>
      <polygon fill="black" stroke="black" points="960.17,-37.17 969.24,-31.69 958.74,-30.31 960.17,-37.17"/>
    </g>
    <g id="edge21" class="edge">
      <title>:core:data-&gt;:core:analytics</title>
      <path fill="none" stroke="black" d="M77.99,-143.7C77.99,-135.98 77.99,-126.71 77.99,-118.11"/>
      <polygon fill="black" stroke="black" points="81.49,-118.1 77.99,-108.1 74.49,-118.1 81.49,-118.1"/>
    </g>
    <g id="node13" class="node">
      <title>:core:datastore</title>
      <ellipse fill="none" stroke="black" cx="493.99" cy="-90" rx="81.49" ry="18"/>
      <text text-anchor="middle" x="493.99" y="-86.3" font-family="Times,serif" font-size="14.00">:core:datastore</text>
    </g>
    <g id="edge20" class="edge">
      <title>:core:data-&gt;:core:datastore</title>
      <path fill="none" stroke="red" stroke-width="2" d="M120.02,-149.67C128.27,-147.63 136.88,-145.64 144.99,-144 236.88,-125.41 343.58,-110.11 414.57,-100.81"/>
      <polygon fill="red" stroke="red" stroke-width="2" points="415.31,-104.24 424.78,-99.48 414.41,-97.3 415.31,-104.24"/>
    </g>
    <g id="edge25" class="edge">
      <title>:core:feedback-&gt;:core:designsystem</title>
      <path fill="none" stroke="black" d="M560.68,-145.98C585.96,-135.63 619.81,-121.78 647.2,-110.57"/>
      <polygon fill="black" stroke="black" points="648.66,-113.75 656.59,-106.72 646.01,-107.27 648.66,-113.75"/>
    </g>
    <g id="edge24" class="edge">
      <title>:core:datastore-&gt;:core:common</title>
      <path fill="none" stroke="black" d="M535.64,-74.5C567.25,-63.49 610.84,-48.31 644.45,-36.6"/>
      <polygon fill="black" stroke="black" points="645.79,-39.84 654.09,-33.25 643.49,-33.23 645.79,-39.84"/>
    </g>
    <g id="edge23" class="edge">
      <title>:core:datastore-&gt;:core:model</title>
      <path fill="none" stroke="black" d="M554.2,-77.74C564.47,-75.82 575.04,-73.85 584.99,-72 671.21,-55.95 693.13,-53.82 778.99,-36 784.32,-34.89 789.85,-33.7 795.38,-32.49"/>
      <polygon fill="black" stroke="black" points="796.29,-35.87 805.29,-30.27 794.77,-29.04 796.29,-35.87"/>
    </g>
    <g id="node14" class="node">
      <title>:core:datastore-proto</title>
      <ellipse fill="none" stroke="black" cx="492.99" cy="-18" rx="108.58" ry="18"/>
      <text text-anchor="middle" x="492.99" y="-14.3" font-family="Times,serif" font-size="14.00">:core:datastore-proto</text>
    </g>
    <g id="edge22" class="edge">
      <title>:core:datastore-&gt;:core:datastore-proto</title>
      <path fill="none" stroke="red" stroke-width="2" d="M493.75,-71.7C493.64,-63.98 493.5,-54.71 493.38,-46.11"/>
      <polygon fill="red" stroke="red" stroke-width="2" points="496.88,-46.05 493.24,-36.1 489.88,-46.15 496.88,-46.05"/>
    </g>
  </g>
</svg>
