<?xml version="1.0" encoding="UTF-8" standalone="no"?>
<!DOCTYPE svg PUBLIC "-//W3C//DTD SVG 1.1//EN" "http://www.w3.org/Graphics/SVG/1.1/DTD/svg11.dtd">
<svg height="188pt" viewBox="0.00 0.00 684.58 188.00" width="685pt" xmlns="http://www.w3.org/2000/svg">
  <g id="graph0" class="graph" transform="scale(1 1) rotate(0) translate(4 184)">
    <title>G</title>
      <polygon fill="white" points="-4,4 -4,-184 680.58,-184 680.58,4 -4,4" stroke="transparent" />
    <g id="node1" class="node">
      <title>:core:feedback</title>
        <ellipse cx="439.59" cy="-162" fill="none" rx="77.99" ry="18" stroke="black" />
        <text font-family="Times,serif" font-size="14.00" text-anchor="middle" x="439.59"
            y="-158.3">:core:feedback
        </text>
    </g>
    <g id="node2" class="node">
      <title>:core:designsystem</title>
        <ellipse cx="357.59" cy="-90" fill="none" rx="100.98" ry="18" stroke="black" />
        <text font-family="Times,serif" font-size="14.00" text-anchor="middle" x="357.59" y="-86.3">
            :core:designsystem
        </text>
    </g>
    <g id="edge1" class="edge">
      <title>:core:feedback-&gt;:core:designsystem</title>
        <path d="M420.16,-144.41C409.62,-135.41 396.41,-124.14 384.85,-114.27" fill="none" stroke="red"
            stroke-width="2" />
        <polygon fill="red" points="387.05,-111.54 377.17,-107.71 382.5,-116.87 387.05,-111.54" stroke="red"
            stroke-width="2" />
    </g>
    <g id="node3" class="node">
        <title>:core:ui</title>
        <ellipse cx="559.59" cy="-90" fill="none" rx="45.49" ry="18" stroke="black" />
        <text font-family="Times,serif" font-size="14.00" text-anchor="middle" x="559.59" y="-86.3">
            :core:ui
        </text>
    </g>
      <g class="edge" id="edge2">
          <title>:core:feedback-&gt;:core:ui</title>
          <path d="M466.82,-145.12C484.41,-134.85 507.42,-121.43 526.13,-110.52" fill="none"
              stroke="black" />
          <polygon fill="black" points="528.04,-113.45 534.92,-105.39 524.52,-107.41 528.04,-113.45"
              stroke="black" />
      </g>
      <g class="node" id="node4">
      <title>:core:accessibility</title>
      <ellipse fill="none" stroke="black" cx="93.59" cy="-18" rx="93.68" ry="18"/>
      <text text-anchor="middle" x="93.59" y="-14.3" font-family="Times,serif" font-size="14.00">:core:accessibility</text>
    </g>
      <g class="edge" id="edge3">
      <title>:core:designsystem-&gt;:core:accessibility</title>
          <path d="M303.85,-74.75C261.1,-63.42 201.21,-47.54 156.28,-35.62" fill="none" stroke="red"
              stroke-width="2" />
          <polygon fill="red" points="156.92,-32.17 146.36,-32.99 155.13,-38.94 156.92,-32.17" stroke="red"
              stroke-width="2" />
    </g>
      <g class="node" id="node5">
      <title>:core:common</title>
      <ellipse fill="none" stroke="black" cx="280.59" cy="-18" rx="75.29" ry="18"/>
      <text text-anchor="middle" x="280.59" y="-14.3" font-family="Times,serif" font-size="14.00">:core:common</text>
    </g>
      <g class="edge" id="edge4">
      <title>:core:designsystem-&gt;:core:common</title>
          <path d="M338.95,-72.05C329.14,-63.13 316.95,-52.06 306.26,-42.34" fill="none"
              stroke="black" />
          <polygon fill="black" points="308.55,-39.68 298.79,-35.55 303.84,-44.86 308.55,-39.68"
              stroke="black" />
    </g>
      <g class="node" id="node6">
      <title>:core:config</title>
      <ellipse fill="none" stroke="black" cx="438.59" cy="-18" rx="64.19" ry="18"/>
      <text text-anchor="middle" x="438.59" y="-14.3" font-family="Times,serif" font-size="14.00">:core:config</text>
    </g>
      <g class="edge" id="edge5">
      <title>:core:designsystem-&gt;:core:config</title>
          <path d="M377.2,-72.05C387.6,-63.07 400.53,-51.9 411.83,-42.12" fill="none"
              stroke="black" />
          <polygon fill="black" points="414.44,-44.49 419.72,-35.31 409.87,-39.2 414.44,-44.49"
              stroke="black" />
      </g>
      <g class="node" id="node7">
          <title>:core:analytics</title>
          <ellipse cx="598.59" cy="-18" fill="none" rx="77.99" ry="18" stroke="black" />
          <text font-family="Times,serif" font-size="14.00" text-anchor="middle" x="598.59"
              y="-14.3">:core:analytics
          </text>
      </g>
      <g class="edge" id="edge6">
          <title>:core:ui-&gt;:core:analytics</title>
          <path d="M569.03,-72.05C573.52,-64.01 578.98,-54.2 583.98,-45.23" fill="none"
              stroke="black" />
          <polygon fill="black" points="587.16,-46.71 588.97,-36.28 581.04,-43.31 587.16,-46.71"
              stroke="black" />
    </g>
  </g>
</svg>
