<?xml version="1.0" encoding="UTF-8" standalone="no"?>
<!DOCTYPE svg PUBLIC "-//W3C//DTD SVG 1.1//EN" "http://www.w3.org/Graphics/SVG/1.1/DTD/svg11.dtd">
<svg xmlns="http://www.w3.org/2000/svg" xmlns:xlink="http://www.w3.org/1999/xlink" width="891pt" height="332pt" viewBox="0.00 0.00 891.10 332.00">
  <g id="graph0" class="graph" transform="scale(1 1) rotate(0) translate(4 328)">
    <title>G</title>
    <polygon fill="white" stroke="transparent" points="-4,4 -4,-328 887.1,-328 887.1,4 -4,4"/>
    <g id="node1" class="node">
      <title>:app</title>
      <ellipse fill="none" stroke="black" cx="419.54" cy="-306" rx="30.59" ry="18"/>
      <text text-anchor="middle" x="419.54" y="-302.3" font-family="Times,serif" font-size="14.00">:app</text>
    </g>
    <g id="node2" class="node">
      <title>:feature:settings</title>
      <ellipse fill="none" stroke="black" cx="361.54" cy="-234" rx="87.99" ry="18"/>
      <text text-anchor="middle" x="361.54" y="-230.3" font-family="Times,serif" font-size="14.00">:feature:settings</text>
    </g>
    <g id="edge1" class="edge">
      <title>:app-&gt;:feature:settings</title>
      <path fill="none" stroke="red" stroke-width="2" d="M406.67,-289.46C399.47,-280.78 390.33,-269.75 382.16,-259.89"/>
      <polygon fill="red" stroke="red" stroke-width="2" points="384.67,-257.43 375.59,-251.96 379.28,-261.9 384.67,-257.43"/>
    </g>
    <g id="node3" class="node">
      <title>:feature:aboutme</title>
      <ellipse fill="none" stroke="black" cx="634.54" cy="-234" rx="90.98" ry="18"/>
      <text text-anchor="middle" x="634.54" y="-230.3" font-family="Times,serif" font-size="14.00">:feature:aboutme</text>
    </g>
    <g id="edge2" class="edge">
      <title>:app-&gt;:feature:aboutme</title>
      <path fill="none" stroke="black" d="M445.9,-296.42C478.98,-285.65 536.57,-266.9 579.44,-252.94"/>
      <polygon fill="black" stroke="black" points="580.75,-256.19 589.17,-249.77 578.58,-249.54 580.75,-256.19"/>
    </g>
    <g id="node4" class="node">
      <title>:core:ui</title>
      <ellipse fill="none" stroke="black" cx="288.54" cy="-162" rx="45.49" ry="18"/>
      <text text-anchor="middle" x="288.54" y="-158.3" font-family="Times,serif" font-size="14.00">:core:ui</text>
    </g>
    <g id="edge3" class="edge">
      <title>:app-&gt;:core:ui</title>
      <path fill="none" stroke="black" d="M388.98,-304.44C352.48,-301.92 292.82,-291.56 264.54,-252 251.1,-233.2 260.46,-207.3 271.17,-188.29"/>
      <polygon fill="black" stroke="black" points="274.26,-189.93 276.44,-179.57 268.27,-186.31 274.26,-189.93"/>
    </g>
    <g id="node5" class="node">
      <title>:core:data</title>
      <ellipse fill="none" stroke="black" cx="167.54" cy="-162" rx="57.39" ry="18"/>
      <text text-anchor="middle" x="167.54" y="-158.3" font-family="Times,serif" font-size="14.00">:core:data</text>
    </g>
    <g id="edge4" class="edge">
      <title>:app-&gt;:core:data</title>
      <path fill="none" stroke="black" d="M390.41,-300.2C355.75,-293.52 297.1,-279.06 253.54,-252 226.39,-235.14 201.76,-207.82 185.88,-187.89"/>
      <polygon fill="black" stroke="black" points="188.53,-185.6 179.63,-179.86 183.01,-189.9 188.53,-185.6"/>
    </g>
    <g id="node6" class="node">
      <title>:core:config</title>
      <ellipse fill="none" stroke="black" cx="453.54" cy="-162" rx="64.19" ry="18"/>
      <text text-anchor="middle" x="453.54" y="-158.3" font-family="Times,serif" font-size="14.00">:core:config</text>
    </g>
    <g id="edge5" class="edge">
      <title>:app-&gt;:core:config</title>
      <path fill="none" stroke="black" d="M434.42,-290.27C443.3,-280.38 453.77,-266.54 458.54,-252 465.12,-231.96 463.28,-208.04 460.12,-190.05"/>
      <polygon fill="black" stroke="black" points="463.54,-189.34 458.16,-180.21 456.68,-190.71 463.54,-189.34"/>
    </g>
    <g id="node7" class="node">
      <title>:core:feedback</title>
      <ellipse fill="none" stroke="black" cx="613.54" cy="-162" rx="77.99" ry="18"/>
      <text text-anchor="middle" x="613.54" y="-158.3" font-family="Times,serif" font-size="14.00">:core:feedback</text>
    </g>
    <g id="edge6" class="edge">
      <title>:app-&gt;:core:feedback</title>
      <path fill="none" stroke="black" d="M436.8,-291.06C459.05,-273.21 499.12,-241.55 534.54,-216 549.18,-205.44 565.73,-194.23 579.88,-184.86"/>
      <polygon fill="black" stroke="black" points="581.91,-187.71 588.34,-179.28 578.06,-181.86 581.91,-187.71"/>
    </g>
    <g id="edge7" class="edge">
      <title>:feature:settings-&gt;:core:ui</title>
      <path fill="none" stroke="black" d="M343.87,-216.05C334.45,-207.03 322.74,-195.79 312.51,-185.99"/>
      <polygon fill="black" stroke="black" points="314.69,-183.22 305.05,-178.83 309.84,-188.28 314.69,-183.22"/>
    </g>
    <g id="edge9" class="edge">
      <title>:feature:settings-&gt;:core:data</title>
      <path fill="none" stroke="red" stroke-width="2" d="M319.92,-217.98C288.54,-206.66 245.54,-191.14 213.21,-179.48"/>
      <polygon fill="red" stroke="red" stroke-width="2" points="214.14,-176.09 203.55,-175.99 211.76,-182.68 214.14,-176.09"/>
    </g>
    <g id="edge10" class="edge">
      <title>:feature:settings-&gt;:core:config</title>
      <path fill="none" stroke="black" d="M383.34,-216.41C395.46,-207.19 410.71,-195.59 423.9,-185.55"/>
      <polygon fill="black" stroke="black" points="426.37,-188.07 432.21,-179.23 422.13,-182.5 426.37,-188.07"/>
    </g>
    <g id="edge11" class="edge">
      <title>:feature:settings-&gt;:core:feedback</title>
      <path fill="none" stroke="black" d="M411.33,-219.17C452.85,-207.64 512.05,-191.19 555.67,-179.07"/>
      <polygon fill="black" stroke="black" points="556.87,-182.37 565.57,-176.33 554.99,-175.63 556.87,-182.37"/>
    </g>
    <g id="node8" class="node">
      <title>:core:designsystem</title>
      <ellipse fill="none" stroke="black" cx="613.54" cy="-90" rx="100.98" ry="18"/>
      <text text-anchor="middle" x="613.54" y="-86.3" font-family="Times,serif" font-size="14.00">:core:designsystem</text>
    </g>
    <g id="edge8" class="edge">
      <title>:feature:settings-&gt;:core:designsystem</title>
      <path fill="none" stroke="black" d="M360.13,-215.73C359.51,-195.7 361.79,-163.01 380.54,-144 400.33,-123.94 464.73,-110.25 520.82,-101.81"/>
      <polygon fill="black" stroke="black" points="521.43,-105.26 530.82,-100.35 520.42,-98.33 521.43,-105.26"/>
    </g>
    <g id="edge21" class="edge">
      <title>:feature:aboutme-&gt;:core:ui</title>
      <path fill="none" stroke="black" d="M573.48,-220.65C506.4,-207.08 399.98,-185.55 337.94,-172.99"/>
      <polygon fill="black" stroke="black" points="338.5,-169.54 328.01,-170.98 337.11,-176.4 338.5,-169.54"/>
    </g>
    <g id="edge24" class="edge">
      <title>:feature:aboutme-&gt;:core:config</title>
      <path fill="none" stroke="black" d="M594.82,-217.64C566.68,-206.75 528.85,-192.13 499.42,-180.74"/>
      <polygon fill="black" stroke="black" points="500.38,-177.36 489.79,-177.02 497.85,-183.89 500.38,-177.36"/>
    </g>
    <g id="edge26" class="edge">
      <title>:feature:aboutme-&gt;:core:feedback</title>
      <path fill="none" stroke="black" d="M629.35,-215.7C627.01,-207.9 624.19,-198.51 621.59,-189.83"/>
      <polygon fill="black" stroke="black" points="624.9,-188.68 618.67,-180.1 618.19,-190.69 624.9,-188.68"/>
    </g>
    <g id="edge22" class="edge">
      <title>:feature:aboutme-&gt;:core:designsystem</title>
      <path fill="none" stroke="black" d="M718.69,-227.09C798.01,-218.25 898.87,-196.55 856.54,-144 838.17,-121.19 771.04,-107.67 711.98,-100"/>
      <polygon fill="black" stroke="black" points="712.18,-96.5 701.82,-98.73 711.31,-103.45 712.18,-96.5"/>
    </g>
    <g id="node11" class="node">
      <title>:core:common</title>
      <ellipse fill="none" stroke="black" cx="535.54" cy="-18" rx="75.29" ry="18"/>
      <text text-anchor="middle" x="535.54" y="-14.3" font-family="Times,serif" font-size="14.00">:core:common</text>
    </g>
    <g id="edge23" class="edge">
      <title>:feature:aboutme-&gt;:core:common</title>
      <path fill="none" stroke="black" d="M723.78,-230.41C806.97,-224.29 912.9,-204.79 874.54,-144 844.41,-96.26 689.05,-53.85 599.46,-32.88"/>
      <polygon fill="black" stroke="black" points="600.21,-29.46 589.68,-30.62 598.63,-36.28 600.21,-29.46"/>
    </g>
    <g id="node15" class="node">
      <title>:core:shapes</title>
      <ellipse fill="none" stroke="black" cx="778.54" cy="-162" rx="68.79" ry="18"/>
      <text text-anchor="middle" x="778.54" y="-158.3" font-family="Times,serif" font-size="14.00">:core:shapes</text>
    </g>
    <g id="edge25" class="edge">
      <title>:feature:aboutme-&gt;:core:shapes</title>
      <path fill="none" stroke="black" d="M667.22,-217.12C688.27,-206.88 715.8,-193.5 738.22,-182.6"/>
      <polygon fill="black" stroke="black" points="740.01,-185.62 747.47,-178.1 736.95,-179.33 740.01,-185.62"/>
    </g>
    <g id="node9" class="node">
      <title>:core:analytics</title>
      <ellipse fill="none" stroke="black" cx="316.54" cy="-90" rx="77.99" ry="18"/>
      <text text-anchor="middle" x="316.54" y="-86.3" font-family="Times,serif" font-size="14.00">:core:analytics</text>
    </g>
    <g id="edge12" class="edge">
      <title>:core:ui-&gt;:core:analytics</title>
      <path fill="none" stroke="black" d="M295.32,-144.05C298.47,-136.18 302.29,-126.62 305.82,-117.79"/>
      <polygon fill="black" stroke="black" points="309.17,-118.86 309.63,-108.28 302.67,-116.26 309.17,-118.86"/>
    </g>
    <g id="edge16" class="edge">
      <title>:core:data-&gt;:core:analytics</title>
      <path fill="none" stroke="black" d="M198.05,-146.67C220.08,-136.32 250.09,-122.22 274.4,-110.8"/>
      <polygon fill="black" stroke="black" points="276.18,-113.83 283.74,-106.41 273.2,-107.49 276.18,-113.83"/>
    </g>
    <g id="node12" class="node">
      <title>:core:datastore</title>
      <ellipse fill="none" stroke="black" cx="139.54" cy="-90" rx="81.49" ry="18"/>
      <text text-anchor="middle" x="139.54" y="-86.3" font-family="Times,serif" font-size="14.00">:core:datastore</text>
    </g>
    <g id="edge15" class="edge">
      <title>:core:data-&gt;:core:datastore</title>
      <path fill="none" stroke="red" stroke-width="2" d="M160.76,-144.05C157.61,-136.18 153.79,-126.62 150.26,-117.79"/>
      <polygon fill="red" stroke="red" stroke-width="2" points="153.41,-116.26 146.45,-108.28 146.91,-118.86 153.41,-116.26"/>
    </g>
    <g id="edge20" class="edge">
      <title>:core:feedback-&gt;:core:designsystem</title>
      <path fill="none" stroke="black" d="M613.54,-143.7C613.54,-135.98 613.54,-126.71 613.54,-118.11"/>
      <polygon fill="black" stroke="black" points="617.04,-118.1 613.54,-108.1 610.04,-118.1 617.04,-118.1"/>
    </g>
    <g id="node10" class="node">
      <title>:core:accessibility</title>
      <ellipse fill="none" stroke="black" cx="722.54" cy="-18" rx="93.68" ry="18"/>
      <text text-anchor="middle" x="722.54" y="-14.3" font-family="Times,serif" font-size="14.00">:core:accessibility</text>
    </g>
    <g id="edge13" class="edge">
      <title>:core:designsystem-&gt;:core:accessibility</title>
      <path fill="none" stroke="black" d="M639.1,-72.59C653.75,-63.18 672.34,-51.24 688.25,-41.02"/>
      <polygon fill="black" stroke="black" points="690.24,-43.9 696.77,-35.55 686.46,-38.01 690.24,-43.9"/>
    </g>
    <g id="edge14" class="edge">
      <title>:core:designsystem-&gt;:core:common</title>
      <path fill="none" stroke="black" d="M594.66,-72.05C584.72,-63.13 572.38,-52.06 561.54,-42.34"/>
      <polygon fill="black" stroke="black" points="563.76,-39.62 553.98,-35.55 559.08,-44.83 563.76,-39.62"/>
    </g>
    <g id="edge19" class="edge">
      <title>:core:datastore-&gt;:core:common</title>
      <path fill="none" stroke="black" d="M199.06,-77.62C209.23,-75.72 219.68,-73.78 229.54,-72 310.58,-57.33 403.85,-41.3 465.91,-30.75"/>
      <polygon fill="black" stroke="black" points="466.7,-34.17 475.97,-29.04 465.53,-27.27 466.7,-34.17"/>
    </g>
    <g id="node13" class="node">
      <title>:core:datastore-proto</title>
      <ellipse fill="none" stroke="black" cx="108.54" cy="-18" rx="108.58" ry="18"/>
      <text text-anchor="middle" x="108.54" y="-14.3" font-family="Times,serif" font-size="14.00">:core:datastore-proto</text>
    </g>
    <g id="edge17" class="edge">
      <title>:core:datastore-&gt;:core:datastore-proto</title>
      <path fill="none" stroke="red" stroke-width="2" d="M132.04,-72.05C128.51,-64.09 124.22,-54.41 120.28,-45.51"/>
      <polygon fill="red" stroke="red" stroke-width="2" points="123.44,-44 116.19,-36.28 117.04,-46.84 123.44,-44"/>
    </g>
    <g id="node14" class="node">
      <title>:core:model</title>
      <ellipse fill="none" stroke="black" cx="300.54" cy="-18" rx="64.99" ry="18"/>
      <text text-anchor="middle" x="300.54" y="-14.3" font-family="Times,serif" font-size="14.00">:core:model</text>
    </g>
    <g id="edge18" class="edge">
      <title>:core:datastore-&gt;:core:model</title>
      <path fill="none" stroke="black" d="M174.87,-73.64C199.36,-62.99 232.08,-48.76 258,-37.49"/>
      <polygon fill="black" stroke="black" points="259.44,-40.69 267.22,-33.49 256.65,-34.27 259.44,-40.69"/>
    </g>
  </g>
</svg>
