<?xml version="1.0" encoding="UTF-8" standalone="no"?>
<!DOCTYPE svg PUBLIC "-//W3C//DTD SVG 1.1//EN" "http://www.w3.org/Graphics/SVG/1.1/DTD/svg11.dtd">
<svg xmlns="http://www.w3.org/2000/svg" xmlns:xlink="http://www.w3.org/1999/xlink" width="696pt" height="332pt" viewBox="0.00 0.00 696.13 332.00">
  <g id="graph0" class="graph" transform="scale(1 1) rotate(0) translate(4 328)">
    <title>G</title>
    <polygon fill="white" stroke="transparent" points="-4,4 -4,-328 692.13,-328 692.13,4 -4,4"/>
    <g id="node1" class="node">
      <title>:feature:settings</title>
      <ellipse fill="none" stroke="black" cx="252.74" cy="-306" rx="87.99" ry="18"/>
      <text text-anchor="middle" x="252.74" y="-302.3" font-family="Times,serif" font-size="14.00">:feature:settings</text>
    </g>
    <g id="node2" class="node">
      <title>:core:ui</title>
      <ellipse fill="none" stroke="black" cx="252.74" cy="-234" rx="45.49" ry="18"/>
      <text text-anchor="middle" x="252.74" y="-230.3" font-family="Times,serif" font-size="14.00">:core:ui</text>
    </g>
    <g id="edge1" class="edge">
      <title>:feature:settings-&gt;:core:ui</title>
      <path fill="none" stroke="red" stroke-width="2" d="M252.74,-287.7C252.74,-279.98 252.74,-270.71 252.74,-262.11"/>
      <polygon fill="red" stroke="red" stroke-width="2" points="256.24,-262.1 252.74,-252.1 249.24,-262.1 256.24,-262.1"/>
    </g>
    <g id="node3" class="node">
      <title>:core:designsystem</title>
      <ellipse fill="none" stroke="black" cx="100.74" cy="-90" rx="100.98" ry="18"/>
      <text text-anchor="middle" x="100.74" y="-86.3" font-family="Times,serif" font-size="14.00">:core:designsystem</text>
    </g>
    <g id="edge2" class="edge">
      <title>:feature:settings-&gt;:core:designsystem</title>
      <path fill="none" stroke="black" d="M217.37,-289.44C178.46,-270.13 118.1,-233.13 92.74,-180 83.48,-160.6 86.59,-136.12 91.39,-117.75"/>
      <polygon fill="black" stroke="black" points="94.8,-118.57 94.25,-107.99 88.08,-116.6 94.8,-118.57"/>
    </g>
    <g id="node4" class="node">
      <title>:core:data</title>
      <ellipse fill="none" stroke="black" cx="373.74" cy="-234" rx="57.39" ry="18"/>
      <text text-anchor="middle" x="373.74" y="-230.3" font-family="Times,serif" font-size="14.00">:core:data</text>
    </g>
    <g id="edge3" class="edge">
      <title>:feature:settings-&gt;:core:data</title>
      <path fill="none" stroke="black" d="M280.81,-288.76C298.08,-278.77 320.37,-265.87 338.79,-255.22"/>
      <polygon fill="black" stroke="black" points="340.58,-258.23 347.49,-250.19 337.08,-252.17 340.58,-258.23"/>
    </g>
    <g id="node5" class="node">
      <title>:core:feedback</title>
      <ellipse fill="none" stroke="black" cx="179.74" cy="-162" rx="77.99" ry="18"/>
      <text text-anchor="middle" x="179.74" y="-158.3" font-family="Times,serif" font-size="14.00">:core:feedback</text>
    </g>
    <g id="edge4" class="edge">
      <title>:feature:settings-&gt;:core:feedback</title>
      <path fill="none" stroke="black" d="M230.46,-288.41C219.29,-278.95 206.52,-266.16 198.74,-252 188.24,-232.9 183.54,-208.55 181.44,-190.14"/>
      <polygon fill="black" stroke="black" points="184.91,-189.7 180.48,-180.08 177.95,-190.37 184.91,-189.7"/>
    </g>
    <g id="node6" class="node">
      <title>:core:config</title>
      <ellipse fill="none" stroke="black" cx="513.74" cy="-234" rx="64.19" ry="18"/>
      <text text-anchor="middle" x="513.74" y="-230.3" font-family="Times,serif" font-size="14.00">:core:config</text>
    </g>
    <g id="edge5" class="edge">
      <title>:feature:settings-&gt;:core:config</title>
      <path fill="none" stroke="black" d="M303.68,-291.34C348.46,-279.33 413.45,-261.9 459.26,-249.61"/>
      <polygon fill="black" stroke="black" points="460.27,-252.97 469.02,-246.99 458.45,-246.2 460.27,-252.97"/>
    </g>
    <g id="edge7" class="edge">
      <title>:core:ui-&gt;:core:feedback</title>
      <path fill="none" stroke="red" stroke-width="2" d="M236.18,-217.12C226.83,-208.16 214.98,-196.79 204.55,-186.79"/>
      <polygon fill="red" stroke="red" stroke-width="2" points="206.9,-184.19 197.26,-179.8 202.05,-189.24 206.9,-184.19"/>
    </g>
    <g id="node7" class="node">
      <title>:core:analytics</title>
      <ellipse fill="none" stroke="black" cx="353.74" cy="-162" rx="77.99" ry="18"/>
      <text text-anchor="middle" x="353.74" y="-158.3" font-family="Times,serif" font-size="14.00">:core:analytics</text>
    </g>
    <g id="edge6" class="edge">
      <title>:core:ui-&gt;:core:analytics</title>
      <path fill="none" stroke="black" d="M274.66,-217.81C288.46,-208.24 306.51,-195.73 321.89,-185.08"/>
      <polygon fill="black" stroke="black" points="323.88,-187.95 330.11,-179.38 319.89,-182.2 323.88,-187.95"/>
    </g>
    <g id="node8" class="node">
      <title>:core:accessibility</title>
      <ellipse fill="none" stroke="black" cx="100.74" cy="-18" rx="93.68" ry="18"/>
      <text text-anchor="middle" x="100.74" y="-14.3" font-family="Times,serif" font-size="14.00">:core:accessibility</text>
    </g>
    <g id="edge9" class="edge">
      <title>:core:designsystem-&gt;:core:accessibility</title>
      <path fill="none" stroke="red" stroke-width="2" d="M100.74,-71.7C100.74,-63.98 100.74,-54.71 100.74,-46.11"/>
      <polygon fill="red" stroke="red" stroke-width="2" points="104.24,-46.1 100.74,-36.1 97.24,-46.1 104.24,-46.1"/>
    </g>
    <g id="node9" class="node">
      <title>:core:common</title>
      <ellipse fill="none" stroke="black" cx="612.74" cy="-18" rx="75.29" ry="18"/>
      <text text-anchor="middle" x="612.74" y="-14.3" font-family="Times,serif" font-size="14.00">:core:common</text>
    </g>
    <g id="edge10" class="edge">
      <title>:core:designsystem-&gt;:core:common</title>
      <path fill="none" stroke="black" d="M173.11,-77.46C185.33,-75.59 197.89,-73.7 209.74,-72 323.78,-55.61 456.28,-38.57 537.3,-28.37"/>
      <polygon fill="black" stroke="black" points="537.93,-31.82 547.41,-27.1 537.05,-24.88 537.93,-31.82"/>
    </g>
    <g id="edge13" class="edge">
      <title>:core:data-&gt;:core:analytics</title>
      <path fill="none" stroke="black" d="M368.9,-216.05C366.67,-208.26 363.98,-198.82 361.48,-190.08"/>
      <polygon fill="black" stroke="black" points="364.79,-188.93 358.68,-180.28 358.06,-190.85 364.79,-188.93"/>
    </g>
    <g id="edge11" class="edge">
      <title>:core:data-&gt;:core:common</title>
      <path fill="none" stroke="black" d="M416.19,-221.88C424.32,-219.85 432.78,-217.8 440.74,-216 520.31,-197.96 569.02,-243.09 620.74,-180 651.75,-142.18 636.69,-80.97 624.02,-45.93"/>
      <polygon fill="black" stroke="black" points="627.21,-44.47 620.38,-36.36 620.66,-46.96 627.21,-44.47"/>
    </g>
    <g id="node10" class="node">
      <title>:core:datastore</title>
      <ellipse fill="none" stroke="black" cx="530.74" cy="-162" rx="81.49" ry="18"/>
      <text text-anchor="middle" x="530.74" y="-158.3" font-family="Times,serif" font-size="14.00">:core:datastore</text>
    </g>
    <g id="edge12" class="edge">
      <title>:core:data-&gt;:core:datastore</title>
      <path fill="none" stroke="black" d="M405.51,-218.83C428.97,-208.37 461.19,-194.01 487.07,-182.47"/>
      <polygon fill="black" stroke="black" points="488.58,-185.63 496.29,-178.36 485.73,-179.23 488.58,-185.63"/>
    </g>
    <g id="edge8" class="edge">
      <title>:core:feedback-&gt;:core:designsystem</title>
      <path fill="none" stroke="red" stroke-width="2" d="M161.02,-144.41C150.96,-135.5 138.39,-124.36 127.33,-114.56"/>
      <polygon fill="red" stroke="red" stroke-width="2" points="129.41,-111.72 119.6,-107.71 124.77,-116.96 129.41,-111.72"/>
    </g>
    <g id="edge16" class="edge">
      <title>:core:datastore-&gt;:core:common</title>
      <path fill="none" stroke="black" d="M557.07,-144.93C570.03,-135.69 584.76,-122.95 593.74,-108 604.96,-89.32 609.61,-64.93 611.5,-46.41"/>
      <polygon fill="black" stroke="black" points="615.01,-46.52 612.33,-36.27 608.03,-45.95 615.01,-46.52"/>
    </g>
    <g id="node11" class="node">
      <title>:core:datastore-proto</title>
      <ellipse fill="none" stroke="black" cx="327.74" cy="-90" rx="108.58" ry="18"/>
      <text text-anchor="middle" x="327.74" y="-86.3" font-family="Times,serif" font-size="14.00">:core:datastore-proto</text>
    </g>
    <g id="edge14" class="edge">
      <title>:core:datastore-&gt;:core:datastore-proto</title>
      <path fill="none" stroke="black" d="M488.68,-146.5C457.82,-135.85 415.63,-121.31 382.19,-109.78"/>
      <polygon fill="black" stroke="black" points="383.16,-106.41 372.57,-106.46 380.88,-113.03 383.16,-106.41"/>
    </g>
    <g id="node12" class="node">
      <title>:core:model</title>
      <ellipse fill="none" stroke="black" cx="519.74" cy="-90" rx="64.99" ry="18"/>
      <text text-anchor="middle" x="519.74" y="-86.3" font-family="Times,serif" font-size="14.00">:core:model</text>
    </g>
    <g id="edge15" class="edge">
      <title>:core:datastore-&gt;:core:model</title>
      <path fill="none" stroke="black" d="M528.02,-143.7C526.81,-135.98 525.35,-126.71 524,-118.11"/>
      <polygon fill="black" stroke="black" points="527.44,-117.44 522.43,-108.1 520.52,-118.53 527.44,-117.44"/>
    </g>
  </g>
</svg>
