<?xml version="1.0" encoding="UTF-8" standalone="no"?>
<!DOCTYPE svg PUBLIC "-//W3C//DTD SVG 1.1//EN"
 "http://www.w3.org/Graphics/SVG/1.1/DTD/svg11.dtd">
<!-- Generated by graphviz version 2.43.0 (0)
 -->
<!-- Title: G Pages: 1 -->
<svg width="870pt" height="188pt"
 viewBox="0.00 0.00 869.89 188.00" xmlns="http://www.w3.org/2000/svg" xmlns:xlink="http://www.w3.org/1999/xlink">
<g id="graph0" class="graph" transform="scale(1 1) rotate(0) translate(4 184)">
<title>G</title>
<polygon fill="white" stroke="transparent" points="-4,4 -4,-184 865.89,-184 865.89,4 -4,4"/>
<!-- :feature:aboutme -->
<g id="node1" class="node">
<title>:feature:aboutme</title>
<ellipse fill="none" stroke="black" cx="484.99" cy="-162" rx="90.98" ry="18"/>
<text text-anchor="middle" x="484.99" y="-158.3" font-family="Times,serif" font-size="14.00">:feature:aboutme</text>
</g>
<!-- :core:ui -->
<g id="node2" class="node">
<title>:core:ui</title>
<ellipse fill="none" stroke="black" cx="140.99" cy="-90" rx="45.49" ry="18"/>
<text text-anchor="middle" x="140.99" y="-86.3" font-family="Times,serif" font-size="14.00">:core:ui</text>
</g>
<!-- :feature:aboutme&#45;&gt;:core:ui -->
<g id="edge1" class="edge">
<title>:feature:aboutme&#45;&gt;:core:ui</title>
<path fill="none" stroke="red" stroke-width="2" d="M423.89,-148.57C357.32,-135.02 252.11,-113.61 190.5,-101.07"/>
<polygon fill="red" stroke="red" stroke-width="2" points="191.12,-97.63 180.62,-99.06 189.73,-104.49 191.12,-97.63"/>
</g>
<!-- :core:designsystem -->
<g id="node3" class="node">
<title>:core:designsystem</title>
<ellipse fill="none" stroke="black" cx="420.99" cy="-90" rx="100.98" ry="18"/>
<text text-anchor="middle" x="420.99" y="-86.3" font-family="Times,serif" font-size="14.00">:core:designsystem</text>
</g>
<!-- :feature:aboutme&#45;&gt;:core:designsystem -->
<g id="edge2" class="edge">
<title>:feature:aboutme&#45;&gt;:core:designsystem</title>
<path fill="none" stroke="black" d="M469.5,-144.05C461.75,-135.58 452.23,-125.17 443.68,-115.82"/>
<polygon fill="black" stroke="black" points="446.12,-113.29 436.79,-108.28 440.95,-118.02 446.12,-113.29"/>
</g>
<!-- :core:common -->
<g id="node4" class="node">
<title>:core:common</title>
<ellipse fill="none" stroke="black" cx="248.99" cy="-18" rx="75.29" ry="18"/>
<text text-anchor="middle" x="248.99" y="-14.3" font-family="Times,serif" font-size="14.00">:core:common</text>
</g>
<!-- :feature:aboutme&#45;&gt;:core:common -->
<g id="edge3" class="edge">
<title>:feature:aboutme&#45;&gt;:core:common</title>
<path fill="none" stroke="black" d="M414.51,-150.61C380.78,-143.01 341.25,-130.02 310.99,-108 288.75,-91.81 271.7,-65.12 261.16,-45.18"/>
<polygon fill="black" stroke="black" points="264.16,-43.35 256.52,-36.01 257.91,-46.51 264.16,-43.35"/>
</g>
<!-- :core:feedback -->
<g id="node5" class="node">
<title>:core:feedback</title>
<ellipse fill="none" stroke="black" cx="625.99" cy="-18" rx="77.99" ry="18"/>
<text text-anchor="middle" x="625.99" y="-14.3" font-family="Times,serif" font-size="14.00">:core:feedback</text>
</g>
<!-- :feature:aboutme&#45;&gt;:core:feedback -->
<g id="edge4" class="edge">
<title>:feature:aboutme&#45;&gt;:core:feedback</title>
<path fill="none" stroke="black" d="M500.46,-143.96C517.08,-125.81 544.41,-96.4 568.99,-72 578.91,-62.16 590.11,-51.63 599.94,-42.56"/>
<polygon fill="black" stroke="black" points="602.47,-44.99 607.48,-35.65 597.74,-39.83 602.47,-44.99"/>
</g>
<!-- :core:config -->
<g id="node6" class="node">
<title>:core:config</title>
<ellipse fill="none" stroke="black" cx="641.99" cy="-90" rx="64.19" ry="18"/>
<text text-anchor="middle" x="641.99" y="-86.3" font-family="Times,serif" font-size="14.00">:core:config</text>
</g>
<!-- :feature:aboutme&#45;&gt;:core:config -->
<g id="edge5" class="edge">
<title>:feature:aboutme&#45;&gt;:core:config</title>
<path fill="none" stroke="black" d="M520.23,-145.29C543.88,-134.75 575.14,-120.81 600.07,-109.69"/>
<polygon fill="black" stroke="black" points="601.58,-112.85 609.29,-105.58 598.73,-106.46 601.58,-112.85"/>
</g>
<!-- :core:shapes -->
<g id="node7" class="node">
<title>:core:shapes</title>
<ellipse fill="none" stroke="black" cx="792.99" cy="-90" rx="68.79" ry="18"/>
<text text-anchor="middle" x="792.99" y="-86.3" font-family="Times,serif" font-size="14.00">:core:shapes</text>
</g>
<!-- :feature:aboutme&#45;&gt;:core:shapes -->
<g id="edge6" class="edge">
<title>:feature:aboutme&#45;&gt;:core:shapes</title>
<path fill="none" stroke="black" d="M542.2,-148C596.41,-135.68 677.53,-117.24 732.72,-104.7"/>
<polygon fill="black" stroke="black" points="733.74,-108.06 742.72,-102.43 732.19,-101.23 733.74,-108.06"/>
</g>
<!-- :core:analytics -->
<g id="node8" class="node">
<title>:core:analytics</title>
<ellipse fill="none" stroke="black" cx="77.99" cy="-18" rx="77.99" ry="18"/>
<text text-anchor="middle" x="77.99" y="-14.3" font-family="Times,serif" font-size="14.00">:core:analytics</text>
</g>
<!-- :core:ui&#45;&gt;:core:analytics -->
<g id="edge7" class="edge">
<title>:core:ui&#45;&gt;:core:analytics</title>
<path fill="none" stroke="red" stroke-width="2" d="M126.38,-72.76C118.58,-64.1 108.82,-53.25 100.11,-43.57"/>
<polygon fill="red" stroke="red" stroke-width="2" points="102.7,-41.22 93.4,-36.12 97.49,-45.9 102.7,-41.22"/>
</g>
<!-- :core:designsystem&#45;&gt;:core:common -->
<g id="edge9" class="edge">
<title>:core:designsystem&#45;&gt;:core:common</title>
<path fill="none" stroke="black" d="M382.39,-73.29C356.43,-62.73 322.09,-48.75 294.76,-37.62"/>
<polygon fill="black" stroke="black" points="295.99,-34.35 285.4,-33.82 293.35,-40.83 295.99,-34.35"/>
</g>
<!-- :core:designsystem&#45;&gt;:core:feedback -->
<g id="edge10" class="edge">
<title>:core:designsystem&#45;&gt;:core:feedback</title>
<path fill="none" stroke="black" d="M465.48,-73.81C497.52,-62.87 540.85,-48.07 574.41,-36.61"/>
<polygon fill="black" stroke="black" points="575.71,-39.87 584.05,-33.32 573.45,-33.24 575.71,-39.87"/>
</g>
<!-- :core:accessibility -->
<g id="node9" class="node">
<title>:core:accessibility</title>
<ellipse fill="none" stroke="black" cx="435.99" cy="-18" rx="93.68" ry="18"/>
<text text-anchor="middle" x="435.99" y="-14.3" font-family="Times,serif" font-size="14.00">:core:accessibility</text>
</g>
<!-- :core:designsystem&#45;&gt;:core:accessibility -->
<g id="edge8" class="edge">
<title>:core:designsystem&#45;&gt;:core:accessibility</title>
<path fill="none" stroke="black" d="M424.7,-71.7C426.35,-63.98 428.34,-54.71 430.18,-46.11"/>
<polygon fill="black" stroke="black" points="433.65,-46.62 432.33,-36.1 426.81,-45.15 433.65,-46.62"/>
</g>
</g>
</svg>
