<?xml version="1.0" encoding="UTF-8" standalone="no"?>
<!DOCTYPE svg PUBLIC "-//W3C//DTD SVG 1.1//EN" "http://www.w3.org/Graphics/SVG/1.1/DTD/svg11.dtd">
<svg xmlns="http://www.w3.org/2000/svg" xmlns:xlink="http://www.w3.org/1999/xlink" width="511pt" height="188pt" viewBox="0.00 0.00 510.94 188.00">
  <g id="graph0" class="graph" transform="scale(1 1) rotate(0) translate(4 184)">
    <title>G</title>
    <polygon fill="white" stroke="transparent" points="-4,4 -4,-184 506.94,-184 506.94,4 -4,4"/>
    <g id="node1" class="node">
      <title>:core:feedback</title>
      <ellipse fill="none" stroke="black" cx="280.59" cy="-162" rx="77.99" ry="18"/>
      <text text-anchor="middle" x="280.59" y="-158.3" font-family="Times,serif" font-size="14.00">:core:feedback</text>
    </g>
    <g id="node2" class="node">
      <title>:core:designsystem</title>
      <ellipse fill="none" stroke="black" cx="280.59" cy="-90" rx="100.98" ry="18"/>
      <text text-anchor="middle" x="280.59" y="-86.3" font-family="Times,serif" font-size="14.00">:core:designsystem</text>
    </g>
    <g id="edge1" class="edge">
      <title>:core:feedback-&gt;:core:designsystem</title>
      <path fill="none" stroke="red" stroke-width="2" d="M280.59,-143.7C280.59,-135.98 280.59,-126.71 280.59,-118.11"/>
      <polygon fill="red" stroke="red" stroke-width="2" points="284.09,-118.1 280.59,-108.1 277.09,-118.1 284.09,-118.1"/>
    </g>
    <g id="node3" class="node">
      <title>:core:accessibility</title>
      <ellipse fill="none" stroke="black" cx="93.59" cy="-18" rx="93.68" ry="18"/>
      <text text-anchor="middle" x="93.59" y="-14.3" font-family="Times,serif" font-size="14.00">:core:accessibility</text>
    </g>
    <g id="edge2" class="edge">
      <title>:core:designsystem-&gt;:core:accessibility</title>
      <path fill="none" stroke="red" stroke-width="2" d="M239.09,-73.46C210.93,-62.92 173.55,-48.93 143.73,-37.77"/>
      <polygon fill="red" stroke="red" stroke-width="2" points="144.93,-34.48 134.33,-34.25 142.47,-41.03 144.93,-34.48"/>
    </g>
    <g id="node4" class="node">
      <title>:core:common</title>
      <ellipse fill="none" stroke="black" cx="280.59" cy="-18" rx="75.29" ry="18"/>
      <text text-anchor="middle" x="280.59" y="-14.3" font-family="Times,serif" font-size="14.00">:core:common</text>
    </g>
    <g id="edge3" class="edge">
      <title>:core:designsystem-&gt;:core:common</title>
      <path fill="none" stroke="black" d="M280.59,-71.7C280.59,-63.98 280.59,-54.71 280.59,-46.11"/>
      <polygon fill="black" stroke="black" points="284.09,-46.1 280.59,-36.1 277.09,-46.1 284.09,-46.1"/>
    </g>
    <g id="node5" class="node">
      <title>:core:config</title>
      <ellipse fill="none" stroke="black" cx="438.59" cy="-18" rx="64.19" ry="18"/>
      <text text-anchor="middle" x="438.59" y="-14.3" font-family="Times,serif" font-size="14.00">:core:config</text>
    </g>
    <g id="edge4" class="edge">
      <title>:core:designsystem-&gt;:core:config</title>
      <path fill="none" stroke="black" d="M316.44,-73.12C340.26,-62.56 371.62,-48.67 396.61,-37.6"/>
      <polygon fill="black" stroke="black" points="398.12,-40.76 405.84,-33.51 395.28,-34.36 398.12,-40.76"/>
    </g>
  </g>
</svg>
