<?xml version="1.0" encoding="UTF-8" standalone="no"?>
<!DOCTYPE svg PUBLIC "-//W3C//DTD SVG 1.1//EN"
 "http://www.w3.org/Graphics/SVG/1.1/DTD/svg11.dtd">
<!-- Generated by graphviz version 2.43.0 (0)
 -->
<!-- Title: G Pages: 1 -->
<svg width="944pt" height="260pt"
 viewBox="0.00 0.00 943.53 260.00" xmlns="http://www.w3.org/2000/svg" xmlns:xlink="http://www.w3.org/1999/xlink">
<g id="graph0" class="graph" transform="scale(1 1) rotate(0) translate(4 256)">
<title>G</title>
<polygon fill="white" stroke="transparent" points="-4,4 -4,-256 939.53,-256 939.53,4 -4,4"/>
<!-- :feature:settings -->
<g id="node1" class="node">
<title>:feature:settings</title>
<ellipse fill="none" stroke="black" cx="327.99" cy="-234" rx="87.99" ry="18"/>
<text text-anchor="middle" x="327.99" y="-230.3" font-family="Times,serif" font-size="14.00">:feature:settings</text>
</g>
<!-- :core:ui -->
<g id="node2" class="node">
<title>:core:ui</title>
<ellipse fill="none" stroke="black" cx="327.99" cy="-162" rx="45.49" ry="18"/>
<text text-anchor="middle" x="327.99" y="-158.3" font-family="Times,serif" font-size="14.00">:core:ui</text>
</g>
<!-- :feature:settings&#45;&gt;:core:ui -->
<g id="edge1" class="edge">
<title>:feature:settings&#45;&gt;:core:ui</title>
<path fill="none" stroke="red" stroke-width="2" d="M327.99,-215.7C327.99,-207.98 327.99,-198.71 327.99,-190.11"/>
<polygon fill="red" stroke="red" stroke-width="2" points="331.49,-190.1 327.99,-180.1 324.49,-190.1 331.49,-190.1"/>
</g>
<!-- :core:designsystem -->
<g id="node3" class="node">
<title>:core:designsystem</title>
<ellipse fill="none" stroke="black" cx="206.99" cy="-90" rx="100.98" ry="18"/>
<text text-anchor="middle" x="206.99" y="-86.3" font-family="Times,serif" font-size="14.00">:core:designsystem</text>
</g>
<!-- :feature:settings&#45;&gt;:core:designsystem -->
<g id="edge2" class="edge">
<title>:feature:settings&#45;&gt;:core:designsystem</title>
<path fill="none" stroke="black" d="M309.31,-215.98C298.58,-205.89 285.08,-192.64 273.99,-180 256.02,-159.51 237.53,-134.6 224.54,-116.36"/>
<polygon fill="black" stroke="black" points="227.25,-114.14 218.63,-107.98 221.53,-118.17 227.25,-114.14"/>
</g>
<!-- :core:data -->
<g id="node4" class="node">
<title>:core:data</title>
<ellipse fill="none" stroke="black" cx="448.99" cy="-162" rx="57.39" ry="18"/>
<text text-anchor="middle" x="448.99" y="-158.3" font-family="Times,serif" font-size="14.00">:core:data</text>
</g>
<!-- :feature:settings&#45;&gt;:core:data -->
<g id="edge3" class="edge">
<title>:feature:settings&#45;&gt;:core:data</title>
<path fill="none" stroke="black" d="M356.06,-216.76C373.34,-206.77 395.63,-193.87 414.05,-183.22"/>
<polygon fill="black" stroke="black" points="415.83,-186.23 422.74,-178.19 412.33,-180.17 415.83,-186.23"/>
</g>
<!-- :core:feedback -->
<g id="node5" class="node">
<title>:core:feedback</title>
<ellipse fill="none" stroke="black" cx="77.99" cy="-18" rx="77.99" ry="18"/>
<text text-anchor="middle" x="77.99" y="-14.3" font-family="Times,serif" font-size="14.00">:core:feedback</text>
</g>
<!-- :feature:settings&#45;&gt;:core:feedback -->
<g id="edge4" class="edge">
<title>:feature:settings&#45;&gt;:core:feedback</title>
<path fill="none" stroke="black" d="M276.81,-219.21C223.5,-202.12 141.67,-167.69 96.99,-108 83.71,-90.26 79.28,-65.24 77.99,-46.25"/>
<polygon fill="black" stroke="black" points="81.48,-45.97 77.55,-36.13 74.49,-46.27 81.48,-45.97"/>
</g>
<!-- :core:config -->
<g id="node6" class="node">
<title>:core:config</title>
<ellipse fill="none" stroke="black" cx="588.99" cy="-162" rx="64.19" ry="18"/>
<text text-anchor="middle" x="588.99" y="-158.3" font-family="Times,serif" font-size="14.00">:core:config</text>
</g>
<!-- :feature:settings&#45;&gt;:core:config -->
<g id="edge5" class="edge">
<title>:feature:settings&#45;&gt;:core:config</title>
<path fill="none" stroke="black" d="M378.94,-219.34C423.72,-207.33 488.71,-189.9 534.51,-177.61"/>
<polygon fill="black" stroke="black" points="535.52,-180.97 544.27,-174.99 533.7,-174.2 535.52,-180.97"/>
</g>
<!-- :core:ui&#45;&gt;:core:designsystem -->
<g id="edge7" class="edge">
<title>:core:ui&#45;&gt;:core:designsystem</title>
<path fill="none" stroke="red" stroke-width="2" d="M303.21,-146.67C286.26,-136.86 263.48,-123.68 244.34,-112.61"/>
<polygon fill="red" stroke="red" stroke-width="2" points="245.97,-109.5 235.56,-107.53 242.46,-115.56 245.97,-109.5"/>
</g>
<!-- :core:analytics -->
<g id="node7" class="node">
<title>:core:analytics</title>
<ellipse fill="none" stroke="black" cx="441.99" cy="-90" rx="77.99" ry="18"/>
<text text-anchor="middle" x="441.99" y="-86.3" font-family="Times,serif" font-size="14.00">:core:analytics</text>
</g>
<!-- :core:ui&#45;&gt;:core:analytics -->
<g id="edge6" class="edge">
<title>:core:ui&#45;&gt;:core:analytics</title>
<path fill="none" stroke="black" d="M351.61,-146.5C367.5,-136.74 388.72,-123.71 406.61,-112.73"/>
<polygon fill="black" stroke="black" points="408.92,-115.41 415.61,-107.2 405.26,-109.45 408.92,-115.41"/>
</g>
<!-- :core:model -->
<g id="node8" class="node">
<title>:core:model</title>
<ellipse fill="none" stroke="black" cx="634.99" cy="-18" rx="64.99" ry="18"/>
<text text-anchor="middle" x="634.99" y="-14.3" font-family="Times,serif" font-size="14.00">:core:model</text>
</g>
<!-- :core:ui&#45;&gt;:core:model -->
<g id="edge8" class="edge">
<title>:core:ui&#45;&gt;:core:model</title>
<path fill="none" stroke="black" d="M328.13,-143.78C329.28,-123.47 334.44,-90.2 354.99,-72 424.58,-10.39 469.89,-54.41 560.99,-36 566.32,-34.92 571.86,-33.75 577.39,-32.54"/>
<polygon fill="black" stroke="black" points="578.3,-35.93 587.3,-30.34 576.78,-29.09 578.3,-35.93"/>
</g>
<!-- :core:designsystem&#45;&gt;:core:feedback -->
<g id="edge11" class="edge">
<title>:core:designsystem&#45;&gt;:core:feedback</title>
<path fill="none" stroke="black" d="M177.07,-72.76C158.95,-62.93 135.67,-50.3 116.22,-39.74"/>
<polygon fill="black" stroke="black" points="117.76,-36.6 107.31,-34.91 114.43,-42.75 117.76,-36.6"/>
</g>
<!-- :core:accessibility -->
<g id="node9" class="node">
<title>:core:accessibility</title>
<ellipse fill="none" stroke="black" cx="267.99" cy="-18" rx="93.68" ry="18"/>
<text text-anchor="middle" x="267.99" y="-14.3" font-family="Times,serif" font-size="14.00">:core:accessibility</text>
</g>
<!-- :core:designsystem&#45;&gt;:core:accessibility -->
<g id="edge9" class="edge">
<title>:core:designsystem&#45;&gt;:core:accessibility</title>
<path fill="none" stroke="red" stroke-width="2" d="M221.76,-72.05C229.25,-63.46 238.49,-52.86 246.73,-43.4"/>
<polygon fill="red" stroke="red" stroke-width="2" points="249.43,-45.63 253.36,-35.79 244.15,-41.03 249.43,-45.63"/>
</g>
<!-- :core:common -->
<g id="node10" class="node">
<title>:core:common</title>
<ellipse fill="none" stroke="black" cx="476.99" cy="-18" rx="75.29" ry="18"/>
<text text-anchor="middle" x="476.99" y="-14.3" font-family="Times,serif" font-size="14.00">:core:common</text>
</g>
<!-- :core:designsystem&#45;&gt;:core:common -->
<g id="edge10" class="edge">
<title>:core:designsystem&#45;&gt;:core:common</title>
<path fill="none" stroke="black" d="M261.63,-74.83C307,-63.07 371.39,-46.38 417.94,-34.31"/>
<polygon fill="black" stroke="black" points="419.08,-37.63 427.88,-31.73 417.32,-30.85 419.08,-37.63"/>
</g>
<!-- :core:data&#45;&gt;:core:analytics -->
<g id="edge14" class="edge">
<title>:core:data&#45;&gt;:core:analytics</title>
<path fill="none" stroke="black" d="M447.26,-143.7C446.49,-135.98 445.56,-126.71 444.7,-118.11"/>
<polygon fill="black" stroke="black" points="448.18,-117.71 443.7,-108.1 441.22,-118.4 448.18,-117.71"/>
</g>
<!-- :core:data&#45;&gt;:core:common -->
<g id="edge12" class="edge">
<title>:core:data&#45;&gt;:core:common</title>
<path fill="none" stroke="black" d="M483.48,-147.57C500.45,-138.99 519.3,-126.05 528.99,-108 536.56,-93.9 535.05,-86.81 528.99,-72 524.39,-60.74 516.12,-50.58 507.5,-42.24"/>
<polygon fill="black" stroke="black" points="509.7,-39.5 499.93,-35.4 505,-44.7 509.7,-39.5"/>
</g>
<!-- :core:datastore -->
<g id="node11" class="node">
<title>:core:datastore</title>
<ellipse fill="none" stroke="black" cx="656.99" cy="-90" rx="81.49" ry="18"/>
<text text-anchor="middle" x="656.99" y="-86.3" font-family="Times,serif" font-size="14.00">:core:datastore</text>
</g>
<!-- :core:data&#45;&gt;:core:datastore -->
<g id="edge13" class="edge">
<title>:core:data&#45;&gt;:core:datastore</title>
<path fill="none" stroke="black" d="M486.66,-148.32C519.65,-137.22 567.93,-120.97 604.67,-108.61"/>
<polygon fill="black" stroke="black" points="605.86,-111.9 614.23,-105.39 603.63,-105.27 605.86,-111.9"/>
</g>
<!-- :core:datastore&#45;&gt;:core:model -->
<g id="edge16" class="edge">
<title>:core:datastore&#45;&gt;:core:model</title>
<path fill="none" stroke="black" d="M651.55,-71.7C649.1,-63.9 646.15,-54.51 643.43,-45.83"/>
<polygon fill="black" stroke="black" points="646.71,-44.59 640.37,-36.1 640.03,-46.69 646.71,-44.59"/>
</g>
<!-- :core:datastore&#45;&gt;:core:common -->
<g id="edge17" class="edge">
<title>:core:datastore&#45;&gt;:core:common</title>
<path fill="none" stroke="black" d="M618.38,-73.98C590.81,-63.26 553.58,-48.78 524.24,-37.37"/>
<polygon fill="black" stroke="black" points="525.21,-33.99 514.62,-33.63 522.67,-40.52 525.21,-33.99"/>
</g>
<!-- :core:datastore&#45;proto -->
<g id="node12" class="node">
<title>:core:datastore&#45;proto</title>
<ellipse fill="none" stroke="black" cx="826.99" cy="-18" rx="108.58" ry="18"/>
<text text-anchor="middle" x="826.99" y="-14.3" font-family="Times,serif" font-size="14.00">:core:datastore&#45;proto</text>
</g>
<!-- :core:datastore&#45;&gt;:core:datastore&#45;proto -->
<g id="edge15" class="edge">
<title>:core:datastore&#45;&gt;:core:datastore&#45;proto</title>
<path fill="none" stroke="black" d="M693.88,-73.81C718.86,-63.52 752.12,-49.83 779.13,-38.71"/>
<polygon fill="black" stroke="black" points="780.49,-41.93 788.41,-34.89 777.83,-35.46 780.49,-41.93"/>
</g>
</g>
</svg>
