<?xml version="1.0" encoding="UTF-8" standalone="no"?>
<!DOCTYPE svg PUBLIC "-//W3C//DTD SVG 1.1//EN" "http://www.w3.org/Graphics/SVG/1.1/DTD/svg11.dtd">
<svg height="260pt" viewBox="0.00 0.00 1068.34 260.00" width="1068pt" xmlns="http://www.w3.org/2000/svg">
    <g class="graph" id="graph0" transform="scale(1 1) rotate(0) translate(4 256)">
    <title>G</title>
        <polygon fill="white" points="-4,4 -4,-256 1064.34,-256 1064.34,4 -4,4"
            stroke="transparent" />
    <g id="node1" class="node">
      <title>:feature:settings</title>
        <ellipse cx="688.99" cy="-234" fill="none" rx="87.99" ry="18" stroke="black" />
        <text font-family="Times,serif" font-size="14.00" text-anchor="middle" x="688.99"
            y="-230.3">:feature:settings
        </text>
    </g>
    <g id="node2" class="node">
        <title>:core:config</title>
        <ellipse cx="995.99" cy="-18" fill="none" rx="64.19" ry="18" stroke="black" />
        <text font-family="Times,serif" font-size="14.00" text-anchor="middle" x="995.99" y="-14.3">
            :core:config
        </text>
    </g>
    <g id="edge1" class="edge">
        <title>:feature:settings-&gt;:core:config</title>
        <path d="M736.54,-218.85C764.38,-209.63 799.7,-196.3 828.99,-180 874.98,-154.41 885.17,-144.59 922.99,-108 943.58,-88.09 963.99,-62.58 977.98,-43.98" fill="none"
            stroke="black" />
        <polygon fill="black" points="980.96,-45.83 984.11,-35.71 975.34,-41.66 980.96,-45.83"
            stroke="black" />
    </g>
    <g id="node3" class="node">
        <title>:core:data</title>
        <ellipse cx="507.99" cy="-162" fill="none" rx="57.39" ry="18" stroke="black" />
        <text font-family="Times,serif" font-size="14.00" text-anchor="middle" x="507.99"
            y="-158.3">:core:data
        </text>
    </g>
    <g id="edge2" class="edge">
        <title>:feature:settings-&gt;:core:data</title>
        <path d="M649.72,-217.81C620.92,-206.67 581.79,-191.54 551.95,-180" fill="none" stroke="red"
            stroke-width="2" />
        <polygon fill="red" points="553.2,-176.73 542.61,-176.39 550.67,-183.26 553.2,-176.73" stroke="red"
            stroke-width="2" />
    </g>
    <g id="node4" class="node">
      <title>:core:feedback</title>
        <ellipse cx="741.99" cy="-162" fill="none" rx="77.99" ry="18" stroke="black" />
        <text font-family="Times,serif" font-size="14.00" text-anchor="middle" x="741.99"
            y="-158.3">:core:feedback
        </text>
    </g>
    <g id="edge3" class="edge">
      <title>:feature:settings-&gt;:core:feedback</title>
        <path d="M701.82,-216.05C708.2,-207.63 716.04,-197.28 723.09,-187.97" fill="none"
            stroke="black" />
        <polygon fill="black" points="726.04,-189.87 729.28,-179.79 720.46,-185.65 726.04,-189.87"
            stroke="black" />
    </g>
    <g id="node5" class="node">
      <title>:core:ui</title>
        <ellipse cx="635.99" cy="-90" fill="none" rx="45.49" ry="18" stroke="black" />
        <text font-family="Times,serif" font-size="14.00" text-anchor="middle" x="635.99" y="-86.3">
            :core:ui
        </text>
    </g>
    <g id="edge4" class="edge">
      <title>:feature:settings-&gt;:core:ui</title>
        <path d="M675.65,-215.73C668.55,-205.78 660.24,-192.74 654.99,-180 646.84,-160.18 641.99,-136.39 639.24,-118.39" fill="none"
            stroke="black" />
        <polygon fill="black" points="642.67,-117.69 637.82,-108.27 635.74,-118.66 642.67,-117.69"
            stroke="black" />
    </g>
    <g id="node6" class="node">
        <title>:core:analytics</title>
        <ellipse cx="629.99" cy="-18" fill="none" rx="77.99" ry="18" stroke="black" />
        <text font-family="Times,serif" font-size="14.00" text-anchor="middle" x="629.99" y="-14.3">
            :core:analytics
        </text>
    </g>
    <g id="edge5" class="edge">
        <title>:core:data-&gt;:core:analytics</title>
        <path d="M521.43,-144.42C536.1,-126.41 560.39,-96.89 581.99,-72 590.18,-62.57 599.33,-52.38 607.44,-43.47" fill="none"
            stroke="black" />
        <polygon fill="black" points="610.08,-45.76 614.24,-36.02 604.92,-41.04 610.08,-45.76"
            stroke="black" />
    </g>
        <g class="node" id="node7">
            <title>:core:auth</title>
            <ellipse cx="461.99" cy="-90" fill="none" rx="57.69" ry="18" stroke="black" />
            <text font-family="Times,serif" font-size="14.00" text-anchor="middle" x="461.99"
                y="-86.3">:core:auth
            </text>
        </g>
        <g class="edge" id="edge6">
            <title>:core:data-&gt;:core:auth</title>
            <path d="M496.86,-144.05C491.38,-135.71 484.66,-125.49 478.59,-116.25" fill="none" stroke="red"
                stroke-width="2" />
            <polygon fill="red" points="481.44,-114.22 473.03,-107.79 475.59,-118.07 481.44,-114.22" stroke="red"
                stroke-width="2" />
        </g>
        <g class="node" id="node8">
            <title>:core:datastore</title>
            <ellipse cx="282.99" cy="-90" fill="none" rx="81.49" ry="18" stroke="black" />
            <text font-family="Times,serif" font-size="14.00" text-anchor="middle" x="282.99"
                y="-86.3">:core:datastore
            </text>
        </g>
        <g class="edge" id="edge7">
            <title>:core:data-&gt;:core:datastore</title>
            <path d="M468.8,-148.81C432.63,-137.55 378.54,-120.73 338.04,-108.13" fill="none"
                stroke="black" />
            <polygon fill="black" points="338.9,-104.73 328.31,-105.1 336.82,-111.41 338.9,-104.73"
                stroke="black" />
        </g>
        <g class="edge" id="edge13">
            <title>:core:feedback-&gt;:core:ui</title>
            <path d="M717.41,-144.76C702.34,-134.81 682.92,-121.99 666.83,-111.36" fill="none"
                stroke="black" />
            <polygon fill="black" points="668.55,-108.31 658.28,-105.72 664.7,-114.15 668.55,-108.31"
                stroke="black" />
    </g>
    <g id="node12" class="node">
      <title>:core:designsystem</title>
        <ellipse cx="812.99" cy="-90" fill="none" rx="100.98" ry="18" stroke="black" />
        <text font-family="Times,serif" font-size="14.00" text-anchor="middle" x="812.99" y="-86.3">
            :core:designsystem
        </text>
    </g>
        <g class="edge" id="edge12">
      <title>:core:feedback-&gt;:core:designsystem</title>
            <path d="M758.82,-144.41C767.71,-135.65 778.78,-124.73 788.59,-115.06" fill="none"
                stroke="black" />
            <polygon fill="black" points="791.13,-117.47 795.8,-107.96 786.22,-112.48 791.13,-117.47"
                stroke="black" />
    </g>
        <g class="edge" id="edge17">
      <title>:core:ui-&gt;:core:analytics</title>
            <path d="M634.51,-71.7C633.85,-63.98 633.06,-54.71 632.32,-46.11" fill="none"
                stroke="black" />
            <polygon fill="black" points="635.8,-45.77 631.46,-36.1 628.83,-46.37 635.8,-45.77"
                stroke="black" />
    </g>
    <g id="node9" class="node">
        <title>:core:common</title>
        <ellipse cx="458.99" cy="-18" fill="none" rx="75.29" ry="18" stroke="black" />
        <text font-family="Times,serif" font-size="14.00" text-anchor="middle" x="458.99" y="-14.3">
            :core:common
        </text>
    </g>
    <g id="edge8" class="edge">
        <title>:core:auth-&gt;:core:common</title>
        <path d="M461.25,-71.7C460.92,-63.98 460.52,-54.71 460.16,-46.11" fill="none" stroke="red"
            stroke-width="2" />
        <polygon fill="red" points="463.65,-45.95 459.73,-36.1 456.66,-46.25 463.65,-45.95" stroke="red"
            stroke-width="2" />
    </g>
        <g class="edge" id="edge11">
            <title>:core:datastore-&gt;:core:common</title>
            <path d="M320.75,-73.98C347.61,-63.3 383.87,-48.88 412.51,-37.49" fill="none"
                stroke="black" />
            <polygon fill="black" points="413.91,-40.7 421.9,-33.75 411.32,-34.2 413.91,-40.7"
                stroke="black" />
    </g>
    <g id="node10" class="node">
        <title>:core:datastore-proto</title>
        <ellipse cx="256.99" cy="-18" fill="none" rx="108.58" ry="18" stroke="black" />
        <text font-family="Times,serif" font-size="14.00" text-anchor="middle" x="256.99" y="-14.3">
            :core:datastore-proto
        </text>
    </g>
    <g id="edge9" class="edge">
        <title>:core:datastore-&gt;:core:datastore-proto</title>
        <path d="M276.57,-71.7C273.64,-63.81 270.11,-54.3 266.85,-45.55" fill="none"
            stroke="black" />
        <polygon fill="black" points="270.11,-44.26 263.35,-36.1 263.55,-46.7 270.11,-44.26"
            stroke="black" />
    </g>
    <g id="node11" class="node">
        <title>:core:model</title>
        <ellipse cx="64.99" cy="-18" fill="none" rx="64.99" ry="18" stroke="black" />
        <text font-family="Times,serif" font-size="14.00" text-anchor="middle" x="64.99" y="-14.3">
            :core:model
        </text>
    </g>
    <g id="edge10" class="edge">
        <title>:core:datastore-&gt;:core:model</title>
        <path d="M238.88,-74.83C203.13,-63.36 152.75,-47.18 115.41,-35.19" fill="none"
            stroke="black" />
        <polygon fill="black" points="116.32,-31.81 105.73,-32.08 114.18,-38.47 116.32,-31.81"
            stroke="black" />
    </g>
        <g class="edge" id="edge16">
      <title>:core:designsystem-&gt;:core:config</title>
            <path d="M853.61,-73.46C882.08,-62.57 920.2,-47.99 949.83,-36.66" fill="none"
                stroke="black" />
            <polygon fill="black" points="951.44,-39.79 959.53,-32.95 948.94,-33.25 951.44,-39.79"
                stroke="black" />
    </g>
        <g class="edge" id="edge15">
      <title>:core:designsystem-&gt;:core:common</title>
            <path d="M747.5,-76.26C692.81,-65.59 612.8,-49.91 542.99,-36 536.96,-34.8 530.69,-33.54 524.4,-32.28" fill="none"
                stroke="black" />
            <polygon fill="black" points="525.06,-28.84 514.56,-30.29 523.67,-35.7 525.06,-28.84"
                stroke="black" />
    </g>
    <g id="node13" class="node">
      <title>:core:accessibility</title>
        <ellipse cx="819.99" cy="-18" fill="none" rx="93.68" ry="18" stroke="black" />
        <text font-family="Times,serif" font-size="14.00" text-anchor="middle" x="819.99" y="-14.3">
            :core:accessibility
        </text>
    </g>
        <g class="edge" id="edge14">
      <title>:core:designsystem-&gt;:core:accessibility</title>
            <path d="M814.72,-71.7C815.5,-63.98 816.42,-54.71 817.28,-46.11" fill="none"
                stroke="black" />
            <polygon fill="black" points="820.77,-46.4 818.28,-36.1 813.81,-45.71 820.77,-46.4"
                stroke="black" />
    </g>
  </g>
</svg>
