<?xml version="1.0" encoding="UTF-8" standalone="no"?>
<!DOCTYPE svg PUBLIC "-//W3C//DTD SVG 1.1//EN"
 "http://www.w3.org/Graphics/SVG/1.1/DTD/svg11.dtd">
<!-- Generated by graphviz version 2.43.0 (0)
 -->
<!-- Title: G Pages: 1 -->
<svg width="939pt" height="332pt"
 viewBox="0.00 0.00 939.22 332.00" xmlns="http://www.w3.org/2000/svg" xmlns:xlink="http://www.w3.org/1999/xlink">
<g id="graph0" class="graph" transform="scale(1 1) rotate(0) translate(4 328)">
<title>G</title>
<polygon fill="white" stroke="transparent" points="-4,4 -4,-328 935.22,-328 935.22,4 -4,4"/>
<!-- :app -->
<g id="node1" class="node">
<title>:app</title>
<ellipse fill="none" stroke="black" cx="491.22" cy="-306" rx="30.59" ry="18"/>
<text text-anchor="middle" x="491.22" y="-302.3" font-family="Times,serif" font-size="14.00">:app</text>
</g>
<!-- :feature:settings -->
<g id="node2" class="node">
<title>:feature:settings</title>
<ellipse fill="none" stroke="black" cx="433.22" cy="-234" rx="87.99" ry="18"/>
<text text-anchor="middle" x="433.22" y="-230.3" font-family="Times,serif" font-size="14.00">:feature:settings</text>
</g>
<!-- :app&#45;&gt;:feature:settings -->
<g id="edge1" class="edge">
<title>:app&#45;&gt;:feature:settings</title>
<path fill="none" stroke="red" stroke-width="2" d="M478.35,-289.46C471.16,-280.78 462.02,-269.75 453.85,-259.89"/>
<polygon fill="red" stroke="red" stroke-width="2" points="456.35,-257.43 447.28,-251.96 450.96,-261.9 456.35,-257.43"/>
</g>
<!-- :feature:aboutme -->
<g id="node3" class="node">
<title>:feature:aboutme</title>
<ellipse fill="none" stroke="black" cx="198.22" cy="-234" rx="90.98" ry="18"/>
<text text-anchor="middle" x="198.22" y="-230.3" font-family="Times,serif" font-size="14.00">:feature:aboutme</text>
</g>
<!-- :app&#45;&gt;:feature:aboutme -->
<g id="edge2" class="edge">
<title>:app&#45;&gt;:feature:aboutme</title>
<path fill="none" stroke="black" d="M463.4,-298.35C417.9,-287.48 326.41,-265.63 263.75,-250.65"/>
<polygon fill="black" stroke="black" points="264.49,-247.23 253.95,-248.31 262.86,-254.04 264.49,-247.23"/>
</g>
<!-- :core:common -->
<g id="node4" class="node">
<title>:core:common</title>
<ellipse fill="none" stroke="black" cx="267.22" cy="-18" rx="75.29" ry="18"/>
<text text-anchor="middle" x="267.22" y="-14.3" font-family="Times,serif" font-size="14.00">:core:common</text>
</g>
<!-- :app&#45;&gt;:core:common -->
<g id="edge3" class="edge">
<title>:app&#45;&gt;:core:common</title>
<path fill="none" stroke="black" d="M460.48,-305.37C370,-305.86 106.86,-302.79 41.22,-252 2.01,-221.65 -12.85,-186.18 13.22,-144 36.13,-106.94 149.12,-61.26 216.44,-36.68"/>
<polygon fill="black" stroke="black" points="217.82,-39.9 226.03,-33.21 215.43,-33.32 217.82,-39.9"/>
</g>
<!-- :core:ui -->
<g id="node5" class="node">
<title>:core:ui</title>
<ellipse fill="none" stroke="black" cx="626.22" cy="-162" rx="45.49" ry="18"/>
<text text-anchor="middle" x="626.22" y="-158.3" font-family="Times,serif" font-size="14.00">:core:ui</text>
</g>
<!-- :app&#45;&gt;:core:ui -->
<g id="edge4" class="edge">
<title>:app&#45;&gt;:core:ui</title>
<path fill="none" stroke="black" d="M506.58,-290.38C517.51,-279.86 532.47,-265.25 545.22,-252 565.96,-230.47 588.82,-205.2 604.95,-187.1"/>
<polygon fill="black" stroke="black" points="607.83,-189.13 611.86,-179.33 602.6,-184.48 607.83,-189.13"/>
</g>
<!-- :core:designsystem -->
<g id="node6" class="node">
<title>:core:designsystem</title>
<ellipse fill="none" stroke="black" cx="267.22" cy="-90" rx="100.98" ry="18"/>
<text text-anchor="middle" x="267.22" y="-86.3" font-family="Times,serif" font-size="14.00">:core:designsystem</text>
</g>
<!-- :app&#45;&gt;:core:designsystem -->
<g id="edge5" class="edge">
<title>:app&#45;&gt;:core:designsystem</title>
<path fill="none" stroke="black" d="M460.89,-303.34C380.27,-298.54 162.48,-283 98.22,-252 56.61,-231.92 41.34,-222.51 23.22,-180 16.95,-165.28 13.18,-156.46 23.22,-144 41.68,-121.11 109.08,-107.6 168.39,-99.95"/>
<polygon fill="black" stroke="black" points="169.09,-103.39 178.58,-98.68 168.23,-96.44 169.09,-103.39"/>
</g>
<!-- :core:data -->
<g id="node7" class="node">
<title>:core:data</title>
<ellipse fill="none" stroke="black" cx="505.22" cy="-162" rx="57.39" ry="18"/>
<text text-anchor="middle" x="505.22" y="-158.3" font-family="Times,serif" font-size="14.00">:core:data</text>
</g>
<!-- :app&#45;&gt;:core:data -->
<g id="edge6" class="edge">
<title>:app&#45;&gt;:core:data</title>
<path fill="none" stroke="black" d="M506.1,-290.27C514.99,-280.38 525.45,-266.54 530.22,-252 537.11,-231.03 529.38,-206.9 520.75,-189.07"/>
<polygon fill="black" stroke="black" points="523.68,-187.11 515.96,-179.86 517.47,-190.35 523.68,-187.11"/>
</g>
<!-- :core:model -->
<g id="node8" class="node">
<title>:core:model</title>
<ellipse fill="none" stroke="black" cx="866.22" cy="-18" rx="64.99" ry="18"/>
<text text-anchor="middle" x="866.22" y="-14.3" font-family="Times,serif" font-size="14.00">:core:model</text>
</g>
<!-- :app&#45;&gt;:core:model -->
<g id="edge7" class="edge">
<title>:app&#45;&gt;:core:model</title>
<path fill="none" stroke="black" d="M520.86,-300.88C560.92,-294.49 633.83,-279.91 690.22,-252 737.07,-228.81 749.17,-219.66 783.22,-180 818.69,-138.7 844.14,-79.65 856.9,-45.73"/>
<polygon fill="black" stroke="black" points="860.3,-46.65 860.46,-36.05 853.72,-44.24 860.3,-46.65"/>
</g>
<!-- :core:analytics -->
<g id="node9" class="node">
<title>:core:analytics</title>
<ellipse fill="none" stroke="black" cx="720.22" cy="-90" rx="77.99" ry="18"/>
<text text-anchor="middle" x="720.22" y="-86.3" font-family="Times,serif" font-size="14.00">:core:analytics</text>
</g>
<!-- :app&#45;&gt;:core:analytics -->
<g id="edge8" class="edge">
<title>:app&#45;&gt;:core:analytics</title>
<path fill="none" stroke="black" d="M515.34,-294.64C554.73,-276.64 633.18,-236.05 680.22,-180 695.48,-161.83 706.01,-136.9 712.43,-118.05"/>
<polygon fill="black" stroke="black" points="715.84,-118.87 715.57,-108.28 709.18,-116.73 715.84,-118.87"/>
</g>
<!-- :core:config -->
<g id="node10" class="node">
<title>:core:config</title>
<ellipse fill="none" stroke="black" cx="290.22" cy="-162" rx="64.19" ry="18"/>
<text text-anchor="middle" x="290.22" y="-158.3" font-family="Times,serif" font-size="14.00">:core:config</text>
</g>
<!-- :app&#45;&gt;:core:config -->
<g id="edge9" class="edge">
<title>:app&#45;&gt;:core:config</title>
<path fill="none" stroke="black" d="M461.39,-301.53C427.52,-296.2 372.3,-283.11 336.22,-252 317.27,-235.65 305.09,-209.56 298.05,-189.84"/>
<polygon fill="black" stroke="black" points="301.32,-188.58 294.84,-180.2 294.68,-190.79 301.32,-188.58"/>
</g>
<!-- :core:accessibility -->
<g id="node11" class="node">
<title>:core:accessibility</title>
<ellipse fill="none" stroke="black" cx="689.22" cy="-18" rx="93.68" ry="18"/>
<text text-anchor="middle" x="689.22" y="-14.3" font-family="Times,serif" font-size="14.00">:core:accessibility</text>
</g>
<!-- :app&#45;&gt;:core:accessibility -->
<g id="edge10" class="edge">
<title>:app&#45;&gt;:core:accessibility</title>
<path fill="none" stroke="black" d="M519.07,-298.43C585.39,-281.04 751.36,-226.75 807.22,-108 814.04,-93.52 815.92,-85.43 807.22,-72 796.21,-54.98 778.3,-43.38 759.72,-35.48"/>
<polygon fill="black" stroke="black" points="760.86,-32.17 750.27,-31.79 758.31,-38.69 760.86,-32.17"/>
</g>
<!-- :feature:settings&#45;&gt;:core:ui -->
<g id="edge11" class="edge">
<title>:feature:settings&#45;&gt;:core:ui</title>
<path fill="none" stroke="red" stroke-width="2" d="M474.63,-217.98C506.95,-206.26 551.67,-190.04 584.16,-178.26"/>
<polygon fill="red" stroke="red" stroke-width="2" points="585.62,-181.45 593.82,-174.75 583.23,-174.87 585.62,-181.45"/>
</g>
<!-- :feature:settings&#45;&gt;:core:designsystem -->
<g id="edge12" class="edge">
<title>:feature:settings&#45;&gt;:core:designsystem</title>
<path fill="none" stroke="black" d="M430.17,-215.71C425.85,-195.97 416.14,-163.84 396.22,-144 379.71,-127.55 357.38,-115.98 335.94,-107.95"/>
<polygon fill="black" stroke="black" points="337.09,-104.64 326.5,-104.61 334.76,-111.24 337.09,-104.64"/>
</g>
<!-- :feature:settings&#45;&gt;:core:data -->
<g id="edge13" class="edge">
<title>:feature:settings&#45;&gt;:core:data</title>
<path fill="none" stroke="black" d="M450.65,-216.05C459.81,-207.16 471.17,-196.11 481.15,-186.41"/>
<polygon fill="black" stroke="black" points="483.72,-188.79 488.45,-179.31 478.84,-183.77 483.72,-188.79"/>
</g>
<!-- :feature:settings&#45;&gt;:core:config -->
<g id="edge15" class="edge">
<title>:feature:settings&#45;&gt;:core:config</title>
<path fill="none" stroke="black" d="M400.78,-217.12C379.86,-206.88 352.53,-193.5 330.27,-182.6"/>
<polygon fill="black" stroke="black" points="331.59,-179.35 321.07,-178.1 328.52,-185.64 331.59,-179.35"/>
</g>
<!-- :core:feedback -->
<g id="node12" class="node">
<title>:core:feedback</title>
<ellipse fill="none" stroke="black" cx="96.22" cy="-18" rx="77.99" ry="18"/>
<text text-anchor="middle" x="96.22" y="-14.3" font-family="Times,serif" font-size="14.00">:core:feedback</text>
</g>
<!-- :feature:settings&#45;&gt;:core:feedback -->
<g id="edge14" class="edge">
<title>:feature:settings&#45;&gt;:core:feedback</title>
<path fill="none" stroke="black" d="M420.98,-216.14C403.04,-191.64 370.9,-148.59 363.22,-144 283.44,-96.32 235.4,-158.27 157.22,-108 133.97,-93.04 117.25,-65.74 107.26,-45.31"/>
<polygon fill="black" stroke="black" points="110.41,-43.78 103.02,-36.19 104.06,-46.73 110.41,-43.78"/>
</g>
<!-- :feature:aboutme&#45;&gt;:core:ui -->
<g id="edge29" class="edge">
<title>:feature:aboutme&#45;&gt;:core:ui</title>
<path fill="none" stroke="black" d="M273.42,-223.75C365.52,-212.17 516.1,-192.35 571.22,-180 575.06,-179.14 579.02,-178.14 582.98,-177.07"/>
<polygon fill="black" stroke="black" points="584.06,-180.4 592.71,-174.28 582.13,-173.67 584.06,-180.4"/>
</g>
<!-- :feature:aboutme&#45;&gt;:core:designsystem -->
<g id="edge30" class="edge">
<title>:feature:aboutme&#45;&gt;:core:designsystem</title>
<path fill="none" stroke="black" d="M199.16,-215.67C200.77,-197.02 205.18,-166.94 217.22,-144 222.86,-133.26 231.29,-123.13 239.63,-114.65"/>
<polygon fill="black" stroke="black" points="242.11,-117.13 246.87,-107.66 237.24,-112.1 242.11,-117.13"/>
</g>
<!-- :feature:aboutme&#45;&gt;:core:data -->
<g id="edge31" class="edge">
<title>:feature:aboutme&#45;&gt;:core:data</title>
<path fill="none" stroke="black" d="M255.61,-219.92C311.32,-207.21 395.3,-188.06 450.2,-175.55"/>
<polygon fill="black" stroke="black" points="451.12,-178.93 460.1,-173.29 449.57,-172.1 451.12,-178.93"/>
</g>
<!-- :feature:aboutme&#45;&gt;:core:config -->
<g id="edge33" class="edge">
<title>:feature:aboutme&#45;&gt;:core:config</title>
<path fill="none" stroke="black" d="M220.03,-216.41C232.14,-207.19 247.39,-195.59 260.58,-185.55"/>
<polygon fill="black" stroke="black" points="263.06,-188.07 268.9,-179.23 258.82,-182.5 263.06,-188.07"/>
</g>
<!-- :feature:aboutme&#45;&gt;:core:feedback -->
<g id="edge32" class="edge">
<title>:feature:aboutme&#45;&gt;:core:feedback</title>
<path fill="none" stroke="black" d="M111.78,-228.13C78.63,-221.52 43.84,-207.79 23.22,-180 -9.11,-136.42 38.05,-76.23 70.32,-43.17"/>
<polygon fill="black" stroke="black" points="73.13,-45.3 77.74,-35.76 68.19,-40.35 73.13,-45.3"/>
</g>
<!-- :core:shapes -->
<g id="node15" class="node">
<title>:core:shapes</title>
<ellipse fill="none" stroke="black" cx="101.22" cy="-162" rx="68.79" ry="18"/>
<text text-anchor="middle" x="101.22" y="-158.3" font-family="Times,serif" font-size="14.00">:core:shapes</text>
</g>
<!-- :feature:aboutme&#45;&gt;:core:shapes -->
<g id="edge34" class="edge">
<title>:feature:aboutme&#45;&gt;:core:shapes</title>
<path fill="none" stroke="black" d="M175.24,-216.41C162.34,-207.1 146.08,-195.37 132.08,-185.27"/>
<polygon fill="black" stroke="black" points="133.87,-182.24 123.71,-179.23 129.77,-187.92 133.87,-182.24"/>
</g>
<!-- :core:ui&#45;&gt;:core:designsystem -->
<g id="edge17" class="edge">
<title>:core:ui&#45;&gt;:core:designsystem</title>
<path fill="none" stroke="red" stroke-width="2" d="M592.38,-149.8C585.43,-147.71 578.12,-145.66 571.22,-144 498.82,-126.57 415.41,-112.44 354.3,-103.17"/>
<polygon fill="red" stroke="red" stroke-width="2" points="354.71,-99.69 344.3,-101.67 353.67,-106.62 354.71,-99.69"/>
</g>
<!-- :core:ui&#45;&gt;:core:model -->
<g id="edge18" class="edge">
<title>:core:ui&#45;&gt;:core:model</title>
<path fill="none" stroke="black" d="M622.16,-144.01C618.52,-124.25 616.08,-91.81 633.22,-72 680.63,-17.21 721.58,-52.11 792.22,-36 797.24,-34.86 802.44,-33.67 807.66,-32.47"/>
<polygon fill="black" stroke="black" points="808.7,-35.82 817.67,-30.18 807.14,-29 808.7,-35.82"/>
</g>
<!-- :core:ui&#45;&gt;:core:analytics -->
<g id="edge16" class="edge">
<title>:core:ui&#45;&gt;:core:analytics</title>
<path fill="none" stroke="black" d="M646.62,-145.81C659.35,-136.33 675.96,-123.96 690.18,-113.37"/>
<polygon fill="black" stroke="black" points="692.3,-116.16 698.23,-107.38 688.12,-110.55 692.3,-116.16"/>
</g>
<!-- :core:designsystem&#45;&gt;:core:common -->
<g id="edge21" class="edge">
<title>:core:designsystem&#45;&gt;:core:common</title>
<path fill="none" stroke="black" d="M267.22,-71.7C267.22,-63.98 267.22,-54.71 267.22,-46.11"/>
<polygon fill="black" stroke="black" points="270.72,-46.1 267.22,-36.1 263.72,-46.1 270.72,-46.1"/>
</g>
<!-- :core:designsystem&#45;&gt;:core:accessibility -->
<g id="edge19" class="edge">
<title>:core:designsystem&#45;&gt;:core:accessibility</title>
<path fill="none" stroke="red" stroke-width="2" d="M338.4,-77.23C403.25,-66.51 501.68,-50.21 587.22,-36 594.88,-34.73 602.86,-33.4 610.84,-32.07"/>
<polygon fill="red" stroke="red" stroke-width="2" points="611.63,-35.49 620.92,-30.39 610.48,-28.58 611.63,-35.49"/>
</g>
<!-- :core:designsystem&#45;&gt;:core:feedback -->
<g id="edge20" class="edge">
<title>:core:designsystem&#45;&gt;:core:feedback</title>
<path fill="none" stroke="black" d="M228.85,-73.29C203.13,-62.76 169.13,-48.85 142,-37.74"/>
<polygon fill="black" stroke="black" points="143.29,-34.49 132.71,-33.94 140.64,-40.97 143.29,-34.49"/>
</g>
<!-- :core:data&#45;&gt;:core:common -->
<g id="edge22" class="edge">
<title>:core:data&#45;&gt;:core:common</title>
<path fill="none" stroke="black" d="M476.61,-146.32C458.39,-136.45 434.64,-122.61 415.22,-108 396.64,-94.01 396.38,-85.21 377.22,-72 357.71,-58.55 334.27,-46.74 314.04,-37.7"/>
<polygon fill="black" stroke="black" points="315.27,-34.42 304.7,-33.62 312.46,-40.83 315.27,-34.42"/>
</g>
<!-- :core:data&#45;&gt;:core:analytics -->
<g id="edge24" class="edge">
<title>:core:data&#45;&gt;:core:analytics</title>
<path fill="none" stroke="black" d="M543.66,-148.49C578.03,-137.29 628.74,-120.79 667.01,-108.33"/>
<polygon fill="black" stroke="black" points="668.52,-111.51 676.95,-105.09 666.35,-104.86 668.52,-111.51"/>
</g>
<!-- :core:datastore -->
<g id="node13" class="node">
<title>:core:datastore</title>
<ellipse fill="none" stroke="black" cx="505.22" cy="-90" rx="81.49" ry="18"/>
<text text-anchor="middle" x="505.22" y="-86.3" font-family="Times,serif" font-size="14.00">:core:datastore</text>
</g>
<!-- :core:data&#45;&gt;:core:datastore -->
<g id="edge23" class="edge">
<title>:core:data&#45;&gt;:core:datastore</title>
<path fill="none" stroke="black" d="M505.22,-143.7C505.22,-135.98 505.22,-126.71 505.22,-118.11"/>
<polygon fill="black" stroke="black" points="508.72,-118.1 505.22,-108.1 501.72,-118.1 508.72,-118.1"/>
</g>
<!-- :core:config&#45;&gt;:core:designsystem -->
<g id="edge28" class="edge">
<title>:core:config&#45;&gt;:core:designsystem</title>
<path fill="none" stroke="black" d="M284.66,-144.05C282.07,-136.18 278.93,-126.62 276.03,-117.79"/>
<polygon fill="black" stroke="black" points="279.35,-116.68 272.9,-108.28 272.7,-118.87 279.35,-116.68"/>
</g>
<!-- :core:datastore&#45;&gt;:core:common -->
<g id="edge27" class="edge">
<title>:core:datastore&#45;&gt;:core:common</title>
<path fill="none" stroke="black" d="M458.49,-75.25C419.51,-63.79 363.89,-47.43 322.67,-35.31"/>
<polygon fill="black" stroke="black" points="323.63,-31.94 313.05,-32.48 321.65,-38.66 323.63,-31.94"/>
</g>
<!-- :core:datastore&#45;&gt;:core:model -->
<g id="edge26" class="edge">
<title>:core:datastore&#45;&gt;:core:model</title>
<path fill="none" stroke="black" d="M566.35,-78.03C637.33,-65.24 750.05,-44.73 792.22,-36 797.55,-34.9 803.08,-33.71 808.61,-32.49"/>
<polygon fill="black" stroke="black" points="809.52,-35.87 818.52,-30.28 808,-29.04 809.52,-35.87"/>
</g>
<!-- :core:datastore&#45;proto -->
<g id="node14" class="node">
<title>:core:datastore&#45;proto</title>
<ellipse fill="none" stroke="black" cx="469.22" cy="-18" rx="108.58" ry="18"/>
<text text-anchor="middle" x="469.22" y="-14.3" font-family="Times,serif" font-size="14.00">:core:datastore&#45;proto</text>
</g>
<!-- :core:datastore&#45;&gt;:core:datastore&#45;proto -->
<g id="edge25" class="edge">
<title>:core:datastore&#45;&gt;:core:datastore&#45;proto</title>
<path fill="none" stroke="black" d="M496.51,-72.05C492.37,-64.01 487.33,-54.2 482.71,-45.23"/>
<polygon fill="black" stroke="black" points="485.79,-43.57 478.11,-36.28 479.57,-46.77 485.79,-43.57"/>
</g>
</g>
</svg>
