<?xml version="1.0" encoding="UTF-8" standalone="no"?>
<!DOCTYPE svg PUBLIC "-//W3C//DTD SVG 1.1//EN"
 "http://www.w3.org/Graphics/SVG/1.1/DTD/svg11.dtd">
<!-- Generated by graphviz version 2.43.0 (0)
 -->
<!-- Title: G Pages: 1 -->
<svg width="715pt" height="260pt"
 viewBox="0.00 0.00 714.59 260.00" xmlns="http://www.w3.org/2000/svg" xmlns:xlink="http://www.w3.org/1999/xlink">
<g id="graph0" class="graph" transform="scale(1 1) rotate(0) translate(4 256)">
<title>G</title>
<polygon fill="white" stroke="transparent" points="-4,4 -4,-256 710.59,-256 710.59,4 -4,4"/>
<!-- :app&#45;rn3&#45;catalog -->
<g id="node1" class="node">
<title>:app&#45;rn3&#45;catalog</title>
<ellipse fill="none" stroke="black" cx="381.59" cy="-234" rx="86.38" ry="18"/>
<text text-anchor="middle" x="381.59" y="-230.3" font-family="Times,serif" font-size="14.00">:app&#45;rn3&#45;catalog</text>
</g>
<!-- :core:designsystem -->
<g id="node2" class="node">
<title>:core:designsystem</title>
<ellipse fill="none" stroke="black" cx="283.59" cy="-90" rx="100.98" ry="18"/>
<text text-anchor="middle" x="283.59" y="-86.3" font-family="Times,serif" font-size="14.00">:core:designsystem</text>
</g>
<!-- :app&#45;rn3&#45;catalog&#45;&gt;:core:designsystem -->
<g id="edge1" class="edge">
<title>:app&#45;rn3&#45;catalog&#45;&gt;:core:designsystem</title>
<path fill="none" stroke="black" d="M369.96,-216.15C352.96,-191.52 321.19,-145.47 301.28,-116.63"/>
<polygon fill="black" stroke="black" points="304.07,-114.51 295.51,-108.27 298.31,-118.49 304.07,-114.51"/>
</g>
<!-- :core:ui -->
<g id="node3" class="node">
<title>:core:ui</title>
<ellipse fill="none" stroke="black" cx="449.59" cy="-162" rx="45.49" ry="18"/>
<text text-anchor="middle" x="449.59" y="-158.3" font-family="Times,serif" font-size="14.00">:core:ui</text>
</g>
<!-- :app&#45;rn3&#45;catalog&#45;&gt;:core:ui -->
<g id="edge2" class="edge">
<title>:app&#45;rn3&#45;catalog&#45;&gt;:core:ui</title>
<path fill="none" stroke="red" stroke-width="2" d="M398.05,-216.05C406.61,-207.24 417.22,-196.33 426.57,-186.69"/>
<polygon fill="red" stroke="red" stroke-width="2" points="429.29,-188.92 433.75,-179.31 424.27,-184.04 429.29,-188.92"/>
</g>
<!-- :core:accessibility -->
<g id="node4" class="node">
<title>:core:accessibility</title>
<ellipse fill="none" stroke="black" cx="93.59" cy="-18" rx="93.68" ry="18"/>
<text text-anchor="middle" x="93.59" y="-14.3" font-family="Times,serif" font-size="14.00">:core:accessibility</text>
</g>
<!-- :core:designsystem&#45;&gt;:core:accessibility -->
<g id="edge3" class="edge">
<title>:core:designsystem&#45;&gt;:core:accessibility</title>
<path fill="none" stroke="red" stroke-width="2" d="M241.42,-73.46C212.82,-62.92 174.83,-48.93 144.53,-37.77"/>
<polygon fill="red" stroke="red" stroke-width="2" points="145.58,-34.42 134.99,-34.25 143.16,-40.99 145.58,-34.42"/>
</g>
<!-- :core:feedback -->
<g id="node5" class="node">
<title>:core:feedback</title>
<ellipse fill="none" stroke="black" cx="283.59" cy="-18" rx="77.99" ry="18"/>
<text text-anchor="middle" x="283.59" y="-14.3" font-family="Times,serif" font-size="14.00">:core:feedback</text>
</g>
<!-- :core:designsystem&#45;&gt;:core:feedback -->
<g id="edge4" class="edge">
<title>:core:designsystem&#45;&gt;:core:feedback</title>
<path fill="none" stroke="black" d="M283.59,-71.7C283.59,-63.98 283.59,-54.71 283.59,-46.11"/>
<polygon fill="black" stroke="black" points="287.09,-46.1 283.59,-36.1 280.09,-46.1 287.09,-46.1"/>
</g>
<!-- :core:common -->
<g id="node6" class="node">
<title>:core:common</title>
<ellipse fill="none" stroke="black" cx="454.59" cy="-18" rx="75.29" ry="18"/>
<text text-anchor="middle" x="454.59" y="-14.3" font-family="Times,serif" font-size="14.00">:core:common</text>
</g>
<!-- :core:designsystem&#45;&gt;:core:common -->
<g id="edge5" class="edge">
<title>:core:designsystem&#45;&gt;:core:common</title>
<path fill="none" stroke="black" d="M321.97,-73.29C347.78,-62.73 381.92,-48.75 409.09,-37.62"/>
<polygon fill="black" stroke="black" points="410.46,-40.85 418.39,-33.82 407.81,-34.37 410.46,-40.85"/>
</g>
<!-- :core:ui&#45;&gt;:core:designsystem -->
<g id="edge7" class="edge">
<title>:core:ui&#45;&gt;:core:designsystem</title>
<path fill="none" stroke="red" stroke-width="2" d="M419.53,-148.32C394.68,-137.85 358.97,-122.79 330.39,-110.73"/>
<polygon fill="red" stroke="red" stroke-width="2" points="331.57,-107.43 320.99,-106.77 328.85,-113.88 331.57,-107.43"/>
</g>
<!-- :core:analytics -->
<g id="node7" class="node">
<title>:core:analytics</title>
<ellipse fill="none" stroke="black" cx="480.59" cy="-90" rx="77.99" ry="18"/>
<text text-anchor="middle" x="480.59" y="-86.3" font-family="Times,serif" font-size="14.00">:core:analytics</text>
</g>
<!-- :core:ui&#45;&gt;:core:analytics -->
<g id="edge6" class="edge">
<title>:core:ui&#45;&gt;:core:analytics</title>
<path fill="none" stroke="black" d="M457.1,-144.05C460.62,-136.09 464.91,-126.41 468.85,-117.51"/>
<polygon fill="black" stroke="black" points="472.09,-118.84 472.94,-108.28 465.69,-116 472.09,-118.84"/>
</g>
<!-- :core:model -->
<g id="node8" class="node">
<title>:core:model</title>
<ellipse fill="none" stroke="black" cx="641.59" cy="-90" rx="64.99" ry="18"/>
<text text-anchor="middle" x="641.59" y="-86.3" font-family="Times,serif" font-size="14.00">:core:model</text>
</g>
<!-- :core:ui&#45;&gt;:core:model -->
<g id="edge8" class="edge">
<title>:core:ui&#45;&gt;:core:model</title>
<path fill="none" stroke="black" d="M482.16,-149.13C512.97,-137.89 559.54,-120.91 594.41,-108.2"/>
<polygon fill="black" stroke="black" points="595.72,-111.45 603.91,-104.74 593.32,-104.87 595.72,-111.45"/>
</g>
</g>
</svg>
