<?xml version="1.0" encoding="UTF-8" standalone="no"?>
<!DOCTYPE svg PUBLIC "-//W3C//DTD SVG 1.1//EN"
 "http://www.w3.org/Graphics/SVG/1.1/DTD/svg11.dtd">
<!-- Generated by graphviz version 2.43.0 (0)
 -->
<!-- Title: G Pages: 1 -->
<svg width="1082pt" height="332pt"
 viewBox="0.00 0.00 1081.57 332.00" xmlns="http://www.w3.org/2000/svg" xmlns:xlink="http://www.w3.org/1999/xlink">
<g id="graph0" class="graph" transform="scale(1 1) rotate(0) translate(4 328)">
<title>G</title>
<polygon fill="white" stroke="transparent" points="-4,4 -4,-328 1077.57,-328 1077.57,4 -4,4"/>
<!-- :app -->
<g id="node1" class="node">
<title>:app</title>
<ellipse fill="none" stroke="black" cx="536.54" cy="-306" rx="30.59" ry="18"/>
<text text-anchor="middle" x="536.54" y="-302.3" font-family="Times,serif" font-size="14.00">:app</text>
</g>
<!-- :feature:settings -->
<g id="node2" class="node">
<title>:feature:settings</title>
<ellipse fill="none" stroke="black" cx="478.54" cy="-234" rx="87.99" ry="18"/>
<text text-anchor="middle" x="478.54" y="-230.3" font-family="Times,serif" font-size="14.00">:feature:settings</text>
</g>
<!-- :app&#45;&gt;:feature:settings -->
<g id="edge1" class="edge">
<title>:app&#45;&gt;:feature:settings</title>
<path fill="none" stroke="red" stroke-width="2" d="M523.67,-289.46C516.47,-280.78 507.33,-269.75 499.16,-259.89"/>
<polygon fill="red" stroke="red" stroke-width="2" points="501.67,-257.43 492.59,-251.96 496.28,-261.9 501.67,-257.43"/>
</g>
<!-- :feature:aboutme -->
<g id="node3" class="node">
<title>:feature:aboutme</title>
<ellipse fill="none" stroke="black" cx="713.54" cy="-234" rx="90.98" ry="18"/>
<text text-anchor="middle" x="713.54" y="-230.3" font-family="Times,serif" font-size="14.00">:feature:aboutme</text>
</g>
<!-- :app&#45;&gt;:feature:aboutme -->
<g id="edge2" class="edge">
<title>:app&#45;&gt;:feature:aboutme</title>
<path fill="none" stroke="black" d="M561.15,-295.27C587.95,-284.67 631.49,-267.45 665.18,-254.12"/>
<polygon fill="black" stroke="black" points="666.84,-257.23 674.85,-250.3 664.26,-250.73 666.84,-257.23"/>
</g>
<!-- :core:common -->
<g id="node4" class="node">
<title>:core:common</title>
<ellipse fill="none" stroke="black" cx="310.54" cy="-18" rx="75.29" ry="18"/>
<text text-anchor="middle" x="310.54" y="-14.3" font-family="Times,serif" font-size="14.00">:core:common</text>
</g>
<!-- :app&#45;&gt;:core:common -->
<g id="edge3" class="edge">
<title>:app&#45;&gt;:core:common</title>
<path fill="none" stroke="black" d="M506.04,-303.73C418.77,-298.16 170.47,-268.25 109.54,-108 103.85,-93.04 99.77,-84.67 109.54,-72 118.03,-60.98 189.18,-44.02 244.45,-32.26"/>
<polygon fill="black" stroke="black" points="245.5,-35.61 254.56,-30.13 244.06,-28.77 245.5,-35.61"/>
</g>
<!-- :core:ui -->
<g id="node5" class="node">
<title>:core:ui</title>
<ellipse fill="none" stroke="black" cx="397.54" cy="-162" rx="45.49" ry="18"/>
<text text-anchor="middle" x="397.54" y="-158.3" font-family="Times,serif" font-size="14.00">:core:ui</text>
</g>
<!-- :app&#45;&gt;:core:ui -->
<g id="edge4" class="edge">
<title>:app&#45;&gt;:core:ui</title>
<path fill="none" stroke="black" d="M505.98,-304.44C469.48,-301.92 409.82,-291.56 381.54,-252 368.42,-233.65 375.07,-207.85 383.43,-188.75"/>
<polygon fill="black" stroke="black" points="386.6,-190.25 387.73,-179.71 380.28,-187.24 386.6,-190.25"/>
</g>
<!-- :core:designsystem -->
<g id="node6" class="node">
<title>:core:designsystem</title>
<ellipse fill="none" stroke="black" cx="939.54" cy="-162" rx="100.98" ry="18"/>
<text text-anchor="middle" x="939.54" y="-158.3" font-family="Times,serif" font-size="14.00">:core:designsystem</text>
</g>
<!-- :app&#45;&gt;:core:designsystem -->
<g id="edge5" class="edge">
<title>:app&#45;&gt;:core:designsystem</title>
<path fill="none" stroke="black" d="M566.86,-303.39C619.15,-299.72 728.83,-288.02 813.54,-252 851.41,-235.9 889.2,-207.07 913.38,-186.59"/>
<polygon fill="black" stroke="black" points="915.74,-189.17 921.03,-179.99 911.17,-183.87 915.74,-189.17"/>
</g>
<!-- :core:data -->
<g id="node7" class="node">
<title>:core:data</title>
<ellipse fill="none" stroke="black" cx="239.54" cy="-162" rx="57.39" ry="18"/>
<text text-anchor="middle" x="239.54" y="-158.3" font-family="Times,serif" font-size="14.00">:core:data</text>
</g>
<!-- :app&#45;&gt;:core:data -->
<g id="edge6" class="edge">
<title>:app&#45;&gt;:core:data</title>
<path fill="none" stroke="black" d="M505.97,-304.08C460.12,-301.4 372.36,-291.09 310.54,-252 285.77,-236.33 265.87,-208.95 253.51,-188.69"/>
<polygon fill="black" stroke="black" points="256.46,-186.79 248.38,-179.94 250.43,-190.34 256.46,-186.79"/>
</g>
<!-- :core:model -->
<g id="node8" class="node">
<title>:core:model</title>
<ellipse fill="none" stroke="black" cx="832.54" cy="-18" rx="64.99" ry="18"/>
<text text-anchor="middle" x="832.54" y="-14.3" font-family="Times,serif" font-size="14.00">:core:model</text>
</g>
<!-- :app&#45;&gt;:core:model -->
<g id="edge7" class="edge">
<title>:app&#45;&gt;:core:model</title>
<path fill="none" stroke="black" d="M566.84,-303.28C652.5,-298.1 894.97,-281.2 968.54,-252 1018.77,-232.06 1042.13,-228.22 1066.54,-180 1074.66,-163.96 1077.67,-88.01 1064.54,-72 1044.29,-47.31 963.93,-33.12 903.42,-25.74"/>
<polygon fill="black" stroke="black" points="903.47,-22.22 893.13,-24.53 902.65,-29.18 903.47,-22.22"/>
</g>
<!-- :core:analytics -->
<g id="node9" class="node">
<title>:core:analytics</title>
<ellipse fill="none" stroke="black" cx="386.54" cy="-90" rx="77.99" ry="18"/>
<text text-anchor="middle" x="386.54" y="-86.3" font-family="Times,serif" font-size="14.00">:core:analytics</text>
</g>
<!-- :app&#45;&gt;:core:analytics -->
<g id="edge8" class="edge">
<title>:app&#45;&gt;:core:analytics</title>
<path fill="none" stroke="black" d="M506.26,-303.31C469.31,-299.66 407.14,-288.16 369.54,-252 333.95,-217.78 327.04,-190.53 343.54,-144 347.26,-133.51 354.05,-123.58 361.14,-115.21"/>
<polygon fill="black" stroke="black" points="363.83,-117.46 367.95,-107.7 358.64,-112.75 363.83,-117.46"/>
</g>
<!-- :core:config -->
<g id="node10" class="node">
<title>:core:config</title>
<ellipse fill="none" stroke="black" cx="562.54" cy="-162" rx="64.19" ry="18"/>
<text text-anchor="middle" x="562.54" y="-158.3" font-family="Times,serif" font-size="14.00">:core:config</text>
</g>
<!-- :app&#45;&gt;:core:config -->
<g id="edge9" class="edge">
<title>:app&#45;&gt;:core:config</title>
<path fill="none" stroke="black" d="M551.42,-290.27C560.3,-280.38 570.77,-266.54 575.54,-252 582.21,-231.69 578.03,-207.65 572.69,-189.68"/>
<polygon fill="black" stroke="black" points="576.01,-188.55 569.58,-180.13 569.35,-190.72 576.01,-188.55"/>
</g>
<!-- :core:accessibility -->
<g id="node11" class="node">
<title>:core:accessibility</title>
<ellipse fill="none" stroke="black" cx="961.54" cy="-90" rx="93.68" ry="18"/>
<text text-anchor="middle" x="961.54" y="-86.3" font-family="Times,serif" font-size="14.00">:core:accessibility</text>
</g>
<!-- :app&#45;&gt;:core:accessibility -->
<g id="edge10" class="edge">
<title>:app&#45;&gt;:core:accessibility</title>
<path fill="none" stroke="black" d="M566.77,-302.7C668.22,-294.26 993.28,-261.18 1049.54,-180 1058.65,-166.85 1057.41,-157.93 1049.54,-144 1041.55,-129.86 1028.11,-119.08 1014.11,-111.05"/>
<polygon fill="black" stroke="black" points="1015.36,-107.75 1004.88,-106.16 1012.08,-113.93 1015.36,-107.75"/>
</g>
<!-- :feature:settings&#45;&gt;:core:ui -->
<g id="edge11" class="edge">
<title>:feature:settings&#45;&gt;:core:ui</title>
<path fill="none" stroke="black" d="M459.34,-216.41C448.63,-207.15 435.12,-195.48 423.47,-185.41"/>
<polygon fill="black" stroke="black" points="425.62,-182.64 415.76,-178.75 421.04,-187.94 425.62,-182.64"/>
</g>
<!-- :feature:settings&#45;&gt;:core:designsystem -->
<g id="edge12" class="edge">
<title>:feature:settings&#45;&gt;:core:designsystem</title>
<path fill="none" stroke="black" d="M547.15,-222.71C617.92,-212.08 731.46,-194.98 829.54,-180 838.15,-178.69 847.13,-177.31 856.09,-175.93"/>
<polygon fill="black" stroke="black" points="856.83,-179.36 866.18,-174.37 855.76,-172.44 856.83,-179.36"/>
</g>
<!-- :feature:settings&#45;&gt;:core:data -->
<g id="edge13" class="edge">
<title>:feature:settings&#45;&gt;:core:data</title>
<path fill="none" stroke="red" stroke-width="2" d="M430.46,-218.92C389.58,-206.94 331.07,-189.81 289.62,-177.67"/>
<polygon fill="red" stroke="red" stroke-width="2" points="290.58,-174.3 280,-174.85 288.61,-181.02 290.58,-174.3"/>
</g>
<!-- :feature:settings&#45;&gt;:core:config -->
<g id="edge15" class="edge">
<title>:feature:settings&#45;&gt;:core:config</title>
<path fill="none" stroke="black" d="M498.45,-216.41C509.41,-207.28 523.17,-195.81 535.13,-185.84"/>
<polygon fill="black" stroke="black" points="537.62,-188.32 543.07,-179.23 533.14,-182.94 537.62,-188.32"/>
</g>
<!-- :core:feedback -->
<g id="node12" class="node">
<title>:core:feedback</title>
<ellipse fill="none" stroke="black" cx="560.54" cy="-90" rx="77.99" ry="18"/>
<text text-anchor="middle" x="560.54" y="-86.3" font-family="Times,serif" font-size="14.00">:core:feedback</text>
</g>
<!-- :feature:settings&#45;&gt;:core:feedback -->
<g id="edge14" class="edge">
<title>:feature:settings&#45;&gt;:core:feedback</title>
<path fill="none" stroke="black" d="M476.83,-215.68C475.8,-196.76 476.64,-166.21 489.54,-144 496.94,-131.26 508.74,-120.64 520.61,-112.33"/>
<polygon fill="black" stroke="black" points="522.76,-115.1 529.2,-106.69 518.92,-109.25 522.76,-115.1"/>
</g>
<!-- :feature:aboutme&#45;&gt;:core:common -->
<g id="edge28" class="edge">
<title>:feature:aboutme&#45;&gt;:core:common</title>
<path fill="none" stroke="black" d="M697.87,-216.04C689.53,-206.18 679.75,-193.13 673.54,-180 652.45,-135.36 683.82,-105.48 647.54,-72 611.74,-38.97 482.82,-26.5 395.22,-21.81"/>
<polygon fill="black" stroke="black" points="395.18,-18.31 385.02,-21.29 394.83,-25.3 395.18,-18.31"/>
</g>
<!-- :feature:aboutme&#45;&gt;:core:ui -->
<g id="edge26" class="edge">
<title>:feature:aboutme&#45;&gt;:core:ui</title>
<path fill="none" stroke="black" d="M655.21,-220.08C595.11,-206.77 502.49,-186.25 446.2,-173.78"/>
<polygon fill="black" stroke="black" points="446.64,-170.29 436.12,-171.55 445.13,-177.13 446.64,-170.29"/>
</g>
<!-- :feature:aboutme&#45;&gt;:core:designsystem -->
<g id="edge27" class="edge">
<title>:feature:aboutme&#45;&gt;:core:designsystem</title>
<path fill="none" stroke="black" d="M760.37,-218.5C795.62,-207.58 844.13,-192.55 881.79,-180.89"/>
<polygon fill="black" stroke="black" points="883.09,-184.15 891.61,-177.85 881.02,-177.46 883.09,-184.15"/>
</g>
<!-- :feature:aboutme&#45;&gt;:core:config -->
<g id="edge29" class="edge">
<title>:feature:aboutme&#45;&gt;:core:config</title>
<path fill="none" stroke="black" d="M679.65,-217.29C657.08,-206.83 627.3,-193.02 603.42,-181.95"/>
<polygon fill="black" stroke="black" points="604.8,-178.73 594.25,-177.7 601.85,-185.08 604.8,-178.73"/>
</g>
<!-- :core:shapes -->
<g id="node15" class="node">
<title>:core:shapes</title>
<ellipse fill="none" stroke="black" cx="751.54" cy="-162" rx="68.79" ry="18"/>
<text text-anchor="middle" x="751.54" y="-158.3" font-family="Times,serif" font-size="14.00">:core:shapes</text>
</g>
<!-- :feature:aboutme&#45;&gt;:core:shapes -->
<g id="edge30" class="edge">
<title>:feature:aboutme&#45;&gt;:core:shapes</title>
<path fill="none" stroke="black" d="M722.74,-216.05C727.11,-208.01 732.43,-198.2 737.3,-189.23"/>
<polygon fill="black" stroke="black" points="740.47,-190.73 742.16,-180.28 734.32,-187.39 740.47,-190.73"/>
</g>
<!-- :core:ui&#45;&gt;:core:analytics -->
<g id="edge16" class="edge">
<title>:core:ui&#45;&gt;:core:analytics</title>
<path fill="none" stroke="black" d="M394.82,-143.7C393.61,-135.98 392.15,-126.71 390.8,-118.11"/>
<polygon fill="black" stroke="black" points="394.24,-117.44 389.23,-108.1 387.32,-118.53 394.24,-117.44"/>
</g>
<!-- :core:designsystem&#45;&gt;:core:common -->
<g id="edge19" class="edge">
<title>:core:designsystem&#45;&gt;:core:common</title>
<path fill="none" stroke="black" d="M901.17,-145.25C851.19,-125.34 760.73,-91.34 680.54,-72 582.03,-48.24 466.03,-33.75 390.53,-26.06"/>
<polygon fill="black" stroke="black" points="390.45,-22.53 380.15,-25.02 389.75,-29.5 390.45,-22.53"/>
</g>
<!-- :core:designsystem&#45;&gt;:core:accessibility -->
<g id="edge17" class="edge">
<title>:core:designsystem&#45;&gt;:core:accessibility</title>
<path fill="none" stroke="black" d="M944.98,-143.7C947.43,-135.9 950.38,-126.51 953.11,-117.83"/>
<polygon fill="black" stroke="black" points="956.51,-118.69 956.16,-108.1 949.83,-116.59 956.51,-118.69"/>
</g>
<!-- :core:designsystem&#45;&gt;:core:feedback -->
<g id="edge18" class="edge">
<title>:core:designsystem&#45;&gt;:core:feedback</title>
<path fill="none" stroke="black" d="M872.22,-148.57C803.79,-135.93 698.32,-116.45 629.36,-103.71"/>
<polygon fill="black" stroke="black" points="629.93,-100.26 619.46,-101.88 628.66,-107.14 629.93,-100.26"/>
</g>
<!-- :core:data&#45;&gt;:core:common -->
<g id="edge20" class="edge">
<title>:core:data&#45;&gt;:core:common</title>
<path fill="none" stroke="black" d="M190.56,-152.57C164.75,-145.36 135.27,-132.14 119.54,-108 110.81,-94.59 109.86,-84.74 119.54,-72 127.49,-61.54 193.88,-44.71 246.18,-32.83"/>
<polygon fill="black" stroke="black" points="247.12,-36.2 256.1,-30.59 245.58,-29.37 247.12,-36.2"/>
</g>
<!-- :core:data&#45;&gt;:core:analytics -->
<g id="edge22" class="edge">
<title>:core:data&#45;&gt;:core:analytics</title>
<path fill="none" stroke="black" d="M269.64,-146.67C291.37,-136.32 320.98,-122.22 344.96,-110.8"/>
<polygon fill="black" stroke="black" points="346.66,-113.87 354.18,-106.41 343.65,-107.55 346.66,-113.87"/>
</g>
<!-- :core:datastore -->
<g id="node13" class="node">
<title>:core:datastore</title>
<ellipse fill="none" stroke="black" cx="209.54" cy="-90" rx="81.49" ry="18"/>
<text text-anchor="middle" x="209.54" y="-86.3" font-family="Times,serif" font-size="14.00">:core:datastore</text>
</g>
<!-- :core:data&#45;&gt;:core:datastore -->
<g id="edge21" class="edge">
<title>:core:data&#45;&gt;:core:datastore</title>
<path fill="none" stroke="red" stroke-width="2" d="M232.28,-144.05C228.87,-136.09 224.72,-126.41 220.9,-117.51"/>
<polygon fill="red" stroke="red" stroke-width="2" points="224.1,-116.09 216.94,-108.28 217.67,-118.85 224.1,-116.09"/>
</g>
<!-- :core:datastore&#45;&gt;:core:common -->
<g id="edge25" class="edge">
<title>:core:datastore&#45;&gt;:core:common</title>
<path fill="none" stroke="black" d="M233.22,-72.59C246.77,-63.2 263.95,-51.29 278.67,-41.09"/>
<polygon fill="black" stroke="black" points="280.78,-43.88 287.01,-35.31 276.8,-38.13 280.78,-43.88"/>
</g>
<!-- :core:datastore&#45;&gt;:core:model -->
<g id="edge24" class="edge">
<title>:core:datastore&#45;&gt;:core:model</title>
<path fill="none" stroke="black" d="M267.51,-77.28C278.14,-75.35 289.15,-73.49 299.54,-72 463.5,-48.41 657.35,-31.99 760.11,-24.18"/>
<polygon fill="black" stroke="black" points="760.66,-27.65 770.37,-23.41 760.13,-20.67 760.66,-27.65"/>
</g>
<!-- :core:datastore&#45;proto -->
<g id="node14" class="node">
<title>:core:datastore&#45;proto</title>
<ellipse fill="none" stroke="black" cx="108.54" cy="-18" rx="108.58" ry="18"/>
<text text-anchor="middle" x="108.54" y="-14.3" font-family="Times,serif" font-size="14.00">:core:datastore&#45;proto</text>
</g>
<!-- :core:datastore&#45;&gt;:core:datastore&#45;proto -->
<g id="edge23" class="edge">
<title>:core:datastore&#45;&gt;:core:datastore&#45;proto</title>
<path fill="none" stroke="red" stroke-width="2" d="M185.86,-72.59C172.51,-63.33 155.63,-51.63 141.05,-41.53"/>
<polygon fill="red" stroke="red" stroke-width="2" points="142.99,-38.61 132.77,-35.8 139,-44.37 142.99,-38.61"/>
</g>
</g>
</svg>
