<?xml version="1.0" encoding="UTF-8" standalone="no"?>
<!DOCTYPE svg PUBLIC "-//W3C//DTD SVG 1.1//EN"
 "http://www.w3.org/Graphics/SVG/1.1/DTD/svg11.dtd">
<!-- Generated by graphviz version 2.43.0 (0)
 -->
<!-- Title: G Pages: 1 -->
<svg width="888pt" height="260pt"
 viewBox="0.00 0.00 887.57 260.00" xmlns="http://www.w3.org/2000/svg" xmlns:xlink="http://www.w3.org/1999/xlink">
<g id="graph0" class="graph" transform="scale(1 1) rotate(0) translate(4 256)">
<title>G</title>
<polygon fill="white" stroke="transparent" points="-4,4 -4,-256 883.57,-256 883.57,4 -4,4"/>
<!-- :feature:aboutme -->
<g id="node1" class="node">
<title>:feature:aboutme</title>
<ellipse fill="none" stroke="black" cx="534.68" cy="-234" rx="90.98" ry="18"/>
<text text-anchor="middle" x="534.68" y="-230.3" font-family="Times,serif" font-size="14.00">:feature:aboutme</text>
</g>
<!-- :core:ui -->
<g id="node2" class="node">
<title>:core:ui</title>
<ellipse fill="none" stroke="black" cx="335.68" cy="-162" rx="45.49" ry="18"/>
<text text-anchor="middle" x="335.68" y="-158.3" font-family="Times,serif" font-size="14.00">:core:ui</text>
</g>
<!-- :feature:aboutme&#45;&gt;:core:ui -->
<g id="edge1" class="edge">
<title>:feature:aboutme&#45;&gt;:core:ui</title>
<path fill="none" stroke="red" stroke-width="2" d="M491.99,-217.98C458.31,-206.14 411.58,-189.7 378,-177.88"/>
<polygon fill="red" stroke="red" stroke-width="2" points="379.06,-174.55 368.46,-174.53 376.73,-181.15 379.06,-174.55"/>
</g>
<!-- :core:designsystem -->
<g id="node3" class="node">
<title>:core:designsystem</title>
<ellipse fill="none" stroke="black" cx="438.68" cy="-90" rx="100.98" ry="18"/>
<text text-anchor="middle" x="438.68" y="-86.3" font-family="Times,serif" font-size="14.00">:core:designsystem</text>
</g>
<!-- :feature:aboutme&#45;&gt;:core:designsystem -->
<g id="edge2" class="edge">
<title>:feature:aboutme&#45;&gt;:core:designsystem</title>
<path fill="none" stroke="black" d="M523.1,-215.87C506.38,-191.14 475.35,-145.24 455.93,-116.51"/>
<polygon fill="black" stroke="black" points="458.8,-114.51 450.3,-108.19 453,-118.43 458.8,-114.51"/>
</g>
<!-- :core:common -->
<g id="node4" class="node">
<title>:core:common</title>
<ellipse fill="none" stroke="black" cx="89.68" cy="-18" rx="75.29" ry="18"/>
<text text-anchor="middle" x="89.68" y="-14.3" font-family="Times,serif" font-size="14.00">:core:common</text>
</g>
<!-- :feature:aboutme&#45;&gt;:core:common -->
<g id="edge3" class="edge">
<title>:feature:aboutme&#45;&gt;:core:common</title>
<path fill="none" stroke="black" d="M453.09,-225.96C318.8,-212.47 60.64,-177.91 6.68,-108 -3.1,-95.33 -1.01,-86.03 6.68,-72 14.5,-57.73 27.97,-46.75 41.82,-38.58"/>
<polygon fill="black" stroke="black" points="43.81,-41.48 50.91,-33.61 40.46,-35.33 43.81,-41.48"/>
</g>
<!-- :core:feedback -->
<g id="node5" class="node">
<title>:core:feedback</title>
<ellipse fill="none" stroke="black" cx="567.68" cy="-18" rx="77.99" ry="18"/>
<text text-anchor="middle" x="567.68" y="-14.3" font-family="Times,serif" font-size="14.00">:core:feedback</text>
</g>
<!-- :feature:aboutme&#45;&gt;:core:feedback -->
<g id="edge4" class="edge">
<title>:feature:aboutme&#45;&gt;:core:feedback</title>
<path fill="none" stroke="black" d="M537.32,-215.85C543.03,-178.83 556.55,-91.18 563.46,-46.39"/>
<polygon fill="black" stroke="black" points="566.96,-46.65 565.02,-36.23 560.04,-45.58 566.96,-46.65"/>
</g>
<!-- :core:config -->
<g id="node6" class="node">
<title>:core:config</title>
<ellipse fill="none" stroke="black" cx="659.68" cy="-162" rx="64.19" ry="18"/>
<text text-anchor="middle" x="659.68" y="-158.3" font-family="Times,serif" font-size="14.00">:core:config</text>
</g>
<!-- :feature:aboutme&#45;&gt;:core:config -->
<g id="edge5" class="edge">
<title>:feature:aboutme&#45;&gt;:core:config</title>
<path fill="none" stroke="black" d="M563.67,-216.76C581.4,-206.84 604.23,-194.05 623.18,-183.44"/>
<polygon fill="black" stroke="black" points="625.12,-186.37 632.13,-178.43 621.7,-180.26 625.12,-186.37"/>
</g>
<!-- :core:shapes -->
<g id="node7" class="node">
<title>:core:shapes</title>
<ellipse fill="none" stroke="black" cx="810.68" cy="-162" rx="68.79" ry="18"/>
<text text-anchor="middle" x="810.68" y="-158.3" font-family="Times,serif" font-size="14.00">:core:shapes</text>
</g>
<!-- :feature:aboutme&#45;&gt;:core:shapes -->
<g id="edge6" class="edge">
<title>:feature:aboutme&#45;&gt;:core:shapes</title>
<path fill="none" stroke="black" d="M588.22,-219.42C635.59,-207.41 704.54,-189.92 753.09,-177.61"/>
<polygon fill="black" stroke="black" points="753.99,-180.99 762.82,-175.14 752.27,-174.2 753.99,-180.99"/>
</g>
<!-- :core:ui&#45;&gt;:core:designsystem -->
<g id="edge8" class="edge">
<title>:core:ui&#45;&gt;:core:designsystem</title>
<path fill="none" stroke="red" stroke-width="2" d="M357.52,-146.15C371.57,-136.61 390.09,-124.02 405.89,-113.28"/>
<polygon fill="red" stroke="red" stroke-width="2" points="408.04,-116.05 414.34,-107.54 404.11,-110.27 408.04,-116.05"/>
</g>
<!-- :core:analytics -->
<g id="node8" class="node">
<title>:core:analytics</title>
<ellipse fill="none" stroke="black" cx="241.68" cy="-90" rx="77.99" ry="18"/>
<text text-anchor="middle" x="241.68" y="-86.3" font-family="Times,serif" font-size="14.00">:core:analytics</text>
</g>
<!-- :core:ui&#45;&gt;:core:analytics -->
<g id="edge7" class="edge">
<title>:core:ui&#45;&gt;:core:analytics</title>
<path fill="none" stroke="black" d="M315.28,-145.81C302.55,-136.33 285.94,-123.96 271.72,-113.37"/>
<polygon fill="black" stroke="black" points="273.79,-110.55 263.68,-107.38 269.61,-116.16 273.79,-110.55"/>
</g>
<!-- :core:model -->
<g id="node9" class="node">
<title>:core:model</title>
<ellipse fill="none" stroke="black" cx="80.68" cy="-90" rx="64.99" ry="18"/>
<text text-anchor="middle" x="80.68" y="-86.3" font-family="Times,serif" font-size="14.00">:core:model</text>
</g>
<!-- :core:ui&#45;&gt;:core:model -->
<g id="edge9" class="edge">
<title>:core:ui&#45;&gt;:core:model</title>
<path fill="none" stroke="black" d="M299.42,-151.05C256.58,-139.29 184.89,-119.61 135.32,-106"/>
<polygon fill="black" stroke="black" points="135.97,-102.55 125.4,-103.28 134.12,-109.3 135.97,-102.55"/>
</g>
<!-- :core:designsystem&#45;&gt;:core:common -->
<g id="edge11" class="edge">
<title>:core:designsystem&#45;&gt;:core:common</title>
<path fill="none" stroke="black" d="M374.26,-76.08C312.04,-63.6 218.26,-44.79 155.55,-32.21"/>
<polygon fill="black" stroke="black" points="155.87,-28.71 145.38,-30.17 154.5,-35.57 155.87,-28.71"/>
</g>
<!-- :core:designsystem&#45;&gt;:core:feedback -->
<g id="edge12" class="edge">
<title>:core:designsystem&#45;&gt;:core:feedback</title>
<path fill="none" stroke="black" d="M468.6,-72.76C486.72,-62.93 510.01,-50.3 529.45,-39.74"/>
<polygon fill="black" stroke="black" points="531.25,-42.75 538.37,-34.91 527.91,-36.6 531.25,-42.75"/>
</g>
<!-- :core:accessibility -->
<g id="node10" class="node">
<title>:core:accessibility</title>
<ellipse fill="none" stroke="black" cx="377.68" cy="-18" rx="93.68" ry="18"/>
<text text-anchor="middle" x="377.68" y="-14.3" font-family="Times,serif" font-size="14.00">:core:accessibility</text>
</g>
<!-- :core:designsystem&#45;&gt;:core:accessibility -->
<g id="edge10" class="edge">
<title>:core:designsystem&#45;&gt;:core:accessibility</title>
<path fill="none" stroke="red" stroke-width="2" d="M423.91,-72.05C416.42,-63.46 407.18,-52.86 398.94,-43.4"/>
<polygon fill="red" stroke="red" stroke-width="2" points="401.52,-41.03 392.31,-35.79 396.24,-45.63 401.52,-41.03"/>
</g>
</g>
</svg>
