<?xml version="1.0" encoding="UTF-8" standalone="no"?><!DOCTYPE svg PUBLIC "-//W3C//DTD SVG 1.1//EN"
    "http://www.w3.org/Graphics/SVG/1.1/DTD/svg11.dtd">
<svg height="260pt" viewBox="0.00 0.00 625.49 260.00" width="625pt" xmlns="http://www.w3.org/2000/svg">
    <g class="graph" id="graph0" transform="scale(1 1) rotate(0) translate(4 256)">
        <title>G</title>
        <polygon fill="white" points="-4,4 -4,-256 621.49,-256 621.49,4 -4,4"
            stroke="transparent" />
        <g class="node" id="node1">
            <title>:feature:login</title>
            <ellipse cx="414.59" cy="-234" fill="none" rx="73.39" ry="18" stroke="black" />
            <text font-family="Times,serif" font-size="14.00" text-anchor="middle" x="414.59"
                y="-230.3">:feature:login
            </text>
        </g>
        <g class="node" id="node2">
            <title>:core:feedback</title>
            <ellipse cx="209.59" cy="-162" fill="none" rx="77.99" ry="18" stroke="black" />
            <text font-family="Times,serif" font-size="14.00" text-anchor="middle" x="209.59"
                y="-158.3">:core:feedback
            </text>
        </g>
        <g class="edge" id="edge1">
            <title>:feature:login-&gt;:core:feedback</title>
            <path d="M373.6,-219C341.24,-207.95 295.9,-192.47 261.09,-180.58" fill="none" stroke="red"
                stroke-width="2" />
            <polygon fill="red" points="262.16,-177.25 251.57,-177.33 259.9,-183.88 262.16,-177.25" stroke="red"
                stroke-width="2" />
        </g>
        <g class="node" id="node3">
            <title>:core:ui</title>
            <ellipse cx="378.59" cy="-162" fill="none" rx="45.49" ry="18" stroke="black" />
            <text font-family="Times,serif" font-size="14.00" text-anchor="middle" x="378.59"
                y="-158.3">:core:ui
            </text>
        </g>
        <g class="edge" id="edge2">
            <title>:feature:login-&gt;:core:ui</title>
            <path d="M405.88,-216.05C401.68,-207.89 396.55,-197.91 391.87,-188.82" fill="none"
                stroke="black" />
            <polygon fill="black" points="394.91,-187.08 387.23,-179.79 388.69,-190.28 394.91,-187.08"
                stroke="black" />
        </g>
        <g class="node" id="node4">
            <title>:core:auth</title>
            <ellipse cx="532.59" cy="-90" fill="none" rx="57.69" ry="18" stroke="black" />
            <text font-family="Times,serif" font-size="14.00" text-anchor="middle" x="532.59"
                y="-86.3">:core:auth
            </text>
        </g>
        <g class="edge" id="edge3">
            <title>:feature:login-&gt;:core:auth</title>
            <path d="M423.32,-215.9C433.33,-197.18 450.9,-166.79 470.59,-144 480.18,-132.9 492.16,-122.1 503.03,-113.18" fill="none"
                stroke="black" />
            <polygon fill="black" points="505.44,-115.74 511.06,-106.76 501.07,-110.27 505.44,-115.74"
                stroke="black" />
        </g>
        <g class="node" id="node5">
            <title>:core:shapes</title>
            <ellipse cx="548.59" cy="-162" fill="none" rx="68.79" ry="18" stroke="black" />
            <text font-family="Times,serif" font-size="14.00" text-anchor="middle" x="548.59"
                y="-158.3">:core:shapes
            </text>
        </g>
        <g class="edge" id="edge4">
            <title>:feature:login-&gt;:core:shapes</title>
            <path d="M444.33,-217.46C463.67,-207.36 489.09,-194.08 509.99,-183.16" fill="none"
                stroke="black" />
            <polygon fill="black" points="511.69,-186.22 518.94,-178.49 508.45,-180.02 511.69,-186.22"
                stroke="black" />
        </g>
        <g class="node" id="node6">
            <title>:core:designsystem</title>
            <ellipse cx="181.59" cy="-90" fill="none" rx="100.98" ry="18" stroke="black" />
            <text font-family="Times,serif" font-size="14.00" text-anchor="middle" x="181.59"
                y="-86.3">:core:designsystem
            </text>
        </g>
        <g class="edge" id="edge5">
            <title>:core:feedback-&gt;:core:designsystem</title>
            <path d="M202.81,-144.05C199.66,-136.18 195.84,-126.62 192.31,-117.79" fill="none" stroke="red"
                stroke-width="2" />
            <polygon fill="red" points="195.47,-116.26 188.5,-108.28 188.97,-118.86 195.47,-116.26" stroke="red"
                stroke-width="2" />
        </g>
        <g class="node" id="node10">
            <title>:core:analytics</title>
            <ellipse cx="378.59" cy="-90" fill="none" rx="77.99" ry="18" stroke="black" />
            <text font-family="Times,serif" font-size="14.00" text-anchor="middle" x="378.59"
                y="-86.3">:core:analytics
            </text>
        </g>
        <g class="edge" id="edge9">
            <title>:core:ui-&gt;:core:analytics</title>
            <path d="M378.59,-143.7C378.59,-135.98 378.59,-126.71 378.59,-118.11" fill="none"
                stroke="black" />
            <polygon fill="black" points="382.09,-118.1 378.59,-108.1 375.09,-118.1 382.09,-118.1"
                stroke="black" />
        </g>
        <g class="node" id="node8">
            <title>:core:common</title>
            <ellipse cx="479.59" cy="-18" fill="none" rx="75.29" ry="18" stroke="black" />
            <text font-family="Times,serif" font-size="14.00" text-anchor="middle" x="479.59"
                y="-14.3">:core:common
            </text>
        </g>
        <g class="edge" id="edge10">
            <title>:core:auth-&gt;:core:common</title>
            <path d="M520.03,-72.41C513.66,-63.99 505.78,-53.58 498.67,-44.2" fill="none"
                stroke="black" />
            <polygon fill="black" points="501.26,-41.82 492.43,-35.96 495.68,-46.04 501.26,-41.82"
                stroke="black" />
        </g>
        <g class="node" id="node7">
            <title>:core:accessibility</title>
            <ellipse cx="93.59" cy="-18" fill="none" rx="93.68" ry="18" stroke="black" />
            <text font-family="Times,serif" font-size="14.00" text-anchor="middle" x="93.59"
                y="-14.3">:core:accessibility
            </text>
        </g>
        <g class="edge" id="edge6">
            <title>:core:designsystem-&gt;:core:accessibility</title>
            <path d="M160.29,-72.05C149.05,-63.11 135.08,-52.01 122.84,-42.27" fill="none" stroke="red"
                stroke-width="2" />
            <polygon fill="red" points="124.7,-39.28 114.7,-35.79 120.35,-44.75 124.7,-39.28" stroke="red"
                stroke-width="2" />
        </g>
        <g class="edge" id="edge7">
            <title>:core:designsystem-&gt;:core:common</title>
            <path d="M240.11,-75.25C291.39,-63.21 365.67,-45.76 417.87,-33.5" fill="none"
                stroke="black" />
            <polygon fill="black" points="418.75,-36.89 427.68,-31.19 417.14,-30.07 418.75,-36.89"
                stroke="black" />
        </g>
        <g class="node" id="node9">
            <title>:core:config</title>
            <ellipse cx="269.59" cy="-18" fill="none" rx="64.19" ry="18" stroke="black" />
            <text font-family="Times,serif" font-size="14.00" text-anchor="middle" x="269.59"
                y="-14.3">:core:config
            </text>
        </g>
        <g class="edge" id="edge8">
            <title>:core:designsystem-&gt;:core:config</title>
            <path d="M202.89,-72.05C214.41,-62.89 228.78,-51.46 241.24,-41.56" fill="none"
                stroke="black" />
            <polygon fill="black" points="243.44,-44.27 249.09,-35.31 239.09,-38.79 243.44,-44.27"
                stroke="black" />
        </g>
    </g>
</svg>
