<?xml version="1.0" encoding="UTF-8" standalone="no"?>
<!DOCTYPE svg PUBLIC "-//W3C//DTD SVG 1.1//EN"
 "http://www.w3.org/Graphics/SVG/1.1/DTD/svg11.dtd">
<!-- Generated by graphviz version 2.43.0 (0)
 -->
<!-- Title: G Pages: 1 -->
<svg width="1013pt" height="332pt"
 viewBox="0.00 0.00 1012.99 332.00" xmlns="http://www.w3.org/2000/svg" xmlns:xlink="http://www.w3.org/1999/xlink">
<g id="graph0" class="graph" transform="scale(1 1) rotate(0) translate(4 328)">
<title>G</title>
<polygon fill="white" stroke="transparent" points="-4,4 -4,-328 1008.99,-328 1008.99,4 -4,4"/>
<!-- :app -->
<g id="node1" class="node">
<title>:app</title>
<ellipse fill="none" stroke="black" cx="516.39" cy="-306" rx="30.59" ry="18"/>
<text text-anchor="middle" x="516.39" y="-302.3" font-family="Times,serif" font-size="14.00">:app</text>
</g>
<!-- :feature:settings -->
<g id="node2" class="node">
<title>:feature:settings</title>
<ellipse fill="none" stroke="black" cx="341.39" cy="-234" rx="87.99" ry="18"/>
<text text-anchor="middle" x="341.39" y="-230.3" font-family="Times,serif" font-size="14.00">:feature:settings</text>
</g>
<!-- :app&#45;&gt;:feature:settings -->
<g id="edge1" class="edge">
<title>:app&#45;&gt;:feature:settings</title>
<path fill="none" stroke="red" stroke-width="2" d="M491.69,-295.12C465.11,-284.49 422.18,-267.32 389,-254.04"/>
<polygon fill="red" stroke="red" stroke-width="2" points="390.06,-250.7 379.48,-250.23 387.46,-257.2 390.06,-250.7"/>
</g>
<!-- :feature:aboutme -->
<g id="node3" class="node">
<title>:feature:aboutme</title>
<ellipse fill="none" stroke="black" cx="576.39" cy="-234" rx="90.98" ry="18"/>
<text text-anchor="middle" x="576.39" y="-230.3" font-family="Times,serif" font-size="14.00">:feature:aboutme</text>
</g>
<!-- :app&#45;&gt;:feature:aboutme -->
<g id="edge2" class="edge">
<title>:app&#45;&gt;:feature:aboutme</title>
<path fill="none" stroke="black" d="M529.71,-289.46C537.23,-280.69 546.8,-269.53 555.31,-259.6"/>
<polygon fill="black" stroke="black" points="558,-261.83 561.85,-251.96 552.69,-257.28 558,-261.83"/>
</g>
<!-- :core:common -->
<g id="node4" class="node">
<title>:core:common</title>
<ellipse fill="none" stroke="black" cx="75.39" cy="-18" rx="75.29" ry="18"/>
<text text-anchor="middle" x="75.39" y="-14.3" font-family="Times,serif" font-size="14.00">:core:common</text>
</g>
<!-- :app&#45;&gt;:core:common -->
<g id="edge3" class="edge">
<title>:app&#45;&gt;:core:common</title>
<path fill="none" stroke="black" d="M486.09,-303.55C412.25,-299.52 225.3,-286.12 174.39,-252 112.28,-210.37 112.24,-178.52 87.39,-108 80.37,-88.06 77.42,-64.27 76.2,-46.3"/>
<polygon fill="black" stroke="black" points="79.69,-46.01 75.65,-36.21 72.7,-46.39 79.69,-46.01"/>
</g>
<!-- :core:ui -->
<g id="node5" class="node">
<title>:core:ui</title>
<ellipse fill="none" stroke="black" cx="799.39" cy="-162" rx="45.49" ry="18"/>
<text text-anchor="middle" x="799.39" y="-158.3" font-family="Times,serif" font-size="14.00">:core:ui</text>
</g>
<!-- :app&#45;&gt;:core:ui -->
<g id="edge4" class="edge">
<title>:app&#45;&gt;:core:ui</title>
<path fill="none" stroke="black" d="M544.31,-298.53C577.07,-290.32 632.5,-274.47 676.39,-252 712.49,-233.52 749.63,-205.11 773.52,-185.37"/>
<polygon fill="black" stroke="black" points="775.97,-187.89 781.39,-178.79 771.47,-182.52 775.97,-187.89"/>
</g>
<!-- :core:designsystem -->
<g id="node6" class="node">
<title>:core:designsystem</title>
<ellipse fill="none" stroke="black" cx="441.39" cy="-90" rx="100.98" ry="18"/>
<text text-anchor="middle" x="441.39" y="-86.3" font-family="Times,serif" font-size="14.00">:core:designsystem</text>
</g>
<!-- :app&#45;&gt;:core:designsystem -->
<g id="edge5" class="edge">
<title>:app&#45;&gt;:core:designsystem</title>
<path fill="none" stroke="black" d="M485.53,-305.83C429.58,-306.02 309.26,-300.21 223.39,-252 186.06,-231.04 174.61,-220.02 159.39,-180 153.71,-165.04 149.18,-156.31 159.39,-144 171.74,-129.12 272.86,-112.79 350.52,-102.25"/>
<polygon fill="black" stroke="black" points="351.38,-105.66 360.83,-100.86 350.45,-98.72 351.38,-105.66"/>
</g>
<!-- :core:data -->
<g id="node7" class="node">
<title>:core:data</title>
<ellipse fill="none" stroke="black" cx="225.39" cy="-162" rx="57.39" ry="18"/>
<text text-anchor="middle" x="225.39" y="-158.3" font-family="Times,serif" font-size="14.00">:core:data</text>
</g>
<!-- :app&#45;&gt;:core:data -->
<g id="edge6" class="edge">
<title>:app&#45;&gt;:core:data</title>
<path fill="none" stroke="black" d="M486.07,-303.21C422.5,-298.83 278.37,-285.38 244.39,-252 228.23,-236.12 224.21,-210.09 223.81,-190.28"/>
<polygon fill="black" stroke="black" points="227.31,-190.04 223.9,-180.01 220.31,-189.98 227.31,-190.04"/>
</g>
<!-- :core:model -->
<g id="node8" class="node">
<title>:core:model</title>
<ellipse fill="none" stroke="black" cx="695.39" cy="-18" rx="64.99" ry="18"/>
<text text-anchor="middle" x="695.39" y="-14.3" font-family="Times,serif" font-size="14.00">:core:model</text>
</g>
<!-- :app&#45;&gt;:core:model -->
<g id="edge7" class="edge">
<title>:app&#45;&gt;:core:model</title>
<path fill="none" stroke="black" d="M546.73,-302.51C613.63,-296.55 771.46,-279.89 816.39,-252 850.15,-231.04 852.24,-215.84 869.39,-180 890.43,-136.04 917.94,-110.76 888.39,-72 872.92,-51.71 811.67,-37.25 762.26,-28.62"/>
<polygon fill="black" stroke="black" points="762.68,-25.14 752.24,-26.92 761.51,-32.04 762.68,-25.14"/>
</g>
<!-- :core:analytics -->
<g id="node9" class="node">
<title>:core:analytics</title>
<ellipse fill="none" stroke="black" cx="801.39" cy="-90" rx="77.99" ry="18"/>
<text text-anchor="middle" x="801.39" y="-86.3" font-family="Times,serif" font-size="14.00">:core:analytics</text>
</g>
<!-- :app&#45;&gt;:core:analytics -->
<g id="edge8" class="edge">
<title>:app&#45;&gt;:core:analytics</title>
<path fill="none" stroke="black" d="M546.91,-305.08C617.06,-303.35 788.7,-287.82 853.39,-180 861.63,-166.28 859.45,-158.81 853.39,-144 848.79,-132.74 840.52,-122.58 831.9,-114.24"/>
<polygon fill="black" stroke="black" points="834.1,-111.5 824.33,-107.4 829.4,-116.7 834.1,-111.5"/>
</g>
<!-- :core:config -->
<g id="node10" class="node">
<title>:core:config</title>
<ellipse fill="none" stroke="black" cx="440.39" cy="-162" rx="64.19" ry="18"/>
<text text-anchor="middle" x="440.39" y="-158.3" font-family="Times,serif" font-size="14.00">:core:config</text>
</g>
<!-- :app&#45;&gt;:core:config -->
<g id="edge9" class="edge">
<title>:app&#45;&gt;:core:config</title>
<path fill="none" stroke="black" d="M502.99,-289.52C494.61,-279.33 484.01,-265.44 476.39,-252 465.08,-232.03 455.52,-207.78 449.1,-189.64"/>
<polygon fill="black" stroke="black" points="452.34,-188.32 445.78,-180.01 445.73,-190.6 452.34,-188.32"/>
</g>
<!-- :core:accessibility -->
<g id="node11" class="node">
<title>:core:accessibility</title>
<ellipse fill="none" stroke="black" cx="911.39" cy="-18" rx="93.68" ry="18"/>
<text text-anchor="middle" x="911.39" y="-14.3" font-family="Times,serif" font-size="14.00">:core:accessibility</text>
</g>
<!-- :app&#45;&gt;:core:accessibility -->
<g id="edge10" class="edge">
<title>:app&#45;&gt;:core:accessibility</title>
<path fill="none" stroke="black" d="M546.75,-303.32C618.88,-298.84 798.16,-284.64 847.39,-252 914.96,-207.2 916.99,-97.26 913.92,-46.06"/>
<polygon fill="black" stroke="black" points="917.41,-45.79 913.21,-36.07 910.43,-46.29 917.41,-45.79"/>
</g>
<!-- :feature:settings&#45;&gt;:core:ui -->
<g id="edge11" class="edge">
<title>:feature:settings&#45;&gt;:core:ui</title>
<path fill="none" stroke="red" stroke-width="2" d="M414.15,-223.79C526.1,-209.57 729.44,-183.53 745.39,-180 749.01,-179.2 752.74,-178.27 756.46,-177.26"/>
<polygon fill="red" stroke="red" stroke-width="2" points="757.59,-180.57 766.23,-174.44 755.65,-173.85 757.59,-180.57"/>
</g>
<!-- :feature:settings&#45;&gt;:core:designsystem -->
<g id="edge12" class="edge">
<title>:feature:settings&#45;&gt;:core:designsystem</title>
<path fill="none" stroke="black" d="M343.04,-215.82C345.59,-196.75 351.94,-165.8 367.39,-144 376.23,-131.54 388.95,-120.93 401.35,-112.55"/>
<polygon fill="black" stroke="black" points="403.31,-115.45 409.84,-107.11 399.53,-109.56 403.31,-115.45"/>
</g>
<!-- :feature:settings&#45;&gt;:core:data -->
<g id="edge13" class="edge">
<title>:feature:settings&#45;&gt;:core:data</title>
<path fill="none" stroke="black" d="M314.49,-216.76C298.07,-206.86 276.94,-194.11 259.38,-183.51"/>
<polygon fill="black" stroke="black" points="260.93,-180.36 250.56,-178.19 257.32,-186.35 260.93,-180.36"/>
</g>
<!-- :feature:settings&#45;&gt;:core:config -->
<g id="edge15" class="edge">
<title>:feature:settings&#45;&gt;:core:config</title>
<path fill="none" stroke="black" d="M364.6,-216.59C377.98,-207.13 394.97,-195.12 409.47,-184.87"/>
<polygon fill="black" stroke="black" points="411.52,-187.7 417.67,-179.07 407.48,-181.98 411.52,-187.7"/>
</g>
<!-- :core:feedback -->
<g id="node12" class="node">
<title>:core:feedback</title>
<ellipse fill="none" stroke="black" cx="482.39" cy="-18" rx="77.99" ry="18"/>
<text text-anchor="middle" x="482.39" y="-14.3" font-family="Times,serif" font-size="14.00">:core:feedback</text>
</g>
<!-- :feature:settings&#45;&gt;:core:feedback -->
<g id="edge14" class="edge">
<title>:feature:settings&#45;&gt;:core:feedback</title>
<path fill="none" stroke="black" d="M333.9,-215.82C321.36,-184.14 300.38,-115.75 331.39,-72 342,-57.03 381.86,-43.4 417.96,-33.71"/>
<polygon fill="black" stroke="black" points="419.23,-37 428.02,-31.08 417.46,-30.22 419.23,-37"/>
</g>
<!-- :feature:aboutme&#45;&gt;:core:ui -->
<g id="edge28" class="edge">
<title>:feature:aboutme&#45;&gt;:core:ui</title>
<path fill="none" stroke="black" d="M623.02,-218.39C656.96,-207.75 704.03,-193 745.39,-180 748.53,-179.01 751.78,-177.99 755.04,-176.97"/>
<polygon fill="black" stroke="black" points="756.34,-180.23 764.83,-173.89 754.24,-173.55 756.34,-180.23"/>
</g>
<!-- :feature:aboutme&#45;&gt;:core:designsystem -->
<g id="edge29" class="edge">
<title>:feature:aboutme&#45;&gt;:core:designsystem</title>
<path fill="none" stroke="black" d="M566.67,-216.05C555.36,-197.19 535.41,-166.43 513.39,-144 502.35,-132.75 488.74,-122.08 476.33,-113.31"/>
<polygon fill="black" stroke="black" points="478.2,-110.35 467.98,-107.55 474.23,-116.11 478.2,-110.35"/>
</g>
<!-- :feature:aboutme&#45;&gt;:core:data -->
<g id="edge30" class="edge">
<title>:feature:aboutme&#45;&gt;:core:data</title>
<path fill="none" stroke="black" d="M514.85,-220.73C449.16,-207.63 345.93,-187.04 282.14,-174.32"/>
<polygon fill="black" stroke="black" points="282.74,-170.87 272.25,-172.35 281.38,-177.73 282.74,-170.87"/>
</g>
<!-- :feature:aboutme&#45;&gt;:core:config -->
<g id="edge32" class="edge">
<title>:feature:aboutme&#45;&gt;:core:config</title>
<path fill="none" stroke="black" d="M545.19,-216.94C525.52,-206.81 499.96,-193.66 479.01,-182.88"/>
<polygon fill="black" stroke="black" points="480.54,-179.73 470.05,-178.26 477.34,-185.95 480.54,-179.73"/>
</g>
<!-- :feature:aboutme&#45;&gt;:core:feedback -->
<g id="edge31" class="edge">
<title>:feature:aboutme&#45;&gt;:core:feedback</title>
<path fill="none" stroke="black" d="M577.73,-215.63C579.29,-184.53 578.79,-118.24 551.39,-72 543.96,-59.45 532.31,-48.83 520.7,-40.46"/>
<polygon fill="black" stroke="black" points="522.54,-37.49 512.3,-34.78 518.62,-43.28 522.54,-37.49"/>
</g>
<!-- :core:shapes -->
<g id="node15" class="node">
<title>:core:shapes</title>
<ellipse fill="none" stroke="black" cx="667.39" cy="-162" rx="68.79" ry="18"/>
<text text-anchor="middle" x="667.39" y="-158.3" font-family="Times,serif" font-size="14.00">:core:shapes</text>
</g>
<!-- :feature:aboutme&#45;&gt;:core:shapes -->
<g id="edge33" class="edge">
<title>:feature:aboutme&#45;&gt;:core:shapes</title>
<path fill="none" stroke="black" d="M597.96,-216.41C609.94,-207.19 625.03,-195.59 638.07,-185.55"/>
<polygon fill="black" stroke="black" points="640.5,-188.1 646.3,-179.23 636.24,-182.55 640.5,-188.1"/>
</g>
<!-- :core:ui&#45;&gt;:core:designsystem -->
<g id="edge17" class="edge">
<title>:core:ui&#45;&gt;:core:designsystem</title>
<path fill="none" stroke="red" stroke-width="2" d="M765.88,-149.7C759.14,-147.64 752.08,-145.63 745.39,-144 673.16,-126.41 589.9,-112.32 528.81,-103.1"/>
<polygon fill="red" stroke="red" stroke-width="2" points="529.22,-99.62 518.81,-101.61 528.19,-106.55 529.22,-99.62"/>
</g>
<!-- :core:ui&#45;&gt;:core:model -->
<g id="edge18" class="edge">
<title>:core:ui&#45;&gt;:core:model</title>
<path fill="none" stroke="black" d="M767.75,-148.77C749.43,-140.09 727.48,-126.65 714.39,-108 701.74,-89.97 697.24,-65.18 695.75,-46.34"/>
<polygon fill="black" stroke="black" points="699.25,-46.1 695.2,-36.3 692.26,-46.48 699.25,-46.1"/>
</g>
<!-- :core:ui&#45;&gt;:core:analytics -->
<g id="edge16" class="edge">
<title>:core:ui&#45;&gt;:core:analytics</title>
<path fill="none" stroke="black" d="M799.89,-143.7C800.11,-135.98 800.37,-126.71 800.62,-118.11"/>
<polygon fill="black" stroke="black" points="804.12,-118.2 800.9,-108.1 797.12,-118 804.12,-118.2"/>
</g>
<!-- :core:designsystem&#45;&gt;:core:common -->
<g id="edge20" class="edge">
<title>:core:designsystem&#45;&gt;:core:common</title>
<path fill="none" stroke="black" d="M373.82,-76.57C316.66,-66 232.61,-50.29 159.39,-36 153.36,-34.82 147.08,-33.58 140.79,-32.33"/>
<polygon fill="black" stroke="black" points="141.44,-28.89 130.95,-30.36 140.07,-35.75 141.44,-28.89"/>
</g>
<!-- :core:designsystem&#45;&gt;:core:accessibility -->
<g id="edge19" class="edge">
<title>:core:designsystem&#45;&gt;:core:accessibility</title>
<path fill="none" stroke="red" stroke-width="2" d="M516.13,-77.87C601.67,-65.13 741.32,-44.33 829.68,-31.17"/>
<polygon fill="red" stroke="red" stroke-width="2" points="830.29,-34.62 839.67,-29.68 829.26,-27.69 830.29,-34.62"/>
</g>
<!-- :core:designsystem&#45;&gt;:core:feedback -->
<g id="edge21" class="edge">
<title>:core:designsystem&#45;&gt;:core:feedback</title>
<path fill="none" stroke="black" d="M451.32,-72.05C456.08,-63.92 461.89,-54 467.2,-44.94"/>
<polygon fill="black" stroke="black" points="470.24,-46.67 472.27,-36.28 464.2,-43.14 470.24,-46.67"/>
</g>
<!-- :core:data&#45;&gt;:core:common -->
<g id="edge22" class="edge">
<title>:core:data&#45;&gt;:core:common</title>
<path fill="none" stroke="black" d="M183.98,-149.48C160.7,-141.19 132.56,-127.92 113.39,-108 96.8,-90.76 86.91,-65.16 81.4,-45.84"/>
<polygon fill="black" stroke="black" points="84.77,-44.89 78.84,-36.11 78,-46.67 84.77,-44.89"/>
</g>
<!-- :core:data&#45;&gt;:core:analytics -->
<g id="edge24" class="edge">
<title>:core:data&#45;&gt;:core:analytics</title>
<path fill="none" stroke="black" d="M277.78,-154.63C379.64,-142.25 604.82,-114.89 723.97,-100.41"/>
<polygon fill="black" stroke="black" points="724.61,-103.86 734.11,-99.18 723.76,-96.91 724.61,-103.86"/>
</g>
<!-- :core:datastore -->
<g id="node13" class="node">
<title>:core:datastore</title>
<ellipse fill="none" stroke="black" cx="203.39" cy="-90" rx="81.49" ry="18"/>
<text text-anchor="middle" x="203.39" y="-86.3" font-family="Times,serif" font-size="14.00">:core:datastore</text>
</g>
<!-- :core:data&#45;&gt;:core:datastore -->
<g id="edge23" class="edge">
<title>:core:data&#45;&gt;:core:datastore</title>
<path fill="none" stroke="black" d="M220.07,-144.05C217.62,-136.26 214.65,-126.82 211.9,-118.08"/>
<polygon fill="black" stroke="black" points="215.16,-116.77 208.82,-108.28 208.48,-118.86 215.16,-116.77"/>
</g>
<!-- :core:datastore&#45;&gt;:core:common -->
<g id="edge27" class="edge">
<title>:core:datastore&#45;&gt;:core:common</title>
<path fill="none" stroke="black" d="M174.35,-73.12C156.26,-63.23 132.81,-50.4 113.27,-39.72"/>
<polygon fill="black" stroke="black" points="114.78,-36.55 104.32,-34.82 111.42,-42.69 114.78,-36.55"/>
</g>
<!-- :core:datastore&#45;&gt;:core:model -->
<g id="edge26" class="edge">
<title>:core:datastore&#45;&gt;:core:model</title>
<path fill="none" stroke="black" d="M269.75,-79.56C363.76,-66.18 534.76,-41.86 628.87,-28.47"/>
<polygon fill="black" stroke="black" points="629.43,-31.92 638.84,-27.05 628.45,-24.99 629.43,-31.92"/>
</g>
<!-- :core:datastore&#45;proto -->
<g id="node14" class="node">
<title>:core:datastore&#45;proto</title>
<ellipse fill="none" stroke="black" cx="277.39" cy="-18" rx="108.58" ry="18"/>
<text text-anchor="middle" x="277.39" y="-14.3" font-family="Times,serif" font-size="14.00">:core:datastore&#45;proto</text>
</g>
<!-- :core:datastore&#45;&gt;:core:datastore&#45;proto -->
<g id="edge25" class="edge">
<title>:core:datastore&#45;&gt;:core:datastore&#45;proto</title>
<path fill="none" stroke="black" d="M220.93,-72.41C230.19,-63.65 241.73,-52.73 251.96,-43.06"/>
<polygon fill="black" stroke="black" points="254.61,-45.37 259.47,-35.96 249.8,-40.29 254.61,-45.37"/>
</g>
</g>
</svg>
