<?xml version="1.0" encoding="UTF-8" standalone="no"?>
<!DOCTYPE svg PUBLIC "-//W3C//DTD SVG 1.1//EN"
 "http://www.w3.org/Graphics/SVG/1.1/DTD/svg11.dtd">
<!-- Generated by graphviz version 2.43.0 (0)
 -->
<!-- Title: G Pages: 1 -->
<svg width="959pt" height="332pt"
 viewBox="0.00 0.00 958.53 332.00" xmlns="http://www.w3.org/2000/svg" xmlns:xlink="http://www.w3.org/1999/xlink">
<g id="graph0" class="graph" transform="scale(1 1) rotate(0) translate(4 328)">
<title>G</title>
<polygon fill="white" stroke="transparent" points="-4,4 -4,-328 954.53,-328 954.53,4 -4,4"/>
<!-- :app -->
<g id="node1" class="node">
<title>:app</title>
<ellipse fill="none" stroke="black" cx="449.54" cy="-306" rx="30.59" ry="18"/>
<text text-anchor="middle" x="449.54" y="-302.3" font-family="Times,serif" font-size="14.00">:app</text>
</g>
<!-- :feature:settings -->
<g id="node2" class="node">
<title>:feature:settings</title>
<ellipse fill="none" stroke="black" cx="391.54" cy="-234" rx="87.99" ry="18"/>
<text text-anchor="middle" x="391.54" y="-230.3" font-family="Times,serif" font-size="14.00">:feature:settings</text>
</g>
<!-- :app&#45;&gt;:feature:settings -->
<g id="edge1" class="edge">
<title>:app&#45;&gt;:feature:settings</title>
<path fill="none" stroke="red" stroke-width="2" d="M436.67,-289.46C429.47,-280.78 420.33,-269.75 412.16,-259.89"/>
<polygon fill="red" stroke="red" stroke-width="2" points="414.67,-257.43 405.59,-251.96 409.28,-261.9 414.67,-257.43"/>
</g>
<!-- :feature:aboutme -->
<g id="node3" class="node">
<title>:feature:aboutme</title>
<ellipse fill="none" stroke="black" cx="680.54" cy="-234" rx="90.98" ry="18"/>
<text text-anchor="middle" x="680.54" y="-230.3" font-family="Times,serif" font-size="14.00">:feature:aboutme</text>
</g>
<!-- :app&#45;&gt;:feature:aboutme -->
<g id="edge2" class="edge">
<title>:app&#45;&gt;:feature:aboutme</title>
<path fill="none" stroke="black" d="M476.04,-296.97C511.66,-286.17 575.95,-266.69 622.97,-252.45"/>
<polygon fill="black" stroke="black" points="624.17,-255.74 632.72,-249.49 622.14,-249.04 624.17,-255.74"/>
</g>
<!-- :core:common -->
<g id="node4" class="node">
<title>:core:common</title>
<ellipse fill="none" stroke="black" cx="391.54" cy="-18" rx="75.29" ry="18"/>
<text text-anchor="middle" x="391.54" y="-14.3" font-family="Times,serif" font-size="14.00">:core:common</text>
</g>
<!-- :app&#45;&gt;:core:common -->
<g id="edge3" class="edge">
<title>:app&#45;&gt;:core:common</title>
<path fill="none" stroke="black" d="M419.35,-302.82C349.37,-297.32 178.35,-281.2 129.54,-252 60.19,-210.52 44.6,-184.49 18.54,-108 13.38,-92.85 8.05,-84.08 18.54,-72 28.16,-60.92 207.59,-39.33 314.03,-27.41"/>
<polygon fill="black" stroke="black" points="314.54,-30.87 324.09,-26.29 313.77,-23.92 314.54,-30.87"/>
</g>
<!-- :core:ui -->
<g id="node5" class="node">
<title>:core:ui</title>
<ellipse fill="none" stroke="black" cx="290.54" cy="-162" rx="45.49" ry="18"/>
<text text-anchor="middle" x="290.54" y="-158.3" font-family="Times,serif" font-size="14.00">:core:ui</text>
</g>
<!-- :app&#45;&gt;:core:ui -->
<g id="edge4" class="edge">
<title>:app&#45;&gt;:core:ui</title>
<path fill="none" stroke="black" d="M418.95,-304.2C382.72,-301.43 323.62,-290.8 294.54,-252 281.39,-234.46 281.58,-209.05 284.36,-189.87"/>
<polygon fill="black" stroke="black" points="287.82,-190.4 286.11,-179.95 280.93,-189.19 287.82,-190.4"/>
</g>
<!-- :core:designsystem -->
<g id="node6" class="node">
<title>:core:designsystem</title>
<ellipse fill="none" stroke="black" cx="492.54" cy="-162" rx="100.98" ry="18"/>
<text text-anchor="middle" x="492.54" y="-158.3" font-family="Times,serif" font-size="14.00">:core:designsystem</text>
</g>
<!-- :app&#45;&gt;:core:designsystem -->
<g id="edge5" class="edge">
<title>:app&#45;&gt;:core:designsystem</title>
<path fill="none" stroke="black" d="M464.2,-290.2C472.99,-280.28 483.44,-266.43 488.54,-252 495.53,-232.22 496.24,-208.42 495.35,-190.41"/>
<polygon fill="black" stroke="black" points="498.84,-190.03 494.67,-180.29 491.85,-190.51 498.84,-190.03"/>
</g>
<!-- :core:data -->
<g id="node7" class="node">
<title>:core:data</title>
<ellipse fill="none" stroke="black" cx="169.54" cy="-162" rx="57.39" ry="18"/>
<text text-anchor="middle" x="169.54" y="-158.3" font-family="Times,serif" font-size="14.00">:core:data</text>
</g>
<!-- :app&#45;&gt;:core:data -->
<g id="edge6" class="edge">
<title>:app&#45;&gt;:core:data</title>
<path fill="none" stroke="black" d="M420.68,-299.6C385.58,-292.25 325.23,-277.06 278.54,-252 245.9,-234.48 213.69,-206.49 192.85,-186.58"/>
<polygon fill="black" stroke="black" points="195.05,-183.84 185.44,-179.38 190.17,-188.86 195.05,-183.84"/>
</g>
<!-- :core:model -->
<g id="node8" class="node">
<title>:core:model</title>
<ellipse fill="none" stroke="black" cx="790.54" cy="-18" rx="64.99" ry="18"/>
<text text-anchor="middle" x="790.54" y="-14.3" font-family="Times,serif" font-size="14.00">:core:model</text>
</g>
<!-- :app&#45;&gt;:core:model -->
<g id="edge7" class="edge">
<title>:app&#45;&gt;:core:model</title>
<path fill="none" stroke="black" d="M479.82,-303.6C563.62,-299.34 796.98,-284.77 865.54,-252 907.23,-232.07 922.42,-222.51 940.54,-180 959.9,-134.58 948.44,-107.9 914.54,-72 897.1,-53.53 872.17,-41.2 849.23,-33.11"/>
<polygon fill="black" stroke="black" points="850.14,-29.73 839.55,-29.91 847.94,-36.37 850.14,-29.73"/>
</g>
<!-- :core:analytics -->
<g id="node9" class="node">
<title>:core:analytics</title>
<ellipse fill="none" stroke="black" cx="285.54" cy="-90" rx="77.99" ry="18"/>
<text text-anchor="middle" x="285.54" y="-86.3" font-family="Times,serif" font-size="14.00">:core:analytics</text>
</g>
<!-- :app&#45;&gt;:core:analytics -->
<g id="edge8" class="edge">
<title>:app&#45;&gt;:core:analytics</title>
<path fill="none" stroke="black" d="M418.9,-305.63C346.75,-305.21 167.47,-292.43 103.54,-180 95.63,-166.09 93.94,-156.8 103.54,-144 110.95,-134.12 172.29,-117.6 221.73,-105.62"/>
<polygon fill="black" stroke="black" points="222.86,-108.95 231.76,-103.21 221.22,-102.14 222.86,-108.95"/>
</g>
<!-- :core:config -->
<g id="node10" class="node">
<title>:core:config</title>
<ellipse fill="none" stroke="black" cx="831.54" cy="-162" rx="64.19" ry="18"/>
<text text-anchor="middle" x="831.54" y="-158.3" font-family="Times,serif" font-size="14.00">:core:config</text>
</g>
<!-- :app&#45;&gt;:core:config -->
<g id="edge9" class="edge">
<title>:app&#45;&gt;:core:config</title>
<path fill="none" stroke="black" d="M479.98,-303.44C552.28,-299.23 731.94,-285.58 780.54,-252 801.97,-237.19 815.56,-210.25 823.28,-189.87"/>
<polygon fill="black" stroke="black" points="826.66,-190.79 826.69,-180.19 820.06,-188.46 826.66,-190.79"/>
</g>
<!-- :core:accessibility -->
<g id="node11" class="node">
<title>:core:accessibility</title>
<ellipse fill="none" stroke="black" cx="785.54" cy="-90" rx="93.68" ry="18"/>
<text text-anchor="middle" x="785.54" y="-86.3" font-family="Times,serif" font-size="14.00">:core:accessibility</text>
</g>
<!-- :app&#45;&gt;:core:accessibility -->
<g id="edge10" class="edge">
<title>:app&#45;&gt;:core:accessibility</title>
<path fill="none" stroke="black" d="M480.46,-304.72C544.09,-303.23 693.43,-295.01 809.54,-252 865.73,-231.18 894.61,-232.48 923.54,-180 931.26,-165.99 932.6,-157.19 923.54,-144 910.37,-124.84 889.24,-112.6 867.43,-104.79"/>
<polygon fill="black" stroke="black" points="868.32,-101.4 857.73,-101.6 866.14,-108.05 868.32,-101.4"/>
</g>
<!-- :feature:settings&#45;&gt;:core:ui -->
<g id="edge11" class="edge">
<title>:feature:settings&#45;&gt;:core:ui</title>
<path fill="none" stroke="black" d="M367.86,-216.59C353.73,-206.79 335.64,-194.26 320.52,-183.78"/>
<polygon fill="black" stroke="black" points="322.22,-180.7 312.01,-177.88 318.23,-186.45 322.22,-180.7"/>
</g>
<!-- :feature:settings&#45;&gt;:core:designsystem -->
<g id="edge12" class="edge">
<title>:feature:settings&#45;&gt;:core:designsystem</title>
<path fill="none" stroke="black" d="M415.22,-216.59C428.67,-207.26 445.7,-195.46 460.35,-185.31"/>
<polygon fill="black" stroke="black" points="462.43,-188.12 468.66,-179.55 458.45,-182.37 462.43,-188.12"/>
</g>
<!-- :feature:settings&#45;&gt;:core:data -->
<g id="edge13" class="edge">
<title>:feature:settings&#45;&gt;:core:data</title>
<path fill="none" stroke="red" stroke-width="2" d="M345.81,-218.58C308.64,-206.86 256.33,-190.37 218.35,-178.39"/>
<polygon fill="red" stroke="red" stroke-width="2" points="219.13,-174.97 208.54,-175.3 217.02,-181.64 219.13,-174.97"/>
</g>
<!-- :feature:settings&#45;&gt;:core:config -->
<g id="edge15" class="edge">
<title>:feature:settings&#45;&gt;:core:config</title>
<path fill="none" stroke="black" d="M465.31,-224.23C539.63,-214.95 657.48,-199.03 758.54,-180 763.9,-178.99 769.45,-177.86 775,-176.67"/>
<polygon fill="black" stroke="black" points="775.92,-180.05 784.93,-174.48 774.41,-173.21 775.92,-180.05"/>
</g>
<!-- :core:feedback -->
<g id="node12" class="node">
<title>:core:feedback</title>
<ellipse fill="none" stroke="black" cx="497.54" cy="-90" rx="77.99" ry="18"/>
<text text-anchor="middle" x="497.54" y="-86.3" font-family="Times,serif" font-size="14.00">:core:feedback</text>
</g>
<!-- :feature:settings&#45;&gt;:core:feedback -->
<g id="edge14" class="edge">
<title>:feature:settings&#45;&gt;:core:feedback</title>
<path fill="none" stroke="black" d="M383.83,-215.78C376.55,-196.69 368.64,-165.71 382.54,-144 393.95,-126.18 413.04,-114.27 432.41,-106.34"/>
<polygon fill="black" stroke="black" points="433.79,-109.56 441.92,-102.76 431.32,-103.01 433.79,-109.56"/>
</g>
<!-- :feature:aboutme&#45;&gt;:core:common -->
<g id="edge28" class="edge">
<title>:feature:aboutme&#45;&gt;:core:common</title>
<path fill="none" stroke="black" d="M762.46,-226.02C824.88,-218.8 903.43,-204.97 923.54,-180 949.72,-147.5 893.09,-75.2 888.54,-72 855.45,-48.76 607.07,-31.27 474.45,-23.47"/>
<polygon fill="black" stroke="black" points="474.51,-19.97 464.32,-22.88 474.1,-26.96 474.51,-19.97"/>
</g>
<!-- :feature:aboutme&#45;&gt;:core:ui -->
<g id="edge26" class="edge">
<title>:feature:aboutme&#45;&gt;:core:ui</title>
<path fill="none" stroke="black" d="M614.82,-221.44C554.43,-210.79 462.42,-194.48 382.54,-180 369.04,-177.55 354.43,-174.87 340.92,-172.37"/>
<polygon fill="black" stroke="black" points="341.3,-168.88 330.83,-170.51 340.03,-175.77 341.3,-168.88"/>
</g>
<!-- :feature:aboutme&#45;&gt;:core:designsystem -->
<g id="edge27" class="edge">
<title>:feature:aboutme&#45;&gt;:core:designsystem</title>
<path fill="none" stroke="black" d="M639.75,-217.81C611.59,-207.33 573.92,-193.3 543.74,-182.06"/>
<polygon fill="black" stroke="black" points="544.82,-178.73 534.23,-178.52 542.38,-185.29 544.82,-178.73"/>
</g>
<!-- :feature:aboutme&#45;&gt;:core:config -->
<g id="edge30" class="edge">
<title>:feature:aboutme&#45;&gt;:core:config</title>
<path fill="none" stroke="black" d="M714.43,-217.29C737,-206.83 766.78,-193.02 790.66,-181.95"/>
<polygon fill="black" stroke="black" points="792.23,-185.08 799.83,-177.7 789.29,-178.73 792.23,-185.08"/>
</g>
<!-- :feature:aboutme&#45;&gt;:core:feedback -->
<g id="edge29" class="edge">
<title>:feature:aboutme&#45;&gt;:core:feedback</title>
<path fill="none" stroke="black" d="M764.08,-226.76C845.16,-217.59 949.83,-195.57 904.54,-144 893.89,-131.87 694.24,-110.34 578.6,-98.81"/>
<polygon fill="black" stroke="black" points="578.66,-95.3 568.36,-97.79 577.97,-102.26 578.66,-95.3"/>
</g>
<!-- :core:shapes -->
<g id="node15" class="node">
<title>:core:shapes</title>
<ellipse fill="none" stroke="black" cx="680.54" cy="-162" rx="68.79" ry="18"/>
<text text-anchor="middle" x="680.54" y="-158.3" font-family="Times,serif" font-size="14.00">:core:shapes</text>
</g>
<!-- :feature:aboutme&#45;&gt;:core:shapes -->
<g id="edge31" class="edge">
<title>:feature:aboutme&#45;&gt;:core:shapes</title>
<path fill="none" stroke="black" d="M680.54,-215.7C680.54,-207.98 680.54,-198.71 680.54,-190.11"/>
<polygon fill="black" stroke="black" points="684.04,-190.1 680.54,-180.1 677.04,-190.1 684.04,-190.1"/>
</g>
<!-- :core:ui&#45;&gt;:core:analytics -->
<g id="edge16" class="edge">
<title>:core:ui&#45;&gt;:core:analytics</title>
<path fill="none" stroke="black" d="M289.3,-143.7C288.75,-135.98 288.09,-126.71 287.48,-118.11"/>
<polygon fill="black" stroke="black" points="290.97,-117.83 286.76,-108.1 283.98,-118.33 290.97,-117.83"/>
</g>
<!-- :core:designsystem&#45;&gt;:core:common -->
<g id="edge18" class="edge">
<title>:core:designsystem&#45;&gt;:core:common</title>
<path fill="none" stroke="black" d="M538.76,-145.85C556.32,-137.59 574.49,-125.4 584.54,-108 592.55,-94.15 594.24,-84.72 584.54,-72 569.74,-52.59 513.05,-38.52 464.91,-29.78"/>
<polygon fill="black" stroke="black" points="465.24,-26.28 454.78,-27.99 464.02,-33.17 465.24,-26.28"/>
</g>
<!-- :core:designsystem&#45;&gt;:core:accessibility -->
<g id="edge17" class="edge">
<title>:core:designsystem&#45;&gt;:core:accessibility</title>
<path fill="none" stroke="black" d="M550.43,-147.17C599.05,-135.55 668.54,-118.95 719.36,-106.81"/>
<polygon fill="black" stroke="black" points="720.35,-110.17 729.27,-104.44 718.73,-103.36 720.35,-110.17"/>
</g>
<!-- :core:designsystem&#45;&gt;:core:feedback -->
<g id="edge19" class="edge">
<title>:core:designsystem&#45;&gt;:core:feedback</title>
<path fill="none" stroke="black" d="M493.78,-143.7C494.33,-135.98 494.99,-126.71 495.6,-118.11"/>
<polygon fill="black" stroke="black" points="499.1,-118.33 496.32,-108.1 492.11,-117.83 499.1,-118.33"/>
</g>
<!-- :core:data&#45;&gt;:core:common -->
<g id="edge20" class="edge">
<title>:core:data&#45;&gt;:core:common</title>
<path fill="none" stroke="black" d="M212.71,-150.03C271.89,-134.94 371.13,-109.48 372.54,-108 388.11,-91.71 392.23,-65.96 392.82,-46.33"/>
<polygon fill="black" stroke="black" points="396.32,-46.17 392.84,-36.16 389.32,-46.16 396.32,-46.17"/>
</g>
<!-- :core:data&#45;&gt;:core:analytics -->
<g id="edge22" class="edge">
<title>:core:data&#45;&gt;:core:analytics</title>
<path fill="none" stroke="black" d="M194.71,-145.81C210.83,-136.09 231.98,-123.32 249.82,-112.55"/>
<polygon fill="black" stroke="black" points="252.05,-115.3 258.8,-107.13 248.43,-109.3 252.05,-115.3"/>
</g>
<!-- :core:datastore -->
<g id="node13" class="node">
<title>:core:datastore</title>
<ellipse fill="none" stroke="black" cx="108.54" cy="-90" rx="81.49" ry="18"/>
<text text-anchor="middle" x="108.54" y="-86.3" font-family="Times,serif" font-size="14.00">:core:datastore</text>
</g>
<!-- :core:data&#45;&gt;:core:datastore -->
<g id="edge21" class="edge">
<title>:core:data&#45;&gt;:core:datastore</title>
<path fill="none" stroke="red" stroke-width="2" d="M155.08,-144.41C147.6,-135.82 138.31,-125.16 130,-115.63"/>
<polygon fill="red" stroke="red" stroke-width="2" points="132.53,-113.2 123.32,-107.96 127.25,-117.79 132.53,-113.2"/>
</g>
<!-- :core:datastore&#45;&gt;:core:common -->
<g id="edge25" class="edge">
<title>:core:datastore&#45;&gt;:core:common</title>
<path fill="none" stroke="black" d="M160.78,-76.08C208.99,-64.15 280.57,-46.45 331.2,-33.92"/>
<polygon fill="black" stroke="black" points="332.17,-37.29 341.04,-31.49 330.49,-30.5 332.17,-37.29"/>
</g>
<!-- :core:datastore&#45;&gt;:core:model -->
<g id="edge24" class="edge">
<title>:core:datastore&#45;&gt;:core:model</title>
<path fill="none" stroke="black" d="M166.5,-77.19C177.13,-75.27 188.15,-73.44 198.54,-72 384.63,-46.16 605.46,-30.27 717.49,-23.24"/>
<polygon fill="black" stroke="black" points="717.9,-26.72 727.66,-22.61 717.46,-19.74 717.9,-26.72"/>
</g>
<!-- :core:datastore&#45;proto -->
<g id="node14" class="node">
<title>:core:datastore&#45;proto</title>
<ellipse fill="none" stroke="black" cx="108.54" cy="-18" rx="108.58" ry="18"/>
<text text-anchor="middle" x="108.54" y="-14.3" font-family="Times,serif" font-size="14.00">:core:datastore&#45;proto</text>
</g>
<!-- :core:datastore&#45;&gt;:core:datastore&#45;proto -->
<g id="edge23" class="edge">
<title>:core:datastore&#45;&gt;:core:datastore&#45;proto</title>
<path fill="none" stroke="red" stroke-width="2" d="M108.54,-71.7C108.54,-63.98 108.54,-54.71 108.54,-46.11"/>
<polygon fill="red" stroke="red" stroke-width="2" points="112.04,-46.1 108.54,-36.1 105.04,-46.1 112.04,-46.1"/>
</g>
</g>
</svg>
