<?xml version="1.0" encoding="UTF-8" standalone="no"?>
<!DOCTYPE svg PUBLIC "-//W3C//DTD SVG 1.1//EN" "http://www.w3.org/Graphics/SVG/1.1/DTD/svg11.dtd">
<svg xmlns="http://www.w3.org/2000/svg" xmlns:xlink="http://www.w3.org/1999/xlink" width="620pt" height="332pt" viewBox="0.00 0.00 619.53 332.00">
  <g id="graph0" class="graph" transform="scale(1 1) rotate(0) translate(4 328)">
    <title>G</title>
    <polygon fill="white" stroke="transparent" points="-4,4 -4,-328 615.53,-328 615.53,4 -4,4"/>
    <g id="node1" class="node">
      <title>:feature:settings</title>
      <ellipse fill="none" stroke="black" cx="329.99" cy="-306" rx="87.99" ry="18"/>
      <text text-anchor="middle" x="329.99" y="-302.3" font-family="Times,serif" font-size="14.00">:feature:settings</text>
    </g>
    <g id="node2" class="node">
      <title>:core:auth</title>
      <ellipse fill="none" stroke="black" cx="415.99" cy="-234" rx="57.69" ry="18"/>
      <text text-anchor="middle" x="415.99" y="-230.3" font-family="Times,serif" font-size="14.00">:core:auth</text>
    </g>
    <g id="edge1" class="edge">
      <title>:feature:settings-&gt;:core:auth</title>
      <path fill="none" stroke="red" stroke-width="2" d="M350.37,-288.41C361.78,-279.12 376.16,-267.42 388.55,-257.34"/>
      <polygon fill="red" stroke="red" stroke-width="2" points="390.8,-260.02 396.35,-250.99 386.39,-254.59 390.8,-260.02"/>
    </g>
    <g id="node3" class="node">
      <title>:core:config</title>
      <ellipse fill="none" stroke="black" cx="237.99" cy="-234" rx="64.19" ry="18"/>
      <text text-anchor="middle" x="237.99" y="-230.3" font-family="Times,serif" font-size="14.00">:core:config</text>
    </g>
    <g id="edge2" class="edge">
      <title>:feature:settings-&gt;:core:config</title>
      <path fill="none" stroke="black" d="M308.19,-288.41C296.07,-279.19 280.82,-267.59 267.64,-257.55"/>
      <polygon fill="black" stroke="black" points="269.4,-254.5 259.32,-251.23 265.16,-260.07 269.4,-254.5"/>
    </g>
    <g id="node4" class="node">
      <title>:core:feedback</title>
      <ellipse fill="none" stroke="black" cx="77.99" cy="-234" rx="77.99" ry="18"/>
      <text text-anchor="middle" x="77.99" y="-230.3" font-family="Times,serif" font-size="14.00">:core:feedback</text>
    </g>
    <g id="edge3" class="edge">
      <title>:feature:settings-&gt;:core:feedback</title>
      <path fill="none" stroke="black" d="M280.21,-291.17C238.69,-279.64 179.48,-263.19 135.86,-251.07"/>
      <polygon fill="black" stroke="black" points="136.54,-247.63 125.97,-248.33 134.67,-254.37 136.54,-247.63"/>
    </g>
    <g id="node5" class="node">
      <title>:core:ui</title>
      <ellipse fill="none" stroke="black" cx="527.99" cy="-162" rx="45.49" ry="18"/>
      <text text-anchor="middle" x="527.99" y="-158.3" font-family="Times,serif" font-size="14.00">:core:ui</text>
    </g>
    <g id="edge4" class="edge">
      <title>:feature:settings-&gt;:core:ui</title>
      <path fill="none" stroke="black" d="M395.57,-293.93C425.01,-286.24 458.54,-273.36 482.99,-252 501.76,-235.61 513.65,-209.52 520.46,-189.82"/>
      <polygon fill="black" stroke="black" points="523.83,-190.77 523.57,-180.18 517.17,-188.62 523.83,-190.77"/>
    </g>
    <g id="node6" class="node">
      <title>:core:designsystem</title>
      <ellipse fill="none" stroke="black" cx="121.99" cy="-162" rx="100.98" ry="18"/>
      <text text-anchor="middle" x="121.99" y="-158.3" font-family="Times,serif" font-size="14.00">:core:designsystem</text>
    </g>
    <g id="edge5" class="edge">
      <title>:feature:settings-&gt;:core:designsystem</title>
      <path fill="none" stroke="black" d="M331.23,-287.89C331.7,-268.02 329.27,-235.47 310.99,-216 288.68,-192.24 256.66,-178.83 225.3,-171.36"/>
      <polygon fill="black" stroke="black" points="225.67,-167.86 215.15,-169.14 224.17,-174.7 225.67,-167.86"/>
    </g>
    <g id="node7" class="node">
      <title>:core:data</title>
      <ellipse fill="none" stroke="black" cx="406.99" cy="-162" rx="57.39" ry="18"/>
      <text text-anchor="middle" x="406.99" y="-158.3" font-family="Times,serif" font-size="14.00">:core:data</text>
    </g>
    <g id="edge6" class="edge">
      <title>:core:auth-&gt;:core:data</title>
      <path fill="none" stroke="red" stroke-width="2" d="M413.77,-215.7C412.78,-207.98 411.58,-198.71 410.48,-190.11"/>
      <polygon fill="red" stroke="red" stroke-width="2" points="413.94,-189.58 409.19,-180.1 407,-190.47 413.94,-189.58"/>
    </g>
    <g id="edge12" class="edge">
      <title>:core:feedback-&gt;:core:designsystem</title>
      <path fill="none" stroke="black" d="M88.64,-216.05C93.76,-207.92 99.99,-198 105.69,-188.94"/>
      <polygon fill="black" stroke="black" points="108.78,-190.6 111.13,-180.28 102.85,-186.88 108.78,-190.6"/>
    </g>
    <g id="node9" class="node">
      <title>:core:analytics</title>
      <ellipse fill="none" stroke="black" cx="527.99" cy="-90" rx="77.99" ry="18"/>
      <text text-anchor="middle" x="527.99" y="-86.3" font-family="Times,serif" font-size="14.00">:core:analytics</text>
    </g>
    <g id="edge15" class="edge">
      <title>:core:ui-&gt;:core:analytics</title>
      <path fill="none" stroke="black" d="M527.99,-143.7C527.99,-135.98 527.99,-126.71 527.99,-118.11"/>
      <polygon fill="black" stroke="black" points="531.49,-118.1 527.99,-108.1 524.49,-118.1 531.49,-118.1"/>
    </g>
    <g id="node12" class="node">
      <title>:core:common</title>
      <ellipse fill="none" stroke="black" cx="113.99" cy="-18" rx="75.29" ry="18"/>
      <text text-anchor="middle" x="113.99" y="-14.3" font-family="Times,serif" font-size="14.00">:core:common</text>
    </g>
    <g id="edge14" class="edge">
      <title>:core:designsystem-&gt;:core:common</title>
      <path fill="none" stroke="black" d="M90.52,-144.68C76.95,-135.82 62.49,-123.49 54.99,-108 48.02,-93.6 48.48,-86.61 54.99,-72 60.35,-59.99 69.91,-49.57 79.81,-41.22"/>
      <polygon fill="black" stroke="black" points="82.04,-43.91 87.74,-34.98 77.71,-38.41 82.04,-43.91"/>
    </g>
    <g id="node13" class="node">
      <title>:core:accessibility</title>
      <ellipse fill="none" stroke="black" cx="157.99" cy="-90" rx="93.68" ry="18"/>
      <text text-anchor="middle" x="157.99" y="-86.3" font-family="Times,serif" font-size="14.00">:core:accessibility</text>
    </g>
    <g id="edge13" class="edge">
      <title>:core:designsystem-&gt;:core:accessibility</title>
      <path fill="none" stroke="black" d="M130.71,-144.05C134.85,-136.01 139.89,-126.2 144.51,-117.23"/>
      <polygon fill="black" stroke="black" points="147.65,-118.77 149.11,-108.28 141.42,-115.57 147.65,-118.77"/>
    </g>
    <g id="node8" class="node">
      <title>:core:datastore</title>
      <ellipse fill="none" stroke="black" cx="350.99" cy="-90" rx="81.49" ry="18"/>
      <text text-anchor="middle" x="350.99" y="-86.3" font-family="Times,serif" font-size="14.00">:core:datastore</text>
    </g>
    <g id="edge7" class="edge">
      <title>:core:data-&gt;:core:datastore</title>
      <path fill="none" stroke="red" stroke-width="2" d="M393.72,-144.41C386.92,-135.91 378.49,-125.37 370.92,-115.91"/>
      <polygon fill="red" stroke="red" stroke-width="2" points="373.54,-113.58 364.56,-107.96 368.07,-117.95 373.54,-113.58"/>
    </g>
    <g id="edge8" class="edge">
      <title>:core:data-&gt;:core:analytics</title>
      <path fill="none" stroke="black" d="M433.25,-145.81C450.33,-135.93 472.85,-122.9 491.64,-112.03"/>
      <polygon fill="black" stroke="black" points="493.63,-114.93 500.53,-106.89 490.12,-108.87 493.63,-114.93"/>
    </g>
    <g id="node10" class="node">
      <title>:core:datastore-proto</title>
      <ellipse fill="none" stroke="black" cx="502.99" cy="-18" rx="108.58" ry="18"/>
      <text text-anchor="middle" x="502.99" y="-14.3" font-family="Times,serif" font-size="14.00">:core:datastore-proto</text>
    </g>
    <g id="edge9" class="edge">
      <title>:core:datastore-&gt;:core:datastore-proto</title>
      <path fill="none" stroke="red" stroke-width="2" d="M384.73,-73.46C406.58,-63.4 435.26,-50.19 458.91,-39.3"/>
      <polygon fill="red" stroke="red" stroke-width="2" points="460.42,-42.46 468.03,-35.1 457.49,-36.1 460.42,-42.46"/>
    </g>
    <g id="node11" class="node">
      <title>:core:model</title>
      <ellipse fill="none" stroke="black" cx="310.99" cy="-18" rx="64.99" ry="18"/>
      <text text-anchor="middle" x="310.99" y="-14.3" font-family="Times,serif" font-size="14.00">:core:model</text>
    </g>
    <g id="edge10" class="edge">
      <title>:core:datastore-&gt;:core:model</title>
      <path fill="none" stroke="black" d="M341.31,-72.05C336.71,-64.01 331.11,-54.2 325.98,-45.23"/>
      <polygon fill="black" stroke="black" points="328.86,-43.22 320.86,-36.28 322.79,-46.69 328.86,-43.22"/>
    </g>
    <g id="edge11" class="edge">
      <title>:core:datastore-&gt;:core:common</title>
      <path fill="none" stroke="black" d="M304.17,-75.17C265.41,-63.72 210.27,-47.44 169.33,-35.34"/>
      <polygon fill="black" stroke="black" points="170.09,-31.92 159.51,-32.44 168.11,-38.63 170.09,-31.92"/>
    </g>
  </g>
</svg>
