<?xml version="1.0" encoding="UTF-8" standalone="no"?>
<!DOCTYPE svg PUBLIC "-//W3C//DTD SVG 1.1//EN" "http://www.w3.org/Graphics/SVG/1.1/DTD/svg11.dtd">
<svg height="188pt" viewBox="0.00 0.00 684.39 188.00" width="684pt" xmlns="http://www.w3.org/2000/svg">
  <g id="graph0" class="graph" transform="scale(1 1) rotate(0) translate(4 184)">
    <title>G</title>
    <polygon fill="white" stroke="transparent" points="-4,4 -4,-184 680.39,-184 680.39,4 -4,4"/>
    <g id="node1" class="node">
      <title>:app-rn3-catalog</title>
      <ellipse fill="none" stroke="black" cx="262.39" cy="-162" rx="86.38" ry="18"/>
      <text text-anchor="middle" x="262.39" y="-158.3" font-family="Times,serif" font-size="14.00">:app-rn3-catalog</text>
    </g>
    <g id="node2" class="node">
      <title>:core:common</title>
      <ellipse fill="none" stroke="black" cx="75.39" cy="-18" rx="75.29" ry="18"/>
      <text text-anchor="middle" x="75.39" y="-14.3" font-family="Times,serif" font-size="14.00">:core:common</text>
    </g>
    <g id="edge1" class="edge">
      <title>:app-rn3-catalog-&gt;:core:common</title>
      <path fill="none" stroke="black" d="M221.73,-146.11C199.94,-137.01 173.35,-124.04 152.39,-108 128.76,-89.91 107.08,-63.58 92.8,-44.26"/>
      <polygon fill="black" stroke="black" points="95.47,-41.98 86.77,-35.92 89.79,-46.08 95.47,-41.98"/>
    </g>
    <g id="node3" class="node">
      <title>:core:designsystem</title>
      <ellipse fill="none" stroke="black" cx="262.39" cy="-90" rx="100.98" ry="18"/>
      <text text-anchor="middle" x="262.39" y="-86.3" font-family="Times,serif" font-size="14.00">:core:designsystem</text>
    </g>
    <g id="edge2" class="edge">
      <title>:app-rn3-catalog-&gt;:core:designsystem</title>
      <path fill="none" stroke="red" stroke-width="2" d="M262.39,-143.7C262.39,-135.98 262.39,-126.71 262.39,-118.11"/>
      <polygon fill="red" stroke="red" stroke-width="2" points="265.89,-118.1 262.39,-108.1 258.89,-118.1 265.89,-118.1"/>
    </g>
    <g id="node4" class="node">
      <title>:core:ui</title>
      <ellipse fill="none" stroke="black" cx="512.39" cy="-90" rx="45.49" ry="18"/>
      <text text-anchor="middle" x="512.39" y="-86.3" font-family="Times,serif" font-size="14.00">:core:ui</text>
    </g>
    <g id="edge3" class="edge">
      <title>:app-rn3-catalog-&gt;:core:ui</title>
      <path fill="none" stroke="black" d="M311.79,-147.17C356.8,-134.57 422.78,-116.09 466.62,-103.82"/>
      <polygon fill="black" stroke="black" points="467.76,-107.13 476.45,-101.06 465.87,-100.39 467.76,-107.13"/>
    </g>
    <g id="edge5" class="edge">
      <title>:core:designsystem-&gt;:core:common</title>
      <path fill="none" stroke="black" d="M220.89,-73.46C192.15,-62.71 153.8,-48.35 123.69,-37.08"/>
      <polygon fill="black" stroke="black" points="124.82,-33.76 114.22,-33.54 122.36,-40.32 124.82,-33.76"/>
    </g>
    <g id="node5" class="node">
      <title>:core:accessibility</title>
      <ellipse fill="none" stroke="black" cx="262.39" cy="-18" rx="93.68" ry="18"/>
      <text text-anchor="middle" x="262.39" y="-14.3" font-family="Times,serif" font-size="14.00">:core:accessibility</text>
    </g>
    <g id="edge4" class="edge">
      <title>:core:designsystem-&gt;:core:accessibility</title>
      <path fill="none" stroke="red" stroke-width="2" d="M262.39,-71.7C262.39,-63.98 262.39,-54.71 262.39,-46.11"/>
      <polygon fill="red" stroke="red" stroke-width="2" points="265.89,-46.1 262.39,-36.1 258.89,-46.1 265.89,-46.1"/>
    </g>
    <g id="node6" class="node">
      <title>:core:config</title>
      <ellipse fill="none" stroke="black" cx="438.39" cy="-18" rx="64.19" ry="18"/>
      <text text-anchor="middle" x="438.39" y="-14.3" font-family="Times,serif" font-size="14.00">:core:config</text>
    </g>
    <g id="edge6" class="edge">
      <title>:core:designsystem-&gt;:core:config</title>
      <path fill="none" stroke="black" d="M301.89,-73.29C329,-62.51 365.04,-48.18 393.27,-36.95"/>
      <polygon fill="black" stroke="black" points="394.91,-40.06 402.91,-33.11 392.32,-33.56 394.91,-40.06"/>
    </g>
    <g id="node7" class="node">
      <title>:core:analytics</title>
      <ellipse fill="none" stroke="black" cx="598.39" cy="-18" rx="77.99" ry="18"/>
      <text text-anchor="middle" x="598.39" y="-14.3" font-family="Times,serif" font-size="14.00">:core:analytics</text>
    </g>
    <g id="edge7" class="edge">
      <title>:core:ui-&gt;:core:analytics</title>
      <path fill="none" stroke="black" d="M531.48,-73.46C542.85,-64.21 557.48,-52.3 570.16,-41.98"/>
      <polygon fill="black" stroke="black" points="572.62,-44.49 578.16,-35.47 568.2,-39.07 572.62,-44.49"/>
    </g>
  </g>
</svg>
