<?xml version="1.0" encoding="UTF-8" standalone="no"?>
<!DOCTYPE svg PUBLIC "-//W3C//DTD SVG 1.1//EN" "http://www.w3.org/Graphics/SVG/1.1/DTD/svg11.dtd">
<svg xmlns="http://www.w3.org/2000/svg" xmlns:xlink="http://www.w3.org/1999/xlink" width="948pt" height="404pt" viewBox="0.00 0.00 948.43 404.00">
  <g id="graph0" class="graph" transform="scale(1 1) rotate(0) translate(4 400)">
    <title>G</title>
    <polygon fill="white" stroke="transparent" points="-4,4 -4,-400 944.43,-400 944.43,4 -4,4"/>
    <g id="node1" class="node">
      <title>:app</title>
      <ellipse fill="none" stroke="black" cx="503.54" cy="-378" rx="30.59" ry="18"/>
      <text text-anchor="middle" x="503.54" y="-374.3" font-family="Times,serif" font-size="14.00">:app</text>
    </g>
    <g id="node2" class="node">
      <title>:feature:aboutme</title>
      <ellipse fill="none" stroke="black" cx="700.54" cy="-306" rx="90.98" ry="18"/>
      <text text-anchor="middle" x="700.54" y="-302.3" font-family="Times,serif" font-size="14.00">:feature:aboutme</text>
    </g>
    <g id="edge1" class="edge">
      <title>:app-&gt;:feature:aboutme</title>
      <path fill="none" stroke="black" d="M529.29,-367.85C559.48,-357.12 610.28,-339.07 648.72,-325.41"/>
      <polygon fill="black" stroke="black" points="649.96,-328.69 658.21,-322.04 647.62,-322.09 649.96,-328.69"/>
    </g>
    <g id="node3" class="node">
      <title>:feature:dashboard</title>
      <ellipse fill="none" stroke="black" cx="298.54" cy="-306" rx="98.58" ry="18"/>
      <text text-anchor="middle" x="298.54" y="-302.3" font-family="Times,serif" font-size="14.00">:feature:dashboard</text>
    </g>
    <g id="edge2" class="edge">
      <title>:app-&gt;:feature:dashboard</title>
      <path fill="none" stroke="black" d="M477.58,-368.13C446.32,-357.46 393.01,-339.26 352.67,-325.48"/>
      <polygon fill="black" stroke="black" points="353.57,-322.09 342.98,-322.17 351.31,-328.72 353.57,-322.09"/>
    </g>
    <g id="node4" class="node">
      <title>:feature:settings</title>
      <ellipse fill="none" stroke="black" cx="503.54" cy="-306" rx="87.99" ry="18"/>
      <text text-anchor="middle" x="503.54" y="-302.3" font-family="Times,serif" font-size="14.00">:feature:settings</text>
    </g>
    <g id="edge3" class="edge">
      <title>:app-&gt;:feature:settings</title>
      <path fill="none" stroke="red" stroke-width="2" d="M503.54,-359.7C503.54,-351.98 503.54,-342.71 503.54,-334.11"/>
      <polygon fill="red" stroke="red" stroke-width="2" points="507.04,-334.1 503.54,-324.1 500.04,-334.1 507.04,-334.1"/>
    </g>
    <g id="node5" class="node">
      <title>:core:feedback</title>
      <ellipse fill="none" stroke="black" cx="522.54" cy="-234" rx="77.99" ry="18"/>
      <text text-anchor="middle" x="522.54" y="-230.3" font-family="Times,serif" font-size="14.00">:core:feedback</text>
    </g>
    <g id="edge4" class="edge">
      <title>:feature:aboutme-&gt;:core:feedback</title>
      <path fill="none" stroke="black" d="M661.48,-289.64C634.45,-279.01 598.33,-264.8 569.69,-253.54"/>
      <polygon fill="black" stroke="black" points="570.88,-250.25 560.29,-249.85 568.32,-256.76 570.88,-250.25"/>
    </g>
    <g id="node6" class="node">
      <title>:core:ui</title>
      <ellipse fill="none" stroke="black" cx="381.54" cy="-234" rx="45.49" ry="18"/>
      <text text-anchor="middle" x="381.54" y="-230.3" font-family="Times,serif" font-size="14.00">:core:ui</text>
    </g>
    <g id="edge5" class="edge">
      <title>:feature:aboutme-&gt;:core:ui</title>
      <path fill="none" stroke="black" d="M633.93,-293.73C580.07,-284.12 502.46,-269.17 435.54,-252 432,-251.09 428.35,-250.09 424.69,-249.04"/>
      <polygon fill="black" stroke="black" points="425.67,-245.67 415.08,-246.17 423.67,-252.38 425.67,-245.67"/>
    </g>
    <g id="node7" class="node">
      <title>:core:common</title>
      <ellipse fill="none" stroke="black" cx="693.54" cy="-18" rx="75.29" ry="18"/>
      <text text-anchor="middle" x="693.54" y="-14.3" font-family="Times,serif" font-size="14.00">:core:common</text>
    </g>
    <g id="edge6" class="edge">
      <title>:feature:aboutme-&gt;:core:common</title>
      <path fill="none" stroke="black" d="M725.06,-288.65C736.63,-279.41 749.26,-266.77 755.54,-252 761.8,-237.28 757.97,-231.81 755.54,-216 745.88,-153.16 719.86,-82.85 704.77,-45.57"/>
      <polygon fill="black" stroke="black" points="707.86,-43.89 700.83,-35.97 701.39,-46.55 707.86,-43.89"/>
    </g>
    <g id="node8" class="node">
      <title>:core:config</title>
      <ellipse fill="none" stroke="black" cx="682.54" cy="-234" rx="64.19" ry="18"/>
      <text text-anchor="middle" x="682.54" y="-230.3" font-family="Times,serif" font-size="14.00">:core:config</text>
    </g>
    <g id="edge7" class="edge">
      <title>:feature:aboutme-&gt;:core:config</title>
      <path fill="none" stroke="black" d="M696.09,-287.7C694.09,-279.9 691.67,-270.51 689.44,-261.83"/>
      <polygon fill="black" stroke="black" points="692.82,-260.92 686.94,-252.1 686.04,-262.66 692.82,-260.92"/>
    </g>
    <g id="node9" class="node">
      <title>:core:shapes</title>
      <ellipse fill="none" stroke="black" cx="871.54" cy="-234" rx="68.79" ry="18"/>
      <text text-anchor="middle" x="871.54" y="-230.3" font-family="Times,serif" font-size="14.00">:core:shapes</text>
    </g>
    <g id="edge8" class="edge">
      <title>:feature:aboutme-&gt;:core:shapes</title>
      <path fill="none" stroke="black" d="M738.49,-289.46C764.54,-278.8 799.23,-264.6 826.66,-253.37"/>
      <polygon fill="black" stroke="black" points="828.1,-256.56 836.03,-249.54 825.45,-250.09 828.1,-256.56"/>
    </g>
    <g id="edge13" class="edge">
      <title>:feature:dashboard-&gt;:core:feedback</title>
      <path fill="none" stroke="black" d="M346.05,-290.15C381.88,-278.96 431.09,-263.58 468.44,-251.91"/>
      <polygon fill="black" stroke="black" points="469.65,-255.2 478.15,-248.87 467.56,-248.51 469.65,-255.2"/>
    </g>
    <g id="edge14" class="edge">
      <title>:feature:dashboard-&gt;:core:ui</title>
      <path fill="none" stroke="black" d="M318.63,-288.05C329.63,-278.78 343.38,-267.19 355.22,-257.2"/>
      <polygon fill="black" stroke="black" points="357.66,-259.71 363.05,-250.59 353.15,-254.36 357.66,-259.71"/>
    </g>
    <g id="node13" class="node">
      <title>:core:data</title>
      <ellipse fill="none" stroke="black" cx="232.54" cy="-162" rx="57.39" ry="18"/>
      <text text-anchor="middle" x="232.54" y="-158.3" font-family="Times,serif" font-size="14.00">:core:data</text>
    </g>
    <g id="edge15" class="edge">
      <title>:feature:dashboard-&gt;:core:data</title>
      <path fill="none" stroke="black" d="M244.6,-290.83C225.03,-282.8 204.94,-270.52 193.54,-252 180.81,-231.32 194.73,-205.75 209.35,-187.34"/>
      <polygon fill="black" stroke="black" points="212.26,-189.32 216.03,-179.42 206.9,-184.81 212.26,-189.32"/>
    </g>
    <g id="edge23" class="edge">
      <title>:feature:settings-&gt;:core:feedback</title>
      <path fill="none" stroke="black" d="M508.24,-287.7C510.35,-279.9 512.9,-270.51 515.26,-261.83"/>
      <polygon fill="black" stroke="black" points="518.66,-262.67 517.9,-252.1 511.9,-260.84 518.66,-262.67"/>
    </g>
    <g id="edge24" class="edge">
      <title>:feature:settings-&gt;:core:ui</title>
      <path fill="none" stroke="black" d="M475.24,-288.76C457.34,-278.49 434.1,-265.15 415.24,-254.33"/>
      <polygon fill="black" stroke="black" points="416.79,-251.19 406.38,-249.25 413.31,-257.26 416.79,-251.19"/>
    </g>
    <g id="edge22" class="edge">
      <title>:feature:settings-&gt;:core:config</title>
      <path fill="none" stroke="black" d="M542.38,-289.81C570.19,-278.94 607.72,-264.26 636.95,-252.83"/>
      <polygon fill="black" stroke="black" points="638.48,-255.99 646.52,-249.09 635.93,-249.47 638.48,-255.99"/>
    </g>
    <g id="node17" class="node">
      <title>:core:auth</title>
      <ellipse fill="none" stroke="black" cx="260.54" cy="-234" rx="57.69" ry="18"/>
      <text text-anchor="middle" x="260.54" y="-230.3" font-family="Times,serif" font-size="14.00">:core:auth</text>
    </g>
    <g id="edge21" class="edge">
      <title>:feature:settings-&gt;:core:auth</title>
      <path fill="none" stroke="red" stroke-width="2" d="M454.95,-291C413.28,-279 353.45,-261.76 311.19,-249.59"/>
      <polygon fill="red" stroke="red" stroke-width="2" points="311.96,-246.17 301.38,-246.77 310.02,-252.9 311.96,-246.17"/>
    </g>
    <g id="node10" class="node">
      <title>:core:designsystem</title>
      <ellipse fill="none" stroke="black" cx="571.54" cy="-162" rx="100.98" ry="18"/>
      <text text-anchor="middle" x="571.54" y="-158.3" font-family="Times,serif" font-size="14.00">:core:designsystem</text>
    </g>
    <g id="edge9" class="edge">
      <title>:core:feedback-&gt;:core:designsystem</title>
      <path fill="none" stroke="black" d="M534.4,-216.05C540.15,-207.84 547.19,-197.79 553.58,-188.66"/>
      <polygon fill="black" stroke="black" points="556.58,-190.47 559.45,-180.28 550.85,-186.46 556.58,-190.47"/>
    </g>
    <g id="node12" class="node">
      <title>:core:analytics</title>
      <ellipse fill="none" stroke="black" cx="381.54" cy="-90" rx="77.99" ry="18"/>
      <text text-anchor="middle" x="381.54" y="-86.3" font-family="Times,serif" font-size="14.00">:core:analytics</text>
    </g>
    <g id="edge12" class="edge">
      <title>:core:ui-&gt;:core:analytics</title>
      <path fill="none" stroke="black" d="M381.54,-215.87C381.54,-191.67 381.54,-147.21 381.54,-118.39"/>
      <polygon fill="black" stroke="black" points="385.04,-118.19 381.54,-108.19 378.04,-118.19 385.04,-118.19"/>
    </g>
    <g id="edge11" class="edge">
      <title>:core:designsystem-&gt;:core:common</title>
      <path fill="none" stroke="black" d="M620.45,-146.2C640,-137.94 661.04,-125.65 674.54,-108 688,-90.4 692.42,-65.37 693.66,-46.33"/>
      <polygon fill="black" stroke="black" points="697.16,-46.32 694.06,-36.19 690.17,-46.05 697.16,-46.32"/>
    </g>
    <g id="node11" class="node">
      <title>:core:accessibility</title>
      <ellipse fill="none" stroke="black" cx="571.54" cy="-90" rx="93.68" ry="18"/>
      <text text-anchor="middle" x="571.54" y="-86.3" font-family="Times,serif" font-size="14.00">:core:accessibility</text>
    </g>
    <g id="edge10" class="edge">
      <title>:core:designsystem-&gt;:core:accessibility</title>
      <path fill="none" stroke="black" d="M571.54,-143.7C571.54,-135.98 571.54,-126.71 571.54,-118.11"/>
      <polygon fill="black" stroke="black" points="575.04,-118.1 571.54,-108.1 568.04,-118.1 575.04,-118.1"/>
    </g>
    <g id="edge17" class="edge">
      <title>:core:data-&gt;:core:analytics</title>
      <path fill="none" stroke="black" d="M263.05,-146.67C285.08,-136.32 315.09,-122.22 339.4,-110.8"/>
      <polygon fill="black" stroke="black" points="341.18,-113.83 348.74,-106.41 338.2,-107.49 341.18,-113.83"/>
    </g>
    <g id="node14" class="node">
      <title>:core:datastore</title>
      <ellipse fill="none" stroke="black" cx="204.54" cy="-90" rx="81.49" ry="18"/>
      <text text-anchor="middle" x="204.54" y="-86.3" font-family="Times,serif" font-size="14.00">:core:datastore</text>
    </g>
    <g id="edge16" class="edge">
      <title>:core:data-&gt;:core:datastore</title>
      <path fill="none" stroke="red" stroke-width="2" d="M225.76,-144.05C222.61,-136.18 218.79,-126.62 215.26,-117.79"/>
      <polygon fill="red" stroke="red" stroke-width="2" points="218.41,-116.26 211.45,-108.28 211.91,-118.86 218.41,-116.26"/>
    </g>
    <g id="edge20" class="edge">
      <title>:core:datastore-&gt;:core:common</title>
      <path fill="none" stroke="black" d="M263.04,-77.47C273.51,-75.54 284.34,-73.64 294.54,-72 406.52,-54 536.9,-37.52 617.33,-27.87"/>
      <polygon fill="black" stroke="black" points="617.85,-31.33 627.37,-26.67 617.02,-24.38 617.85,-31.33"/>
    </g>
    <g id="node15" class="node">
      <title>:core:datastore-proto</title>
      <ellipse fill="none" stroke="black" cx="108.54" cy="-18" rx="108.58" ry="18"/>
      <text text-anchor="middle" x="108.54" y="-14.3" font-family="Times,serif" font-size="14.00">:core:datastore-proto</text>
    </g>
    <g id="edge18" class="edge">
      <title>:core:datastore-&gt;:core:datastore-proto</title>
      <path fill="none" stroke="red" stroke-width="2" d="M181.79,-72.41C169.21,-63.24 153.39,-51.7 139.68,-41.71"/>
      <polygon fill="red" stroke="red" stroke-width="2" points="141.6,-38.78 131.46,-35.71 137.48,-44.43 141.6,-38.78"/>
    </g>
    <g id="node16" class="node">
      <title>:core:model</title>
      <ellipse fill="none" stroke="black" cx="300.54" cy="-18" rx="64.99" ry="18"/>
      <text text-anchor="middle" x="300.54" y="-14.3" font-family="Times,serif" font-size="14.00">:core:model</text>
    </g>
    <g id="edge19" class="edge">
      <title>:core:datastore-&gt;:core:model</title>
      <path fill="none" stroke="black" d="M227.29,-72.41C240.15,-63.04 256.38,-51.2 270.3,-41.05"/>
      <polygon fill="black" stroke="black" points="272.6,-43.71 278.61,-34.99 268.47,-38.05 272.6,-43.71"/>
    </g>
    <g id="edge25" class="edge">
      <title>:core:auth-&gt;:core:data</title>
      <path fill="none" stroke="red" stroke-width="2" d="M253.76,-216.05C250.61,-208.18 246.79,-198.62 243.26,-189.79"/>
      <polygon fill="red" stroke="red" stroke-width="2" points="246.41,-188.26 239.45,-180.28 239.91,-190.86 246.41,-188.26"/>
    </g>
  </g>
</svg>
