<?xml version="1.0" encoding="UTF-8" standalone="no"?>
<!DOCTYPE svg PUBLIC "-//W3C//DTD SVG 1.1//EN"
 "http://www.w3.org/Graphics/SVG/1.1/DTD/svg11.dtd">
<!-- Generated by graphviz version 2.43.0 (0)
 -->
<!-- Title: G Pages: 1 -->
<svg width="712pt" height="188pt"
 viewBox="0.00 0.00 712.39 188.00" xmlns="http://www.w3.org/2000/svg" xmlns:xlink="http://www.w3.org/1999/xlink">
<g id="graph0" class="graph" transform="scale(1 1) rotate(0) translate(4 184)">
<title>G</title>
<polygon fill="white" stroke="transparent" points="-4,4 -4,-184 708.39,-184 708.39,4 -4,4"/>
<!-- :app&#45;rn3&#45;catalog -->
<g id="node1" class="node">
<title>:app&#45;rn3&#45;catalog</title>
<ellipse fill="none" stroke="black" cx="262.39" cy="-162" rx="86.38" ry="18"/>
<text text-anchor="middle" x="262.39" y="-158.3" font-family="Times,serif" font-size="14.00">:app&#45;rn3&#45;catalog</text>
</g>
<!-- :core:common -->
<g id="node2" class="node">
<title>:core:common</title>
<ellipse fill="none" stroke="black" cx="75.39" cy="-18" rx="75.29" ry="18"/>
<text text-anchor="middle" x="75.39" y="-14.3" font-family="Times,serif" font-size="14.00">:core:common</text>
</g>
<!-- :app&#45;rn3&#45;catalog&#45;&gt;:core:common -->
<g id="edge1" class="edge">
<title>:app&#45;rn3&#45;catalog&#45;&gt;:core:common</title>
<path fill="none" stroke="black" d="M221.73,-146.11C199.94,-137.01 173.35,-124.04 152.39,-108 128.76,-89.91 107.08,-63.58 92.8,-44.26"/>
<polygon fill="black" stroke="black" points="95.47,-41.98 86.77,-35.92 89.79,-46.08 95.47,-41.98"/>
</g>
<!-- :core:designsystem -->
<g id="node3" class="node">
<title>:core:designsystem</title>
<ellipse fill="none" stroke="black" cx="262.39" cy="-90" rx="100.98" ry="18"/>
<text text-anchor="middle" x="262.39" y="-86.3" font-family="Times,serif" font-size="14.00">:core:designsystem</text>
</g>
<!-- :app&#45;rn3&#45;catalog&#45;&gt;:core:designsystem -->
<g id="edge2" class="edge">
<title>:app&#45;rn3&#45;catalog&#45;&gt;:core:designsystem</title>
<path fill="none" stroke="red" stroke-width="2" d="M262.39,-143.7C262.39,-135.98 262.39,-126.71 262.39,-118.11"/>
<polygon fill="red" stroke="red" stroke-width="2" points="265.89,-118.1 262.39,-108.1 258.89,-118.1 265.89,-118.1"/>
</g>
<!-- :core:ui -->
<g id="node4" class="node">
<title>:core:ui</title>
<ellipse fill="none" stroke="black" cx="526.39" cy="-90" rx="45.49" ry="18"/>
<text text-anchor="middle" x="526.39" y="-86.3" font-family="Times,serif" font-size="14.00">:core:ui</text>
</g>
<!-- :app&#45;rn3&#45;catalog&#45;&gt;:core:ui -->
<g id="edge3" class="edge">
<title>:app&#45;rn3&#45;catalog&#45;&gt;:core:ui</title>
<path fill="none" stroke="black" d="M313.61,-147.42C361.8,-134.64 433.34,-115.67 479.93,-103.32"/>
<polygon fill="black" stroke="black" points="480.99,-106.66 489.76,-100.71 479.2,-99.89 480.99,-106.66"/>
</g>
<!-- :core:designsystem&#45;&gt;:core:common -->
<g id="edge6" class="edge">
<title>:core:designsystem&#45;&gt;:core:common</title>
<path fill="none" stroke="black" d="M220.89,-73.46C192.15,-62.71 153.8,-48.35 123.69,-37.08"/>
<polygon fill="black" stroke="black" points="124.82,-33.76 114.22,-33.54 122.36,-40.32 124.82,-33.76"/>
</g>
<!-- :core:accessibility -->
<g id="node5" class="node">
<title>:core:accessibility</title>
<ellipse fill="none" stroke="black" cx="262.39" cy="-18" rx="93.68" ry="18"/>
<text text-anchor="middle" x="262.39" y="-14.3" font-family="Times,serif" font-size="14.00">:core:accessibility</text>
</g>
<!-- :core:designsystem&#45;&gt;:core:accessibility -->
<g id="edge4" class="edge">
<title>:core:designsystem&#45;&gt;:core:accessibility</title>
<path fill="none" stroke="red" stroke-width="2" d="M262.39,-71.7C262.39,-63.98 262.39,-54.71 262.39,-46.11"/>
<polygon fill="red" stroke="red" stroke-width="2" points="265.89,-46.1 262.39,-36.1 258.89,-46.1 265.89,-46.1"/>
</g>
<!-- :core:feedback -->
<g id="node6" class="node">
<title>:core:feedback</title>
<ellipse fill="none" stroke="black" cx="452.39" cy="-18" rx="77.99" ry="18"/>
<text text-anchor="middle" x="452.39" y="-14.3" font-family="Times,serif" font-size="14.00">:core:feedback</text>
</g>
<!-- :core:designsystem&#45;&gt;:core:feedback -->
<g id="edge5" class="edge">
<title>:core:designsystem&#45;&gt;:core:feedback</title>
<path fill="none" stroke="black" d="M304.56,-73.46C333.76,-62.71 372.73,-48.35 403.32,-37.08"/>
<polygon fill="black" stroke="black" points="404.77,-40.28 412.94,-33.54 402.35,-33.71 404.77,-40.28"/>
</g>
<!-- :core:analytics -->
<g id="node7" class="node">
<title>:core:analytics</title>
<ellipse fill="none" stroke="black" cx="626.39" cy="-18" rx="77.99" ry="18"/>
<text text-anchor="middle" x="626.39" y="-14.3" font-family="Times,serif" font-size="14.00">:core:analytics</text>
</g>
<!-- :core:ui&#45;&gt;:core:analytics -->
<g id="edge7" class="edge">
<title>:core:ui&#45;&gt;:core:analytics</title>
<path fill="none" stroke="black" d="M548.09,-73.81C561.63,-64.33 579.3,-51.96 594.43,-41.37"/>
<polygon fill="black" stroke="black" points="596.81,-43.98 602.99,-35.38 592.79,-38.25 596.81,-43.98"/>
</g>
</g>
</svg>
