<?xml version="1.0" encoding="UTF-8" standalone="no"?>
<!DOCTYPE svg PUBLIC "-//W3C//DTD SVG 1.1//EN" "http://www.w3.org/Graphics/SVG/1.1/DTD/svg11.dtd">
<svg xmlns="http://www.w3.org/2000/svg" xmlns:xlink="http://www.w3.org/1999/xlink" width="713pt" height="332pt" viewBox="0.00 0.00 712.74 332.00">
  <g id="graph0" class="graph" transform="scale(1 1) rotate(0) translate(4 328)">
    <title>G</title>
    <polygon fill="white" stroke="transparent" points="-4,4 -4,-328 708.74,-328 708.74,4 -4,4"/>
    <g id="node1" class="node">
      <title>:feature:settings</title>
      <ellipse fill="none" stroke="black" cx="163.74" cy="-306" rx="87.99" ry="18"/>
      <text text-anchor="middle" x="163.74" y="-302.3" font-family="Times,serif" font-size="14.00">:feature:settings</text>
    </g>
    <g id="node2" class="node">
      <title>:core:ui</title>
      <ellipse fill="none" stroke="black" cx="163.74" cy="-234" rx="45.49" ry="18"/>
      <text text-anchor="middle" x="163.74" y="-230.3" font-family="Times,serif" font-size="14.00">:core:ui</text>
    </g>
    <g id="edge1" class="edge">
      <title>:feature:settings-&gt;:core:ui</title>
      <path fill="none" stroke="red" stroke-width="2" d="M163.74,-287.7C163.74,-279.98 163.74,-270.71 163.74,-262.11"/>
      <polygon fill="red" stroke="red" stroke-width="2" points="167.24,-262.1 163.74,-252.1 160.24,-262.1 167.24,-262.1"/>
    </g>
    <g id="node3" class="node">
      <title>:core:designsystem</title>
      <ellipse fill="none" stroke="black" cx="100.74" cy="-90" rx="100.98" ry="18"/>
      <text text-anchor="middle" x="100.74" y="-86.3" font-family="Times,serif" font-size="14.00">:core:designsystem</text>
    </g>
    <g id="edge2" class="edge">
      <title>:feature:settings-&gt;:core:designsystem</title>
      <path fill="none" stroke="black" d="M131.08,-289.23C94.49,-269.5 37.23,-231.88 13.74,-180 7.14,-165.42 5.9,-157.95 13.74,-144 21.56,-130.09 34.67,-119.4 48.38,-111.39"/>
      <polygon fill="black" stroke="black" points="50.29,-114.33 57.42,-106.5 46.96,-108.17 50.29,-114.33"/>
    </g>
    <g id="node4" class="node">
      <title>:core:data</title>
      <ellipse fill="none" stroke="black" cx="284.74" cy="-234" rx="57.39" ry="18"/>
      <text text-anchor="middle" x="284.74" y="-230.3" font-family="Times,serif" font-size="14.00">:core:data</text>
    </g>
    <g id="edge3" class="edge">
      <title>:feature:settings-&gt;:core:data</title>
      <path fill="none" stroke="black" d="M191.81,-288.76C209.08,-278.77 231.37,-265.87 249.79,-255.22"/>
      <polygon fill="black" stroke="black" points="251.58,-258.23 258.49,-250.19 248.08,-252.17 251.58,-258.23"/>
    </g>
    <g id="node5" class="node">
      <title>:core:feedback</title>
      <ellipse fill="none" stroke="black" cx="100.74" cy="-162" rx="77.99" ry="18"/>
      <text text-anchor="middle" x="100.74" y="-158.3" font-family="Times,serif" font-size="14.00">:core:feedback</text>
    </g>
    <g id="edge4" class="edge">
      <title>:feature:settings-&gt;:core:feedback</title>
      <path fill="none" stroke="black" d="M140.55,-288.51C129.27,-279.16 116.68,-266.45 109.74,-252 100.52,-232.81 98.6,-208.65 98.8,-190.34"/>
      <polygon fill="black" stroke="black" points="102.3,-190.43 99.12,-180.33 95.3,-190.21 102.3,-190.43"/>
    </g>
    <g id="node6" class="node">
      <title>:core:config</title>
      <ellipse fill="none" stroke="black" cx="424.74" cy="-234" rx="64.19" ry="18"/>
      <text text-anchor="middle" x="424.74" y="-230.3" font-family="Times,serif" font-size="14.00">:core:config</text>
    </g>
    <g id="edge5" class="edge">
      <title>:feature:settings-&gt;:core:config</title>
      <path fill="none" stroke="black" d="M214.68,-291.34C259.46,-279.33 324.45,-261.9 370.26,-249.61"/>
      <polygon fill="black" stroke="black" points="371.27,-252.97 380.02,-246.99 369.45,-246.2 371.27,-252.97"/>
    </g>
    <g id="edge7" class="edge">
      <title>:core:ui-&gt;:core:feedback</title>
      <path fill="none" stroke="red" stroke-width="2" d="M149.13,-216.76C141.33,-208.1 131.56,-197.25 122.85,-187.57"/>
      <polygon fill="red" stroke="red" stroke-width="2" points="125.44,-185.22 116.15,-180.12 120.24,-189.9 125.44,-185.22"/>
    </g>
    <g id="node7" class="node">
      <title>:core:analytics</title>
      <ellipse fill="none" stroke="black" cx="274.74" cy="-162" rx="77.99" ry="18"/>
      <text text-anchor="middle" x="274.74" y="-158.3" font-family="Times,serif" font-size="14.00">:core:analytics</text>
    </g>
    <g id="edge6" class="edge">
      <title>:core:ui-&gt;:core:analytics</title>
      <path fill="none" stroke="black" d="M187.01,-218.33C202.49,-208.56 223.1,-195.57 240.45,-184.63"/>
      <polygon fill="black" stroke="black" points="242.59,-187.42 249.18,-179.12 238.85,-181.49 242.59,-187.42"/>
    </g>
    <g id="node8" class="node">
      <title>:core:accessibility</title>
      <ellipse fill="none" stroke="black" cx="100.74" cy="-18" rx="93.68" ry="18"/>
      <text text-anchor="middle" x="100.74" y="-14.3" font-family="Times,serif" font-size="14.00">:core:accessibility</text>
    </g>
    <g id="edge9" class="edge">
      <title>:core:designsystem-&gt;:core:accessibility</title>
      <path fill="none" stroke="red" stroke-width="2" d="M100.74,-71.7C100.74,-63.98 100.74,-54.71 100.74,-46.11"/>
      <polygon fill="red" stroke="red" stroke-width="2" points="104.24,-46.1 100.74,-36.1 97.24,-46.1 104.24,-46.1"/>
    </g>
    <g id="node9" class="node">
      <title>:core:common</title>
      <ellipse fill="none" stroke="black" cx="300.74" cy="-18" rx="75.29" ry="18"/>
      <text text-anchor="middle" x="300.74" y="-14.3" font-family="Times,serif" font-size="14.00">:core:common</text>
    </g>
    <g id="edge10" class="edge">
      <title>:core:designsystem-&gt;:core:common</title>
      <path fill="none" stroke="black" d="M144.63,-73.64C175.79,-62.73 217.69,-48.07 250.24,-36.68"/>
      <polygon fill="black" stroke="black" points="251.74,-39.86 260.02,-33.25 249.42,-33.25 251.74,-39.86"/>
    </g>
    <g id="edge12" class="edge">
      <title>:core:data-&gt;:core:analytics</title>
      <path fill="none" stroke="black" d="M282.27,-215.7C281.17,-207.98 279.84,-198.71 278.61,-190.11"/>
      <polygon fill="black" stroke="black" points="282.06,-189.51 277.18,-180.1 275.13,-190.5 282.06,-189.51"/>
    </g>
    <g id="node10" class="node">
      <title>:core:datastore</title>
      <ellipse fill="none" stroke="black" cx="451.74" cy="-162" rx="81.49" ry="18"/>
      <text text-anchor="middle" x="451.74" y="-158.3" font-family="Times,serif" font-size="14.00">:core:datastore</text>
    </g>
    <g id="edge11" class="edge">
      <title>:core:data-&gt;:core:datastore</title>
      <path fill="none" stroke="black" d="M317.73,-219.17C342.99,-208.58 378.12,-193.86 406.07,-182.14"/>
      <polygon fill="black" stroke="black" points="407.76,-185.23 415.63,-178.14 405.06,-178.77 407.76,-185.23"/>
    </g>
    <g id="edge8" class="edge">
      <title>:core:feedback-&gt;:core:designsystem</title>
      <path fill="none" stroke="red" stroke-width="2" d="M100.74,-143.7C100.74,-135.98 100.74,-126.71 100.74,-118.11"/>
      <polygon fill="red" stroke="red" stroke-width="2" points="104.24,-118.1 100.74,-108.1 97.24,-118.1 104.24,-118.1"/>
    </g>
    <g id="edge15" class="edge">
      <title>:core:datastore-&gt;:core:common</title>
      <path fill="none" stroke="black" d="M398.05,-148.46C374.27,-140.45 347.69,-127.73 329.74,-108 314.24,-90.96 307.02,-65.5 303.65,-46.17"/>
      <polygon fill="black" stroke="black" points="307.1,-45.53 302.15,-36.16 300.17,-46.57 307.1,-45.53"/>
    </g>
    <g id="node11" class="node">
      <title>:core:datastore-proto</title>
      <ellipse fill="none" stroke="black" cx="447.74" cy="-90" rx="108.58" ry="18"/>
      <text text-anchor="middle" x="447.74" y="-86.3" font-family="Times,serif" font-size="14.00">:core:datastore-proto</text>
    </g>
    <g id="edge13" class="edge">
      <title>:core:datastore-&gt;:core:datastore-proto</title>
      <path fill="none" stroke="black" d="M450.75,-143.7C450.31,-135.98 449.78,-126.71 449.29,-118.11"/>
      <polygon fill="black" stroke="black" points="452.78,-117.89 448.72,-108.1 445.79,-118.29 452.78,-117.89"/>
    </g>
    <g id="node12" class="node">
      <title>:core:model</title>
      <ellipse fill="none" stroke="black" cx="639.74" cy="-90" rx="64.99" ry="18"/>
      <text text-anchor="middle" x="639.74" y="-86.3" font-family="Times,serif" font-size="14.00">:core:model</text>
    </g>
    <g id="edge14" class="edge">
      <title>:core:datastore-&gt;:core:model</title>
      <path fill="none" stroke="black" d="M491.61,-146.15C521.18,-135.15 561.58,-120.1 592.73,-108.51"/>
      <polygon fill="black" stroke="black" points="594.34,-111.64 602.49,-104.87 591.89,-105.08 594.34,-111.64"/>
    </g>
  </g>
</svg>
