<?xml version="1.0" encoding="UTF-8" standalone="no"?>
<!DOCTYPE svg PUBLIC "-//W3C//DTD SVG 1.1//EN" "http://www.w3.org/Graphics/SVG/1.1/DTD/svg11.dtd">
<svg height="260pt" viewBox="0.00 0.00 966.34 260.00" width="966pt" xmlns="http://www.w3.org/2000/svg">
    <g class="graph" id="graph0" transform="scale(1 1) rotate(0) translate(4 256)">
    <title>G</title>
        <polygon fill="white" points="-4,4 -4,-256 962.34,-256 962.34,4 -4,4"
            stroke="transparent" />
    <g id="node1" class="node">
      <title>:feature:settings</title>
        <ellipse cx="679.99" cy="-234" fill="none" rx="87.99" ry="18" stroke="black" />
        <text font-family="Times,serif" font-size="14.00" text-anchor="middle" x="679.99"
            y="-230.3">:feature:settings
        </text>
    </g>
    <g id="node2" class="node">
        <title>:core:config</title>
        <ellipse cx="893.99" cy="-18" fill="none" rx="64.19" ry="18" stroke="black" />
        <text font-family="Times,serif" font-size="14.00" text-anchor="middle" x="893.99" y="-14.3">
            :core:config
        </text>
    </g>
    <g id="edge1" class="edge">
        <title>:feature:settings-&gt;:core:config</title>
        <path d="M737.6,-220.37C765.66,-212.19 798.72,-199.36 823.99,-180 855.13,-156.16 859.24,-143.91 874.99,-108 883.65,-88.26 888.48,-64.27 891.1,-46.18" fill="none"
            stroke="black" />
        <polygon fill="black" points="894.6,-46.4 892.43,-36.03 887.66,-45.49 894.6,-46.4"
            stroke="black" />
    </g>
    <g id="node3" class="node">
        <title>:core:data</title>
        <ellipse cx="444.99" cy="-162" fill="none" rx="57.39" ry="18" stroke="black" />
        <text font-family="Times,serif" font-size="14.00" text-anchor="middle" x="444.99"
            y="-158.3">:core:data
        </text>
    </g>
    <g id="edge2" class="edge">
        <title>:feature:settings-&gt;:core:data</title>
        <path d="M632.44,-218.83C592.42,-206.91 535.38,-189.92 494.75,-177.82" fill="none" stroke="red"
            stroke-width="2" />
        <polygon fill="red" points="495.64,-174.43 485.05,-174.93 493.64,-181.14 495.64,-174.43" stroke="red"
            stroke-width="2" />
    </g>
    <g id="node4" class="node">
      <title>:core:feedback</title>
        <ellipse cx="736.99" cy="-162" fill="none" rx="77.99" ry="18" stroke="black" />
        <text font-family="Times,serif" font-size="14.00" text-anchor="middle" x="736.99"
            y="-158.3">:core:feedback
        </text>
    </g>
    <g id="edge3" class="edge">
      <title>:feature:settings-&gt;:core:feedback</title>
        <path d="M693.79,-216.05C700.72,-207.54 709.25,-197.07 716.9,-187.68" fill="none"
            stroke="black" />
        <polygon fill="black" points="719.72,-189.75 723.32,-179.79 714.29,-185.33 719.72,-189.75"
            stroke="black" />
    </g>
    <g id="node5" class="node">
      <title>:core:ui</title>
        <ellipse cx="581.99" cy="-162" fill="none" rx="45.49" ry="18" stroke="black" />
        <text font-family="Times,serif" font-size="14.00" text-anchor="middle" x="581.99"
            y="-158.3">:core:ui
        </text>
    </g>
    <g id="edge4" class="edge">
      <title>:feature:settings-&gt;:core:ui</title>
        <path d="M656.77,-216.41C643.14,-206.68 625.8,-194.29 611.24,-183.89" fill="none"
            stroke="black" />
        <polygon fill="black" points="613.22,-181 603.05,-178.04 609.15,-186.7 613.22,-181"
            stroke="black" />
    </g>
    <g id="node6" class="node">
        <title>:core:analytics</title>
        <ellipse cx="567.99" cy="-90" fill="none" rx="77.99" ry="18" stroke="black" />
        <text font-family="Times,serif" font-size="14.00" text-anchor="middle" x="567.99" y="-86.3">
            :core:analytics
        </text>
    </g>
    <g id="edge5" class="edge">
        <title>:core:data-&gt;:core:analytics</title>
        <path d="M471.38,-145.98C488.81,-136.06 511.9,-122.93 531.13,-111.98" fill="none"
            stroke="black" />
        <polygon fill="black" points="532.98,-114.95 539.94,-106.97 529.52,-108.87 532.98,-114.95"
            stroke="black" />
    </g>
        <g class="node" id="node7">
            <title>:core:auth</title>
            <ellipse cx="413.99" cy="-90" fill="none" rx="57.69" ry="18" stroke="black" />
            <text font-family="Times,serif" font-size="14.00" text-anchor="middle" x="413.99"
                y="-86.3">:core:auth
            </text>
        </g>
        <g class="edge" id="edge6">
            <title>:core:data-&gt;:core:auth</title>
            <path d="M437.49,-144.05C433.96,-136.09 429.68,-126.41 425.73,-117.51" fill="none" stroke="red"
                stroke-width="2" />
            <polygon fill="red" points="428.89,-116 421.64,-108.28 422.49,-118.84 428.89,-116" stroke="red"
                stroke-width="2" />
        </g>
        <g class="node" id="node8">
            <title>:core:datastore</title>
            <ellipse cx="256.99" cy="-90" fill="none" rx="81.49" ry="18" stroke="black" />
            <text font-family="Times,serif" font-size="14.00" text-anchor="middle" x="256.99"
                y="-86.3">:core:datastore
            </text>
        </g>
        <g class="edge" id="edge7">
            <title>:core:data-&gt;:core:datastore</title>
            <path d="M409.63,-147.83C380.52,-136.99 338.92,-121.5 306.5,-109.43" fill="none"
                stroke="black" />
            <polygon fill="black" points="307.35,-106.01 296.75,-105.8 304.9,-112.57 307.35,-106.01"
                stroke="black" />
    </g>
    <g id="node12" class="node">
      <title>:core:designsystem</title>
        <ellipse cx="764.99" cy="-90" fill="none" rx="100.98" ry="18" stroke="black" />
        <text font-family="Times,serif" font-size="14.00" text-anchor="middle" x="764.99" y="-86.3">
            :core:designsystem
        </text>
    </g>
        <g class="edge" id="edge12">
      <title>:core:feedback-&gt;:core:designsystem</title>
            <path d="M743.77,-144.05C746.92,-136.18 750.75,-126.62 754.28,-117.79" fill="none"
                stroke="black" />
            <polygon fill="black" points="757.62,-118.86 758.08,-108.28 751.12,-116.26 757.62,-118.86"
                stroke="black" />
    </g>
        <g class="edge" id="edge16">
      <title>:core:ui-&gt;:core:analytics</title>
            <path d="M578.53,-143.7C576.99,-135.98 575.14,-126.71 573.42,-118.11" fill="none"
                stroke="black" />
            <polygon fill="black" points="576.81,-117.22 571.42,-108.1 569.94,-118.6 576.81,-117.22"
                stroke="black" />
    </g>
    <g id="node9" class="node">
        <title>:core:common</title>
        <ellipse cx="458.99" cy="-18" fill="none" rx="75.29" ry="18" stroke="black" />
        <text font-family="Times,serif" font-size="14.00" text-anchor="middle" x="458.99" y="-14.3">
            :core:common
        </text>
    </g>
    <g id="edge8" class="edge">
        <title>:core:auth-&gt;:core:common</title>
        <path d="M424.89,-72.05C430.12,-63.92 436.5,-54 442.32,-44.94" fill="none" stroke="red"
            stroke-width="2" />
        <polygon fill="red" points="445.43,-46.58 447.89,-36.28 439.54,-42.79 445.43,-46.58" stroke="red"
            stroke-width="2" />
    </g>
        <g class="edge" id="edge11">
            <title>:core:datastore-&gt;:core:common</title>
            <path d="M298.85,-74.5C330.61,-63.49 374.43,-48.31 408.2,-36.6" fill="none"
                stroke="black" />
            <polygon fill="black" points="409.58,-39.83 417.88,-33.25 407.29,-33.21 409.58,-39.83"
                stroke="black" />
    </g>
    <g id="node10" class="node">
        <title>:core:datastore-proto</title>
        <ellipse cx="256.99" cy="-18" fill="none" rx="108.58" ry="18" stroke="black" />
        <text font-family="Times,serif" font-size="14.00" text-anchor="middle" x="256.99" y="-14.3">
            :core:datastore-proto
        </text>
    </g>
    <g id="edge9" class="edge">
        <title>:core:datastore-&gt;:core:datastore-proto</title>
        <path d="M256.99,-71.7C256.99,-63.98 256.99,-54.71 256.99,-46.11" fill="none"
            stroke="black" />
        <polygon fill="black" points="260.49,-46.1 256.99,-36.1 253.49,-46.1 260.49,-46.1"
            stroke="black" />
    </g>
    <g id="node11" class="node">
        <title>:core:model</title>
        <ellipse cx="64.99" cy="-18" fill="none" rx="64.99" ry="18" stroke="black" />
        <text font-family="Times,serif" font-size="14.00" text-anchor="middle" x="64.99" y="-14.3">
            :core:model
        </text>
    </g>
    <g id="edge10" class="edge">
        <title>:core:datastore-&gt;:core:model</title>
        <path d="M216.74,-74.33C186.25,-63.21 144.27,-47.9 112.2,-36.21" fill="none"
            stroke="black" />
        <polygon fill="black" points="113.18,-32.84 102.58,-32.7 110.78,-39.42 113.18,-32.84"
            stroke="black" />
    </g>
        <g class="edge" id="edge15">
      <title>:core:designsystem-&gt;:core:config</title>
            <path d="M794.91,-72.76C813.29,-62.79 836.98,-49.94 856.59,-39.3" fill="none"
                stroke="black" />
            <polygon fill="black" points="858.44,-42.27 865.56,-34.43 855.11,-36.12 858.44,-42.27"
                stroke="black" />
    </g>
        <g class="edge" id="edge14">
      <title>:core:designsystem-&gt;:core:common</title>
            <path d="M705.63,-75.42C652.62,-63.29 575.24,-45.59 521.34,-33.26" fill="none"
                stroke="black" />
            <polygon fill="black" points="522.09,-29.84 511.56,-31.02 520.52,-36.67 522.09,-29.84"
                stroke="black" />
    </g>
    <g id="node13" class="node">
      <title>:core:accessibility</title>
        <ellipse cx="717.99" cy="-18" fill="none" rx="93.68" ry="18" stroke="black" />
        <text font-family="Times,serif" font-size="14.00" text-anchor="middle" x="717.99" y="-14.3">
            :core:accessibility
        </text>
    </g>
        <g class="edge" id="edge13">
      <title>:core:designsystem-&gt;:core:accessibility</title>
            <path d="M753.62,-72.05C748.1,-63.84 741.35,-53.79 735.22,-44.66" fill="none"
                stroke="black" />
            <polygon fill="black" points="738.07,-42.63 729.59,-36.28 732.26,-46.53 738.07,-42.63"
                stroke="black" />
    </g>
  </g>
</svg>
