<?xml version="1.0" encoding="UTF-8" standalone="no"?>
<!DOCTYPE svg PUBLIC "-//W3C//DTD SVG 1.1//EN" "http://www.w3.org/Graphics/SVG/1.1/DTD/svg11.dtd">
<svg xmlns="http://www.w3.org/2000/svg" xmlns:xlink="http://www.w3.org/1999/xlink" width="1081pt" height="332pt" viewBox="0.00 0.00 1081.43 332.00">
  <g id="graph0" class="graph" transform="scale(1 1) rotate(0) translate(4 328)">
    <title>G</title>
    <polygon fill="white" stroke="transparent" points="-4,4 -4,-328 1077.43,-328 1077.43,4 -4,4"/>
    <g id="node1" class="node">
      <title>:app</title>
      <ellipse fill="none" stroke="black" cx="485.54" cy="-306" rx="30.59" ry="18"/>
      <text text-anchor="middle" x="485.54" y="-302.3" font-family="Times,serif" font-size="14.00">:app</text>
    </g>
    <g id="node2" class="node">
      <title>:feature:settings</title>
      <ellipse fill="none" stroke="black" cx="485.54" cy="-234" rx="87.99" ry="18"/>
      <text text-anchor="middle" x="485.54" y="-230.3" font-family="Times,serif" font-size="14.00">:feature:settings</text>
    </g>
    <g id="edge1" class="edge">
      <title>:app-&gt;:feature:settings</title>
      <path fill="none" stroke="red" stroke-width="2" d="M485.54,-287.7C485.54,-279.98 485.54,-270.71 485.54,-262.11"/>
      <polygon fill="red" stroke="red" stroke-width="2" points="489.04,-262.1 485.54,-252.1 482.04,-262.1 489.04,-262.1"/>
    </g>
    <g id="node3" class="node">
      <title>:feature:aboutme</title>
      <ellipse fill="none" stroke="black" cx="720.54" cy="-234" rx="90.98" ry="18"/>
      <text text-anchor="middle" x="720.54" y="-230.3" font-family="Times,serif" font-size="14.00">:feature:aboutme</text>
    </g>
    <g id="edge2" class="edge">
      <title>:app-&gt;:feature:aboutme</title>
      <path fill="none" stroke="black" d="M512.5,-296.97C548.93,-286.12 614.83,-266.49 662.72,-252.22"/>
      <polygon fill="black" stroke="black" points="663.76,-255.57 672.34,-249.36 661.76,-248.86 663.76,-255.57"/>
    </g>
    <g id="node4" class="node">
      <title>:core:ui</title>
      <ellipse fill="none" stroke="black" cx="438.54" cy="-162" rx="45.49" ry="18"/>
      <text text-anchor="middle" x="438.54" y="-158.3" font-family="Times,serif" font-size="14.00">:core:ui</text>
    </g>
    <g id="edge3" class="edge">
      <title>:app-&gt;:core:ui</title>
      <path fill="none" stroke="black" d="M457.89,-298.29C434.83,-291.07 403.42,-277.09 388.54,-252 380.38,-238.24 382.63,-230.87 388.54,-216 393.16,-204.36 401.69,-193.8 410.41,-185.22"/>
      <polygon fill="black" stroke="black" points="413.03,-187.56 418.02,-178.21 408.29,-182.41 413.03,-187.56"/>
    </g>
    <g id="node5" class="node">
      <title>:core:data</title>
      <ellipse fill="none" stroke="black" cx="184.54" cy="-162" rx="57.39" ry="18"/>
      <text text-anchor="middle" x="184.54" y="-158.3" font-family="Times,serif" font-size="14.00">:core:data</text>
    </g>
    <g id="edge4" class="edge">
      <title>:app-&gt;:core:data</title>
      <path fill="none" stroke="black" d="M459.34,-296.45C430.67,-286.8 383.58,-270.07 344.54,-252 299.65,-231.22 250.2,-202.81 218.33,-183.73"/>
      <polygon fill="black" stroke="black" points="219.8,-180.53 209.43,-178.37 216.19,-186.52 219.8,-180.53"/>
    </g>
    <g id="node6" class="node">
      <title>:core:config</title>
      <ellipse fill="none" stroke="black" cx="603.54" cy="-162" rx="64.19" ry="18"/>
      <text text-anchor="middle" x="603.54" y="-158.3" font-family="Times,serif" font-size="14.00">:core:config</text>
    </g>
    <g id="edge5" class="edge">
      <title>:app-&gt;:core:config</title>
      <path fill="none" stroke="black" d="M512.24,-297.2C534.38,-289.35 564.98,-275.05 582.54,-252 596.04,-234.29 601.05,-209.27 602.82,-190.27"/>
      <polygon fill="black" stroke="black" points="606.32,-190.36 603.52,-180.15 599.34,-189.88 606.32,-190.36"/>
    </g>
    <g id="node7" class="node">
      <title>:core:feedback</title>
      <ellipse fill="none" stroke="black" cx="839.54" cy="-162" rx="77.99" ry="18"/>
      <text text-anchor="middle" x="839.54" y="-158.3" font-family="Times,serif" font-size="14.00">:core:feedback</text>
    </g>
    <g id="edge6" class="edge">
      <title>:app-&gt;:core:feedback</title>
      <path fill="none" stroke="black" d="M516,-304.44C590.1,-302.44 776.95,-293.32 820.54,-252 837.06,-236.34 841.01,-210.11 841.29,-190.17"/>
      <polygon fill="black" stroke="black" points="844.79,-190.08 841.15,-180.13 837.79,-190.18 844.79,-190.08"/>
    </g>
    <g id="node8" class="node">
      <title>:core:auth</title>
      <ellipse fill="none" stroke="black" cx="317.54" cy="-162" rx="57.69" ry="18"/>
      <text text-anchor="middle" x="317.54" y="-158.3" font-family="Times,serif" font-size="14.00">:core:auth</text>
    </g>
    <g id="edge7" class="edge">
      <title>:app-&gt;:core:auth</title>
      <path fill="none" stroke="black" d="M459.6,-296.43C436.47,-287.86 402.65,-272.93 378.54,-252 358.12,-234.27 341.33,-208.23 330.57,-188.89"/>
      <polygon fill="black" stroke="black" points="333.61,-187.15 325.78,-180.01 327.44,-190.47 333.61,-187.15"/>
    </g>
    <g id="edge8" class="edge">
      <title>:feature:settings-&gt;:core:ui</title>
      <path fill="none" stroke="black" d="M474.16,-216.05C468.56,-207.71 461.7,-197.49 455.5,-188.25"/>
      <polygon fill="black" stroke="black" points="458.29,-186.14 449.81,-179.79 452.48,-190.04 458.29,-186.14"/>
    </g>
    <g id="edge10" class="edge">
      <title>:feature:settings-&gt;:core:data</title>
      <path fill="none" stroke="red" stroke-width="2" d="M427.48,-220.42C379.85,-209.97 310.71,-194.53 250.54,-180 246.15,-178.94 241.61,-177.82 237.05,-176.68"/>
      <polygon fill="red" stroke="red" stroke-width="2" points="237.65,-173.22 227.1,-174.16 235.93,-180.01 237.65,-173.22"/>
    </g>
    <g id="edge11" class="edge">
      <title>:feature:settings-&gt;:core:config</title>
      <path fill="none" stroke="black" d="M512.91,-216.76C529.37,-207 550.51,-194.46 568.22,-183.95"/>
      <polygon fill="black" stroke="black" points="570.32,-186.78 577.13,-178.67 566.75,-180.76 570.32,-186.78"/>
    </g>
    <g id="edge12" class="edge">
      <title>:feature:settings-&gt;:core:feedback</title>
      <path fill="none" stroke="black" d="M546.4,-220.97C609.26,-208.54 707.11,-189.19 772.24,-176.31"/>
      <polygon fill="black" stroke="black" points="773.27,-179.67 782.4,-174.3 771.92,-172.8 773.27,-179.67"/>
    </g>
    <g id="edge13" class="edge">
      <title>:feature:settings-&gt;:core:auth</title>
      <path fill="none" stroke="black" d="M448.67,-217.64C422.49,-206.73 387.28,-192.06 359.94,-180.67"/>
      <polygon fill="black" stroke="black" points="361.2,-177.4 350.62,-176.78 358.51,-183.86 361.2,-177.4"/>
    </g>
    <g id="node9" class="node">
      <title>:core:designsystem</title>
      <ellipse fill="none" stroke="black" cx="824.54" cy="-90" rx="100.98" ry="18"/>
      <text text-anchor="middle" x="824.54" y="-86.3" font-family="Times,serif" font-size="14.00">:core:designsystem</text>
    </g>
    <g id="edge9" class="edge">
      <title>:feature:settings-&gt;:core:designsystem</title>
      <path fill="none" stroke="black" d="M489.28,-215.93C494.7,-195.46 506.8,-161.69 530.54,-144 560.87,-121.39 652.11,-107.34 724.99,-99.43"/>
      <polygon fill="black" stroke="black" points="725.57,-102.89 735.14,-98.36 724.83,-95.93 725.57,-102.89"/>
    </g>
    <g id="edge23" class="edge">
      <title>:feature:aboutme-&gt;:core:ui</title>
      <path fill="none" stroke="black" d="M666.17,-219.5C613.91,-206.53 535.73,-187.13 485.95,-174.77"/>
      <polygon fill="black" stroke="black" points="486.63,-171.33 476.08,-172.32 484.94,-178.12 486.63,-171.33"/>
    </g>
    <g id="edge26" class="edge">
      <title>:feature:aboutme-&gt;:core:config</title>
      <path fill="none" stroke="black" d="M693.4,-216.76C677.08,-207 656.13,-194.46 638.56,-183.95"/>
      <polygon fill="black" stroke="black" points="640.1,-180.8 629.72,-178.67 636.51,-186.8 640.1,-180.8"/>
    </g>
    <g id="edge28" class="edge">
      <title>:feature:aboutme-&gt;:core:feedback</title>
      <path fill="none" stroke="black" d="M748.14,-216.76C764.63,-207.07 785.76,-194.64 803.54,-184.17"/>
      <polygon fill="black" stroke="black" points="805.66,-186.99 812.5,-178.91 802.11,-180.96 805.66,-186.99"/>
    </g>
    <g id="edge24" class="edge">
      <title>:feature:aboutme-&gt;:core:designsystem</title>
      <path fill="none" stroke="black" d="M723.58,-215.84C727.63,-196.79 736.25,-165.85 752.54,-144 761.5,-131.98 773.94,-121.49 785.97,-113.08"/>
      <polygon fill="black" stroke="black" points="788.21,-115.8 794.6,-107.34 784.33,-109.97 788.21,-115.8"/>
    </g>
    <g id="node12" class="node">
      <title>:core:common</title>
      <ellipse fill="none" stroke="black" cx="666.54" cy="-18" rx="75.29" ry="18"/>
      <text text-anchor="middle" x="666.54" y="-14.3" font-family="Times,serif" font-size="14.00">:core:common</text>
    </g>
    <g id="edge25" class="edge">
      <title>:feature:aboutme-&gt;:core:common</title>
      <path fill="none" stroke="black" d="M716.21,-215.85C706.85,-178.75 684.66,-90.81 673.38,-46.1"/>
      <polygon fill="black" stroke="black" points="676.73,-45.07 670.89,-36.23 669.94,-46.78 676.73,-45.07"/>
    </g>
    <g id="node16" class="node">
      <title>:core:shapes</title>
      <ellipse fill="none" stroke="black" cx="1004.54" cy="-162" rx="68.79" ry="18"/>
      <text text-anchor="middle" x="1004.54" y="-158.3" font-family="Times,serif" font-size="14.00">:core:shapes</text>
    </g>
    <g id="edge27" class="edge">
      <title>:feature:aboutme-&gt;:core:shapes</title>
      <path fill="none" stroke="black" d="M775.3,-219.5C824.41,-207.4 896.25,-189.69 946.38,-177.34"/>
      <polygon fill="black" stroke="black" points="947.23,-180.73 956.1,-174.94 945.56,-173.93 947.23,-180.73"/>
    </g>
    <g id="node10" class="node">
      <title>:core:analytics</title>
      <ellipse fill="none" stroke="black" cx="400.54" cy="-90" rx="77.99" ry="18"/>
      <text text-anchor="middle" x="400.54" y="-86.3" font-family="Times,serif" font-size="14.00">:core:analytics</text>
    </g>
    <g id="edge14" class="edge">
      <title>:core:ui-&gt;:core:analytics</title>
      <path fill="none" stroke="black" d="M429.34,-144.05C424.97,-136.01 419.65,-126.2 414.78,-117.23"/>
      <polygon fill="black" stroke="black" points="417.77,-115.39 409.92,-108.28 411.61,-118.73 417.77,-115.39"/>
    </g>
    <g id="edge18" class="edge">
      <title>:core:data-&gt;:core:analytics</title>
      <path fill="none" stroke="black" d="M223.16,-148.49C257.69,-137.29 308.63,-120.79 347.07,-108.33"/>
      <polygon fill="black" stroke="black" points="348.63,-111.5 357.06,-105.09 346.47,-104.84 348.63,-111.5"/>
    </g>
    <g id="node13" class="node">
      <title>:core:datastore</title>
      <ellipse fill="none" stroke="black" cx="204.54" cy="-90" rx="81.49" ry="18"/>
      <text text-anchor="middle" x="204.54" y="-86.3" font-family="Times,serif" font-size="14.00">:core:datastore</text>
    </g>
    <g id="edge17" class="edge">
      <title>:core:data-&gt;:core:datastore</title>
      <path fill="none" stroke="red" stroke-width="2" d="M189.38,-144.05C191.61,-136.26 194.31,-126.82 196.8,-118.08"/>
      <polygon fill="red" stroke="red" stroke-width="2" points="200.22,-118.85 199.6,-108.28 193.49,-116.93 200.22,-118.85"/>
    </g>
    <g id="edge22" class="edge">
      <title>:core:feedback-&gt;:core:designsystem</title>
      <path fill="none" stroke="black" d="M835.83,-143.7C834.18,-135.98 832.19,-126.71 830.35,-118.11"/>
      <polygon fill="black" stroke="black" points="833.72,-117.15 828.21,-108.1 826.88,-118.62 833.72,-117.15"/>
    </g>
    <g id="node11" class="node">
      <title>:core:accessibility</title>
      <ellipse fill="none" stroke="black" cx="853.54" cy="-18" rx="93.68" ry="18"/>
      <text text-anchor="middle" x="853.54" y="-14.3" font-family="Times,serif" font-size="14.00">:core:accessibility</text>
    </g>
    <g id="edge15" class="edge">
      <title>:core:designsystem-&gt;:core:accessibility</title>
      <path fill="none" stroke="black" d="M831.71,-71.7C834.97,-63.81 838.91,-54.3 842.54,-45.55"/>
      <polygon fill="black" stroke="black" points="845.86,-46.68 846.45,-36.1 839.39,-44 845.86,-46.68"/>
    </g>
    <g id="edge16" class="edge">
      <title>:core:designsystem-&gt;:core:common</title>
      <path fill="none" stroke="black" d="M788.69,-73.12C765.27,-62.74 734.57,-49.14 709.8,-38.17"/>
      <polygon fill="black" stroke="black" points="711.19,-34.95 700.63,-34.1 708.35,-41.35 711.19,-34.95"/>
    </g>
    <g id="edge21" class="edge">
      <title>:core:datastore-&gt;:core:common</title>
      <path fill="none" stroke="black" d="M268.8,-78.92C283.5,-76.63 299.06,-74.22 313.54,-72 410.61,-57.14 522.76,-40.37 594.13,-29.75"/>
      <polygon fill="black" stroke="black" points="594.98,-33.16 604.35,-28.23 593.95,-26.24 594.98,-33.16"/>
    </g>
    <g id="node14" class="node">
      <title>:core:datastore-proto</title>
      <ellipse fill="none" stroke="black" cx="108.54" cy="-18" rx="108.58" ry="18"/>
      <text text-anchor="middle" x="108.54" y="-14.3" font-family="Times,serif" font-size="14.00">:core:datastore-proto</text>
    </g>
    <g id="edge19" class="edge">
      <title>:core:datastore-&gt;:core:datastore-proto</title>
      <path fill="none" stroke="red" stroke-width="2" d="M181.79,-72.41C169.21,-63.24 153.39,-51.7 139.68,-41.71"/>
      <polygon fill="red" stroke="red" stroke-width="2" points="141.6,-38.78 131.46,-35.71 137.48,-44.43 141.6,-38.78"/>
    </g>
    <g id="node15" class="node">
      <title>:core:model</title>
      <ellipse fill="none" stroke="black" cx="300.54" cy="-18" rx="64.99" ry="18"/>
      <text text-anchor="middle" x="300.54" y="-14.3" font-family="Times,serif" font-size="14.00">:core:model</text>
    </g>
    <g id="edge20" class="edge">
      <title>:core:datastore-&gt;:core:model</title>
      <path fill="none" stroke="black" d="M227.29,-72.41C240.15,-63.04 256.38,-51.2 270.3,-41.05"/>
      <polygon fill="black" stroke="black" points="272.6,-43.71 278.61,-34.99 268.47,-38.05 272.6,-43.71"/>
    </g>
  </g>
</svg>
