<?xml version="1.0" encoding="UTF-8" standalone="no"?>
<!DOCTYPE svg PUBLIC "-//W3C//DTD SVG 1.1//EN" "http://www.w3.org/Graphics/SVG/1.1/DTD/svg11.dtd">
<svg height="260pt" viewBox="0.00 0.00 726.89 260.00" width="727pt" xmlns="http://www.w3.org/2000/svg">
  <g id="graph0" class="graph" transform="scale(1 1) rotate(0) translate(4 256)">
    <title>G</title>
      <polygon fill="white" points="-4,4 -4,-256 722.89,-256 722.89,4 -4,4" stroke="transparent" />
    <g id="node1" class="node">
      <title>:feature:aboutme</title>
        <ellipse cx="533.99" cy="-234" fill="none" rx="90.98" ry="18" stroke="black" />
        <text font-family="Times,serif" font-size="14.00" text-anchor="middle" x="533.99"
            y="-230.3">:feature:aboutme
        </text>
    </g>
    <g id="node2" class="node">
      <title>:core:feedback</title>
        <ellipse cx="385.99" cy="-162" fill="none" rx="77.99" ry="18" stroke="black" />
        <text font-family="Times,serif" font-size="14.00" text-anchor="middle" x="385.99"
            y="-158.3">:core:feedback
        </text>
    </g>
    <g id="edge1" class="edge">
      <title>:feature:aboutme-&gt;:core:feedback</title>
        <path d="M500.41,-217.12C478.9,-206.94 450.81,-193.66 427.85,-182.8" fill="none" stroke="red"
            stroke-width="2" />
        <polygon fill="red" points="429.22,-179.57 418.68,-178.46 426.22,-185.9 429.22,-179.57" stroke="red"
            stroke-width="2" />
    </g>
    <g id="node3" class="node">
        <title>:core:common</title>
        <ellipse cx="454.99" cy="-18" fill="none" rx="75.29" ry="18" stroke="black" />
        <text font-family="Times,serif" font-size="14.00" text-anchor="middle" x="454.99" y="-14.3">
            :core:common
        </text>
    </g>
      <g class="edge" id="edge2">
          <title>:feature:aboutme-&gt;:core:common</title>
          <path d="M532.35,-215.76C528.94,-185.4 519.36,-120.99 495.99,-72 491.26,-62.08 484.43,-52.26 477.71,-43.82" fill="none"
              stroke="black" />
          <polygon fill="black" points="480.18,-41.33 471.09,-35.89 474.81,-45.81 480.18,-41.33"
              stroke="black" />
    </g>
      <g class="node" id="node4">
          <title>:core:config</title>
          <ellipse cx="612.99" cy="-18" fill="none" rx="64.19" ry="18" stroke="black" />
          <text font-family="Times,serif" font-size="14.00" text-anchor="middle" x="612.99"
              y="-14.3">:core:config
          </text>
    </g>
      <g class="edge" id="edge3">
          <title>:feature:aboutme-&gt;:core:config</title>
          <path d="M540.32,-215.85C554.08,-178.58 586.78,-90 603.21,-45.49" fill="none"
              stroke="black" />
          <polygon fill="black" points="606.56,-46.53 606.74,-35.94 599.99,-44.1 606.56,-46.53"
              stroke="black" />
    </g>
      <g class="node" id="node5">
          <title>:core:shapes</title>
          <ellipse cx="649.99" cy="-162" fill="none" rx="68.79" ry="18" stroke="black" />
          <text font-family="Times,serif" font-size="14.00" text-anchor="middle" x="649.99"
              y="-158.3">:core:shapes
          </text>
    </g>
      <g class="edge" id="edge4">
          <title>:feature:aboutme-&gt;:core:shapes</title>
          <path d="M560.9,-216.76C576.97,-207.07 597.57,-194.64 614.9,-184.17" fill="none"
              stroke="black" />
          <polygon fill="black" points="616.88,-187.07 623.63,-178.91 613.26,-181.08 616.88,-187.07"
              stroke="black" />
    </g>
      <g class="node" id="node6">
          <title>:core:designsystem</title>
          <ellipse cx="385.99" cy="-90" fill="none" rx="100.98" ry="18" stroke="black" />
          <text font-family="Times,serif" font-size="14.00" text-anchor="middle" x="385.99"
              y="-86.3">:core:designsystem
          </text>
    </g>
      <g class="edge" id="edge5">
          <title>:core:feedback-&gt;:core:designsystem</title>
          <path d="M385.99,-143.7C385.99,-135.98 385.99,-126.71 385.99,-118.11" fill="none" stroke="red"
              stroke-width="2" />
          <polygon fill="red" points="389.49,-118.1 385.99,-108.1 382.49,-118.1 389.49,-118.1" stroke="red"
              stroke-width="2" />
    </g>
      <g class="node" id="node7">
          <title>:core:ui</title>
          <ellipse cx="179.99" cy="-90" fill="none" rx="45.49" ry="18" stroke="black" />
          <text font-family="Times,serif" font-size="14.00" text-anchor="middle" x="179.99"
              y="-86.3">:core:ui
          </text>
    </g>
      <g class="edge" id="edge6">
          <title>:core:feedback-&gt;:core:ui</title>
          <path d="M343.81,-146.67C308.52,-134.67 258.39,-117.64 222.9,-105.58" fill="none"
              stroke="black" />
          <polygon fill="black" points="223.89,-102.22 213.3,-102.32 221.64,-108.85 223.89,-102.22"
              stroke="black" />
    </g>
      <g class="edge" id="edge8">
      <title>:core:designsystem-&gt;:core:common</title>
          <path d="M402.7,-72.05C411.26,-63.37 421.83,-52.64 431.22,-43.11" fill="none"
              stroke="black" />
          <polygon fill="black" points="433.92,-45.37 438.44,-35.79 428.93,-40.45 433.92,-45.37"
              stroke="black" />
    </g>
      <g class="edge" id="edge9">
      <title>:core:designsystem-&gt;:core:config</title>
          <path d="M434.13,-74.15C471.53,-62.62 523.28,-46.67 561.5,-34.88" fill="none"
              stroke="black" />
          <polygon fill="black" points="562.87,-38.12 571.4,-31.83 560.81,-31.43 562.87,-38.12"
              stroke="black" />
    </g>
    <g id="node8" class="node">
      <title>:core:accessibility</title>
        <ellipse cx="267.99" cy="-18" fill="none" rx="93.68" ry="18" stroke="black" />
        <text font-family="Times,serif" font-size="14.00" text-anchor="middle" x="267.99" y="-14.3">
            :core:accessibility
        </text>
    </g>
      <g class="edge" id="edge7">
      <title>:core:designsystem-&gt;:core:accessibility</title>
          <path d="M358.33,-72.59C342.2,-63.02 321.68,-50.85 304.27,-40.52" fill="none" stroke="red"
              stroke-width="2" />
          <polygon fill="red" points="305.87,-37.4 295.49,-35.31 302.3,-43.42 305.87,-37.4" stroke="red"
              stroke-width="2" />
      </g>
      <g class="node" id="node9">
          <title>:core:analytics</title>
          <ellipse cx="77.99" cy="-18" fill="none" rx="77.99" ry="18" stroke="black" />
          <text font-family="Times,serif" font-size="14.00" text-anchor="middle" x="77.99"
              y="-14.3">:core:analytics
          </text>
      </g>
      <g class="edge" id="edge10">
          <title>:core:ui-&gt;:core:analytics</title>
          <path d="M158.36,-74.15C144.35,-64.54 125.85,-51.84 110.13,-41.05" fill="none"
              stroke="black" />
          <polygon fill="black" points="111.96,-38.06 101.73,-35.29 108,-43.83 111.96,-38.06"
              stroke="black" />
    </g>
  </g>
</svg>
