<?xml version="1.0" encoding="UTF-8" standalone="no"?>
<!DOCTYPE svg PUBLIC "-//W3C//DTD SVG 1.1//EN" "http://www.w3.org/Graphics/SVG/1.1/DTD/svg11.dtd">
<svg xmlns="http://www.w3.org/2000/svg" xmlns:xlink="http://www.w3.org/1999/xlink" width="792pt" height="332pt" viewBox="0.00 0.00 791.81 332.00">
  <g id="graph0" class="graph" transform="scale(1 1) rotate(0) translate(4 328)">
    <title>G</title>
    <polygon fill="white" stroke="transparent" points="-4,4 -4,-328 787.81,-328 787.81,4 -4,4"/>
    <g id="node1" class="node">
      <title>:feature:settings</title>
      <ellipse fill="none" stroke="black" cx="477.99" cy="-306" rx="87.99" ry="18"/>
      <text text-anchor="middle" x="477.99" y="-302.3" font-family="Times,serif" font-size="14.00">:feature:settings</text>
    </g>
    <g id="node2" class="node">
      <title>:core:auth</title>
      <ellipse fill="none" stroke="black" cx="338.99" cy="-234" rx="57.69" ry="18"/>
      <text text-anchor="middle" x="338.99" y="-230.3" font-family="Times,serif" font-size="14.00">:core:auth</text>
    </g>
    <g id="edge1" class="edge">
      <title>:feature:settings-&gt;:core:auth</title>
      <path fill="none" stroke="red" stroke-width="2" d="M446.45,-289.12C425.85,-278.74 398.82,-265.13 377.03,-254.15"/>
      <polygon fill="red" stroke="red" stroke-width="2" points="378.55,-251 368.04,-249.63 375.4,-257.25 378.55,-251"/>
    </g>
    <g id="node3" class="node">
      <title>:core:config</title>
      <ellipse fill="none" stroke="black" cx="497.99" cy="-90" rx="64.19" ry="18"/>
      <text text-anchor="middle" x="497.99" y="-86.3" font-family="Times,serif" font-size="14.00">:core:config</text>
    </g>
    <g id="edge2" class="edge">
      <title>:feature:settings-&gt;:core:config</title>
      <path fill="none" stroke="black" d="M479.6,-287.85C483.06,-250.83 491.25,-163.18 495.43,-118.39"/>
      <polygon fill="black" stroke="black" points="498.94,-118.51 496.38,-108.23 491.97,-117.86 498.94,-118.51"/>
    </g>
    <g id="node4" class="node">
      <title>:core:feedback</title>
      <ellipse fill="none" stroke="black" cx="614.99" cy="-234" rx="77.99" ry="18"/>
      <text text-anchor="middle" x="614.99" y="-230.3" font-family="Times,serif" font-size="14.00">:core:feedback</text>
    </g>
    <g id="edge3" class="edge">
      <title>:feature:settings-&gt;:core:feedback</title>
      <path fill="none" stroke="black" d="M509.08,-289.12C528.75,-279.07 554.35,-265.98 575.46,-255.2"/>
      <polygon fill="black" stroke="black" points="577.19,-258.25 584.5,-250.58 574,-252.01 577.19,-258.25"/>
    </g>
    <g id="node5" class="node">
      <title>:core:ui</title>
      <ellipse fill="none" stroke="black" cx="424.99" cy="-162" rx="45.49" ry="18"/>
      <text text-anchor="middle" x="424.99" y="-158.3" font-family="Times,serif" font-size="14.00">:core:ui</text>
    </g>
    <g id="edge4" class="edge">
      <title>:feature:settings-&gt;:core:ui</title>
      <path fill="none" stroke="black" d="M471.6,-287.87C462.49,-263.46 445.68,-218.43 434.94,-189.64"/>
      <polygon fill="black" stroke="black" points="438.19,-188.33 431.41,-180.19 431.63,-190.78 438.19,-188.33"/>
    </g>
    <g id="node6" class="node">
      <title>:core:data</title>
      <ellipse fill="none" stroke="black" cx="303.99" cy="-162" rx="57.39" ry="18"/>
      <text text-anchor="middle" x="303.99" y="-158.3" font-family="Times,serif" font-size="14.00">:core:data</text>
    </g>
    <g id="edge5" class="edge">
      <title>:core:auth-&gt;:core:data</title>
      <path fill="none" stroke="red" stroke-width="2" d="M330.52,-216.05C326.5,-208.01 321.6,-198.2 317.11,-189.23"/>
      <polygon fill="red" stroke="red" stroke-width="2" points="320.23,-187.65 312.63,-180.28 313.97,-190.78 320.23,-187.65"/>
    </g>
    <g id="node12" class="node">
      <title>:core:designsystem</title>
      <ellipse fill="none" stroke="black" cx="649.99" cy="-162" rx="100.98" ry="18"/>
      <text text-anchor="middle" x="649.99" y="-158.3" font-family="Times,serif" font-size="14.00">:core:designsystem</text>
    </g>
    <g id="edge11" class="edge">
      <title>:core:feedback-&gt;:core:designsystem</title>
      <path fill="none" stroke="black" d="M623.47,-216.05C627.49,-208.01 632.39,-198.2 636.88,-189.23"/>
      <polygon fill="black" stroke="black" points="640.01,-190.78 641.36,-180.28 633.75,-187.65 640.01,-190.78"/>
    </g>
    <g id="node8" class="node">
      <title>:core:analytics</title>
      <ellipse fill="none" stroke="black" cx="337.99" cy="-90" rx="77.99" ry="18"/>
      <text text-anchor="middle" x="337.99" y="-86.3" font-family="Times,serif" font-size="14.00">:core:analytics</text>
    </g>
    <g id="edge15" class="edge">
      <title>:core:ui-&gt;:core:analytics</title>
      <path fill="none" stroke="black" d="M405.69,-145.46C394.19,-136.21 379.38,-124.3 366.55,-113.98"/>
      <polygon fill="black" stroke="black" points="368.45,-111.01 358.46,-107.47 364.06,-116.46 368.45,-111.01"/>
    </g>
    <g id="node7" class="node">
      <title>:core:datastore</title>
      <ellipse fill="none" stroke="black" cx="160.99" cy="-90" rx="81.49" ry="18"/>
      <text text-anchor="middle" x="160.99" y="-86.3" font-family="Times,serif" font-size="14.00">:core:datastore</text>
    </g>
    <g id="edge6" class="edge">
      <title>:core:data-&gt;:core:datastore</title>
      <path fill="none" stroke="red" stroke-width="2" d="M274.36,-146.5C253.44,-136.25 225.13,-122.4 202.04,-111.09"/>
      <polygon fill="red" stroke="red" stroke-width="2" points="203.34,-107.83 192.82,-106.58 200.26,-114.12 203.34,-107.83"/>
    </g>
    <g id="edge7" class="edge">
      <title>:core:data-&gt;:core:analytics</title>
      <path fill="none" stroke="black" d="M312.22,-144.05C316.09,-136.09 320.79,-126.41 325.12,-117.51"/>
      <polygon fill="black" stroke="black" points="328.38,-118.8 329.6,-108.28 322.09,-115.74 328.38,-118.8"/>
    </g>
    <g id="node9" class="node">
      <title>:core:datastore-proto</title>
      <ellipse fill="none" stroke="black" cx="256.99" cy="-18" rx="108.58" ry="18"/>
      <text text-anchor="middle" x="256.99" y="-14.3" font-family="Times,serif" font-size="14.00">:core:datastore-proto</text>
    </g>
    <g id="edge8" class="edge">
      <title>:core:datastore-&gt;:core:datastore-proto</title>
      <path fill="none" stroke="red" stroke-width="2" d="M183.74,-72.41C196.33,-63.24 212.14,-51.7 225.86,-41.71"/>
      <polygon fill="red" stroke="red" stroke-width="2" points="228.06,-44.43 234.07,-35.71 223.93,-38.78 228.06,-44.43"/>
    </g>
    <g id="node10" class="node">
      <title>:core:model</title>
      <ellipse fill="none" stroke="black" cx="64.99" cy="-18" rx="64.99" ry="18"/>
      <text text-anchor="middle" x="64.99" y="-14.3" font-family="Times,serif" font-size="14.00">:core:model</text>
    </g>
    <g id="edge9" class="edge">
      <title>:core:datastore-&gt;:core:model</title>
      <path fill="none" stroke="black" d="M138.24,-72.41C125.39,-63.04 109.15,-51.2 95.24,-41.05"/>
      <polygon fill="black" stroke="black" points="97.06,-38.05 86.92,-34.99 92.94,-43.71 97.06,-38.05"/>
    </g>
    <g id="node11" class="node">
      <title>:core:common</title>
      <ellipse fill="none" stroke="black" cx="626.99" cy="-18" rx="75.29" ry="18"/>
      <text text-anchor="middle" x="626.99" y="-14.3" font-family="Times,serif" font-size="14.00">:core:common</text>
    </g>
    <g id="edge10" class="edge">
      <title>:core:datastore-&gt;:core:common</title>
      <path fill="none" stroke="black" d="M219.99,-77.45C230.31,-75.55 240.95,-73.66 250.99,-72 355.11,-54.84 476.02,-38.42 552.02,-28.52"/>
      <polygon fill="black" stroke="black" points="552.52,-31.99 561.98,-27.23 551.61,-25.04 552.52,-31.99"/>
    </g>
    <g id="edge14" class="edge">
      <title>:core:designsystem-&gt;:core:config</title>
      <path fill="none" stroke="black" d="M615.12,-144.94C592.45,-134.5 562.79,-120.84 538.99,-109.88"/>
      <polygon fill="black" stroke="black" points="540.4,-106.68 529.85,-105.67 537.47,-113.03 540.4,-106.68"/>
    </g>
    <g id="edge13" class="edge">
      <title>:core:designsystem-&gt;:core:common</title>
      <path fill="none" stroke="black" d="M717.91,-148.55C740.58,-140.81 763.48,-128.28 776.99,-108 785.87,-94.68 786.23,-85.06 776.99,-72 760.45,-48.6 732.67,-35.47 705.49,-28.11"/>
      <polygon fill="black" stroke="black" points="706.07,-24.65 695.52,-25.66 704.4,-31.45 706.07,-24.65"/>
    </g>
    <g id="node13" class="node">
      <title>:core:accessibility</title>
      <ellipse fill="none" stroke="black" cx="673.99" cy="-90" rx="93.68" ry="18"/>
      <text text-anchor="middle" x="673.99" y="-86.3" font-family="Times,serif" font-size="14.00">:core:accessibility</text>
    </g>
    <g id="edge12" class="edge">
      <title>:core:designsystem-&gt;:core:accessibility</title>
      <path fill="none" stroke="black" d="M655.93,-143.7C658.6,-135.9 661.82,-126.51 664.8,-117.83"/>
      <polygon fill="black" stroke="black" points="668.2,-118.7 668.13,-108.1 661.58,-116.43 668.2,-118.7"/>
    </g>
  </g>
</svg>
