<?xml version="1.0" encoding="UTF-8" standalone="no"?>
<!DOCTYPE svg PUBLIC "-//W3C//DTD SVG 1.1//EN" "http://www.w3.org/Graphics/SVG/1.1/DTD/svg11.dtd">
<svg height="260pt" viewBox="0.00 0.00 904.59 260.00" width="905pt" xmlns="http://www.w3.org/2000/svg">
  <g id="graph0" class="graph" transform="scale(1 1) rotate(0) translate(4 256)">
    <title>G</title>
    <polygon fill="white" stroke="transparent" points="-4,4 -4,-256 900.59,-256 900.59,4 -4,4"/>
    <g id="node1" class="node">
      <title>:feature:dashboard</title>
      <ellipse fill="none" stroke="black" cx="450.59" cy="-234" rx="98.58" ry="18"/>
      <text text-anchor="middle" x="450.59" y="-230.3" font-family="Times,serif" font-size="14.00">:feature:dashboard</text>
    </g>
    <g id="node2" class="node">
      <title>:core:feedback</title>
      <ellipse fill="none" stroke="black" cx="295.59" cy="-162" rx="77.99" ry="18"/>
      <text text-anchor="middle" x="295.59" y="-158.3" font-family="Times,serif" font-size="14.00">:core:feedback</text>
    </g>
    <g id="edge1" class="edge">
      <title>:feature:dashboard-&gt;:core:feedback</title>
      <path fill="none" stroke="red" stroke-width="2" d="M415.42,-217.12C392.71,-206.86 363.01,-193.45 338.85,-182.54"/>
      <polygon fill="red" stroke="red" stroke-width="2" points="340.11,-179.27 329.56,-178.34 337.23,-185.65 340.11,-179.27"/>
    </g>
    <g id="node3" class="node">
      <title>:core:ui</title>
      <ellipse fill="none" stroke="black" cx="450.59" cy="-162" rx="45.49" ry="18"/>
      <text text-anchor="middle" x="450.59" y="-158.3" font-family="Times,serif" font-size="14.00">:core:ui</text>
    </g>
    <g id="edge2" class="edge">
      <title>:feature:dashboard-&gt;:core:ui</title>
      <path fill="none" stroke="black" d="M450.59,-215.7C450.59,-207.98 450.59,-198.71 450.59,-190.11"/>
      <polygon fill="black" stroke="black" points="454.09,-190.1 450.59,-180.1 447.09,-190.1 454.09,-190.1"/>
    </g>
    <g id="node4" class="node">
      <title>:core:data</title>
      <ellipse fill="none" stroke="black" cx="571.59" cy="-162" rx="57.39" ry="18"/>
      <text text-anchor="middle" x="571.59" y="-158.3" font-family="Times,serif" font-size="14.00">:core:data</text>
    </g>
    <g id="edge3" class="edge">
      <title>:feature:dashboard-&gt;:core:data</title>
      <path fill="none" stroke="black" d="M478.96,-216.59C496.17,-206.63 518.27,-193.85 536.56,-183.27"/>
      <polygon fill="black" stroke="black" points="538.56,-186.15 545.47,-178.11 535.06,-180.09 538.56,-186.15"/>
    </g>
    <g id="node5" class="node">
      <title>:core:designsystem</title>
      <ellipse fill="none" stroke="black" cx="267.59" cy="-90" rx="100.98" ry="18"/>
      <text text-anchor="middle" x="267.59" y="-86.3" font-family="Times,serif" font-size="14.00">:core:designsystem</text>
    </g>
    <g id="edge4" class="edge">
      <title>:core:feedback-&gt;:core:designsystem</title>
      <path fill="none" stroke="red" stroke-width="2" d="M288.81,-144.05C285.66,-136.18 281.84,-126.62 278.31,-117.79"/>
      <polygon fill="red" stroke="red" stroke-width="2" points="281.47,-116.26 274.5,-108.28 274.97,-118.86 281.47,-116.26"/>
    </g>
    <g id="node9" class="node">
      <title>:core:analytics</title>
      <ellipse fill="none" stroke="black" cx="464.59" cy="-90" rx="77.99" ry="18"/>
      <text text-anchor="middle" x="464.59" y="-86.3" font-family="Times,serif" font-size="14.00">:core:analytics</text>
    </g>
    <g id="edge8" class="edge">
      <title>:core:ui-&gt;:core:analytics</title>
      <path fill="none" stroke="black" d="M454.05,-143.7C455.6,-135.98 457.45,-126.71 459.17,-118.11"/>
      <polygon fill="black" stroke="black" points="462.64,-118.6 461.17,-108.1 455.78,-117.22 462.64,-118.6"/>
    </g>
    <g id="edge10" class="edge">
      <title>:core:data-&gt;:core:analytics</title>
      <path fill="none" stroke="black" d="M547.84,-145.46C533.2,-135.88 514.18,-123.44 498.02,-112.87"/>
      <polygon fill="black" stroke="black" points="499.67,-109.77 489.39,-107.22 495.84,-115.63 499.67,-109.77"/>
    </g>
    <g id="node10" class="node">
      <title>:core:datastore</title>
      <ellipse fill="none" stroke="black" cx="641.59" cy="-90" rx="81.49" ry="18"/>
      <text text-anchor="middle" x="641.59" y="-86.3" font-family="Times,serif" font-size="14.00">:core:datastore</text>
    </g>
    <g id="edge9" class="edge">
      <title>:core:data-&gt;:core:datastore</title>
      <path fill="none" stroke="black" d="M588.18,-144.41C596.94,-135.65 607.86,-124.73 617.53,-115.06"/>
      <polygon fill="black" stroke="black" points="620.04,-117.5 624.64,-107.96 615.09,-112.55 620.04,-117.5"/>
    </g>
    <g id="node6" class="node">
      <title>:core:accessibility</title>
      <ellipse fill="none" stroke="black" cx="93.59" cy="-18" rx="93.68" ry="18"/>
      <text text-anchor="middle" x="93.59" y="-14.3" font-family="Times,serif" font-size="14.00">:core:accessibility</text>
    </g>
    <g id="edge5" class="edge">
      <title>:core:designsystem-&gt;:core:accessibility</title>
      <path fill="none" stroke="red" stroke-width="2" d="M228.54,-73.29C202.82,-62.94 168.96,-49.32 141.6,-38.31"/>
      <polygon fill="red" stroke="red" stroke-width="2" points="142.79,-35.02 132.21,-34.54 140.18,-41.52 142.79,-35.02"/>
    </g>
    <g id="node7" class="node">
      <title>:core:common</title>
      <ellipse fill="none" stroke="black" cx="434.59" cy="-18" rx="75.29" ry="18"/>
      <text text-anchor="middle" x="434.59" y="-14.3" font-family="Times,serif" font-size="14.00">:core:common</text>
    </g>
    <g id="edge6" class="edge">
      <title>:core:designsystem-&gt;:core:common</title>
      <path fill="none" stroke="black" d="M305.07,-73.29C330.08,-62.81 363.1,-48.97 389.54,-37.88"/>
      <polygon fill="black" stroke="black" points="391.09,-41.03 398.95,-33.94 388.38,-34.58 391.09,-41.03"/>
    </g>
    <g id="node8" class="node">
      <title>:core:config</title>
      <ellipse fill="none" stroke="black" cx="269.59" cy="-18" rx="64.19" ry="18"/>
      <text text-anchor="middle" x="269.59" y="-14.3" font-family="Times,serif" font-size="14.00">:core:config</text>
    </g>
    <g id="edge7" class="edge">
      <title>:core:designsystem-&gt;:core:config</title>
      <path fill="none" stroke="black" d="M268.09,-71.7C268.31,-63.98 268.57,-54.71 268.82,-46.11"/>
      <polygon fill="black" stroke="black" points="272.32,-46.2 269.1,-36.1 265.32,-46 272.32,-46.2"/>
    </g>
    <g id="edge13" class="edge">
      <title>:core:datastore-&gt;:core:common</title>
      <path fill="none" stroke="black" d="M598.95,-74.58C566.06,-63.46 520.46,-48.04 485.63,-36.26"/>
      <polygon fill="black" stroke="black" points="486.71,-32.93 476.12,-33.04 484.47,-39.56 486.71,-32.93"/>
    </g>
    <g id="node11" class="node">
      <title>:core:datastore-proto</title>
      <ellipse fill="none" stroke="black" cx="639.59" cy="-18" rx="108.58" ry="18"/>
      <text text-anchor="middle" x="639.59" y="-14.3" font-family="Times,serif" font-size="14.00">:core:datastore-proto</text>
    </g>
    <g id="edge11" class="edge">
      <title>:core:datastore-&gt;:core:datastore-proto</title>
      <path fill="none" stroke="black" d="M641.1,-71.7C640.88,-63.98 640.61,-54.71 640.37,-46.11"/>
      <polygon fill="black" stroke="black" points="643.86,-46 640.08,-36.1 636.87,-46.2 643.86,-46"/>
    </g>
    <g id="node12" class="node">
      <title>:core:model</title>
      <ellipse fill="none" stroke="black" cx="831.59" cy="-18" rx="64.99" ry="18"/>
      <text text-anchor="middle" x="831.59" y="-14.3" font-family="Times,serif" font-size="14.00">:core:model</text>
    </g>
    <g id="edge12" class="edge">
      <title>:core:datastore-&gt;:core:model</title>
      <path fill="none" stroke="black" d="M681.89,-74.15C712,-63.06 753.23,-47.87 784.8,-36.24"/>
      <polygon fill="black" stroke="black" points="786.09,-39.5 794.26,-32.75 783.67,-32.93 786.09,-39.5"/>
    </g>
  </g>
</svg>
