<?xml version="1.0" encoding="UTF-8" standalone="no"?>
<!DOCTYPE svg PUBLIC "-//W3C//DTD SVG 1.1//EN"
 "http://www.w3.org/Graphics/SVG/1.1/DTD/svg11.dtd">
<!-- Generated by graphviz version 2.43.0 (0)
 -->
<!-- Title: G Pages: 1 -->
<svg width="678pt" height="260pt"
 viewBox="0.00 0.00 678.39 260.00" xmlns="http://www.w3.org/2000/svg" xmlns:xlink="http://www.w3.org/1999/xlink">
<g id="graph0" class="graph" transform="scale(1 1) rotate(0) translate(4 256)">
<title>G</title>
<polygon fill="white" stroke="transparent" points="-4,4 -4,-256 674.39,-256 674.39,4 -4,4"/>
<!-- :app&#45;rn3&#45;catalog -->
<g id="node1" class="node">
<title>:app&#45;rn3&#45;catalog</title>
<ellipse fill="none" stroke="black" cx="247.39" cy="-234" rx="86.38" ry="18"/>
<text text-anchor="middle" x="247.39" y="-230.3" font-family="Times,serif" font-size="14.00">:app&#45;rn3&#45;catalog</text>
</g>
<!-- :core:common -->
<g id="node2" class="node">
<title>:core:common</title>
<ellipse fill="none" stroke="black" cx="75.39" cy="-18" rx="75.29" ry="18"/>
<text text-anchor="middle" x="75.39" y="-14.3" font-family="Times,serif" font-size="14.00">:core:common</text>
</g>
<!-- :app&#45;rn3&#45;catalog&#45;&gt;:core:common -->
<g id="edge1" class="edge">
<title>:app&#45;rn3&#45;catalog&#45;&gt;:core:common</title>
<path fill="none" stroke="black" d="M231.45,-216.14C209.47,-192.6 168.97,-148.26 137.39,-108 121.26,-87.43 104.4,-63 92.34,-44.95"/>
<polygon fill="black" stroke="black" points="94.94,-42.54 86.5,-36.14 89.11,-46.41 94.94,-42.54"/>
</g>
<!-- :core:designsystem -->
<g id="node3" class="node">
<title>:core:designsystem</title>
<ellipse fill="none" stroke="black" cx="247.39" cy="-90" rx="100.98" ry="18"/>
<text text-anchor="middle" x="247.39" y="-86.3" font-family="Times,serif" font-size="14.00">:core:designsystem</text>
</g>
<!-- :app&#45;rn3&#45;catalog&#45;&gt;:core:designsystem -->
<g id="edge2" class="edge">
<title>:app&#45;rn3&#45;catalog&#45;&gt;:core:designsystem</title>
<path fill="none" stroke="black" d="M247.39,-215.87C247.39,-191.67 247.39,-147.21 247.39,-118.39"/>
<polygon fill="black" stroke="black" points="250.89,-118.19 247.39,-108.19 243.89,-118.19 250.89,-118.19"/>
</g>
<!-- :core:ui -->
<g id="node4" class="node">
<title>:core:ui</title>
<ellipse fill="none" stroke="black" cx="382.39" cy="-162" rx="45.49" ry="18"/>
<text text-anchor="middle" x="382.39" y="-158.3" font-family="Times,serif" font-size="14.00">:core:ui</text>
</g>
<!-- :app&#45;rn3&#45;catalog&#45;&gt;:core:ui -->
<g id="edge3" class="edge">
<title>:app&#45;rn3&#45;catalog&#45;&gt;:core:ui</title>
<path fill="none" stroke="red" stroke-width="2" d="M278.03,-217.12C298.49,-206.5 325.48,-192.51 346.88,-181.41"/>
<polygon fill="red" stroke="red" stroke-width="2" points="348.71,-184.41 355.98,-176.7 345.49,-178.19 348.71,-184.41"/>
</g>
<!-- :core:designsystem&#45;&gt;:core:common -->
<g id="edge5" class="edge">
<title>:core:designsystem&#45;&gt;:core:common</title>
<path fill="none" stroke="black" d="M208.79,-73.29C182.83,-62.73 148.49,-48.75 121.16,-37.62"/>
<polygon fill="black" stroke="black" points="122.39,-34.35 111.81,-33.82 119.75,-40.83 122.39,-34.35"/>
</g>
<!-- :core:accessibility -->
<g id="node5" class="node">
<title>:core:accessibility</title>
<ellipse fill="none" stroke="black" cx="262.39" cy="-18" rx="93.68" ry="18"/>
<text text-anchor="middle" x="262.39" y="-14.3" font-family="Times,serif" font-size="14.00">:core:accessibility</text>
</g>
<!-- :core:designsystem&#45;&gt;:core:accessibility -->
<g id="edge4" class="edge">
<title>:core:designsystem&#45;&gt;:core:accessibility</title>
<path fill="none" stroke="red" stroke-width="2" d="M251.1,-71.7C252.75,-63.98 254.74,-54.71 256.58,-46.11"/>
<polygon fill="red" stroke="red" stroke-width="2" points="260.06,-46.62 258.73,-36.1 253.21,-45.15 260.06,-46.62"/>
</g>
<!-- :core:feedback -->
<g id="node6" class="node">
<title>:core:feedback</title>
<ellipse fill="none" stroke="black" cx="452.39" cy="-18" rx="77.99" ry="18"/>
<text text-anchor="middle" x="452.39" y="-14.3" font-family="Times,serif" font-size="14.00">:core:feedback</text>
</g>
<!-- :core:designsystem&#45;&gt;:core:feedback -->
<g id="edge6" class="edge">
<title>:core:designsystem&#45;&gt;:core:feedback</title>
<path fill="none" stroke="black" d="M291.88,-73.81C323.92,-62.87 367.25,-48.07 400.81,-36.61"/>
<polygon fill="black" stroke="black" points="402.11,-39.87 410.45,-33.32 399.85,-33.24 402.11,-39.87"/>
</g>
<!-- :core:ui&#45;&gt;:core:designsystem -->
<g id="edge8" class="edge">
<title>:core:ui&#45;&gt;:core:designsystem</title>
<path fill="none" stroke="red" stroke-width="2" d="M355.72,-147.17C336.36,-137.13 309.81,-123.37 287.85,-111.98"/>
<polygon fill="red" stroke="red" stroke-width="2" points="289.24,-108.75 278.75,-107.26 286.01,-114.97 289.24,-108.75"/>
</g>
<!-- :core:analytics -->
<g id="node7" class="node">
<title>:core:analytics</title>
<ellipse fill="none" stroke="black" cx="444.39" cy="-90" rx="77.99" ry="18"/>
<text text-anchor="middle" x="444.39" y="-86.3" font-family="Times,serif" font-size="14.00">:core:analytics</text>
</g>
<!-- :core:ui&#45;&gt;:core:analytics -->
<g id="edge7" class="edge">
<title>:core:ui&#45;&gt;:core:analytics</title>
<path fill="none" stroke="black" d="M396.77,-144.76C404.37,-136.18 413.87,-125.46 422.38,-115.86"/>
<polygon fill="black" stroke="black" points="425.22,-117.93 429.23,-108.12 419.98,-113.29 425.22,-117.93"/>
</g>
<!-- :core:model -->
<g id="node8" class="node">
<title>:core:model</title>
<ellipse fill="none" stroke="black" cx="605.39" cy="-90" rx="64.99" ry="18"/>
<text text-anchor="middle" x="605.39" y="-86.3" font-family="Times,serif" font-size="14.00">:core:model</text>
</g>
<!-- :core:ui&#45;&gt;:core:model -->
<g id="edge9" class="edge">
<title>:core:ui&#45;&gt;:core:model</title>
<path fill="none" stroke="black" d="M417.24,-150.06C453.98,-138.53 512.25,-120.24 554.21,-107.07"/>
<polygon fill="black" stroke="black" points="555.48,-110.34 563.97,-104 553.38,-103.66 555.48,-110.34"/>
</g>
</g>
</svg>
