<?xml version="1.0" encoding="UTF-8" standalone="no"?>
<!DOCTYPE svg PUBLIC "-//W3C//DTD SVG 1.1//EN"
 "http://www.w3.org/Graphics/SVG/1.1/DTD/svg11.dtd">
<!-- Generated by graphviz version 2.43.0 (0)
 -->
<!-- Title: G Pages: 1 -->
<svg width="922pt" height="260pt"
 viewBox="0.00 0.00 921.99 260.00" xmlns="http://www.w3.org/2000/svg" xmlns:xlink="http://www.w3.org/1999/xlink">
<g id="graph0" class="graph" transform="scale(1 1) rotate(0) translate(4 256)">
<title>G</title>
<polygon fill="white" stroke="transparent" points="-4,4 -4,-256 917.99,-256 917.99,4 -4,4"/>
<!-- :feature:settings -->
<g id="node1" class="node">
<title>:feature:settings</title>
<ellipse fill="none" stroke="black" cx="417.99" cy="-234" rx="87.99" ry="18"/>
<text text-anchor="middle" x="417.99" y="-230.3" font-family="Times,serif" font-size="14.00">:feature:settings</text>
</g>
<!-- :core:ui -->
<g id="node2" class="node">
<title>:core:ui</title>
<ellipse fill="none" stroke="black" cx="696.99" cy="-162" rx="45.49" ry="18"/>
<text text-anchor="middle" x="696.99" y="-158.3" font-family="Times,serif" font-size="14.00">:core:ui</text>
</g>
<!-- :feature:settings&#45;&gt;:core:ui -->
<g id="edge1" class="edge">
<title>:feature:settings&#45;&gt;:core:ui</title>
<path fill="none" stroke="red" stroke-width="2" d="M471.13,-219.67C522.75,-206.72 600.38,-187.24 649.86,-174.82"/>
<polygon fill="red" stroke="red" stroke-width="2" points="650.82,-178.19 659.67,-172.36 649.12,-171.4 650.82,-178.19"/>
</g>
<!-- :core:designsystem -->
<g id="node3" class="node">
<title>:core:designsystem</title>
<ellipse fill="none" stroke="black" cx="325.99" cy="-90" rx="100.98" ry="18"/>
<text text-anchor="middle" x="325.99" y="-86.3" font-family="Times,serif" font-size="14.00">:core:designsystem</text>
</g>
<!-- :feature:settings&#45;&gt;:core:designsystem -->
<g id="edge2" class="edge">
<title>:feature:settings&#45;&gt;:core:designsystem</title>
<path fill="none" stroke="black" d="M417.9,-215.89C417.04,-196.88 413.29,-165.99 398.99,-144 390.89,-131.53 378.75,-121.02 366.69,-112.73"/>
<polygon fill="black" stroke="black" points="368.28,-109.59 357.98,-107.09 364.47,-115.47 368.28,-109.59"/>
</g>
<!-- :core:data -->
<g id="node4" class="node">
<title>:core:data</title>
<ellipse fill="none" stroke="black" cx="532.99" cy="-162" rx="57.39" ry="18"/>
<text text-anchor="middle" x="532.99" y="-158.3" font-family="Times,serif" font-size="14.00">:core:data</text>
</g>
<!-- :feature:settings&#45;&gt;:core:data -->
<g id="edge3" class="edge">
<title>:feature:settings&#45;&gt;:core:data</title>
<path fill="none" stroke="black" d="M444.67,-216.76C460.83,-206.93 481.6,-194.28 498.94,-183.73"/>
<polygon fill="black" stroke="black" points="500.93,-186.62 507.65,-178.43 497.29,-180.64 500.93,-186.62"/>
</g>
<!-- :core:feedback -->
<g id="node5" class="node">
<title>:core:feedback</title>
<ellipse fill="none" stroke="black" cx="77.99" cy="-18" rx="77.99" ry="18"/>
<text text-anchor="middle" x="77.99" y="-14.3" font-family="Times,serif" font-size="14.00">:core:feedback</text>
</g>
<!-- :feature:settings&#45;&gt;:core:feedback -->
<g id="edge4" class="edge">
<title>:feature:settings&#45;&gt;:core:feedback</title>
<path fill="none" stroke="black" d="M358.9,-220.64C326.24,-212.21 285.75,-199.08 252.99,-180 189.08,-142.79 128.92,-78.82 98.56,-43.76"/>
<polygon fill="black" stroke="black" points="101.01,-41.24 91.85,-35.92 95.69,-45.79 101.01,-41.24"/>
</g>
<!-- :core:config -->
<g id="node6" class="node">
<title>:core:config</title>
<ellipse fill="none" stroke="black" cx="325.99" cy="-162" rx="64.19" ry="18"/>
<text text-anchor="middle" x="325.99" y="-158.3" font-family="Times,serif" font-size="14.00">:core:config</text>
</g>
<!-- :feature:settings&#45;&gt;:core:config -->
<g id="edge5" class="edge">
<title>:feature:settings&#45;&gt;:core:config</title>
<path fill="none" stroke="black" d="M396.19,-216.41C384.07,-207.19 368.82,-195.59 355.64,-185.55"/>
<polygon fill="black" stroke="black" points="357.4,-182.5 347.32,-179.23 353.16,-188.07 357.4,-182.5"/>
</g>
<!-- :core:ui&#45;&gt;:core:designsystem -->
<g id="edge7" class="edge">
<title>:core:ui&#45;&gt;:core:designsystem</title>
<path fill="none" stroke="red" stroke-width="2" d="M656.94,-153.44C596.33,-142.01 480.2,-120.1 402.91,-105.51"/>
<polygon fill="red" stroke="red" stroke-width="2" points="403.21,-102.01 392.74,-103.59 401.91,-108.89 403.21,-102.01"/>
</g>
<!-- :core:analytics -->
<g id="node7" class="node">
<title>:core:analytics</title>
<ellipse fill="none" stroke="black" cx="740.99" cy="-90" rx="77.99" ry="18"/>
<text text-anchor="middle" x="740.99" y="-86.3" font-family="Times,serif" font-size="14.00">:core:analytics</text>
</g>
<!-- :core:ui&#45;&gt;:core:analytics -->
<g id="edge6" class="edge">
<title>:core:ui&#45;&gt;:core:analytics</title>
<path fill="none" stroke="black" d="M707.42,-144.41C712.66,-136.08 719.12,-125.8 724.97,-116.49"/>
<polygon fill="black" stroke="black" points="727.98,-118.29 730.33,-107.96 722.05,-114.56 727.98,-118.29"/>
</g>
<!-- :core:model -->
<g id="node8" class="node">
<title>:core:model</title>
<ellipse fill="none" stroke="black" cx="848.99" cy="-18" rx="64.99" ry="18"/>
<text text-anchor="middle" x="848.99" y="-14.3" font-family="Times,serif" font-size="14.00">:core:model</text>
</g>
<!-- :core:ui&#45;&gt;:core:model -->
<g id="edge8" class="edge">
<title>:core:ui&#45;&gt;:core:model</title>
<path fill="none" stroke="black" d="M738.6,-154.49C767.75,-147.76 805.39,-134.35 827.99,-108 842.65,-90.92 847.51,-65.47 848.93,-46.15"/>
<polygon fill="black" stroke="black" points="852.43,-46.3 849.41,-36.14 845.44,-45.97 852.43,-46.3"/>
</g>
<!-- :core:designsystem&#45;&gt;:core:feedback -->
<g id="edge10" class="edge">
<title>:core:designsystem&#45;&gt;:core:feedback</title>
<path fill="none" stroke="black" d="M274.61,-74.5C234.02,-63.04 177.41,-47.06 135.35,-35.19"/>
<polygon fill="black" stroke="black" points="136.11,-31.77 125.53,-32.42 134.21,-38.5 136.11,-31.77"/>
</g>
<!-- :core:accessibility -->
<g id="node9" class="node">
<title>:core:accessibility</title>
<ellipse fill="none" stroke="black" cx="267.99" cy="-18" rx="93.68" ry="18"/>
<text text-anchor="middle" x="267.99" y="-14.3" font-family="Times,serif" font-size="14.00">:core:accessibility</text>
</g>
<!-- :core:designsystem&#45;&gt;:core:accessibility -->
<g id="edge9" class="edge">
<title>:core:designsystem&#45;&gt;:core:accessibility</title>
<path fill="none" stroke="red" stroke-width="2" d="M311.95,-72.05C305,-63.67 296.48,-53.38 288.79,-44.1"/>
<polygon fill="red" stroke="red" stroke-width="2" points="291.38,-41.74 282.31,-36.28 285.99,-46.21 291.38,-41.74"/>
</g>
<!-- :core:common -->
<g id="node10" class="node">
<title>:core:common</title>
<ellipse fill="none" stroke="black" cx="454.99" cy="-18" rx="75.29" ry="18"/>
<text text-anchor="middle" x="454.99" y="-14.3" font-family="Times,serif" font-size="14.00">:core:common</text>
</g>
<!-- :core:designsystem&#45;&gt;:core:common -->
<g id="edge11" class="edge">
<title>:core:designsystem&#45;&gt;:core:common</title>
<path fill="none" stroke="black" d="M355.91,-72.76C374.16,-62.86 397.65,-50.12 417.18,-39.52"/>
<polygon fill="black" stroke="black" points="419,-42.51 426.12,-34.67 415.66,-36.36 419,-42.51"/>
</g>
<!-- :core:data&#45;&gt;:core:analytics -->
<g id="edge14" class="edge">
<title>:core:data&#45;&gt;:core:analytics</title>
<path fill="none" stroke="black" d="M570.66,-148.32C603.76,-137.18 652.25,-120.87 689.03,-108.49"/>
<polygon fill="black" stroke="black" points="690.23,-111.78 698.59,-105.27 688,-105.14 690.23,-111.78"/>
</g>
<!-- :core:data&#45;&gt;:core:common -->
<g id="edge12" class="edge">
<title>:core:data&#45;&gt;:core:common</title>
<path fill="none" stroke="black" d="M509.52,-145.5C497.11,-136.09 482.68,-123.02 473.99,-108 463.08,-89.14 458.41,-64.77 456.42,-46.3"/>
<polygon fill="black" stroke="black" points="459.9,-45.85 455.54,-36.19 452.92,-46.46 459.9,-45.85"/>
</g>
<!-- :core:datastore -->
<g id="node11" class="node">
<title>:core:datastore</title>
<ellipse fill="none" stroke="black" cx="563.99" cy="-90" rx="81.49" ry="18"/>
<text text-anchor="middle" x="563.99" y="-86.3" font-family="Times,serif" font-size="14.00">:core:datastore</text>
</g>
<!-- :core:data&#45;&gt;:core:datastore -->
<g id="edge13" class="edge">
<title>:core:data&#45;&gt;:core:datastore</title>
<path fill="none" stroke="black" d="M540.5,-144.05C544.02,-136.09 548.31,-126.41 552.25,-117.51"/>
<polygon fill="black" stroke="black" points="555.49,-118.84 556.34,-108.28 549.09,-116 555.49,-118.84"/>
</g>
<!-- :core:config&#45;&gt;:core:designsystem -->
<g id="edge18" class="edge">
<title>:core:config&#45;&gt;:core:designsystem</title>
<path fill="none" stroke="black" d="M325.99,-143.7C325.99,-135.98 325.99,-126.71 325.99,-118.11"/>
<polygon fill="black" stroke="black" points="329.49,-118.1 325.99,-108.1 322.49,-118.1 329.49,-118.1"/>
</g>
<!-- :core:datastore&#45;&gt;:core:model -->
<g id="edge16" class="edge">
<title>:core:datastore&#45;&gt;:core:model</title>
<path fill="none" stroke="black" d="M616.27,-76.16C665.98,-63.95 740.59,-45.63 791.85,-33.03"/>
<polygon fill="black" stroke="black" points="792.9,-36.38 801.78,-30.6 791.24,-29.58 792.9,-36.38"/>
</g>
<!-- :core:datastore&#45;&gt;:core:common -->
<g id="edge17" class="edge">
<title>:core:datastore&#45;&gt;:core:common</title>
<path fill="none" stroke="black" d="M538.71,-72.76C523.85,-63.22 504.88,-51.04 488.76,-40.68"/>
<polygon fill="black" stroke="black" points="490.44,-37.61 480.14,-35.15 486.66,-43.5 490.44,-37.61"/>
</g>
<!-- :core:datastore&#45;proto -->
<g id="node12" class="node">
<title>:core:datastore&#45;proto</title>
<ellipse fill="none" stroke="black" cx="656.99" cy="-18" rx="108.58" ry="18"/>
<text text-anchor="middle" x="656.99" y="-14.3" font-family="Times,serif" font-size="14.00">:core:datastore&#45;proto</text>
</g>
<!-- :core:datastore&#45;&gt;:core:datastore&#45;proto -->
<g id="edge15" class="edge">
<title>:core:datastore&#45;&gt;:core:datastore&#45;proto</title>
<path fill="none" stroke="black" d="M586.03,-72.41C598.11,-63.32 613.25,-51.92 626.45,-41.99"/>
<polygon fill="black" stroke="black" points="628.9,-44.52 634.79,-35.71 624.69,-38.93 628.9,-44.52"/>
</g>
</g>
</svg>
