<?xml version="1.0" encoding="UTF-8" standalone="no"?>
<!DOCTYPE svg PUBLIC "-//W3C//DTD SVG 1.1//EN" "http://www.w3.org/Graphics/SVG/1.1/DTD/svg11.dtd">
<svg xmlns="http://www.w3.org/2000/svg" xmlns:xlink="http://www.w3.org/1999/xlink" width="991pt" height="404pt" viewBox="0.00 0.00 991.26 404.00">
  <g id="graph0" class="graph" transform="scale(1 1) rotate(0) translate(4 400)">
    <title>G</title>
    <polygon fill="white" stroke="transparent" points="-4,4 -4,-400 987.26,-400 987.26,4 -4,4"/>
    <g id="node1" class="node">
      <title>:app</title>
      <ellipse fill="none" stroke="black" cx="371.26" cy="-378" rx="30.59" ry="18"/>
      <text text-anchor="middle" x="371.26" y="-374.3" font-family="Times,serif" font-size="14.00">:app</text>
    </g>
    <g id="node2" class="node">
      <title>:feature:aboutme</title>
      <ellipse fill="none" stroke="black" cx="174.26" cy="-306" rx="90.98" ry="18"/>
      <text text-anchor="middle" x="174.26" y="-302.3" font-family="Times,serif" font-size="14.00">:feature:aboutme</text>
    </g>
    <g id="edge1" class="edge">
      <title>:app-&gt;:feature:aboutme</title>
      <path fill="none" stroke="black" d="M345.51,-367.85C315.32,-357.12 264.53,-339.07 226.08,-325.41"/>
      <polygon fill="black" stroke="black" points="227.19,-322.09 216.59,-322.04 224.84,-328.69 227.19,-322.09"/>
    </g>
    <g id="node3" class="node">
      <title>:feature:dashboard</title>
      <ellipse fill="none" stroke="black" cx="576.26" cy="-306" rx="98.58" ry="18"/>
      <text text-anchor="middle" x="576.26" y="-302.3" font-family="Times,serif" font-size="14.00">:feature:dashboard</text>
    </g>
    <g id="edge2" class="edge">
      <title>:app-&gt;:feature:dashboard</title>
      <path fill="none" stroke="black" d="M397.23,-368.13C428.48,-357.46 481.79,-339.26 522.13,-325.48"/>
      <polygon fill="black" stroke="black" points="523.49,-328.72 531.82,-322.17 521.23,-322.09 523.49,-328.72"/>
    </g>
    <g id="node4" class="node">
      <title>:feature:settings</title>
      <ellipse fill="none" stroke="black" cx="371.26" cy="-306" rx="87.99" ry="18"/>
      <text text-anchor="middle" x="371.26" y="-302.3" font-family="Times,serif" font-size="14.00">:feature:settings</text>
    </g>
    <g id="edge3" class="edge">
      <title>:app-&gt;:feature:settings</title>
      <path fill="none" stroke="red" stroke-width="2" d="M371.26,-359.7C371.26,-351.98 371.26,-342.71 371.26,-334.11"/>
      <polygon fill="red" stroke="red" stroke-width="2" points="374.76,-334.1 371.26,-324.1 367.76,-334.1 374.76,-334.1"/>
    </g>
    <g id="node5" class="node">
      <title>:core:feedback</title>
      <ellipse fill="none" stroke="black" cx="351.26" cy="-234" rx="77.99" ry="18"/>
      <text text-anchor="middle" x="351.26" y="-230.3" font-family="Times,serif" font-size="14.00">:core:feedback</text>
    </g>
    <g id="edge4" class="edge">
      <title>:feature:aboutme-&gt;:core:feedback</title>
      <path fill="none" stroke="black" d="M213.11,-289.64C239.99,-279.01 275.9,-264.8 304.38,-253.54"/>
      <polygon fill="black" stroke="black" points="305.71,-256.78 313.72,-249.85 303.14,-250.27 305.71,-256.78"/>
    </g>
    <g id="node6" class="node">
      <title>:core:ui</title>
      <ellipse fill="none" stroke="black" cx="492.26" cy="-234" rx="45.49" ry="18"/>
      <text text-anchor="middle" x="492.26" y="-230.3" font-family="Times,serif" font-size="14.00">:core:ui</text>
    </g>
    <g id="edge5" class="edge">
      <title>:feature:aboutme-&gt;:core:ui</title>
      <path fill="none" stroke="black" d="M240.89,-293.66C294.54,-284.04 371.71,-269.11 438.26,-252 441.8,-251.09 445.45,-250.09 449.11,-249.03"/>
      <polygon fill="black" stroke="black" points="450.14,-252.38 458.72,-246.17 448.14,-245.67 450.14,-252.38"/>
    </g>
    <g id="node7" class="node">
      <title>:core:common</title>
      <ellipse fill="none" stroke="black" cx="484.26" cy="-18" rx="75.29" ry="18"/>
      <text text-anchor="middle" x="484.26" y="-14.3" font-family="Times,serif" font-size="14.00">:core:common</text>
    </g>
    <g id="edge6" class="edge">
      <title>:feature:aboutme-&gt;:core:common</title>
      <path fill="none" stroke="black" d="M95.54,-296.87C67.06,-289.68 37.67,-276.4 20.26,-252 -28.16,-184.12 15.37,-134.7 113.26,-72 159.52,-42.38 306.15,-28.77 400.63,-22.95"/>
      <polygon fill="black" stroke="black" points="400.97,-26.43 410.74,-22.34 400.55,-19.44 400.97,-26.43"/>
    </g>
    <g id="node8" class="node">
      <title>:core:config</title>
      <ellipse fill="none" stroke="black" cx="186.26" cy="-90" rx="64.19" ry="18"/>
      <text text-anchor="middle" x="186.26" y="-86.3" font-family="Times,serif" font-size="14.00">:core:config</text>
    </g>
    <g id="edge7" class="edge">
      <title>:feature:aboutme-&gt;:core:config</title>
      <path fill="none" stroke="black" d="M175.22,-287.85C177.3,-250.83 182.22,-163.18 184.73,-118.39"/>
      <polygon fill="black" stroke="black" points="188.23,-118.41 185.3,-108.23 181.24,-118.02 188.23,-118.41"/>
    </g>
    <g id="node9" class="node">
      <title>:core:shapes</title>
      <ellipse fill="none" stroke="black" cx="98.26" cy="-234" rx="68.79" ry="18"/>
      <text text-anchor="middle" x="98.26" y="-230.3" font-family="Times,serif" font-size="14.00">:core:shapes</text>
    </g>
    <g id="edge8" class="edge">
      <title>:feature:aboutme-&gt;:core:shapes</title>
      <path fill="none" stroke="black" d="M155.87,-288.05C146.18,-279.13 134.15,-268.06 123.6,-258.34"/>
      <polygon fill="black" stroke="black" points="125.96,-255.75 116.23,-251.55 121.21,-260.9 125.96,-255.75"/>
    </g>
    <g id="edge14" class="edge">
      <title>:feature:dashboard-&gt;:core:feedback</title>
      <path fill="none" stroke="black" d="M528.55,-290.15C492.55,-278.96 443.13,-263.58 405.61,-251.91"/>
      <polygon fill="black" stroke="black" points="406.44,-248.5 395.85,-248.87 404.36,-255.18 406.44,-248.5"/>
    </g>
    <g id="edge15" class="edge">
      <title>:feature:dashboard-&gt;:core:ui</title>
      <path fill="none" stroke="black" d="M555.93,-288.05C544.8,-278.78 530.89,-267.19 518.9,-257.2"/>
      <polygon fill="black" stroke="black" points="520.9,-254.31 510.97,-250.59 516.42,-259.68 520.9,-254.31"/>
    </g>
    <g id="node13" class="node">
      <title>:core:data</title>
      <ellipse fill="none" stroke="black" cx="653.26" cy="-162" rx="57.39" ry="18"/>
      <text text-anchor="middle" x="653.26" y="-158.3" font-family="Times,serif" font-size="14.00">:core:data</text>
    </g>
    <g id="edge16" class="edge">
      <title>:feature:dashboard-&gt;:core:data</title>
      <path fill="none" stroke="black" d="M629.43,-290.83C648.91,-282.78 668.93,-270.49 680.26,-252 692.3,-232.36 682.54,-206.97 671.53,-188.34"/>
      <polygon fill="black" stroke="black" points="674.43,-186.37 666.12,-179.79 668.51,-190.11 674.43,-186.37"/>
    </g>
    <g id="edge24" class="edge">
      <title>:feature:settings-&gt;:core:feedback</title>
      <path fill="none" stroke="black" d="M366.32,-287.7C364.09,-279.9 361.41,-270.51 358.93,-261.83"/>
      <polygon fill="black" stroke="black" points="362.26,-260.76 356.15,-252.1 355.53,-262.68 362.26,-260.76"/>
    </g>
    <g id="edge25" class="edge">
      <title>:feature:settings-&gt;:core:ui</title>
      <path fill="none" stroke="black" d="M399.33,-288.76C417.09,-278.49 440.14,-265.15 458.84,-254.33"/>
      <polygon fill="black" stroke="black" points="460.73,-257.29 467.63,-249.25 457.22,-251.23 460.73,-257.29"/>
    </g>
    <g id="edge23" class="edge">
      <title>:feature:settings-&gt;:core:config</title>
      <path fill="none" stroke="black" d="M326.25,-290.44C305.36,-281.88 281.41,-269.3 264.26,-252 226.22,-213.62 203.86,-153.03 193.43,-118.16"/>
      <polygon fill="black" stroke="black" points="196.7,-116.86 190.58,-108.22 189.97,-118.79 196.7,-116.86"/>
    </g>
    <g id="node17" class="node">
      <title>:core:auth</title>
      <ellipse fill="none" stroke="black" cx="613.26" cy="-234" rx="57.69" ry="18"/>
      <text text-anchor="middle" x="613.26" y="-230.3" font-family="Times,serif" font-size="14.00">:core:auth</text>
    </g>
    <g id="edge22" class="edge">
      <title>:feature:settings-&gt;:core:auth</title>
      <path fill="none" stroke="red" stroke-width="2" d="M419.94,-290.92C461.34,-278.94 520.59,-261.81 562.56,-249.67"/>
      <polygon fill="red" stroke="red" stroke-width="2" points="563.67,-252.99 572.3,-246.85 561.72,-246.27 563.67,-252.99"/>
    </g>
    <g id="node10" class="node">
      <title>:core:designsystem</title>
      <ellipse fill="none" stroke="black" cx="362.26" cy="-162" rx="100.98" ry="18"/>
      <text text-anchor="middle" x="362.26" y="-158.3" font-family="Times,serif" font-size="14.00">:core:designsystem</text>
    </g>
    <g id="edge9" class="edge">
      <title>:core:feedback-&gt;:core:designsystem</title>
      <path fill="none" stroke="black" d="M353.98,-215.7C355.19,-207.98 356.65,-198.71 358,-190.11"/>
      <polygon fill="black" stroke="black" points="361.48,-190.53 359.58,-180.1 354.57,-189.44 361.48,-190.53"/>
    </g>
    <g id="node12" class="node">
      <title>:core:analytics</title>
      <ellipse fill="none" stroke="black" cx="590.26" cy="-90" rx="77.99" ry="18"/>
      <text text-anchor="middle" x="590.26" y="-86.3" font-family="Times,serif" font-size="14.00">:core:analytics</text>
    </g>
    <g id="edge13" class="edge">
      <title>:core:ui-&gt;:core:analytics</title>
      <path fill="none" stroke="black" d="M503.7,-216.43C520.72,-191.77 552.86,-145.2 572.82,-116.27"/>
      <polygon fill="black" stroke="black" points="575.8,-118.12 578.6,-107.9 570.04,-114.14 575.8,-118.12"/>
    </g>
    <g id="edge11" class="edge">
      <title>:core:designsystem-&gt;:core:common</title>
      <path fill="none" stroke="black" d="M411.18,-146.2C430.73,-137.94 451.76,-125.65 465.26,-108 478.73,-90.4 483.14,-65.37 484.38,-46.33"/>
      <polygon fill="black" stroke="black" points="487.88,-46.32 484.78,-36.19 480.89,-46.05 487.88,-46.32"/>
    </g>
    <g id="edge12" class="edge">
      <title>:core:designsystem-&gt;:core:config</title>
      <path fill="none" stroke="black" d="M322.77,-145.29C295.66,-134.51 259.62,-120.18 231.38,-108.95"/>
      <polygon fill="black" stroke="black" points="232.33,-105.56 221.75,-105.11 229.74,-112.06 232.33,-105.56"/>
    </g>
    <g id="node11" class="node">
      <title>:core:accessibility</title>
      <ellipse fill="none" stroke="black" cx="362.26" cy="-90" rx="93.68" ry="18"/>
      <text text-anchor="middle" x="362.26" y="-86.3" font-family="Times,serif" font-size="14.00">:core:accessibility</text>
    </g>
    <g id="edge10" class="edge">
      <title>:core:designsystem-&gt;:core:accessibility</title>
      <path fill="none" stroke="black" d="M362.26,-143.7C362.26,-135.98 362.26,-126.71 362.26,-118.11"/>
      <polygon fill="black" stroke="black" points="365.76,-118.1 362.26,-108.1 358.76,-118.1 365.76,-118.1"/>
    </g>
    <g id="edge18" class="edge">
      <title>:core:data-&gt;:core:analytics</title>
      <path fill="none" stroke="black" d="M638.33,-144.41C630.6,-135.82 621.01,-125.16 612.43,-115.63"/>
      <polygon fill="black" stroke="black" points="614.82,-113.05 605.52,-107.96 609.61,-117.73 614.82,-113.05"/>
    </g>
    <g id="node14" class="node">
      <title>:core:datastore</title>
      <ellipse fill="none" stroke="black" cx="767.26" cy="-90" rx="81.49" ry="18"/>
      <text text-anchor="middle" x="767.26" y="-86.3" font-family="Times,serif" font-size="14.00">:core:datastore</text>
    </g>
    <g id="edge17" class="edge">
      <title>:core:data-&gt;:core:datastore</title>
      <path fill="none" stroke="red" stroke-width="2" d="M678.28,-145.64C694.13,-135.91 714.86,-123.18 732.32,-112.45"/>
      <polygon fill="red" stroke="red" stroke-width="2" points="734.43,-115.27 741.12,-107.06 730.76,-109.31 734.43,-115.27"/>
    </g>
    <g id="edge21" class="edge">
      <title>:core:datastore-&gt;:core:common</title>
      <path fill="none" stroke="black" d="M715.03,-76.08C666.81,-64.15 595.23,-46.45 544.6,-33.92"/>
      <polygon fill="black" stroke="black" points="545.32,-30.5 534.77,-31.49 543.63,-37.29 545.32,-30.5"/>
    </g>
    <g id="node15" class="node">
      <title>:core:datastore-proto</title>
      <ellipse fill="none" stroke="black" cx="726.26" cy="-18" rx="108.58" ry="18"/>
      <text text-anchor="middle" x="726.26" y="-14.3" font-family="Times,serif" font-size="14.00">:core:datastore-proto</text>
    </g>
    <g id="edge19" class="edge">
      <title>:core:datastore-&gt;:core:datastore-proto</title>
      <path fill="none" stroke="red" stroke-width="2" d="M757.34,-72.05C752.57,-63.92 746.76,-54 741.46,-44.94"/>
      <polygon fill="red" stroke="red" stroke-width="2" points="744.46,-43.14 736.38,-36.28 738.42,-46.67 744.46,-43.14"/>
    </g>
    <g id="node16" class="node">
      <title>:core:model</title>
      <ellipse fill="none" stroke="black" cx="918.26" cy="-18" rx="64.99" ry="18"/>
      <text text-anchor="middle" x="918.26" y="-14.3" font-family="Times,serif" font-size="14.00">:core:model</text>
    </g>
    <g id="edge20" class="edge">
      <title>:core:datastore-&gt;:core:model</title>
      <path fill="none" stroke="black" d="M800.78,-73.46C823.33,-63.01 853.21,-49.16 877.19,-38.04"/>
      <polygon fill="black" stroke="black" points="878.8,-41.15 886.4,-33.77 875.85,-34.8 878.8,-41.15"/>
    </g>
    <g id="edge26" class="edge">
      <title>:core:auth-&gt;:core:data</title>
      <path fill="none" stroke="red" stroke-width="2" d="M622.95,-216.05C627.66,-207.8 633.43,-197.7 638.67,-188.54"/>
      <polygon fill="red" stroke="red" stroke-width="2" points="641.75,-190.21 643.67,-179.79 635.67,-186.73 641.75,-190.21"/>
    </g>
  </g>
</svg>
