<?xml version="1.0" encoding="UTF-8" standalone="no"?>
<!DOCTYPE svg PUBLIC "-//W3C//DTD SVG 1.1//EN"
 "http://www.w3.org/Graphics/SVG/1.1/DTD/svg11.dtd">
<!-- Generated by graphviz version 2.43.0 (0)
 -->
<!-- Title: G Pages: 1 -->
<svg width="538pt" height="188pt"
 viewBox="0.00 0.00 537.59 188.00" xmlns="http://www.w3.org/2000/svg" xmlns:xlink="http://www.w3.org/1999/xlink">
<g id="graph0" class="graph" transform="scale(1 1) rotate(0) translate(4 184)">
<title>G</title>
<polygon fill="white" stroke="transparent" points="-4,4 -4,-184 533.59,-184 533.59,4 -4,4"/>
<!-- :core:ui -->
<g id="node1" class="node">
<title>:core:ui</title>
<ellipse fill="none" stroke="black" cx="280.59" cy="-162" rx="45.49" ry="18"/>
<text text-anchor="middle" x="280.59" y="-158.3" font-family="Times,serif" font-size="14.00">:core:ui</text>
</g>
<!-- :core:analytics -->
<g id="node2" class="node">
<title>:core:analytics</title>
<ellipse fill="none" stroke="black" cx="83.59" cy="-90" rx="77.99" ry="18"/>
<text text-anchor="middle" x="83.59" y="-86.3" font-family="Times,serif" font-size="14.00">:core:analytics</text>
</g>
<!-- :core:ui&#45;&gt;:core:analytics -->
<g id="edge1" class="edge">
<title>:core:ui&#45;&gt;:core:analytics</title>
<path fill="none" stroke="black" d="M247.62,-149.28C216.58,-138.26 169.66,-121.58 133.94,-108.89"/>
<polygon fill="black" stroke="black" points="134.78,-105.47 124.18,-105.42 132.44,-112.07 134.78,-105.47"/>
</g>
<!-- :core:designsystem -->
<g id="node3" class="node">
<title>:core:designsystem</title>
<ellipse fill="none" stroke="black" cx="280.59" cy="-90" rx="100.98" ry="18"/>
<text text-anchor="middle" x="280.59" y="-86.3" font-family="Times,serif" font-size="14.00">:core:designsystem</text>
</g>
<!-- :core:ui&#45;&gt;:core:designsystem -->
<g id="edge2" class="edge">
<title>:core:ui&#45;&gt;:core:designsystem</title>
<path fill="none" stroke="red" stroke-width="2" d="M280.59,-143.7C280.59,-135.98 280.59,-126.71 280.59,-118.11"/>
<polygon fill="red" stroke="red" stroke-width="2" points="284.09,-118.1 280.59,-108.1 277.09,-118.1 284.09,-118.1"/>
</g>
<!-- :core:model -->
<g id="node4" class="node">
<title>:core:model</title>
<ellipse fill="none" stroke="black" cx="464.59" cy="-90" rx="64.99" ry="18"/>
<text text-anchor="middle" x="464.59" y="-86.3" font-family="Times,serif" font-size="14.00">:core:model</text>
</g>
<!-- :core:ui&#45;&gt;:core:model -->
<g id="edge3" class="edge">
<title>:core:ui&#45;&gt;:core:model</title>
<path fill="none" stroke="black" d="M312.22,-148.97C341.49,-137.83 385.36,-121.14 418.52,-108.53"/>
<polygon fill="black" stroke="black" points="419.9,-111.75 428.01,-104.92 417.42,-105.2 419.9,-111.75"/>
</g>
<!-- :core:accessibility -->
<g id="node5" class="node">
<title>:core:accessibility</title>
<ellipse fill="none" stroke="black" cx="93.59" cy="-18" rx="93.68" ry="18"/>
<text text-anchor="middle" x="93.59" y="-14.3" font-family="Times,serif" font-size="14.00">:core:accessibility</text>
</g>
<!-- :core:designsystem&#45;&gt;:core:accessibility -->
<g id="edge4" class="edge">
<title>:core:designsystem&#45;&gt;:core:accessibility</title>
<path fill="none" stroke="red" stroke-width="2" d="M239.09,-73.46C210.93,-62.92 173.55,-48.93 143.73,-37.77"/>
<polygon fill="red" stroke="red" stroke-width="2" points="144.93,-34.48 134.33,-34.25 142.47,-41.03 144.93,-34.48"/>
</g>
<!-- :core:common -->
<g id="node6" class="node">
<title>:core:common</title>
<ellipse fill="none" stroke="black" cx="280.59" cy="-18" rx="75.29" ry="18"/>
<text text-anchor="middle" x="280.59" y="-14.3" font-family="Times,serif" font-size="14.00">:core:common</text>
</g>
<!-- :core:designsystem&#45;&gt;:core:common -->
<g id="edge5" class="edge">
<title>:core:designsystem&#45;&gt;:core:common</title>
<path fill="none" stroke="black" d="M280.59,-71.7C280.59,-63.98 280.59,-54.71 280.59,-46.11"/>
<polygon fill="black" stroke="black" points="284.09,-46.1 280.59,-36.1 277.09,-46.1 284.09,-46.1"/>
</g>
<!-- :core:feedback -->
<g id="node7" class="node">
<title>:core:feedback</title>
<ellipse fill="none" stroke="black" cx="451.59" cy="-18" rx="77.99" ry="18"/>
<text text-anchor="middle" x="451.59" y="-14.3" font-family="Times,serif" font-size="14.00">:core:feedback</text>
</g>
<!-- :core:designsystem&#45;&gt;:core:feedback -->
<g id="edge6" class="edge">
<title>:core:designsystem&#45;&gt;:core:feedback</title>
<path fill="none" stroke="black" d="M318.97,-73.29C344.69,-62.76 378.68,-48.85 405.82,-37.74"/>
<polygon fill="black" stroke="black" points="407.17,-40.97 415.1,-33.94 404.52,-34.49 407.17,-40.97"/>
</g>
</g>
</svg>
