<?xml version="1.0" encoding="UTF-8" standalone="no"?>
<!DOCTYPE svg PUBLIC "-//W3C//DTD SVG 1.1//EN" "http://www.w3.org/Graphics/SVG/1.1/DTD/svg11.dtd">
<svg height="260pt" viewBox="0.00 0.00 894.34 260.00" width="894pt" xmlns="http://www.w3.org/2000/svg">
    <g class="graph" id="graph0" transform="scale(1 1) rotate(0) translate(4 256)">
    <title>G</title>
        <polygon fill="white" points="-4,4 -4,-256 890.34,-256 890.34,4 -4,4"
            stroke="transparent" />
    <g id="node1" class="node">
      <title>:feature:settings</title>
        <ellipse cx="363.34" cy="-234" fill="none" rx="87.99" ry="18" stroke="black" />
        <text font-family="Times,serif" font-size="14.00" text-anchor="middle" x="363.34"
            y="-230.3">:feature:settings
        </text>
    </g>
    <g id="node2" class="node">
        <title>:core:config</title>
        <ellipse cx="64.34" cy="-18" fill="none" rx="64.19" ry="18" stroke="black" />
        <text font-family="Times,serif" font-size="14.00" text-anchor="middle" x="64.34" y="-14.3">
            :core:config
        </text>
    </g>
    <g id="edge1" class="edge">
        <title>:feature:settings-&gt;:core:config</title>
        <path d="M289.91,-224.11C253.18,-216.85 209.58,-203.71 176.34,-180 127.19,-144.94 92.39,-81.2 75.65,-45.34" fill="none"
            stroke="black" />
        <polygon fill="black" points="78.73,-43.66 71.41,-36.01 72.36,-46.56 78.73,-43.66"
            stroke="black" />
    </g>
    <g id="node3" class="node">
        <title>:core:data</title>
        <ellipse cx="487.34" cy="-162" fill="none" rx="57.39" ry="18" stroke="black" />
        <text font-family="Times,serif" font-size="14.00" text-anchor="middle" x="487.34"
            y="-158.3">:core:data
        </text>
    </g>
    <g id="edge2" class="edge">
        <title>:feature:settings-&gt;:core:data</title>
        <path d="M391.79,-216.94C409.69,-206.84 432.93,-193.72 452.01,-182.95" fill="none" stroke="red"
            stroke-width="2" />
        <polygon fill="red" points="453.74,-185.99 460.73,-178.03 450.3,-179.89 453.74,-185.99" stroke="red"
            stroke-width="2" />
    </g>
    <g id="node4" class="node">
      <title>:core:feedback</title>
        <ellipse cx="263.34" cy="-162" fill="none" rx="77.99" ry="18" stroke="black" />
        <text font-family="Times,serif" font-size="14.00" text-anchor="middle" x="263.34"
            y="-158.3">:core:feedback
        </text>
    </g>
    <g id="edge3" class="edge">
      <title>:feature:settings-&gt;:core:feedback</title>
        <path d="M339.9,-216.59C326.48,-207.2 309.47,-195.29 294.9,-185.09" fill="none"
            stroke="black" />
        <polygon fill="black" points="296.84,-182.18 286.64,-179.31 292.83,-187.91 296.84,-182.18"
            stroke="black" />
    </g>
    <g id="node5" class="node">
      <title>:core:ui</title>
        <ellipse cx="703.34" cy="-162" fill="none" rx="45.49" ry="18" stroke="black" />
        <text font-family="Times,serif" font-size="14.00" text-anchor="middle" x="703.34"
            y="-158.3">:core:ui
        </text>
    </g>
    <g id="edge4" class="edge">
      <title>:feature:settings-&gt;:core:ui</title>
        <path d="M422.96,-220.73C488.62,-207.21 593.01,-185.72 654.18,-173.12" fill="none"
            stroke="black" />
        <polygon fill="black" points="654.89,-176.55 663.98,-171.1 653.48,-169.69 654.89,-176.55"
            stroke="black" />
    </g>
    <g id="node6" class="node">
        <title>:core:analytics</title>
        <ellipse cx="751.34" cy="-90" fill="none" rx="77.99" ry="18" stroke="black" />
        <text font-family="Times,serif" font-size="14.00" text-anchor="middle" x="751.34" y="-86.3">
            :core:analytics
        </text>
    </g>
    <g id="edge5" class="edge">
        <title>:core:data-&gt;:core:analytics</title>
        <path d="M529.76,-149.75C573.81,-138.07 643.04,-119.72 692.4,-106.63" fill="none"
            stroke="black" />
        <polygon fill="black" points="693.53,-109.95 702.3,-104 691.74,-103.18 693.53,-109.95"
            stroke="black" />
    </g>
        <g class="node" id="node7">
            <title>:core:auth</title>
            <ellipse cx="597.34" cy="-90" fill="none" rx="57.69" ry="18" stroke="black" />
            <text font-family="Times,serif" font-size="14.00" text-anchor="middle" x="597.34"
                y="-86.3">:core:auth
            </text>
        </g>
        <g class="edge" id="edge6">
            <title>:core:data-&gt;:core:auth</title>
            <path d="M511.48,-145.64C526.99,-135.77 547.35,-122.82 564.34,-112" fill="none"
                stroke="black" />
            <polygon fill="black" points="566.32,-114.89 572.88,-106.57 562.56,-108.98 566.32,-114.89"
                stroke="black" />
        </g>
        <g class="node" id="node8">
            <title>:core:datastore</title>
            <ellipse cx="440.34" cy="-90" fill="none" rx="81.49" ry="18" stroke="black" />
            <text font-family="Times,serif" font-size="14.00" text-anchor="middle" x="440.34"
                y="-86.3">:core:datastore
            </text>
        </g>
        <g class="edge" id="edge7">
            <title>:core:data-&gt;:core:datastore</title>
            <path d="M475.97,-144.05C470.45,-135.84 463.7,-125.79 457.57,-116.66" fill="none" stroke="red"
                stroke-width="2" />
            <polygon fill="red" points="460.42,-114.63 451.94,-108.28 454.61,-118.53 460.42,-114.63" stroke="red"
                stroke-width="2" />
    </g>
    <g id="node12" class="node">
      <title>:core:designsystem</title>
        <ellipse cx="240.34" cy="-90" fill="none" rx="100.98" ry="18" stroke="black" />
        <text font-family="Times,serif" font-size="14.00" text-anchor="middle" x="240.34" y="-86.3">
            :core:designsystem
        </text>
    </g>
    <g id="edge11" class="edge">
      <title>:core:feedback-&gt;:core:designsystem</title>
        <path d="M257.66,-143.7C255.1,-135.9 252.01,-126.51 249.16,-117.83" fill="none"
            stroke="black" />
        <polygon fill="black" points="252.41,-116.51 245.96,-108.1 245.76,-118.7 252.41,-116.51"
            stroke="black" />
    </g>
    <g id="edge15" class="edge">
      <title>:core:ui-&gt;:core:analytics</title>
        <path d="M714.72,-144.41C720.43,-136.08 727.48,-125.8 733.87,-116.49" fill="none"
            stroke="black" />
        <polygon fill="black" points="736.95,-118.18 739.72,-107.96 731.18,-114.22 736.95,-118.18"
            stroke="black" />
    </g>
    <g id="node9" class="node">
      <title>:core:datastore-proto</title>
        <ellipse cx="629.34" cy="-18" fill="none" rx="108.58" ry="18" stroke="black" />
        <text font-family="Times,serif" font-size="14.00" text-anchor="middle" x="629.34" y="-14.3">
            :core:datastore-proto
        </text>
    </g>
    <g id="edge8" class="edge">
      <title>:core:datastore-&gt;:core:datastore-proto</title>
        <path d="M480.43,-74.15C508.68,-63.69 546.79,-49.58 577.38,-38.25" fill="none" stroke="red"
            stroke-width="2" />
        <polygon fill="red" points="578.86,-41.43 587.02,-34.67 576.43,-34.87 578.86,-41.43" stroke="red"
            stroke-width="2" />
    </g>
    <g id="node10" class="node">
      <title>:core:model</title>
        <ellipse cx="821.34" cy="-18" fill="none" rx="64.99" ry="18" stroke="black" />
        <text font-family="Times,serif" font-size="14.00" text-anchor="middle" x="821.34" y="-14.3">
            :core:model
        </text>
    </g>
    <g id="edge9" class="edge">
      <title>:core:datastore-&gt;:core:model</title>
        <path d="M499.86,-77.57C510.02,-75.67 520.48,-73.75 530.34,-72 626.6,-54.93 651.44,-54.95 747.34,-36 752.68,-34.95 758.22,-33.79 763.75,-32.59" fill="none"
            stroke="black" />
        <polygon fill="black" points="764.66,-35.98 773.67,-30.41 763.15,-29.14 764.66,-35.98"
            stroke="black" />
    </g>
    <g id="node11" class="node">
      <title>:core:common</title>
        <ellipse cx="427.34" cy="-18" fill="none" rx="75.29" ry="18" stroke="black" />
        <text font-family="Times,serif" font-size="14.00" text-anchor="middle" x="427.34" y="-14.3">
            :core:common
        </text>
    </g>
    <g id="edge10" class="edge">
      <title>:core:datastore-&gt;:core:common</title>
        <path d="M437.13,-71.7C435.7,-63.98 433.98,-54.71 432.38,-46.11" fill="none"
            stroke="black" />
        <polygon fill="black" points="435.79,-45.3 430.52,-36.1 428.91,-46.58 435.79,-45.3"
            stroke="black" />
    </g>
    <g id="edge14" class="edge">
      <title>:core:designsystem-&gt;:core:config</title>
        <path d="M200.85,-73.29C173.74,-62.51 137.7,-48.18 109.46,-36.95" fill="none"
            stroke="black" />
        <polygon fill="black" points="110.41,-33.56 99.83,-33.11 107.83,-40.06 110.41,-33.56"
            stroke="black" />
    </g>
    <g id="edge13" class="edge">
      <title>:core:designsystem-&gt;:core:common</title>
        <path d="M281.85,-73.46C310.59,-62.71 348.94,-48.35 379.05,-37.08" fill="none"
            stroke="black" />
        <polygon fill="black" points="380.37,-40.32 388.51,-33.54 377.92,-33.76 380.37,-40.32"
            stroke="black" />
    </g>
    <g id="node13" class="node">
      <title>:core:accessibility</title>
        <ellipse cx="240.34" cy="-18" fill="none" rx="93.68" ry="18" stroke="black" />
        <text font-family="Times,serif" font-size="14.00" text-anchor="middle" x="240.34" y="-14.3">
            :core:accessibility
        </text>
    </g>
    <g id="edge12" class="edge">
      <title>:core:designsystem-&gt;:core:accessibility</title>
        <path d="M240.34,-71.7C240.34,-63.98 240.34,-54.71 240.34,-46.11" fill="none"
            stroke="black" />
        <polygon fill="black" points="243.84,-46.1 240.34,-36.1 236.84,-46.1 243.84,-46.1"
            stroke="black" />
    </g>
  </g>
</svg>
