<?xml version="1.0" encoding="UTF-8" standalone="no"?>
<!DOCTYPE svg PUBLIC "-//W3C//DTD SVG 1.1//EN" "http://www.w3.org/Graphics/SVG/1.1/DTD/svg11.dtd">
<svg xmlns="http://www.w3.org/2000/svg" xmlns:xlink="http://www.w3.org/1999/xlink" width="775pt" height="332pt" viewBox="0.00 0.00 775.13 332.00">
  <g id="graph0" class="graph" transform="scale(1 1) rotate(0) translate(4 328)">
    <title>G</title>
    <polygon fill="white" stroke="transparent" points="-4,4 -4,-328 771.13,-328 771.13,4 -4,4"/>
    <g id="node1" class="node">
      <title>:feature:settings</title>
      <ellipse fill="none" stroke="black" cx="455.54" cy="-306" rx="87.99" ry="18"/>
      <text text-anchor="middle" x="455.54" y="-302.3" font-family="Times,serif" font-size="14.00">:feature:settings</text>
    </g>
    <g id="node2" class="node">
      <title>:core:auth</title>
      <ellipse fill="none" stroke="black" cx="269.54" cy="-234" rx="57.69" ry="18"/>
      <text text-anchor="middle" x="269.54" y="-230.3" font-family="Times,serif" font-size="14.00">:core:auth</text>
    </g>
    <g id="edge1" class="edge">
      <title>:feature:settings-&gt;:core:auth</title>
      <path fill="none" stroke="red" stroke-width="2" d="M415.18,-289.81C385.49,-278.64 345.12,-263.44 314.41,-251.89"/>
      <polygon fill="red" stroke="red" stroke-width="2" points="315.4,-248.52 304.81,-248.27 312.93,-255.07 315.4,-248.52"/>
    </g>
    <g id="node3" class="node">
      <title>:core:config</title>
      <ellipse fill="none" stroke="black" cx="409.54" cy="-234" rx="64.19" ry="18"/>
      <text text-anchor="middle" x="409.54" y="-230.3" font-family="Times,serif" font-size="14.00">:core:config</text>
    </g>
    <g id="edge2" class="edge">
      <title>:feature:settings-&gt;:core:config</title>
      <path fill="none" stroke="black" d="M444.41,-288.05C438.92,-279.71 432.21,-269.49 426.13,-260.25"/>
      <polygon fill="black" stroke="black" points="428.99,-258.22 420.57,-251.79 423.14,-262.07 428.99,-258.22"/>
    </g>
    <g id="node4" class="node">
      <title>:core:feedback</title>
      <ellipse fill="none" stroke="black" cx="608.54" cy="-234" rx="77.99" ry="18"/>
      <text text-anchor="middle" x="608.54" y="-230.3" font-family="Times,serif" font-size="14.00">:core:feedback</text>
    </g>
    <g id="edge3" class="edge">
      <title>:feature:settings-&gt;:core:feedback</title>
      <path fill="none" stroke="black" d="M489.88,-289.29C512.35,-279.01 541.9,-265.49 565.88,-254.52"/>
      <polygon fill="black" stroke="black" points="567.47,-257.64 575.11,-250.3 564.56,-251.27 567.47,-257.64"/>
    </g>
    <g id="node5" class="node">
      <title>:core:ui</title>
      <ellipse fill="none" stroke="black" cx="445.54" cy="-162" rx="45.49" ry="18"/>
      <text text-anchor="middle" x="445.54" y="-158.3" font-family="Times,serif" font-size="14.00">:core:ui</text>
    </g>
    <g id="edge4" class="edge">
      <title>:feature:settings-&gt;:core:ui</title>
      <path fill="none" stroke="black" d="M466.73,-288.14C472.71,-278.1 479.46,-264.85 482.54,-252 486.27,-236.44 487.34,-231.26 482.54,-216 479.31,-205.72 473.3,-195.7 467.05,-187.19"/>
      <polygon fill="black" stroke="black" points="469.73,-184.94 460.81,-179.22 464.22,-189.25 469.73,-184.94"/>
    </g>
    <g id="node6" class="node">
      <title>:core:data</title>
      <ellipse fill="none" stroke="black" cx="269.54" cy="-162" rx="57.39" ry="18"/>
      <text text-anchor="middle" x="269.54" y="-158.3" font-family="Times,serif" font-size="14.00">:core:data</text>
    </g>
    <g id="edge5" class="edge">
      <title>:core:auth-&gt;:core:data</title>
      <path fill="none" stroke="red" stroke-width="2" d="M269.54,-215.7C269.54,-207.98 269.54,-198.71 269.54,-190.11"/>
      <polygon fill="red" stroke="red" stroke-width="2" points="273.04,-190.1 269.54,-180.1 266.04,-190.1 273.04,-190.1"/>
    </g>
    <g id="node12" class="node">
      <title>:core:designsystem</title>
      <ellipse fill="none" stroke="black" cx="609.54" cy="-162" rx="100.98" ry="18"/>
      <text text-anchor="middle" x="609.54" y="-158.3" font-family="Times,serif" font-size="14.00">:core:designsystem</text>
    </g>
    <g id="edge11" class="edge">
      <title>:core:feedback-&gt;:core:designsystem</title>
      <path fill="none" stroke="black" d="M608.79,-215.7C608.9,-207.98 609.03,-198.71 609.15,-190.11"/>
      <polygon fill="black" stroke="black" points="612.65,-190.15 609.3,-180.1 605.65,-190.05 612.65,-190.15"/>
    </g>
    <g id="node8" class="node">
      <title>:core:analytics</title>
      <ellipse fill="none" stroke="black" cx="445.54" cy="-90" rx="77.99" ry="18"/>
      <text text-anchor="middle" x="445.54" y="-86.3" font-family="Times,serif" font-size="14.00">:core:analytics</text>
    </g>
    <g id="edge14" class="edge">
      <title>:core:ui-&gt;:core:analytics</title>
      <path fill="none" stroke="black" d="M445.54,-143.7C445.54,-135.98 445.54,-126.71 445.54,-118.11"/>
      <polygon fill="black" stroke="black" points="449.04,-118.1 445.54,-108.1 442.04,-118.1 449.04,-118.1"/>
    </g>
    <g id="node7" class="node">
      <title>:core:datastore</title>
      <ellipse fill="none" stroke="black" cx="268.54" cy="-90" rx="81.49" ry="18"/>
      <text text-anchor="middle" x="268.54" y="-86.3" font-family="Times,serif" font-size="14.00">:core:datastore</text>
    </g>
    <g id="edge6" class="edge">
      <title>:core:data-&gt;:core:datastore</title>
      <path fill="none" stroke="red" stroke-width="2" d="M269.29,-143.7C269.18,-135.98 269.05,-126.71 268.93,-118.11"/>
      <polygon fill="red" stroke="red" stroke-width="2" points="272.43,-118.05 268.78,-108.1 265.43,-118.15 272.43,-118.05"/>
    </g>
    <g id="edge7" class="edge">
      <title>:core:data-&gt;:core:analytics</title>
      <path fill="none" stroke="black" d="M303.47,-147.5C330.52,-136.75 368.68,-121.57 398.64,-109.65"/>
      <polygon fill="black" stroke="black" points="400.06,-112.86 408.05,-105.91 397.47,-106.35 400.06,-112.86"/>
    </g>
    <g id="node9" class="node">
      <title>:core:datastore-proto</title>
      <ellipse fill="none" stroke="black" cx="108.54" cy="-18" rx="108.58" ry="18"/>
      <text text-anchor="middle" x="108.54" y="-14.3" font-family="Times,serif" font-size="14.00">:core:datastore-proto</text>
    </g>
    <g id="edge8" class="edge">
      <title>:core:datastore-&gt;:core:datastore-proto</title>
      <path fill="none" stroke="red" stroke-width="2" d="M233.43,-73.64C210.26,-63.5 179.67,-50.12 154.57,-39.14"/>
      <polygon fill="red" stroke="red" stroke-width="2" points="155.8,-35.86 145.24,-35.06 153,-42.27 155.8,-35.86"/>
    </g>
    <g id="node10" class="node">
      <title>:core:model</title>
      <ellipse fill="none" stroke="black" cx="300.54" cy="-18" rx="64.99" ry="18"/>
      <text text-anchor="middle" x="300.54" y="-14.3" font-family="Times,serif" font-size="14.00">:core:model</text>
    </g>
    <g id="edge9" class="edge">
      <title>:core:datastore-&gt;:core:model</title>
      <path fill="none" stroke="black" d="M276.29,-72.05C279.93,-64.09 284.35,-54.41 288.42,-45.51"/>
      <polygon fill="black" stroke="black" points="291.67,-46.83 292.64,-36.28 285.3,-43.91 291.67,-46.83"/>
    </g>
    <g id="node11" class="node">
      <title>:core:common</title>
      <ellipse fill="none" stroke="black" cx="520.54" cy="-18" rx="75.29" ry="18"/>
      <text text-anchor="middle" x="520.54" y="-14.3" font-family="Times,serif" font-size="14.00">:core:common</text>
    </g>
    <g id="edge10" class="edge">
      <title>:core:datastore-&gt;:core:common</title>
      <path fill="none" stroke="black" d="M317.13,-75.5C359.01,-63.87 419.53,-47.06 463.66,-34.8"/>
      <polygon fill="black" stroke="black" points="464.68,-38.15 473.38,-32.1 462.81,-31.4 464.68,-38.15"/>
    </g>
    <g id="edge13" class="edge">
      <title>:core:designsystem-&gt;:core:common</title>
      <path fill="none" stroke="black" d="M595.99,-143.71C588.22,-133.54 578.47,-120.29 570.54,-108 557.32,-87.52 543.88,-63.36 534.26,-45.38"/>
      <polygon fill="black" stroke="black" points="537.11,-43.29 529.34,-36.09 530.93,-46.57 537.11,-43.29"/>
    </g>
    <g id="node13" class="node">
      <title>:core:accessibility</title>
      <ellipse fill="none" stroke="black" cx="673.54" cy="-90" rx="93.68" ry="18"/>
      <text text-anchor="middle" x="673.54" y="-86.3" font-family="Times,serif" font-size="14.00">:core:accessibility</text>
    </g>
    <g id="edge12" class="edge">
      <title>:core:designsystem-&gt;:core:accessibility</title>
      <path fill="none" stroke="black" d="M625.03,-144.05C632.89,-135.46 642.59,-124.86 651.23,-115.4"/>
      <polygon fill="black" stroke="black" points="654.03,-117.53 658.19,-107.79 648.86,-112.81 654.03,-117.53"/>
    </g>
  </g>
</svg>
