<?xml version="1.0" encoding="UTF-8" standalone="no"?>
<!DOCTYPE svg PUBLIC "-//W3C//DTD SVG 1.1//EN" "http://www.w3.org/Graphics/SVG/1.1/DTD/svg11.dtd">
<svg xmlns:xlink="http://www.w3.org/1999/xlink" height="332pt" viewBox="0.00 0.00 1068.34 332.00"
    width="1068pt" xmlns="http://www.w3.org/2000/svg">
    <g class="graph" id="graph0" transform="scale(1 1) rotate(0) translate(4 328)">
    <title>G</title>
        <polygon fill="white" points="-4,4 -4,-328 1064.34,-328 1064.34,4 -4,4"
            stroke="transparent" />
    <g id="node1" class="node">
      <title>:app</title>
        <ellipse cx="422.34" cy="-306" fill="none" rx="30.59" ry="18" stroke="black" />
        <text font-family="Times,serif" font-size="14.00" text-anchor="middle" x="422.34"
            y="-302.3">:app
        </text>
    </g>
    <g id="node2" class="node">
      <title>:feature:aboutme</title>
        <ellipse cx="151.34" cy="-234" fill="none" rx="90.98" ry="18" stroke="black" />
        <text font-family="Times,serif" font-size="14.00" text-anchor="middle" x="151.34"
            y="-230.3">:feature:aboutme
        </text>
    </g>
    <g id="edge1" class="edge">
      <title>:app-&gt;:feature:aboutme</title>
        <path d="M394.87,-297.9C352.85,-287.05 271.51,-266.04 214.43,-251.3" fill="none" stroke="red"
            stroke-width="2" />
        <polygon fill="red" points="214.99,-247.82 204.43,-248.71 213.24,-254.6 214.99,-247.82" stroke="red"
            stroke-width="2" />
    </g>
    <g id="node3" class="node">
      <title>:feature:dashboard</title>
        <ellipse cx="717.34" cy="-234" fill="none" rx="98.58" ry="18" stroke="black" />
        <text font-family="Times,serif" font-size="14.00" text-anchor="middle" x="717.34"
            y="-230.3">:feature:dashboard
        </text>
    </g>
    <g id="edge2" class="edge">
      <title>:app-&gt;:feature:dashboard</title>
        <path d="M450.1,-298.41C495.43,-287.66 586.65,-266.01 649.82,-251.02" fill="none"
            stroke="black" />
        <polygon fill="black" points="650.78,-254.39 659.7,-248.68 649.17,-247.58 650.78,-254.39"
            stroke="black" />
    </g>
    <g id="node4" class="node">
      <title>:feature:login</title>
        <ellipse cx="333.34" cy="-234" fill="none" rx="73.39" ry="18" stroke="black" />
        <text font-family="Times,serif" font-size="14.00" text-anchor="middle" x="333.34"
            y="-230.3">:feature:login
        </text>
    </g>
    <g id="edge3" class="edge">
      <title>:app-&gt;:feature:login</title>
        <path d="M404.76,-291.17C392.65,-281.64 376.28,-268.77 362.26,-257.75" fill="none"
            stroke="black" />
        <polygon fill="black" points="364.36,-254.94 354.34,-251.51 360.03,-260.44 364.36,-254.94"
            stroke="black" />
    </g>
    <g id="node5" class="node">
      <title>:feature:settings</title>
        <ellipse cx="512.34" cy="-234" fill="none" rx="87.99" ry="18" stroke="black" />
        <text font-family="Times,serif" font-size="14.00" text-anchor="middle" x="512.34"
            y="-230.3">:feature:settings
        </text>
    </g>
    <g id="edge4" class="edge">
      <title>:app-&gt;:feature:settings</title>
        <path d="M440.13,-291.17C452.37,-281.64 468.93,-268.77 483.1,-257.75" fill="none"
            stroke="black" />
        <polygon fill="black" points="485.37,-260.41 491.12,-251.51 481.07,-254.89 485.37,-260.41"
            stroke="black" />
    </g>
    <g id="node6" class="node">
      <title>:core:feedback</title>
        <ellipse cx="464.34" cy="-162" fill="none" rx="77.99" ry="18" stroke="black" />
        <text font-family="Times,serif" font-size="14.00" text-anchor="middle" x="464.34"
            y="-158.3">:core:feedback
        </text>
    </g>
    <g id="edge5" class="edge">
      <title>:feature:aboutme-&gt;:core:feedback</title>
        <path d="M209.12,-220.08C263.36,-207.95 344.34,-189.84 400.48,-177.28" fill="none" stroke="red"
            stroke-width="2" />
        <polygon fill="red" points="401.31,-180.68 410.31,-175.08 399.79,-173.85 401.31,-180.68" stroke="red"
            stroke-width="2" />
    </g>
        <g class="node" id="node7">
      <title>:core:common</title>
            <ellipse cx="427.34" cy="-18" fill="none" rx="75.29" ry="18" stroke="black" />
            <text font-family="Times,serif" font-size="14.00" text-anchor="middle" x="427.34"
                y="-14.3">:core:common
            </text>
    </g>
        <g class="edge" id="edge6">
      <title>:feature:aboutme-&gt;:core:common</title>
            <path d="M143.78,-215.75C136.44,-196.04 128.64,-163.95 145.34,-144 203.9,-74.09 267.64,-152.32 347.34,-108 361.82,-99.95 389.29,-67.41 407.96,-44.01" fill="none"
                stroke="black" />
            <polygon fill="black" points="410.94,-45.87 414.4,-35.86 405.45,-41.53 410.94,-45.87"
                stroke="black" />
    </g>
        <g class="node" id="node8">
      <title>:core:config</title>
            <ellipse cx="64.34" cy="-18" fill="none" rx="64.19" ry="18" stroke="black" />
            <text font-family="Times,serif" font-size="14.00" text-anchor="middle" x="64.34"
                y="-14.3">:core:config
            </text>
    </g>
        <g class="edge" id="edge7">
      <title>:feature:aboutme-&gt;:core:config</title>
            <path d="M136.35,-215.85C128.31,-205.93 118.76,-192.88 112.34,-180 90.27,-135.67 76.36,-79.31 69.5,-46.39" fill="none"
                stroke="black" />
            <polygon fill="black" points="72.84,-45.28 67.44,-36.17 65.98,-46.67 72.84,-45.28"
                stroke="black" />
    </g>
        <g class="node" id="node9">
      <title>:core:shapes</title>
            <ellipse cx="223.34" cy="-162" fill="none" rx="68.79" ry="18" stroke="black" />
            <text font-family="Times,serif" font-size="14.00" text-anchor="middle" x="223.34"
                y="-158.3">:core:shapes
            </text>
    </g>
        <g class="edge" id="edge8">
      <title>:feature:aboutme-&gt;:core:shapes</title>
            <path d="M168.77,-216.05C177.79,-207.28 188.96,-196.43 198.83,-186.83" fill="none"
                stroke="black" />
            <polygon fill="black" points="201.35,-189.27 206.08,-179.79 196.47,-184.25 201.35,-189.27"
                stroke="black" />
    </g>
        <g class="edge" id="edge15">
      <title>:feature:dashboard-&gt;:core:feedback</title>
            <path d="M665.54,-218.67C623.82,-207.12 565.23,-190.91 522.03,-178.96" fill="none"
                stroke="black" />
            <polygon fill="black" points="522.8,-175.54 512.23,-176.25 520.94,-182.29 522.8,-175.54"
                stroke="black" />
    </g>
        <g class="node" id="node14">
      <title>:core:data</title>
            <ellipse cx="655.34" cy="-162" fill="none" rx="57.39" ry="18" stroke="black" />
            <text font-family="Times,serif" font-size="14.00" text-anchor="middle" x="655.34"
                y="-158.3">:core:data
            </text>
    </g>
        <g class="edge" id="edge16">
      <title>:feature:dashboard-&gt;:core:data</title>
            <path d="M702.34,-216.05C694.72,-207.46 685.33,-196.86 676.95,-187.4" fill="none"
                stroke="black" />
            <polygon fill="black" points="679.47,-184.95 670.21,-179.79 674.22,-189.6 679.47,-184.95"
                stroke="black" />
    </g>
        <g class="edge" id="edge24">
      <title>:feature:login-&gt;:core:feedback</title>
            <path d="M362.42,-217.46C381.11,-207.48 405.61,-194.38 425.91,-183.54" fill="none"
                stroke="black" />
            <polygon fill="black" points="427.73,-186.53 434.9,-178.73 424.43,-180.36 427.73,-186.53"
                stroke="black" />
    </g>
        <g class="edge" id="edge27">
      <title>:feature:login-&gt;:core:shapes</title>
            <path d="M308.11,-216.94C293.02,-207.34 273.64,-195.01 257.23,-184.56" fill="none"
                stroke="black" />
            <polygon fill="black" points="258.78,-181.4 248.46,-178.98 255.02,-187.31 258.78,-181.4"
                stroke="black" />
        </g>
        <g class="edge" id="edge26">
            <title>:feature:login-&gt;:core:data</title>
            <path d="M386.52,-221.44C445.36,-208.65 539.78,-188.12 599.63,-175.11" fill="none"
                stroke="black" />
            <polygon fill="black" points="600.63,-178.48 609.66,-172.93 599.14,-171.64 600.63,-178.48"
                stroke="black" />
    </g>
        <g class="node" id="node15">
      <title>:core:auth</title>
            <ellipse cx="452.34" cy="-90" fill="none" rx="57.69" ry="18" stroke="black" />
            <text font-family="Times,serif" font-size="14.00" text-anchor="middle" x="452.34"
                y="-86.3">:core:auth
            </text>
    </g>
        <g class="edge" id="edge25">
      <title>:feature:login-&gt;:core:auth</title>
            <path d="M338.94,-215.8C345.77,-196.71 358.75,-165.75 377.34,-144 388.22,-131.28 402.8,-120.07 416.2,-111.28" fill="none"
                stroke="black" />
            <polygon fill="black" points="418.2,-114.16 424.79,-105.87 414.47,-108.24 418.2,-114.16"
                stroke="black" />
    </g>
        <g class="edge" id="edge30">
      <title>:feature:settings-&gt;:core:feedback</title>
            <path d="M500.72,-216.05C495.09,-207.84 488.2,-197.79 481.94,-188.66" fill="none"
                stroke="black" />
            <polygon fill="black" points="484.73,-186.54 476.19,-180.28 478.96,-190.5 484.73,-186.54"
                stroke="black" />
    </g>
        <g class="edge" id="edge28">
            <title>:feature:settings-&gt;:core:config</title>
            <path d="M471.88,-217.94C444.91,-207.7 408.77,-193.59 377.34,-180 343.04,-165.16 336.78,-155.87 301.34,-144 226.46,-118.92 193.43,-151.24 127.34,-108 114.83,-99.81 93.76,-67.82 79.46,-44.53" fill="none"
                stroke="black" />
            <polygon fill="black" points="82.34,-42.53 74.17,-35.79 76.36,-46.16 82.34,-42.53"
                stroke="black" />
        </g>
        <g class="node" id="node11">
            <title>:core:ui</title>
            <ellipse cx="573.34" cy="-90" fill="none" rx="45.49" ry="18" stroke="black" />
            <text font-family="Times,serif" font-size="14.00" text-anchor="middle" x="573.34"
                y="-86.3">:core:ui
            </text>
        </g>
        <g class="edge" id="edge31">
      <title>:feature:settings-&gt;:core:ui</title>
            <path d="M527.57,-215.96C535.69,-206.08 545.23,-193.03 551.34,-180 560.61,-160.24 566.26,-136.12 569.51,-117.98" fill="none"
                stroke="black" />
            <polygon fill="black" points="572.97,-118.5 571.16,-108.06 566.06,-117.36 572.97,-118.5"
                stroke="black" />
    </g>
        <g class="edge" id="edge29">
      <title>:feature:settings-&gt;:core:data</title>
            <path d="M544.79,-217.12C565.99,-206.74 593.8,-193.13 616.22,-182.15" fill="none"
                stroke="black" />
            <polygon fill="black" points="618.02,-185.17 625.46,-177.63 614.94,-178.88 618.02,-185.17"
                stroke="black" />
    </g>
        <g class="node" id="node10">
      <title>:core:designsystem</title>
            <ellipse cx="237.34" cy="-90" fill="none" rx="100.98" ry="18" stroke="black" />
            <text font-family="Times,serif" font-size="14.00" text-anchor="middle" x="237.34"
                y="-86.3">:core:designsystem
            </text>
    </g>
        <g class="edge" id="edge9">
      <title>:core:feedback-&gt;:core:designsystem</title>
            <path d="M419.5,-147.17C383.88,-136.19 333.82,-120.75 295.19,-108.84" fill="none" stroke="red"
                stroke-width="2" />
            <polygon fill="red" points="296.22,-105.49 285.63,-105.89 294.16,-112.18 296.22,-105.49" stroke="red"
                stroke-width="2" />
    </g>
        <g class="edge" id="edge10">
            <title>:core:feedback-&gt;:core:ui</title>
            <path d="M489.35,-144.94C504.84,-135 524.87,-122.13 541.48,-111.46" fill="none"
                stroke="black" />
            <polygon fill="black" points="543.79,-114.14 550.31,-105.79 540.01,-108.25 543.79,-114.14"
                stroke="black" />
    </g>
        <g class="edge" id="edge12">
      <title>:core:designsystem-&gt;:core:common</title>
            <path d="M279.51,-73.46C308.81,-62.67 347.94,-48.25 378.58,-36.96" fill="none"
                stroke="black" />
            <polygon fill="black" points="380.04,-40.16 388.21,-33.42 377.62,-33.59 380.04,-40.16"
                stroke="black" />
    </g>
        <g class="edge" id="edge13">
      <title>:core:designsystem-&gt;:core:config</title>
            <path d="M198.52,-73.29C171.96,-62.55 136.69,-48.27 108.97,-37.06" fill="none"
                stroke="black" />
            <polygon fill="black" points="110.09,-33.74 99.51,-33.23 107.47,-40.22 110.09,-33.74"
                stroke="black" />
    </g>
        <g class="node" id="node12">
      <title>:core:accessibility</title>
            <ellipse cx="240.34" cy="-18" fill="none" rx="93.68" ry="18" stroke="black" />
            <text font-family="Times,serif" font-size="14.00" text-anchor="middle" x="240.34"
                y="-14.3">:core:accessibility
            </text>
    </g>
        <g class="edge" id="edge11">
      <title>:core:designsystem-&gt;:core:accessibility</title>
            <path d="M238.09,-71.7C238.42,-63.98 238.81,-54.71 239.18,-46.11" fill="none" stroke="red"
                stroke-width="2" />
            <polygon fill="red" points="242.68,-46.25 239.61,-36.1 235.69,-45.95 242.68,-46.25" stroke="red"
                stroke-width="2" />
    </g>
        <g class="node" id="node13">
            <title>:core:analytics</title>
            <ellipse cx="598.34" cy="-18" fill="none" rx="77.99" ry="18" stroke="black" />
            <text font-family="Times,serif" font-size="14.00" text-anchor="middle" x="598.34"
                y="-14.3">:core:analytics
            </text>
        </g>
        <g class="edge" id="edge14">
            <title>:core:ui-&gt;:core:analytics</title>
            <path d="M579.4,-72.05C582.21,-64.18 585.62,-54.62 588.77,-45.79" fill="none"
                stroke="black" />
            <polygon fill="black" points="592.11,-46.87 592.17,-36.28 585.52,-44.52 592.11,-46.87"
                stroke="black" />
        </g>
        <g class="edge" id="edge17">
      <title>:core:data-&gt;:core:analytics</title>
            <path d="M651.04,-143.91C646.21,-125.73 637.69,-96.29 627.34,-72 623.52,-63.03 618.65,-53.58 613.99,-45.18" fill="none"
                stroke="black" />
            <polygon fill="black" points="616.89,-43.19 608.9,-36.24 610.81,-46.66 616.89,-43.19"
                stroke="black" />
    </g>
        <g class="edge" id="edge18">
      <title>:core:data-&gt;:core:auth</title>
            <path d="M618.11,-148.16C584.74,-136.65 535.61,-119.71 499.5,-107.26" fill="none"
                stroke="black" />
            <polygon fill="black" points="500.28,-103.83 489.68,-103.88 498,-110.44 500.28,-103.83"
                stroke="black" />
    </g>
        <g class="node" id="node16">
      <title>:core:datastore</title>
            <ellipse cx="782.34" cy="-90" fill="none" rx="81.49" ry="18" stroke="black" />
            <text font-family="Times,serif" font-size="14.00" text-anchor="middle" x="782.34"
                y="-86.3">:core:datastore
            </text>
    </g>
        <g class="edge" id="edge19">
      <title>:core:data-&gt;:core:datastore</title>
            <path d="M682.59,-145.98C700.67,-136.02 724.64,-122.81 744.55,-111.83" fill="none"
                stroke="black" />
            <polygon fill="black" points="746.31,-114.86 753.38,-106.97 742.93,-108.73 746.31,-114.86"
                stroke="black" />
    </g>
        <g class="edge" id="edge20">
      <title>:core:auth-&gt;:core:common</title>
            <path d="M446.29,-72.05C443.48,-64.18 440.06,-54.62 436.91,-45.79" fill="none"
                stroke="black" />
            <polygon fill="black" points="440.17,-44.52 433.51,-36.28 433.58,-46.87 440.17,-44.52"
                stroke="black" />
    </g>
        <g class="edge" id="edge23">
      <title>:core:datastore-&gt;:core:common</title>
            <path d="M723.38,-77.58C668.47,-66.92 584.34,-50.52 511.34,-36 505.31,-34.8 499.04,-33.54 492.75,-32.28" fill="none"
                stroke="black" />
            <polygon fill="black" points="493.4,-28.84 482.91,-30.3 492.02,-35.7 493.4,-28.84"
                stroke="black" />
    </g>
        <g class="node" id="node17">
      <title>:core:datastore-proto</title>
            <ellipse cx="803.34" cy="-18" fill="none" rx="108.58" ry="18" stroke="black" />
            <text font-family="Times,serif" font-size="14.00" text-anchor="middle" x="803.34"
                y="-14.3">:core:datastore-proto
            </text>
    </g>
        <g class="edge" id="edge21">
      <title>:core:datastore-&gt;:core:datastore-proto</title>
            <path d="M787.54,-71.7C789.87,-63.9 792.69,-54.51 795.3,-45.83" fill="none"
                stroke="black" />
            <polygon fill="black" points="798.69,-46.69 798.21,-36.1 791.99,-44.68 798.69,-46.69"
                stroke="black" />
    </g>
        <g class="node" id="node18">
      <title>:core:model</title>
            <ellipse cx="995.34" cy="-18" fill="none" rx="64.99" ry="18" stroke="black" />
            <text font-family="Times,serif" font-size="14.00" text-anchor="middle" x="995.34"
                y="-14.3">:core:model
            </text>
    </g>
        <g class="edge" id="edge22">
      <title>:core:datastore-&gt;:core:model</title>
            <path d="M825.7,-74.75C860.28,-63.39 908.76,-47.46 945.04,-35.53" fill="none"
                stroke="black" />
            <polygon fill="black" points="946.52,-38.73 954.93,-32.28 944.34,-32.08 946.52,-38.73"
                stroke="black" />
    </g>
  </g>
</svg>
