<?xml version="1.0" encoding="UTF-8" standalone="no"?>
<!DOCTYPE svg PUBLIC "-//W3C//DTD SVG 1.1//EN"
 "http://www.w3.org/Graphics/SVG/1.1/DTD/svg11.dtd">
<!-- Generated by graphviz version 2.43.0 (0)
 -->
<!-- Title: G Pages: 1 -->
<svg width="541pt" height="188pt"
 viewBox="0.00 0.00 540.59 188.00" xmlns="http://www.w3.org/2000/svg" xmlns:xlink="http://www.w3.org/1999/xlink">
<g id="graph0" class="graph" transform="scale(1 1) rotate(0) translate(4 184)">
<title>G</title>
<polygon fill="white" stroke="transparent" points="-4,4 -4,-184 536.59,-184 536.59,4 -4,4"/>
<!-- :core:ui -->
<g id="node1" class="node">
<title>:core:ui</title>
<ellipse fill="none" stroke="black" cx="283.59" cy="-162" rx="45.49" ry="18"/>
<text text-anchor="middle" x="283.59" y="-158.3" font-family="Times,serif" font-size="14.00">:core:ui</text>
</g>
<!-- :core:analytics -->
<g id="node2" class="node">
<title>:core:analytics</title>
<ellipse fill="none" stroke="black" cx="86.59" cy="-90" rx="77.99" ry="18"/>
<text text-anchor="middle" x="86.59" y="-86.3" font-family="Times,serif" font-size="14.00">:core:analytics</text>
</g>
<!-- :core:ui&#45;&gt;:core:analytics -->
<g id="edge1" class="edge">
<title>:core:ui&#45;&gt;:core:analytics</title>
<path fill="none" stroke="black" d="M250.62,-149.28C219.58,-138.26 172.66,-121.58 136.94,-108.89"/>
<polygon fill="black" stroke="black" points="137.78,-105.47 127.18,-105.42 135.44,-112.07 137.78,-105.47"/>
</g>
<!-- :core:designsystem -->
<g id="node3" class="node">
<title>:core:designsystem</title>
<ellipse fill="none" stroke="black" cx="283.59" cy="-90" rx="100.98" ry="18"/>
<text text-anchor="middle" x="283.59" y="-86.3" font-family="Times,serif" font-size="14.00">:core:designsystem</text>
</g>
<!-- :core:ui&#45;&gt;:core:designsystem -->
<g id="edge2" class="edge">
<title>:core:ui&#45;&gt;:core:designsystem</title>
<path fill="none" stroke="red" stroke-width="2" d="M283.59,-143.7C283.59,-135.98 283.59,-126.71 283.59,-118.11"/>
<polygon fill="red" stroke="red" stroke-width="2" points="287.09,-118.1 283.59,-108.1 280.09,-118.1 287.09,-118.1"/>
</g>
<!-- :core:model -->
<g id="node4" class="node">
<title>:core:model</title>
<ellipse fill="none" stroke="black" cx="467.59" cy="-90" rx="64.99" ry="18"/>
<text text-anchor="middle" x="467.59" y="-86.3" font-family="Times,serif" font-size="14.00">:core:model</text>
</g>
<!-- :core:ui&#45;&gt;:core:model -->
<g id="edge3" class="edge">
<title>:core:ui&#45;&gt;:core:model</title>
<path fill="none" stroke="black" d="M315.22,-148.97C344.49,-137.83 388.36,-121.14 421.52,-108.53"/>
<polygon fill="black" stroke="black" points="422.9,-111.75 431.01,-104.92 420.42,-105.2 422.9,-111.75"/>
</g>
<!-- :core:accessibility -->
<g id="node5" class="node">
<title>:core:accessibility</title>
<ellipse fill="none" stroke="black" cx="93.59" cy="-18" rx="93.68" ry="18"/>
<text text-anchor="middle" x="93.59" y="-14.3" font-family="Times,serif" font-size="14.00">:core:accessibility</text>
</g>
<!-- :core:designsystem&#45;&gt;:core:accessibility -->
<g id="edge4" class="edge">
<title>:core:designsystem&#45;&gt;:core:accessibility</title>
<path fill="none" stroke="red" stroke-width="2" d="M241.42,-73.46C212.82,-62.92 174.83,-48.93 144.53,-37.77"/>
<polygon fill="red" stroke="red" stroke-width="2" points="145.58,-34.42 134.99,-34.25 143.16,-40.99 145.58,-34.42"/>
</g>
<!-- :core:feedback -->
<g id="node6" class="node">
<title>:core:feedback</title>
<ellipse fill="none" stroke="black" cx="283.59" cy="-18" rx="77.99" ry="18"/>
<text text-anchor="middle" x="283.59" y="-14.3" font-family="Times,serif" font-size="14.00">:core:feedback</text>
</g>
<!-- :core:designsystem&#45;&gt;:core:feedback -->
<g id="edge5" class="edge">
<title>:core:designsystem&#45;&gt;:core:feedback</title>
<path fill="none" stroke="black" d="M283.59,-71.7C283.59,-63.98 283.59,-54.71 283.59,-46.11"/>
<polygon fill="black" stroke="black" points="287.09,-46.1 283.59,-36.1 280.09,-46.1 287.09,-46.1"/>
</g>
<!-- :core:common -->
<g id="node7" class="node">
<title>:core:common</title>
<ellipse fill="none" stroke="black" cx="454.59" cy="-18" rx="75.29" ry="18"/>
<text text-anchor="middle" x="454.59" y="-14.3" font-family="Times,serif" font-size="14.00">:core:common</text>
</g>
<!-- :core:designsystem&#45;&gt;:core:common -->
<g id="edge6" class="edge">
<title>:core:designsystem&#45;&gt;:core:common</title>
<path fill="none" stroke="black" d="M321.97,-73.29C347.78,-62.73 381.92,-48.75 409.09,-37.62"/>
<polygon fill="black" stroke="black" points="410.46,-40.85 418.39,-33.82 407.81,-34.37 410.46,-40.85"/>
</g>
</g>
</svg>
