<?xml version="1.0" encoding="UTF-8" standalone="no"?>
<!DOCTYPE svg PUBLIC "-//W3C//DTD SVG 1.1//EN" "http://www.w3.org/Graphics/SVG/1.1/DTD/svg11.dtd">
<svg height="260pt" viewBox="0.00 0.00 1005.59 260.00" width="1006pt"
    xmlns="http://www.w3.org/2000/svg">
  <g id="graph0" class="graph" transform="scale(1 1) rotate(0) translate(4 256)">
    <title>G</title>
    <polygon fill="white" points="-4,4 -4,-256 1001.59,-256 1001.59,4 -4,4" stroke="transparent" />
    <g id="node1" class="node">
      <title>:feature:dashboard</title>
      <ellipse cx="447.59" cy="-234" fill="none" rx="98.58" ry="18" stroke="black" />
      <text font-family="Times,serif" font-size="14.00" text-anchor="middle" x="447.59" y="-230.3">
        :feature:dashboard
      </text>
    </g>
    <g id="node2" class="node">
      <title>:core:feedback</title>
      <ellipse cx="278.59" cy="-162" fill="none" rx="77.99" ry="18" stroke="black" />
      <text font-family="Times,serif" font-size="14.00" text-anchor="middle" x="278.59" y="-158.3">
        :core:feedback
      </text>
    </g>
    <g id="edge1" class="edge">
      <title>:feature:dashboard-&gt;:core:feedback</title>
      <path d="M409.66,-217.29C384.44,-206.84 351.17,-193.06 324.46,-182" fill="none" stroke="red"
          stroke-width="2" />
      <polygon fill="red" points="325.52,-178.65 314.94,-178.06 322.84,-185.12 325.52,-178.65"
          stroke="red" stroke-width="2" />
    </g>
    <g id="node3" class="node">
      <title>:core:ui</title>
      <ellipse cx="447.59" cy="-162" fill="none" rx="45.49" ry="18" stroke="black" />
      <text font-family="Times,serif" font-size="14.00" text-anchor="middle" x="447.59" y="-158.3">
        :core:ui
      </text>
    </g>
    <g id="edge2" class="edge">
      <title>:feature:dashboard-&gt;:core:ui</title>
      <path d="M447.59,-215.7C447.59,-207.98 447.59,-198.71 447.59,-190.11" fill="none"
          stroke="black" />
      <polygon fill="black" points="451.09,-190.1 447.59,-180.1 444.09,-190.1 451.09,-190.1"
          stroke="black" />
    </g>
    <g id="node4" class="node">
      <title>:core:data</title>
      <ellipse cx="584.59" cy="-162" fill="none" rx="57.39" ry="18" stroke="black" />
      <text font-family="Times,serif" font-size="14.00" text-anchor="middle" x="584.59" y="-158.3">
        :core:data
      </text>
    </g>
    <g id="edge3" class="edge">
      <title>:feature:dashboard-&gt;:core:data</title>
      <path d="M479.37,-216.76C499.47,-206.49 525.57,-193.16 546.75,-182.34" fill="none"
          stroke="black" />
      <polygon fill="black" points="548.48,-185.38 555.79,-177.72 545.29,-179.15 548.48,-185.38"
          stroke="black" />
    </g>
    <g id="node5" class="node">
      <title>:core:designsystem</title>
      <ellipse cx="250.59" cy="-90" fill="none" rx="100.98" ry="18" stroke="black" />
      <text font-family="Times,serif" font-size="14.00" text-anchor="middle" x="250.59" y="-86.3">
        :core:designsystem
      </text>
    </g>
    <g id="edge4" class="edge">
      <title>:core:feedback-&gt;:core:designsystem</title>
      <path d="M271.81,-144.05C268.66,-136.18 264.84,-126.62 261.31,-117.79" fill="none"
          stroke="red" stroke-width="2" />
      <polygon fill="red" points="264.47,-116.26 257.5,-108.28 257.97,-118.86 264.47,-116.26"
          stroke="red" stroke-width="2" />
    </g>
    <g id="node9" class="node">
      <title>:core:analytics</title>
      <ellipse cx="447.59" cy="-90" fill="none" rx="77.99" ry="18" stroke="black" />
      <text font-family="Times,serif" font-size="14.00" text-anchor="middle" x="447.59" y="-86.3">
        :core:analytics
      </text>
    </g>
    <g id="edge8" class="edge">
      <title>:core:ui-&gt;:core:analytics</title>
      <path d="M447.59,-143.7C447.59,-135.98 447.59,-126.71 447.59,-118.11" fill="none"
          stroke="black" />
      <polygon fill="black" points="451.09,-118.1 447.59,-108.1 444.09,-118.1 451.09,-118.1"
          stroke="black" />
    </g>
    <g class="edge" id="edge9">
      <title>:core:data-&gt;:core:analytics</title>
      <path d="M555.87,-146.33C535.96,-136.15 509.19,-122.47 487.25,-111.26" fill="none"
          stroke="black" />
      <polygon fill="black" points="488.67,-108.06 478.18,-106.63 485.49,-114.29 488.67,-108.06"
          stroke="black" />
    </g>
    <g id="node10" class="node">
      <title>:core:auth</title>
      <ellipse cx="601.59" cy="-90" fill="none" rx="57.69" ry="18" stroke="black" />
      <text font-family="Times,serif" font-size="14.00" text-anchor="middle" x="601.59" y="-86.3">
        :core:auth
      </text>
    </g>
    <g class="edge" id="edge10">
      <title>:core:data-&gt;:core:auth</title>
      <path d="M588.79,-143.7C590.69,-135.9 592.97,-126.51 595.08,-117.83" fill="none"
          stroke="black" />
      <polygon fill="black" points="598.48,-118.65 597.44,-108.1 591.68,-117 598.48,-118.65"
          stroke="black" />
    </g>
    <g class="node" id="node11">
      <title>:core:datastore</title>
      <ellipse cx="758.59" cy="-90" fill="none" rx="81.49" ry="18" stroke="black" />
      <text font-family="Times,serif" font-size="14.00" text-anchor="middle" x="758.59" y="-86.3">
        :core:datastore
      </text>
    </g>
    <g class="edge" id="edge11">
      <title>:core:data-&gt;:core:datastore</title>
      <path d="M618.55,-147.34C645.03,-136.68 682.11,-121.77 711.46,-109.96" fill="none"
          stroke="black" />
      <polygon fill="black" points="713.12,-113.06 721.1,-106.08 710.51,-106.57 713.12,-113.06"
          stroke="black" />
    </g>
    <g id="node6" class="node">
      <title>:core:accessibility</title>
      <ellipse fill="none" stroke="black" cx="93.59" cy="-18" rx="93.68" ry="18"/>
      <text text-anchor="middle" x="93.59" y="-14.3" font-family="Times,serif" font-size="14.00">:core:accessibility</text>
    </g>
    <g id="edge5" class="edge">
      <title>:core:designsystem-&gt;:core:accessibility</title>
      <path d="M214.97,-73.12C192.2,-62.97 162.5,-49.72 138.18,-38.88" fill="none" stroke="red"
          stroke-width="2" />
      <polygon fill="red" points="139.36,-35.58 128.81,-34.7 136.51,-41.97 139.36,-35.58"
          stroke="red" stroke-width="2" />
    </g>
    <g id="node7" class="node">
      <title>:core:common</title>
      <ellipse cx="501.59" cy="-18" fill="none" rx="75.29" ry="18" stroke="black" />
      <text font-family="Times,serif" font-size="14.00" text-anchor="middle" x="501.59" y="-14.3">
        :core:common
      </text>
    </g>
    <g id="edge6" class="edge">
      <title>:core:designsystem-&gt;:core:common</title>
      <path d="M302.6,-74.5C344.03,-62.94 401.96,-46.79 444.63,-34.88" fill="none" stroke="black" />
      <polygon fill="black" points="445.62,-38.24 454.31,-32.19 443.74,-31.5 445.62,-38.24"
          stroke="black" />
    </g>
    <g id="node8" class="node">
      <title>:core:config</title>
      <ellipse fill="none" stroke="black" cx="269.59" cy="-18" rx="64.19" ry="18"/>
      <text text-anchor="middle" x="269.59" y="-14.3" font-family="Times,serif" font-size="14.00">:core:config</text>
    </g>
    <g id="edge7" class="edge">
      <title>:core:designsystem-&gt;:core:config</title>
      <path d="M255.29,-71.7C257.41,-63.9 259.95,-54.51 262.31,-45.83" fill="none" stroke="black" />
      <polygon fill="black" points="265.71,-46.67 264.95,-36.1 258.95,-44.84 265.71,-46.67"
          stroke="black" />
    </g>
    <g class="edge" id="edge14">
      <title>:core:datastore-&gt;:core:common</title>
      <path d="M709.34,-75.59C666.43,-63.9 604.18,-46.94 559.02,-34.64" fill="none"
          stroke="black" />
      <polygon fill="black" points="559.94,-31.26 549.37,-32.01 558.1,-38.02 559.94,-31.26"
          stroke="black" />
    </g>
    <g class="node" id="node12">
      <title>:core:datastore-proto</title>
      <ellipse cx="740.59" cy="-18" fill="none" rx="108.58" ry="18" stroke="black" />
      <text font-family="Times,serif" font-size="14.00" text-anchor="middle" x="740.59" y="-14.3">
        :core:datastore-proto
      </text>
    </g>
    <g class="edge" id="edge12">
      <title>:core:datastore-&gt;:core:datastore-proto</title>
      <path d="M754.14,-71.7C752.14,-63.9 749.72,-54.51 747.49,-45.83" fill="none" stroke="black" />
      <polygon fill="black" points="750.87,-44.92 744.99,-36.1 744.09,-46.66 750.87,-44.92"
          stroke="black" />
    </g>
    <g class="node" id="node13">
      <title>:core:model</title>
      <ellipse cx="932.59" cy="-18" fill="none" rx="64.99" ry="18" stroke="black" />
      <text font-family="Times,serif" font-size="14.00" text-anchor="middle" x="932.59" y="-14.3">
        :core:model
      </text>
    </g>
    <g class="edge" id="edge13">
      <title>:core:datastore-&gt;:core:model</title>
      <path d="M795.92,-73.98C822.92,-63.12 859.53,-48.39 888.06,-36.91" fill="none"
          stroke="black" />
      <polygon fill="black" points="889.43,-40.14 897.4,-33.16 886.82,-33.64 889.43,-40.14"
          stroke="black" />
    </g>
  </g>
</svg>
