<?xml version="1.0" encoding="UTF-8" standalone="no"?>
<!DOCTYPE svg PUBLIC "-//W3C//DTD SVG 1.1//EN" "http://www.w3.org/Graphics/SVG/1.1/DTD/svg11.dtd">
<svg xmlns="http://www.w3.org/2000/svg" xmlns:xlink="http://www.w3.org/1999/xlink" width="364pt" height="188pt" viewBox="0.00 0.00 363.99 188.00">
  <g id="graph0" class="graph" transform="scale(1 1) rotate(0) translate(4 184)">
    <title>G</title>
    <polygon fill="white" stroke="transparent" points="-4,4 -4,-184 359.99,-184 359.99,4 -4,4"/>
    <g id="node1" class="node">
      <title>:core:feedback</title>
      <ellipse fill="none" stroke="black" cx="186.59" cy="-162" rx="77.99" ry="18"/>
      <text text-anchor="middle" x="186.59" y="-158.3" font-family="Times,serif" font-size="14.00">:core:feedback</text>
    </g>
    <g id="node2" class="node">
      <title>:core:designsystem</title>
      <ellipse fill="none" stroke="black" cx="186.59" cy="-90" rx="100.98" ry="18"/>
      <text text-anchor="middle" x="186.59" y="-86.3" font-family="Times,serif" font-size="14.00">:core:designsystem</text>
    </g>
    <g id="edge1" class="edge">
      <title>:core:feedback-&gt;:core:designsystem</title>
      <path fill="none" stroke="red" stroke-width="2" d="M186.59,-143.7C186.59,-135.98 186.59,-126.71 186.59,-118.11"/>
      <polygon fill="red" stroke="red" stroke-width="2" points="190.09,-118.1 186.59,-108.1 183.09,-118.1 190.09,-118.1"/>
    </g>
    <g id="node3" class="node">
      <title>:core:accessibility</title>
      <ellipse fill="none" stroke="black" cx="93.59" cy="-18" rx="93.68" ry="18"/>
      <text text-anchor="middle" x="93.59" y="-14.3" font-family="Times,serif" font-size="14.00">:core:accessibility</text>
    </g>
    <g id="edge2" class="edge">
      <title>:core:designsystem-&gt;:core:accessibility</title>
      <path fill="none" stroke="red" stroke-width="2" d="M164.55,-72.41C152.48,-63.32 137.33,-51.92 124.13,-41.99"/>
      <polygon fill="red" stroke="red" stroke-width="2" points="125.89,-38.93 115.8,-35.71 121.68,-44.52 125.89,-38.93"/>
    </g>
    <g id="node4" class="node">
      <title>:core:common</title>
      <ellipse fill="none" stroke="black" cx="280.59" cy="-18" rx="75.29" ry="18"/>
      <text text-anchor="middle" x="280.59" y="-14.3" font-family="Times,serif" font-size="14.00">:core:common</text>
    </g>
    <g id="edge3" class="edge">
      <title>:core:designsystem-&gt;:core:common</title>
      <path fill="none" stroke="black" d="M208.87,-72.41C221.28,-63.17 236.9,-51.54 250.4,-41.49"/>
      <polygon fill="black" stroke="black" points="252.54,-44.25 258.47,-35.47 248.36,-38.64 252.54,-44.25"/>
    </g>
  </g>
</svg>
