<?xml version="1.0" encoding="UTF-8" standalone="no"?>
<!DOCTYPE svg PUBLIC "-//W3C//DTD SVG 1.1//EN"
 "http://www.w3.org/Graphics/SVG/1.1/DTD/svg11.dtd">
<!-- Generated by graphviz version 2.43.0 (0)
 -->
<!-- Title: G Pages: 1 -->
<svg width="1000pt" height="260pt"
 viewBox="0.00 0.00 999.64 260.00" xmlns="http://www.w3.org/2000/svg" xmlns:xlink="http://www.w3.org/1999/xlink">
<g id="graph0" class="graph" transform="scale(1 1) rotate(0) translate(4 256)">
<title>G</title>
<polygon fill="white" stroke="transparent" points="-4,4 -4,-256 995.64,-256 995.64,4 -4,4"/>
<!-- :feature:settings -->
<g id="node1" class="node">
<title>:feature:settings</title>
<ellipse fill="none" stroke="black" cx="439.1" cy="-234" rx="87.99" ry="18"/>
<text text-anchor="middle" x="439.1" y="-230.3" font-family="Times,serif" font-size="14.00">:feature:settings</text>
</g>
<!-- :core:ui -->
<g id="node2" class="node">
<title>:core:ui</title>
<ellipse fill="none" stroke="black" cx="439.1" cy="-162" rx="45.49" ry="18"/>
<text text-anchor="middle" x="439.1" y="-158.3" font-family="Times,serif" font-size="14.00">:core:ui</text>
</g>
<!-- :feature:settings&#45;&gt;:core:ui -->
<g id="edge1" class="edge">
<title>:feature:settings&#45;&gt;:core:ui</title>
<path fill="none" stroke="black" d="M439.1,-215.7C439.1,-207.98 439.1,-198.71 439.1,-190.11"/>
<polygon fill="black" stroke="black" points="442.6,-190.1 439.1,-180.1 435.6,-190.1 442.6,-190.1"/>
</g>
<!-- :core:designsystem -->
<g id="node3" class="node">
<title>:core:designsystem</title>
<ellipse fill="none" stroke="black" cx="164.1" cy="-162" rx="100.98" ry="18"/>
<text text-anchor="middle" x="164.1" y="-158.3" font-family="Times,serif" font-size="14.00">:core:designsystem</text>
</g>
<!-- :feature:settings&#45;&gt;:core:designsystem -->
<g id="edge2" class="edge">
<title>:feature:settings&#45;&gt;:core:designsystem</title>
<path fill="none" stroke="black" d="M386.4,-219.59C341.7,-208.21 277.39,-191.84 229.42,-179.63"/>
<polygon fill="black" stroke="black" points="230,-176.16 219.45,-177.09 228.28,-182.95 230,-176.16"/>
</g>
<!-- :core:data -->
<g id="node4" class="node">
<title>:core:data</title>
<ellipse fill="none" stroke="black" cx="560.1" cy="-162" rx="57.39" ry="18"/>
<text text-anchor="middle" x="560.1" y="-158.3" font-family="Times,serif" font-size="14.00">:core:data</text>
</g>
<!-- :feature:settings&#45;&gt;:core:data -->
<g id="edge3" class="edge">
<title>:feature:settings&#45;&gt;:core:data</title>
<path fill="none" stroke="red" stroke-width="2" d="M467.16,-216.76C484.44,-206.77 506.73,-193.87 525.15,-183.22"/>
<polygon fill="red" stroke="red" stroke-width="2" points="526.94,-186.23 533.85,-178.19 523.44,-180.17 526.94,-186.23"/>
</g>
<!-- :core:feedback -->
<g id="node5" class="node">
<title>:core:feedback</title>
<ellipse fill="none" stroke="black" cx="302.1" cy="-90" rx="77.99" ry="18"/>
<text text-anchor="middle" x="302.1" y="-86.3" font-family="Times,serif" font-size="14.00">:core:feedback</text>
</g>
<!-- :feature:settings&#45;&gt;:core:feedback -->
<g id="edge4" class="edge">
<title>:feature:settings&#45;&gt;:core:feedback</title>
<path fill="none" stroke="black" d="M421.4,-216.01C410.76,-205.7 397.02,-192.23 385.1,-180 364.25,-158.61 341.12,-133.71 324.59,-115.7"/>
<polygon fill="black" stroke="black" points="326.82,-112.95 317.49,-107.94 321.66,-117.68 326.82,-112.95"/>
</g>
<!-- :core:config -->
<g id="node6" class="node">
<title>:core:config</title>
<ellipse fill="none" stroke="black" cx="700.1" cy="-162" rx="64.19" ry="18"/>
<text text-anchor="middle" x="700.1" y="-158.3" font-family="Times,serif" font-size="14.00">:core:config</text>
</g>
<!-- :feature:settings&#45;&gt;:core:config -->
<g id="edge5" class="edge">
<title>:feature:settings&#45;&gt;:core:config</title>
<path fill="none" stroke="black" d="M490.04,-219.34C534.82,-207.33 599.81,-189.9 645.62,-177.61"/>
<polygon fill="black" stroke="black" points="646.62,-180.97 655.38,-174.99 644.81,-174.2 646.62,-180.97"/>
</g>
<!-- :core:analytics -->
<g id="node7" class="node">
<title>:core:analytics</title>
<ellipse fill="none" stroke="black" cx="476.1" cy="-90" rx="77.99" ry="18"/>
<text text-anchor="middle" x="476.1" y="-86.3" font-family="Times,serif" font-size="14.00">:core:analytics</text>
</g>
<!-- :core:ui&#45;&gt;:core:analytics -->
<g id="edge6" class="edge">
<title>:core:ui&#45;&gt;:core:analytics</title>
<path fill="none" stroke="black" d="M448.06,-144.05C452.31,-136.01 457.49,-126.2 462.24,-117.23"/>
<polygon fill="black" stroke="black" points="465.39,-118.75 466.97,-108.28 459.2,-115.48 465.39,-118.75"/>
</g>
<!-- :core:designsystem&#45;&gt;:core:feedback -->
<g id="edge8" class="edge">
<title>:core:designsystem&#45;&gt;:core:feedback</title>
<path fill="none" stroke="black" d="M196.11,-144.76C215.8,-134.77 241.21,-121.88 262.22,-111.23"/>
<polygon fill="black" stroke="black" points="263.88,-114.31 271.22,-106.67 260.71,-108.07 263.88,-114.31"/>
</g>
<!-- :core:accessibility -->
<g id="node8" class="node">
<title>:core:accessibility</title>
<ellipse fill="none" stroke="black" cx="112.1" cy="-90" rx="93.68" ry="18"/>
<text text-anchor="middle" x="112.1" y="-86.3" font-family="Times,serif" font-size="14.00">:core:accessibility</text>
</g>
<!-- :core:designsystem&#45;&gt;:core:accessibility -->
<g id="edge7" class="edge">
<title>:core:designsystem&#45;&gt;:core:accessibility</title>
<path fill="none" stroke="black" d="M151.51,-144.05C145.35,-135.75 137.79,-125.58 130.95,-116.38"/>
<polygon fill="black" stroke="black" points="133.71,-114.22 124.93,-108.28 128.09,-118.39 133.71,-114.22"/>
</g>
<!-- :core:common -->
<g id="node9" class="node">
<title>:core:common</title>
<ellipse fill="none" stroke="black" cx="533.1" cy="-18" rx="75.29" ry="18"/>
<text text-anchor="middle" x="533.1" y="-14.3" font-family="Times,serif" font-size="14.00">:core:common</text>
</g>
<!-- :core:designsystem&#45;&gt;:core:common -->
<g id="edge9" class="edge">
<title>:core:designsystem&#45;&gt;:core:common</title>
<path fill="none" stroke="black" d="M99.95,-148.11C43.82,-134.07 -23.99,-108.6 9.1,-72 37.94,-40.09 307.48,-26.46 448.3,-21.47"/>
<polygon fill="black" stroke="black" points="448.75,-24.96 458.62,-21.11 448.51,-17.96 448.75,-24.96"/>
</g>
<!-- :core:data&#45;&gt;:core:analytics -->
<g id="edge12" class="edge">
<title>:core:data&#45;&gt;:core:analytics</title>
<path fill="none" stroke="black" d="M540.62,-144.76C529.75,-135.71 516.02,-124.27 504.03,-114.28"/>
<polygon fill="black" stroke="black" points="505.98,-111.35 496.06,-107.63 501.5,-116.72 505.98,-111.35"/>
</g>
<!-- :core:data&#45;&gt;:core:common -->
<g id="edge10" class="edge">
<title>:core:data&#45;&gt;:core:common</title>
<path fill="none" stroke="black" d="M563.54,-143.95C566.55,-125.79 569.52,-96.37 563.1,-72 560.61,-62.54 556,-52.99 551.13,-44.66"/>
<polygon fill="black" stroke="black" points="554.09,-42.79 545.83,-36.15 548.15,-46.49 554.09,-42.79"/>
</g>
<!-- :core:datastore -->
<g id="node10" class="node">
<title>:core:datastore</title>
<ellipse fill="none" stroke="black" cx="691.1" cy="-90" rx="81.49" ry="18"/>
<text text-anchor="middle" x="691.1" y="-86.3" font-family="Times,serif" font-size="14.00">:core:datastore</text>
</g>
<!-- :core:data&#45;&gt;:core:datastore -->
<g id="edge11" class="edge">
<title>:core:data&#45;&gt;:core:datastore</title>
<path fill="none" stroke="red" stroke-width="2" d="M587.88,-146.15C606.72,-136.09 631.88,-122.64 652.64,-111.55"/>
<polygon fill="red" stroke="red" stroke-width="2" points="654.37,-114.6 661.54,-106.8 651.07,-108.42 654.37,-114.6"/>
</g>
<!-- :core:datastore&#45;&gt;:core:common -->
<g id="edge15" class="edge">
<title>:core:datastore&#45;&gt;:core:common</title>
<path fill="none" stroke="black" d="M656.43,-73.64C632.91,-63.22 601.64,-49.36 576.47,-38.21"/>
<polygon fill="black" stroke="black" points="577.71,-34.94 567.15,-34.09 574.88,-41.34 577.71,-34.94"/>
</g>
<!-- :core:datastore&#45;proto -->
<g id="node11" class="node">
<title>:core:datastore&#45;proto</title>
<ellipse fill="none" stroke="black" cx="883.1" cy="-18" rx="108.58" ry="18"/>
<text text-anchor="middle" x="883.1" y="-14.3" font-family="Times,serif" font-size="14.00">:core:datastore&#45;proto</text>
</g>
<!-- :core:datastore&#45;&gt;:core:datastore&#45;proto -->
<g id="edge13" class="edge">
<title>:core:datastore&#45;&gt;:core:datastore&#45;proto</title>
<path fill="none" stroke="red" stroke-width="2" d="M731.35,-74.33C760.25,-63.79 799.46,-49.49 830.79,-38.07"/>
<polygon fill="red" stroke="red" stroke-width="2" points="832.04,-41.34 840.24,-34.63 829.64,-34.76 832.04,-41.34"/>
</g>
<!-- :core:model -->
<g id="node12" class="node">
<title>:core:model</title>
<ellipse fill="none" stroke="black" cx="691.1" cy="-18" rx="64.99" ry="18"/>
<text text-anchor="middle" x="691.1" y="-14.3" font-family="Times,serif" font-size="14.00">:core:model</text>
</g>
<!-- :core:datastore&#45;&gt;:core:model -->
<g id="edge14" class="edge">
<title>:core:datastore&#45;&gt;:core:model</title>
<path fill="none" stroke="black" d="M691.1,-71.7C691.1,-63.98 691.1,-54.71 691.1,-46.11"/>
<polygon fill="black" stroke="black" points="694.6,-46.1 691.1,-36.1 687.6,-46.1 694.6,-46.1"/>
</g>
</g>
</svg>
