<svg viewBox="-0.939962 -0.952272 1.896 1.905" xmlns="http://www.w3.org/2000/svg">
    <path style="fill: #881229"
        d="M 0.9204531, -0.1157132 C 0.9204531, -0.1157132, 0.9204531, -0.1157132, 0.9204531, -0.115713224 C 0.96836925, -0.04601179, 0.9683693, 0.04601176, 0.92045313, 0.11571321 C 0.92045313, 0.11571321, 0.92045313, 0.11571321, 0.92045313, 0.11571321 C 0.9204531, 0.11571321, 0.9204531, 0.115713224, 0.92045313, 0.11571323 C 0.92045313, 0.11571323, 0.92045313, 0.11571323, 0.92045313, 0.11571323 C 0.88975495, 0.16036847, 0.87805927, 0.21539207, 0.8879405, 0.26867273 C 0.8879406, 0.26867273, 0.8879406, 0.26867273, 0.8879406, 0.26867273 C 0.8879405, 0.2686727, 0.8879405, 0.2686727, 0.8879405, 0.2686727 C 0.8879406, 0.2686727, 0.8879405, 0.2686727, 0.88794065, 0.26867267 C 0.9033641, 0.35183746, 0.8659347, 0.43590513, 0.79381096, 0.48009133 C 0.79381096, 0.4800913, 0.793811, 0.4800913, 0.79381096, 0.4800913 C 0.79381096, 0.48009127, 0.79381096, 0.4800913, 0.79381096, 0.4800913 C 0.793811, 0.4800913, 0.79381096, 0.4800913, 0.79381096, 0.48009127 C 0.74760383, 0.5083998, 0.71453923, 0.5539093, 0.701895, 0.60660267 C 0.70189506, 0.60660267, 0.70189506, 0.60660267, 0.70189506, 0.60660267 C 0.701895, 0.60660267, 0.701895, 0.6066027, 0.701895, 0.6066028 C 0.701895, 0.6066028, 0.701895, 0.6066028, 0.701895, 0.6066028 C 0.6821589, 0.6888508, 0.6137721, 0.75042653, 0.52991164, 0.76145726 C 0.52991164, 0.76145726, 0.52991164, 0.76145726, 0.52991164, 0.76145726 C 0.52991164, 0.76145726, 0.52991164, 0.7614573, 0.52991164, 0.76145726 C 0.52991164, 0.76145726, 0.52991164, 0.76145726, 0.52991164, 0.76145726 C 0.47618523, 0.7685242, 0.42746887, 0.7966507, 0.39448547, 0.8396456 C 0.39448544, 0.8396456, 0.39448544, 0.8396456, 0.39448544, 0.8396456 C 0.3944854, 0.8396456, 0.3944854, 0.8396456, 0.39448544, 0.8396456 C 0.39448544, 0.8396456, 0.39448544, 0.8396456, 0.39448544, 0.8396456 C 0.34300232, 0.90675557, 0.25548276, 0.9351924, 0.17438582, 0.91116035 C 0.17438583, 0.9111603, 0.17438583, 0.9111603, 0.17438583, 0.9111603 C 0.17438582, 0.9111603, 0.1743858, 0.91116035, 0.17438579, 0.9111603 C 0.17438579, 0.9111603, 0.17438579, 0.9111603, 0.17438579, 0.91116023 C 0.12242979, 0.89576375, 0.06648525, 0.90164375, 0.018865734, 0.9275061 C 0.01886575, 0.9275061, 0.01886575, 0.92750615, 0.01886575, 0.9275061 C 0.018865746, 0.927506, 0.018865744, 0.9275061, 0.018865742, 0.9275061 C 0.018865742, 0.92750615, 0.018865742, 0.9275061, 0.01886575, 0.9275061 C -0.055462494, 0.967874, -0.1469819, 0.95825493, -0.21129292, 0.9033154 C -0.21129291, 0.9033154, -0.21129291, 0.90331537, -0.21129291, 0.9033154 C -0.21129291, 0.90331537, -0.21129292, 0.9033154, -0.21129292, 0.9033154 C -0.21129292, 0.90331537, -0.21129292, 0.9033154, -0.21129294, 0.9033154 C -0.2524947, 0.8681177, -0.30599436, 0.8507346, -0.360016, 0.8549924 C -0.360016, 0.8549924, -0.360016, 0.8549924, -0.360016, 0.8549924 C -0.360016, 0.85499233, -0.360016, 0.8549924, -0.36001602, 0.8549924 C -0.36001602, 0.8549924, -0.36001602, 0.8549924, -0.36001602, 0.85499233 C -0.44433734, 0.86163825, -0.52403206, 0.8156265, -0.5604372, 0.73927915 C -0.5604372, 0.73927915, -0.5604372, 0.7392791, -0.5604372, 0.73927915 C -0.5604372, 0.73927915, -0.5604372, 0.73927915, -0.5604372, 0.73927915 C -0.5604372, 0.7392791, -0.5604372, 0.73927915, -0.5604372, 0.73927915 C -0.5837607, 0.69036615, -0.6255647, 0.65272564, -0.6766477, 0.6346427 C -0.6766477, 0.6346427, -0.6766477, 0.6346427, -0.6766477, 0.6346427 C -0.6766477, 0.63464266, -0.6766478, 0.63464266, -0.6766478, 0.63464266 C -0.67664784, 0.63464266, -0.6766478, 0.63464266, -0.6766478, 0.63464266 C -0.7563822, 0.6064174, -0.81047225, 0.53196883, -0.8126767, 0.44741476 C -0.8126768, 0.44741476, -0.8126767, 0.44741476, -0.8126768, 0.44741476 C -0.8126767, 0.44741476, -0.8126768, 0.44741476, -0.8126768, 0.44741476 C -0.8126767, 0.44741476, -0.8126768, 0.44741476, -0.8126767, 0.44741476 C -0.81408906, 0.39324388, -0.83696914, 0.34185442, -0.8762809, 0.30455747 C -0.8762809, 0.3045575, -0.87628096, 0.3045575, -0.8762809, 0.3045575 C -0.87628084, 0.3045575, -0.8762809, 0.3045575, -0.8762809, 0.3045575 C -0.87628096, 0.3045575, -0.8762809, 0.3045575, -0.8762809, 0.3045575 C -0.93764174, 0.2463415, -0.95677453, 0.15632893, -0.9243972, 0.07818826 C -0.9243971, 0.078188285, -0.9243972, 0.078188285, -0.9243971, 0.078188285 C -0.9243971, 0.07818828, -0.9243971, 0.07818827, -0.9243971, 0.07818827 C -0.9243972, 0.07818827, -0.9243971, 0.07818827, -0.9243971, 0.07818827 C -0.90365404, 0.028126273, -0.9036541, -0.028126437, -0.9243971, -0.07818844 C -0.9243971, -0.07818843, -0.9243972, -0.07818843, -0.9243971, -0.07818843 C -0.9243971, -0.078188434, -0.9243971, -0.07818844, -0.9243971, -0.07818845 C -0.9243972, -0.07818845, -0.9243971, -0.07818845, -0.9243971, -0.07818845 C -0.9567745, -0.15632911, -0.9376417, -0.24634166, -0.87628084, -0.30455765 C -0.87628084, -0.30455765, -0.87628084, -0.30455765, -0.87628084, -0.30455765 C -0.87628084, -0.30455765, -0.8762809, -0.30455765, -0.87628084, -0.30455765 C -0.87628084, -0.30455765, -0.87628084, -0.30455765, -0.87628084, -0.30455768 C -0.83696914, -0.34185457, -0.81408906, -0.3932441, -0.8126767, -0.44741488 C -0.81267667, -0.44741488, -0.81267667, -0.44741488, -0.81267667, -0.44741488 C -0.81267667, -0.44741488, -0.81267667, -0.44741488, -0.81267667, -0.4474149 C -0.81267667, -0.4474149, -0.81267667, -0.4474149, -0.81267667, -0.4474149 C -0.8104722, -0.53196895, -0.7563821, -0.6064176, -0.6766476, -0.6346428 C -0.6766476, -0.6346428, -0.6766476, -0.6346428, -0.6766476, -0.6346428 C -0.6766476, -0.6346428, -0.6766476, -0.6346428, -0.6766476, -0.6346428 C -0.6766476, -0.6346428, -0.6766476, -0.6346428, -0.6766476, -0.6346428 C -0.6255646, -0.65272564, -0.5837605, -0.6903662, -0.560437, -0.7392792 C -0.560437, -0.7392792, -0.560437, -0.7392792, -0.560437, -0.7392792 C -0.56043696, -0.7392792, -0.560437, -0.73927927, -0.560437, -0.73927927 C -0.560437, -0.73927927, -0.560437, -0.73927927, -0.560437, -0.73927927 C -0.5240319, -0.8156266, -0.44433722, -0.8616383, -0.36001593, -0.8549924 C -0.36001593, -0.8549924, -0.36001596, -0.8549924, -0.36001593, -0.8549924 C -0.36001593, -0.85499233, -0.36001596, -0.8549924, -0.36001596, -0.8549924 C -0.36001596, -0.8549924, -0.36001596, -0.8549924, -0.36001596, -0.8549924 C -0.3059944, -0.8507346, -0.25249475, -0.86811763, -0.21129303, -0.9033153 C -0.21129301, -0.9033153, -0.21129303, -0.9033153, -0.21129301, -0.9033153 C -0.21129295, -0.9033153, -0.21129292, -0.9033154, -0.21129286, -0.9033155 C -0.21129286, -0.9033155, -0.21129286, -0.9033155, -0.21129283, -0.9033154 C -0.14698173, -0.9582549, -0.05546231, -0.967874, 0.018865988, -0.9275061 C 0.018865995, -0.9275061, 0.018865995, -0.92750615, 0.018865995, -0.9275061 C 0.018866066, -0.92750597, 0.018866139, -0.92750597, 0.018866211, -0.92750597 C 0.018866211, -0.92750597, 0.018866211, -0.92750597, 0.018866211, -0.92750597 C 0.06648566, -0.9016437, 0.12243015, -0.89576375, 0.17438605, -0.91116023 C 0.17438605, -0.91116023, 0.17438607, -0.91116023, 0.17438605, -0.91116023 C 0.17438605, -0.91116023, 0.17438607, -0.91116023, 0.17438607, -0.91116023 C 0.17438607, -0.91116023, 0.17438607, -0.91116023, 0.17438607, -0.91116023 C 0.25548297, -0.9351923, 0.3430024, -0.9067555, 0.39448547, -0.83964556 C 0.39448547, -0.83964556, 0.39448547, -0.83964556, 0.39448547, -0.83964556 C 0.39448547, -0.8396455, 0.39448547, -0.83964556, 0.39448547, -0.83964556 C 0.39448547, -0.83964556, 0.39448547, -0.83964556, 0.39448547, -0.83964556 C 0.42746884, -0.7966506, 0.47618505, -0.7685243, 0.52991146, -0.76145726 C 0.52991146, -0.76145726, 0.52991146, -0.76145726, 0.52991146, -0.76145726 C 0.5299115, -0.7614572, 0.52991164, -0.7614572, 0.52991176, -0.7614572 C 0.52991176, -0.7614572, 0.52991176, -0.7614572, 0.52991176, -0.7614572 C 0.6137723, -0.7504264, 0.68215907, -0.68885064, 0.7018952, -0.60660255 C 0.7018952, -0.60660255, 0.7018952, -0.60660255, 0.7018952, -0.60660255 C 0.7018952, -0.6066025, 0.70189524, -0.60660243, 0.70189524, -0.6066024 C 0.70189524, -0.6066024, 0.70189524, -0.6066024, 0.70189524, -0.6066024 C 0.71453947, -0.55390906, 0.747604, -0.5083996, 0.7938111, -0.48009112 C 0.7938111, -0.4800911, 0.7938111, -0.4800911, 0.7938111, -0.4800911 C 0.7938111, -0.48009107, 0.79381114, -0.4800911, 0.79381114, -0.48009107 C 0.79381114, -0.48009107, 0.79381114, -0.48009107, 0.79381114, -0.48009104 C 0.8659348, -0.4359049, 0.90336406, -0.35183734, 0.8879405, -0.26867273 C 0.8879406, -0.26867273, 0.8879406, -0.26867273, 0.8879406, -0.26867273 C 0.8879406, -0.2686727, 0.88794065, -0.2686727, 0.8879406, -0.2686727 C 0.8879406, -0.2686727, 0.8879406, -0.2686727, 0.8879405, -0.2686727 C 0.8780592, -0.21539208, 0.88975483, -0.16036853, 0.920453, -0.11571332 C 0.920453, -0.11571332, 0.920453, -0.11571332, 0.920453, -0.11571332 C 0.920453, -0.115713276, 0.9204531, -0.11571324, 0.9204531, -0.1157132"
        fill="#000000" />
</svg>